G04 EAGLE Gerber RS-274X export*
G75*
%MOMM*%
%FSLAX34Y34*%
%LPD*%
%INSoldermask Top*%
%IPPOS*%
%AMOC8*
5,1,8,0,0,1.08239X$1,22.5*%
G01*
%ADD10C,0.253525*%
%ADD11C,0.253344*%
%ADD12C,0.255816*%
%ADD13C,0.802400*%
%ADD14C,2.152400*%
%ADD15C,0.252862*%
%ADD16C,0.257147*%
%ADD17C,0.265238*%
%ADD18C,0.952400*%
%ADD19C,3.454400*%
%ADD20C,0.246888*%
%ADD21C,2.032000*%
%ADD22C,0.787400*%
%ADD23C,0.449434*%
%ADD24C,0.254103*%

G36*
X60304Y164154D02*
X60304Y164154D01*
X60307Y164151D01*
X61429Y164306D01*
X61434Y164311D01*
X61438Y164308D01*
X62509Y164679D01*
X62513Y164685D01*
X62518Y164683D01*
X63495Y165256D01*
X63498Y165262D01*
X63503Y165261D01*
X64350Y166014D01*
X64352Y166021D01*
X64357Y166021D01*
X65041Y166924D01*
X65041Y166931D01*
X65046Y166932D01*
X65541Y167951D01*
X65539Y167958D01*
X65544Y167960D01*
X65831Y169057D01*
X65829Y169061D01*
X65831Y169062D01*
X65829Y169064D01*
X65832Y169066D01*
X65899Y170197D01*
X65897Y170201D01*
X65899Y170203D01*
X65832Y171334D01*
X65827Y171339D01*
X65831Y171343D01*
X65544Y172440D01*
X65538Y172444D01*
X65541Y172449D01*
X65046Y173468D01*
X65040Y173471D01*
X65041Y173476D01*
X64357Y174379D01*
X64350Y174381D01*
X64350Y174386D01*
X63503Y175139D01*
X63496Y175139D01*
X63495Y175144D01*
X62518Y175717D01*
X62511Y175716D01*
X62509Y175721D01*
X61438Y176092D01*
X61432Y176089D01*
X61429Y176094D01*
X60307Y176249D01*
X60302Y176246D01*
X60300Y176249D01*
X48300Y176249D01*
X48295Y176246D01*
X48292Y176249D01*
X47025Y176044D01*
X47019Y176038D01*
X47015Y176041D01*
X45825Y175559D01*
X45821Y175552D01*
X45815Y175554D01*
X44762Y174820D01*
X44760Y174812D01*
X44754Y174813D01*
X43891Y173863D01*
X43890Y173854D01*
X43885Y173854D01*
X43255Y172735D01*
X43256Y172727D01*
X43250Y172725D01*
X42885Y171495D01*
X42888Y171487D01*
X42883Y171484D01*
X42801Y170203D01*
X42804Y170199D01*
X42801Y170197D01*
X42883Y168916D01*
X42889Y168910D01*
X42885Y168905D01*
X43250Y167675D01*
X43257Y167670D01*
X43255Y167665D01*
X43885Y166546D01*
X43892Y166543D01*
X43891Y166537D01*
X44754Y165587D01*
X44762Y165586D01*
X44762Y165580D01*
X45815Y164846D01*
X45823Y164846D01*
X45825Y164841D01*
X47015Y164359D01*
X47022Y164361D01*
X47025Y164356D01*
X48292Y164151D01*
X48297Y164154D01*
X48300Y164151D01*
X60300Y164151D01*
X60304Y164154D01*
G37*
G36*
X60304Y77754D02*
X60304Y77754D01*
X60307Y77751D01*
X61429Y77906D01*
X61434Y77911D01*
X61438Y77908D01*
X62509Y78279D01*
X62513Y78285D01*
X62518Y78283D01*
X63495Y78856D01*
X63498Y78862D01*
X63503Y78861D01*
X64350Y79614D01*
X64352Y79621D01*
X64357Y79621D01*
X65041Y80524D01*
X65041Y80531D01*
X65046Y80532D01*
X65541Y81551D01*
X65539Y81558D01*
X65544Y81560D01*
X65831Y82657D01*
X65829Y82661D01*
X65831Y82662D01*
X65829Y82664D01*
X65832Y82666D01*
X65899Y83797D01*
X65897Y83801D01*
X65899Y83803D01*
X65832Y84934D01*
X65827Y84939D01*
X65831Y84943D01*
X65544Y86040D01*
X65538Y86044D01*
X65541Y86049D01*
X65046Y87068D01*
X65040Y87071D01*
X65041Y87076D01*
X64357Y87979D01*
X64350Y87981D01*
X64350Y87986D01*
X63503Y88739D01*
X63496Y88739D01*
X63495Y88744D01*
X62518Y89317D01*
X62511Y89316D01*
X62509Y89321D01*
X61438Y89692D01*
X61432Y89689D01*
X61429Y89694D01*
X60307Y89849D01*
X60302Y89846D01*
X60300Y89849D01*
X48300Y89849D01*
X48295Y89846D01*
X48292Y89849D01*
X47025Y89644D01*
X47019Y89638D01*
X47015Y89641D01*
X45825Y89159D01*
X45821Y89152D01*
X45815Y89154D01*
X44762Y88420D01*
X44760Y88412D01*
X44754Y88413D01*
X43891Y87463D01*
X43890Y87454D01*
X43885Y87454D01*
X43255Y86335D01*
X43256Y86327D01*
X43250Y86325D01*
X42885Y85095D01*
X42888Y85087D01*
X42883Y85084D01*
X42801Y83803D01*
X42804Y83799D01*
X42801Y83797D01*
X42883Y82516D01*
X42889Y82510D01*
X42885Y82505D01*
X43250Y81275D01*
X43257Y81270D01*
X43255Y81265D01*
X43885Y80146D01*
X43892Y80143D01*
X43891Y80137D01*
X44754Y79187D01*
X44762Y79186D01*
X44762Y79180D01*
X45815Y78446D01*
X45823Y78446D01*
X45825Y78441D01*
X47015Y77959D01*
X47022Y77961D01*
X47025Y77956D01*
X48292Y77751D01*
X48297Y77754D01*
X48300Y77751D01*
X60300Y77751D01*
X60304Y77754D01*
G37*
G36*
X15503Y164153D02*
X15503Y164153D01*
X15505Y164151D01*
X16681Y164262D01*
X16686Y164267D01*
X16690Y164264D01*
X17822Y164602D01*
X17826Y164608D01*
X17831Y164606D01*
X18875Y165158D01*
X18878Y165165D01*
X18883Y165163D01*
X19799Y165909D01*
X19800Y165916D01*
X19806Y165916D01*
X20559Y166826D01*
X20559Y166833D01*
X20564Y166834D01*
X21125Y167873D01*
X21124Y167878D01*
X21128Y167880D01*
X21127Y167881D01*
X21129Y167882D01*
X21476Y169011D01*
X21476Y169012D01*
X21477Y169013D01*
X21474Y169017D01*
X21478Y169020D01*
X21599Y170195D01*
X21595Y170202D01*
X21599Y170206D01*
X21442Y171546D01*
X21437Y171552D01*
X21440Y171557D01*
X20989Y172828D01*
X20982Y172833D01*
X20984Y172838D01*
X20262Y173977D01*
X20254Y173980D01*
X20255Y173986D01*
X19297Y174936D01*
X19289Y174937D01*
X19288Y174943D01*
X18143Y175656D01*
X18135Y175655D01*
X18133Y175661D01*
X16857Y176101D01*
X16850Y176099D01*
X16847Y176103D01*
X15505Y176249D01*
X15502Y176247D01*
X15500Y176249D01*
X9500Y176249D01*
X9497Y176247D01*
X9494Y176249D01*
X8165Y176094D01*
X8159Y176088D01*
X8155Y176091D01*
X6894Y175644D01*
X6889Y175637D01*
X6884Y175639D01*
X5754Y174922D01*
X5751Y174915D01*
X5745Y174916D01*
X4803Y173966D01*
X4802Y173957D01*
X4796Y173957D01*
X4089Y172821D01*
X4090Y172813D01*
X4084Y172811D01*
X3648Y171546D01*
X3650Y171538D01*
X3645Y171536D01*
X3501Y170205D01*
X3505Y170199D01*
X3501Y170195D01*
X3611Y169029D01*
X3616Y169024D01*
X3613Y169020D01*
X3948Y167897D01*
X3954Y167893D01*
X3952Y167889D01*
X4500Y166853D01*
X4506Y166850D01*
X4505Y166845D01*
X5244Y165937D01*
X5251Y165935D01*
X5251Y165930D01*
X6153Y165183D01*
X6161Y165183D01*
X6161Y165178D01*
X7192Y164621D01*
X7199Y164622D01*
X7201Y164617D01*
X8320Y164273D01*
X8327Y164275D01*
X8330Y164271D01*
X9495Y164151D01*
X9498Y164153D01*
X9500Y164151D01*
X15500Y164151D01*
X15503Y164153D01*
G37*
G36*
X15503Y77753D02*
X15503Y77753D01*
X15505Y77751D01*
X16681Y77862D01*
X16686Y77867D01*
X16690Y77864D01*
X17822Y78202D01*
X17826Y78208D01*
X17831Y78206D01*
X18875Y78758D01*
X18878Y78765D01*
X18883Y78763D01*
X19799Y79509D01*
X19800Y79516D01*
X19806Y79516D01*
X20559Y80426D01*
X20559Y80433D01*
X20564Y80434D01*
X21125Y81473D01*
X21124Y81478D01*
X21128Y81480D01*
X21127Y81481D01*
X21129Y81482D01*
X21476Y82611D01*
X21476Y82612D01*
X21477Y82613D01*
X21474Y82617D01*
X21478Y82620D01*
X21599Y83795D01*
X21595Y83802D01*
X21599Y83806D01*
X21442Y85146D01*
X21437Y85152D01*
X21440Y85157D01*
X20989Y86428D01*
X20982Y86433D01*
X20984Y86438D01*
X20262Y87577D01*
X20254Y87580D01*
X20255Y87586D01*
X19297Y88536D01*
X19289Y88537D01*
X19288Y88543D01*
X18143Y89256D01*
X18135Y89255D01*
X18133Y89261D01*
X16857Y89701D01*
X16850Y89699D01*
X16847Y89703D01*
X15505Y89849D01*
X15502Y89847D01*
X15500Y89849D01*
X9500Y89849D01*
X9497Y89847D01*
X9494Y89849D01*
X8165Y89694D01*
X8159Y89688D01*
X8155Y89691D01*
X6894Y89244D01*
X6889Y89237D01*
X6884Y89239D01*
X5754Y88522D01*
X5751Y88515D01*
X5745Y88516D01*
X4803Y87566D01*
X4802Y87557D01*
X4796Y87557D01*
X4089Y86421D01*
X4090Y86413D01*
X4084Y86411D01*
X3648Y85146D01*
X3650Y85138D01*
X3645Y85136D01*
X3501Y83805D01*
X3505Y83799D01*
X3501Y83795D01*
X3611Y82629D01*
X3616Y82624D01*
X3613Y82620D01*
X3948Y81497D01*
X3954Y81493D01*
X3952Y81489D01*
X4500Y80453D01*
X4506Y80450D01*
X4505Y80445D01*
X5244Y79537D01*
X5251Y79535D01*
X5251Y79530D01*
X6153Y78783D01*
X6161Y78783D01*
X6161Y78778D01*
X7192Y78221D01*
X7199Y78222D01*
X7201Y78217D01*
X8320Y77873D01*
X8327Y77875D01*
X8330Y77871D01*
X9495Y77751D01*
X9498Y77753D01*
X9500Y77751D01*
X15500Y77751D01*
X15503Y77753D01*
G37*
D10*
X155905Y225475D02*
X165895Y225475D01*
X165895Y216485D01*
X155905Y216485D01*
X155905Y225475D01*
X155905Y218893D02*
X165895Y218893D01*
X165895Y221301D02*
X155905Y221301D01*
X155905Y223709D02*
X165895Y223709D01*
X148895Y225475D02*
X138905Y225475D01*
X148895Y225475D02*
X148895Y216485D01*
X138905Y216485D01*
X138905Y225475D01*
X138905Y218893D02*
X148895Y218893D01*
X148895Y221301D02*
X138905Y221301D01*
X138905Y223709D02*
X148895Y223709D01*
X155905Y167055D02*
X165895Y167055D01*
X165895Y158065D01*
X155905Y158065D01*
X155905Y167055D01*
X155905Y160473D02*
X165895Y160473D01*
X165895Y162881D02*
X155905Y162881D01*
X155905Y165289D02*
X165895Y165289D01*
X148895Y167055D02*
X138905Y167055D01*
X148895Y167055D02*
X148895Y158065D01*
X138905Y158065D01*
X138905Y167055D01*
X138905Y160473D02*
X148895Y160473D01*
X148895Y162881D02*
X138905Y162881D01*
X138905Y165289D02*
X148895Y165289D01*
D11*
X55604Y120496D02*
X55604Y118504D01*
X55604Y120496D02*
X64596Y120496D01*
X64596Y118504D01*
X55604Y118504D01*
X55604Y123504D02*
X55604Y125496D01*
X64596Y125496D01*
X64596Y123504D01*
X55604Y123504D01*
D12*
X55617Y97233D02*
X55617Y92267D01*
X55617Y97233D02*
X64583Y97233D01*
X64583Y92267D01*
X55617Y92267D01*
X55617Y94697D02*
X64583Y94697D01*
X64583Y97127D02*
X55617Y97127D01*
X55617Y100017D02*
X55617Y104983D01*
X64583Y104983D01*
X64583Y100017D01*
X55617Y100017D01*
X55617Y102447D02*
X64583Y102447D01*
X64583Y104877D02*
X55617Y104877D01*
D11*
X55604Y108504D02*
X55604Y110496D01*
X64596Y110496D01*
X64596Y108504D01*
X55604Y108504D01*
X55604Y113504D02*
X55604Y115496D01*
X64596Y115496D01*
X64596Y113504D01*
X55604Y113504D01*
X64596Y133504D02*
X64596Y135496D01*
X64596Y133504D02*
X55604Y133504D01*
X55604Y135496D01*
X64596Y135496D01*
X64596Y130496D02*
X64596Y128504D01*
X55604Y128504D01*
X55604Y130496D01*
X64596Y130496D01*
D12*
X64583Y156767D02*
X64583Y161733D01*
X64583Y156767D02*
X55617Y156767D01*
X55617Y161733D01*
X64583Y161733D01*
X64583Y159197D02*
X55617Y159197D01*
X55617Y161627D02*
X64583Y161627D01*
X64583Y153983D02*
X64583Y149017D01*
X55617Y149017D01*
X55617Y153983D01*
X64583Y153983D01*
X64583Y151447D02*
X55617Y151447D01*
X55617Y153877D02*
X64583Y153877D01*
D11*
X64596Y145496D02*
X64596Y143504D01*
X55604Y143504D01*
X55604Y145496D01*
X64596Y145496D01*
X64596Y140496D02*
X64596Y138504D01*
X55604Y138504D01*
X55604Y140496D01*
X64596Y140496D01*
D13*
X49050Y155900D03*
X49050Y98100D03*
D14*
X301640Y40190D03*
X408640Y214190D03*
D15*
X164148Y210269D02*
X159652Y210269D01*
X164148Y210269D02*
X164148Y199273D01*
X159652Y199273D01*
X159652Y210269D01*
X159652Y201676D02*
X164148Y201676D01*
X164148Y204079D02*
X159652Y204079D01*
X159652Y206482D02*
X164148Y206482D01*
X164148Y208885D02*
X159652Y208885D01*
X154648Y210269D02*
X150152Y210269D01*
X154648Y210269D02*
X154648Y199273D01*
X150152Y199273D01*
X150152Y210269D01*
X150152Y201676D02*
X154648Y201676D01*
X154648Y204079D02*
X150152Y204079D01*
X150152Y206482D02*
X154648Y206482D01*
X154648Y208885D02*
X150152Y208885D01*
X145148Y210269D02*
X140652Y210269D01*
X145148Y210269D02*
X145148Y199273D01*
X140652Y199273D01*
X140652Y210269D01*
X140652Y201676D02*
X145148Y201676D01*
X145148Y204079D02*
X140652Y204079D01*
X140652Y206482D02*
X145148Y206482D01*
X145148Y208885D02*
X140652Y208885D01*
X140652Y184267D02*
X145148Y184267D01*
X145148Y173271D01*
X140652Y173271D01*
X140652Y184267D01*
X140652Y175674D02*
X145148Y175674D01*
X145148Y178077D02*
X140652Y178077D01*
X140652Y180480D02*
X145148Y180480D01*
X145148Y182883D02*
X140652Y182883D01*
X159652Y184267D02*
X164148Y184267D01*
X164148Y173271D01*
X159652Y173271D01*
X159652Y184267D01*
X159652Y175674D02*
X164148Y175674D01*
X164148Y178077D02*
X159652Y178077D01*
X159652Y180480D02*
X164148Y180480D01*
X164148Y182883D02*
X159652Y182883D01*
D10*
X98475Y98095D02*
X98475Y88105D01*
X89485Y88105D01*
X89485Y98095D01*
X98475Y98095D01*
X98475Y90513D02*
X89485Y90513D01*
X89485Y92921D02*
X98475Y92921D01*
X98475Y95329D02*
X89485Y95329D01*
X89485Y97737D02*
X98475Y97737D01*
X98475Y105105D02*
X98475Y115095D01*
X98475Y105105D02*
X89485Y105105D01*
X89485Y115095D01*
X98475Y115095D01*
X98475Y107513D02*
X89485Y107513D01*
X89485Y109921D02*
X98475Y109921D01*
X98475Y112329D02*
X89485Y112329D01*
X89485Y114737D02*
X98475Y114737D01*
X89485Y155905D02*
X89485Y165895D01*
X98475Y165895D01*
X98475Y155905D01*
X89485Y155905D01*
X89485Y158313D02*
X98475Y158313D01*
X98475Y160721D02*
X89485Y160721D01*
X89485Y163129D02*
X98475Y163129D01*
X98475Y165537D02*
X89485Y165537D01*
X89485Y148895D02*
X89485Y138905D01*
X89485Y148895D02*
X98475Y148895D01*
X98475Y138905D01*
X89485Y138905D01*
X89485Y141313D02*
X98475Y141313D01*
X98475Y143721D02*
X89485Y143721D01*
X89485Y146129D02*
X98475Y146129D01*
X98475Y148537D02*
X89485Y148537D01*
D16*
X351783Y209223D02*
X351783Y216177D01*
X359737Y216177D01*
X359737Y209223D01*
X351783Y209223D01*
X351783Y211665D02*
X359737Y211665D01*
X359737Y214107D02*
X351783Y214107D01*
X351783Y197177D02*
X351783Y190223D01*
X351783Y197177D02*
X359737Y197177D01*
X359737Y190223D01*
X351783Y190223D01*
X351783Y192665D02*
X359737Y192665D01*
X359737Y195107D02*
X351783Y195107D01*
X372783Y199723D02*
X372783Y206677D01*
X380737Y206677D01*
X380737Y199723D01*
X372783Y199723D01*
X372783Y202165D02*
X380737Y202165D01*
X380737Y204607D02*
X372783Y204607D01*
D17*
X403024Y88136D02*
X433896Y88136D01*
X433896Y64264D01*
X403024Y64264D01*
X403024Y88136D01*
X403024Y66783D02*
X433896Y66783D01*
X433896Y69302D02*
X403024Y69302D01*
X403024Y71821D02*
X433896Y71821D01*
X433896Y74340D02*
X403024Y74340D01*
X403024Y76859D02*
X433896Y76859D01*
X433896Y79378D02*
X403024Y79378D01*
X403024Y81897D02*
X433896Y81897D01*
X433896Y84416D02*
X403024Y84416D01*
X403024Y86935D02*
X433896Y86935D01*
X353896Y88136D02*
X323024Y88136D01*
X353896Y88136D02*
X353896Y64264D01*
X323024Y64264D01*
X323024Y88136D01*
X323024Y66783D02*
X353896Y66783D01*
X353896Y69302D02*
X323024Y69302D01*
X323024Y71821D02*
X353896Y71821D01*
X353896Y74340D02*
X323024Y74340D01*
X323024Y76859D02*
X353896Y76859D01*
X353896Y79378D02*
X323024Y79378D01*
X323024Y81897D02*
X353896Y81897D01*
X353896Y84416D02*
X323024Y84416D01*
X323024Y86935D02*
X353896Y86935D01*
D18*
X417460Y98700D03*
X355960Y37200D03*
D10*
X342315Y155415D02*
X342315Y165405D01*
X342315Y155415D02*
X333325Y155415D01*
X333325Y165405D01*
X342315Y165405D01*
X342315Y157823D02*
X333325Y157823D01*
X333325Y160231D02*
X342315Y160231D01*
X342315Y162639D02*
X333325Y162639D01*
X333325Y165047D02*
X342315Y165047D01*
X342315Y172415D02*
X342315Y182405D01*
X342315Y172415D02*
X333325Y172415D01*
X333325Y182405D01*
X342315Y182405D01*
X342315Y174823D02*
X333325Y174823D01*
X333325Y177231D02*
X342315Y177231D01*
X342315Y179639D02*
X333325Y179639D01*
X333325Y182047D02*
X342315Y182047D01*
X342315Y189705D02*
X342315Y199695D01*
X342315Y189705D02*
X333325Y189705D01*
X333325Y199695D01*
X342315Y199695D01*
X342315Y192113D02*
X333325Y192113D01*
X333325Y194521D02*
X342315Y194521D01*
X342315Y196929D02*
X333325Y196929D01*
X333325Y199337D02*
X342315Y199337D01*
X342315Y206705D02*
X342315Y216695D01*
X342315Y206705D02*
X333325Y206705D01*
X333325Y216695D01*
X342315Y216695D01*
X342315Y209113D02*
X333325Y209113D01*
X333325Y211521D02*
X342315Y211521D01*
X342315Y213929D02*
X333325Y213929D01*
X333325Y216337D02*
X342315Y216337D01*
X343205Y222835D02*
X333215Y222835D01*
X333215Y231825D01*
X343205Y231825D01*
X343205Y222835D01*
X343205Y225243D02*
X333215Y225243D01*
X333215Y227651D02*
X343205Y227651D01*
X343205Y230059D02*
X333215Y230059D01*
X350215Y222835D02*
X360205Y222835D01*
X350215Y222835D02*
X350215Y231825D01*
X360205Y231825D01*
X360205Y222835D01*
X360205Y225243D02*
X350215Y225243D01*
X350215Y227651D02*
X360205Y227651D01*
X360205Y230059D02*
X350215Y230059D01*
X301785Y231825D02*
X291795Y231825D01*
X301785Y231825D02*
X301785Y222835D01*
X291795Y222835D01*
X291795Y231825D01*
X291795Y225243D02*
X301785Y225243D01*
X301785Y227651D02*
X291795Y227651D01*
X291795Y230059D02*
X301785Y230059D01*
X284785Y231825D02*
X274795Y231825D01*
X284785Y231825D02*
X284785Y222835D01*
X274795Y222835D01*
X274795Y231825D01*
X274795Y225243D02*
X284785Y225243D01*
X284785Y227651D02*
X274795Y227651D01*
X274795Y230059D02*
X284785Y230059D01*
X283895Y199695D02*
X283895Y189705D01*
X274905Y189705D01*
X274905Y199695D01*
X283895Y199695D01*
X283895Y192113D02*
X274905Y192113D01*
X274905Y194521D02*
X283895Y194521D01*
X283895Y196929D02*
X274905Y196929D01*
X274905Y199337D02*
X283895Y199337D01*
X283895Y206705D02*
X283895Y216695D01*
X283895Y206705D02*
X274905Y206705D01*
X274905Y216695D01*
X283895Y216695D01*
X283895Y209113D02*
X274905Y209113D01*
X274905Y211521D02*
X283895Y211521D01*
X283895Y213929D02*
X274905Y213929D01*
X274905Y216337D02*
X283895Y216337D01*
D16*
X290823Y216177D02*
X290823Y209223D01*
X290823Y216177D02*
X298777Y216177D01*
X298777Y209223D01*
X290823Y209223D01*
X290823Y211665D02*
X298777Y211665D01*
X298777Y214107D02*
X290823Y214107D01*
X290823Y197177D02*
X290823Y190223D01*
X290823Y197177D02*
X298777Y197177D01*
X298777Y190223D01*
X290823Y190223D01*
X290823Y192665D02*
X298777Y192665D01*
X298777Y195107D02*
X290823Y195107D01*
X311823Y199723D02*
X311823Y206677D01*
X319777Y206677D01*
X319777Y199723D01*
X311823Y199723D01*
X311823Y202165D02*
X319777Y202165D01*
X319777Y204607D02*
X311823Y204607D01*
D10*
X263685Y222935D02*
X253695Y222935D01*
X263685Y222935D02*
X263685Y213945D01*
X253695Y213945D01*
X253695Y222935D01*
X253695Y216353D02*
X263685Y216353D01*
X263685Y218761D02*
X253695Y218761D01*
X253695Y221169D02*
X263685Y221169D01*
X246685Y222935D02*
X236695Y222935D01*
X246685Y222935D02*
X246685Y213945D01*
X236695Y213945D01*
X236695Y222935D01*
X236695Y216353D02*
X246685Y216353D01*
X246685Y218761D02*
X236695Y218761D01*
X236695Y221169D02*
X246685Y221169D01*
D19*
X25400Y25400D03*
X25400Y228600D03*
D20*
X293842Y146522D02*
X300518Y146522D01*
X293842Y146522D02*
X293842Y160818D01*
X300518Y160818D01*
X300518Y146522D01*
X300518Y148868D02*
X293842Y148868D01*
X293842Y151214D02*
X300518Y151214D01*
X300518Y153560D02*
X293842Y153560D01*
X293842Y155906D02*
X300518Y155906D01*
X300518Y158252D02*
X293842Y158252D01*
X293842Y160598D02*
X300518Y160598D01*
X300518Y90642D02*
X293842Y90642D01*
X293842Y104938D01*
X300518Y104938D01*
X300518Y90642D01*
X300518Y92988D02*
X293842Y92988D01*
X293842Y95334D02*
X300518Y95334D01*
X300518Y97680D02*
X293842Y97680D01*
X293842Y100026D02*
X300518Y100026D01*
X300518Y102372D02*
X293842Y102372D01*
X293842Y104718D02*
X300518Y104718D01*
X262418Y146522D02*
X255742Y146522D01*
X255742Y160818D01*
X262418Y160818D01*
X262418Y146522D01*
X262418Y148868D02*
X255742Y148868D01*
X255742Y151214D02*
X262418Y151214D01*
X262418Y153560D02*
X255742Y153560D01*
X255742Y155906D02*
X262418Y155906D01*
X262418Y158252D02*
X255742Y158252D01*
X255742Y160598D02*
X262418Y160598D01*
X262418Y90642D02*
X255742Y90642D01*
X255742Y104938D01*
X262418Y104938D01*
X262418Y90642D01*
X262418Y92988D02*
X255742Y92988D01*
X255742Y95334D02*
X262418Y95334D01*
X262418Y97680D02*
X255742Y97680D01*
X255742Y100026D02*
X262418Y100026D01*
X262418Y102372D02*
X255742Y102372D01*
X255742Y104718D02*
X262418Y104718D01*
D21*
X190500Y12700D03*
X165100Y12700D03*
X139700Y12700D03*
X114300Y12700D03*
X88900Y12700D03*
X63500Y12700D03*
D22*
X50800Y241300D03*
X431800Y25400D03*
D10*
X71705Y206705D02*
X71705Y216695D01*
X80695Y216695D01*
X80695Y206705D01*
X71705Y206705D01*
X71705Y209113D02*
X80695Y209113D01*
X80695Y211521D02*
X71705Y211521D01*
X71705Y213929D02*
X80695Y213929D01*
X80695Y216337D02*
X71705Y216337D01*
X71705Y199695D02*
X71705Y189705D01*
X71705Y199695D02*
X80695Y199695D01*
X80695Y189705D01*
X71705Y189705D01*
X71705Y192113D02*
X80695Y192113D01*
X80695Y194521D02*
X71705Y194521D01*
X71705Y196929D02*
X80695Y196929D01*
X80695Y199337D02*
X71705Y199337D01*
D23*
X85385Y208455D02*
X92415Y208455D01*
X85385Y208455D02*
X85385Y215485D01*
X92415Y215485D01*
X92415Y208455D01*
X92415Y212724D02*
X85385Y212724D01*
X85385Y190915D02*
X92415Y190915D01*
X85385Y190915D02*
X85385Y197945D01*
X92415Y197945D01*
X92415Y190915D01*
X92415Y195184D02*
X85385Y195184D01*
D11*
X225904Y204304D02*
X225904Y206296D01*
X232896Y206296D01*
X232896Y204304D01*
X225904Y204304D01*
X225904Y201296D02*
X225904Y199304D01*
X225904Y201296D02*
X232896Y201296D01*
X232896Y199304D01*
X225904Y199304D01*
D24*
X200908Y213808D02*
X200908Y216792D01*
X207892Y216792D01*
X207892Y213808D01*
X200908Y213808D01*
X200908Y216222D02*
X207892Y216222D01*
X200908Y141792D02*
X200908Y138808D01*
X200908Y141792D02*
X207892Y141792D01*
X207892Y138808D01*
X200908Y138808D01*
X200908Y141222D02*
X207892Y141222D01*
D11*
X225904Y194304D02*
X225904Y196296D01*
X232896Y196296D01*
X232896Y194304D01*
X225904Y194304D01*
X225904Y191296D02*
X225904Y189304D01*
X225904Y191296D02*
X232896Y191296D01*
X232896Y189304D01*
X225904Y189304D01*
X225904Y186296D02*
X225904Y184304D01*
X225904Y186296D02*
X232896Y186296D01*
X232896Y184304D01*
X225904Y184304D01*
X225904Y181296D02*
X225904Y179304D01*
X225904Y181296D02*
X232896Y181296D01*
X232896Y179304D01*
X225904Y179304D01*
X225904Y176296D02*
X225904Y174304D01*
X225904Y176296D02*
X232896Y176296D01*
X232896Y174304D01*
X225904Y174304D01*
X225904Y171296D02*
X225904Y169304D01*
X225904Y171296D02*
X232896Y171296D01*
X232896Y169304D01*
X225904Y169304D01*
X225904Y166296D02*
X225904Y164304D01*
X225904Y166296D02*
X232896Y166296D01*
X232896Y164304D01*
X225904Y164304D01*
X225904Y161296D02*
X225904Y159304D01*
X225904Y161296D02*
X232896Y161296D01*
X232896Y159304D01*
X225904Y159304D01*
X225904Y156296D02*
X225904Y154304D01*
X225904Y156296D02*
X232896Y156296D01*
X232896Y154304D01*
X225904Y154304D01*
X225904Y151296D02*
X225904Y149304D01*
X225904Y151296D02*
X232896Y151296D01*
X232896Y149304D01*
X225904Y149304D01*
D10*
X225265Y20905D02*
X235255Y20905D01*
X225265Y20905D02*
X225265Y29895D01*
X235255Y29895D01*
X235255Y20905D01*
X235255Y23313D02*
X225265Y23313D01*
X225265Y25721D02*
X235255Y25721D01*
X235255Y28129D02*
X225265Y28129D01*
X242265Y20905D02*
X252255Y20905D01*
X242265Y20905D02*
X242265Y29895D01*
X252255Y29895D01*
X252255Y20905D01*
X252255Y23313D02*
X242265Y23313D01*
X242265Y25721D02*
X252255Y25721D01*
X252255Y28129D02*
X242265Y28129D01*
D23*
X233505Y40935D02*
X233505Y47965D01*
X233505Y40935D02*
X226475Y40935D01*
X226475Y47965D01*
X233505Y47965D01*
X233505Y45204D02*
X226475Y45204D01*
X251045Y47965D02*
X251045Y40935D01*
X244015Y40935D01*
X244015Y47965D01*
X251045Y47965D01*
X251045Y45204D02*
X244015Y45204D01*
M02*
