G04 EAGLE Gerber RS-274X export*
G75*
%MOMM*%
%FSLAX34Y34*%
%LPD*%
%INBottom Copper*%
%IPPOS*%
%AMOC8*
5,1,8,0,0,1.08239X$1,22.5*%
G01*
%ADD10C,0.279400*%
%ADD11C,0.755600*%
%ADD12C,1.879600*%
%ADD13C,0.099059*%
%ADD14C,0.635000*%
%ADD15C,0.736600*%
%ADD16C,0.203200*%
%ADD17C,0.177800*%

G36*
X229058Y4073D02*
X229058Y4073D01*
X229116Y4071D01*
X229198Y4093D01*
X229281Y4105D01*
X229335Y4128D01*
X229391Y4143D01*
X229464Y4186D01*
X229541Y4221D01*
X229585Y4259D01*
X229636Y4288D01*
X229693Y4350D01*
X229758Y4404D01*
X229790Y4453D01*
X229830Y4496D01*
X229868Y4571D01*
X229915Y4641D01*
X229933Y4697D01*
X229959Y4749D01*
X229971Y4817D01*
X230001Y4912D01*
X230004Y5012D01*
X230015Y5080D01*
X230015Y8319D01*
X232619Y10923D01*
X233163Y10923D01*
X233220Y10931D01*
X233279Y10929D01*
X233360Y10951D01*
X233444Y10963D01*
X233497Y10986D01*
X233554Y11001D01*
X233626Y11044D01*
X233703Y11079D01*
X233748Y11117D01*
X233798Y11146D01*
X233856Y11208D01*
X233920Y11262D01*
X233953Y11311D01*
X233993Y11354D01*
X234031Y11429D01*
X234078Y11499D01*
X234096Y11555D01*
X234122Y11607D01*
X234134Y11675D01*
X234164Y11770D01*
X234166Y11870D01*
X234178Y11938D01*
X234178Y21161D01*
X234169Y21224D01*
X234172Y21273D01*
X234001Y22810D01*
X234042Y22890D01*
X234059Y22916D01*
X234061Y22923D01*
X234100Y22989D01*
X234108Y23020D01*
X234122Y23048D01*
X234135Y23125D01*
X234171Y23264D01*
X234170Y23297D01*
X235266Y24393D01*
X235304Y24444D01*
X235341Y24476D01*
X236307Y25684D01*
X236396Y25713D01*
X236504Y25741D01*
X236531Y25757D01*
X236561Y25766D01*
X236625Y25812D01*
X236749Y25885D01*
X236772Y25909D01*
X238321Y25909D01*
X238384Y25918D01*
X238433Y25915D01*
X239970Y26086D01*
X240054Y26043D01*
X240150Y25986D01*
X240180Y25979D01*
X240208Y25964D01*
X240285Y25951D01*
X240425Y25915D01*
X240458Y25916D01*
X241553Y24820D01*
X241604Y24782D01*
X241637Y24746D01*
X247001Y20454D01*
X247408Y16793D01*
X245107Y13918D01*
X243972Y13791D01*
X243970Y13791D01*
X243968Y13791D01*
X243833Y13756D01*
X243697Y13721D01*
X243695Y13720D01*
X243693Y13719D01*
X243576Y13650D01*
X243452Y13577D01*
X243451Y13575D01*
X243449Y13574D01*
X243354Y13473D01*
X243257Y13370D01*
X243256Y13368D01*
X243254Y13367D01*
X243190Y13242D01*
X243126Y13118D01*
X243126Y13115D01*
X243125Y13113D01*
X243121Y13094D01*
X243071Y12839D01*
X243073Y12808D01*
X243069Y12782D01*
X243069Y11938D01*
X243077Y11880D01*
X243076Y11822D01*
X243097Y11740D01*
X243109Y11656D01*
X243133Y11603D01*
X243148Y11547D01*
X243191Y11474D01*
X243225Y11397D01*
X243263Y11352D01*
X243293Y11302D01*
X243355Y11244D01*
X243409Y11180D01*
X243458Y11148D01*
X243500Y11108D01*
X243575Y11069D01*
X243646Y11022D01*
X243701Y11005D01*
X243753Y10978D01*
X243821Y10967D01*
X243917Y10937D01*
X244016Y10934D01*
X244084Y10923D01*
X244628Y10923D01*
X245721Y9829D01*
X245768Y9794D01*
X245808Y9752D01*
X245881Y9709D01*
X245948Y9658D01*
X246003Y9638D01*
X246054Y9608D01*
X246135Y9587D01*
X246214Y9557D01*
X246272Y9552D01*
X246329Y9538D01*
X246413Y9541D01*
X246497Y9534D01*
X246555Y9545D01*
X246613Y9547D01*
X246693Y9573D01*
X246776Y9589D01*
X246828Y9616D01*
X246884Y9634D01*
X246940Y9675D01*
X247028Y9720D01*
X247101Y9789D01*
X247157Y9829D01*
X248250Y10923D01*
X248794Y10923D01*
X248852Y10931D01*
X248910Y10929D01*
X248992Y10951D01*
X249075Y10963D01*
X249129Y10986D01*
X249185Y11001D01*
X249258Y11044D01*
X249335Y11079D01*
X249379Y11117D01*
X249430Y11146D01*
X249487Y11208D01*
X249552Y11262D01*
X249584Y11311D01*
X249624Y11354D01*
X249662Y11429D01*
X249709Y11499D01*
X249727Y11555D01*
X249753Y11607D01*
X249765Y11675D01*
X249795Y11770D01*
X249798Y11870D01*
X249809Y11938D01*
X249809Y21161D01*
X249800Y21224D01*
X249803Y21273D01*
X249632Y22810D01*
X249673Y22890D01*
X249690Y22916D01*
X249692Y22923D01*
X249731Y22989D01*
X249739Y23020D01*
X249753Y23048D01*
X249766Y23125D01*
X249803Y23264D01*
X249802Y23297D01*
X250897Y24393D01*
X250936Y24444D01*
X250972Y24476D01*
X251938Y25684D01*
X252027Y25713D01*
X252135Y25741D01*
X252162Y25757D01*
X252192Y25766D01*
X252256Y25812D01*
X252380Y25885D01*
X252403Y25909D01*
X253952Y25909D01*
X254016Y25918D01*
X254064Y25915D01*
X255602Y26086D01*
X255685Y26043D01*
X255781Y25986D01*
X255811Y25979D01*
X255839Y25964D01*
X255917Y25951D01*
X256056Y25915D01*
X256089Y25916D01*
X257184Y24820D01*
X257235Y24782D01*
X257268Y24746D01*
X262278Y20738D01*
X262323Y20711D01*
X262362Y20677D01*
X262445Y20639D01*
X262522Y20593D01*
X262573Y20580D01*
X262620Y20558D01*
X262710Y20544D01*
X262798Y20522D01*
X262850Y20523D01*
X262901Y20515D01*
X262973Y20527D01*
X263082Y20530D01*
X263169Y20557D01*
X263233Y20567D01*
X265334Y21268D01*
X267869Y20000D01*
X267885Y19995D01*
X267899Y19985D01*
X268020Y19950D01*
X268138Y19910D01*
X268155Y19909D01*
X268172Y19904D01*
X268298Y19903D01*
X268422Y19898D01*
X268439Y19902D01*
X268456Y19902D01*
X268524Y19922D01*
X268699Y19965D01*
X268740Y19989D01*
X268777Y20000D01*
X271312Y21268D01*
X274806Y20103D01*
X276453Y16809D01*
X273116Y6798D01*
X273113Y6783D01*
X273107Y6769D01*
X273088Y6643D01*
X273065Y6518D01*
X273066Y6503D01*
X273064Y6488D01*
X273075Y6420D01*
X273093Y6236D01*
X273110Y6192D01*
X273116Y6156D01*
X273123Y6136D01*
X272822Y5534D01*
X272819Y5526D01*
X272814Y5519D01*
X272774Y5391D01*
X272731Y5264D01*
X272731Y5256D01*
X272729Y5248D01*
X272725Y5113D01*
X272719Y4980D01*
X272721Y4972D01*
X272721Y4964D01*
X272755Y4835D01*
X272787Y4704D01*
X272791Y4697D01*
X272793Y4689D01*
X272861Y4574D01*
X272928Y4457D01*
X272934Y4451D01*
X272938Y4444D01*
X273036Y4353D01*
X273132Y4259D01*
X273139Y4255D01*
X273146Y4250D01*
X273264Y4189D01*
X273383Y4126D01*
X273391Y4124D01*
X273399Y4120D01*
X273450Y4112D01*
X273661Y4067D01*
X273699Y4070D01*
X273730Y4065D01*
X439420Y4065D01*
X439478Y4073D01*
X439536Y4071D01*
X439618Y4093D01*
X439702Y4105D01*
X439755Y4128D01*
X439811Y4143D01*
X439884Y4186D01*
X439961Y4221D01*
X440006Y4259D01*
X440056Y4288D01*
X440114Y4350D01*
X440178Y4404D01*
X440210Y4453D01*
X440250Y4496D01*
X440289Y4571D01*
X440336Y4641D01*
X440353Y4697D01*
X440380Y4749D01*
X440391Y4817D01*
X440421Y4912D01*
X440424Y5012D01*
X440435Y5080D01*
X440435Y248920D01*
X440427Y248978D01*
X440429Y249036D01*
X440407Y249118D01*
X440395Y249202D01*
X440372Y249255D01*
X440357Y249311D01*
X440314Y249384D01*
X440279Y249461D01*
X440241Y249506D01*
X440212Y249556D01*
X440150Y249614D01*
X440096Y249678D01*
X440047Y249710D01*
X440004Y249750D01*
X439929Y249789D01*
X439859Y249836D01*
X439803Y249853D01*
X439751Y249880D01*
X439683Y249891D01*
X439588Y249921D01*
X439488Y249924D01*
X439420Y249935D01*
X132080Y249935D01*
X132022Y249927D01*
X131964Y249929D01*
X131882Y249907D01*
X131798Y249895D01*
X131745Y249872D01*
X131689Y249857D01*
X131616Y249814D01*
X131539Y249779D01*
X131494Y249741D01*
X131444Y249712D01*
X131386Y249650D01*
X131322Y249596D01*
X131290Y249547D01*
X131250Y249504D01*
X131211Y249429D01*
X131164Y249359D01*
X131147Y249303D01*
X131120Y249251D01*
X131109Y249183D01*
X131079Y249088D01*
X131076Y248988D01*
X131065Y248920D01*
X131065Y126564D01*
X131069Y126535D01*
X131066Y126506D01*
X131089Y126395D01*
X131105Y126283D01*
X131117Y126256D01*
X131122Y126227D01*
X131175Y126127D01*
X131221Y126023D01*
X131240Y126001D01*
X131253Y125975D01*
X131331Y125893D01*
X131404Y125806D01*
X131429Y125790D01*
X131449Y125769D01*
X131547Y125711D01*
X131641Y125649D01*
X131669Y125640D01*
X131694Y125625D01*
X131804Y125597D01*
X131912Y125563D01*
X131942Y125562D01*
X131970Y125555D01*
X132083Y125558D01*
X132196Y125556D01*
X132225Y125563D01*
X132254Y125564D01*
X132362Y125599D01*
X132471Y125627D01*
X132497Y125642D01*
X132525Y125651D01*
X132588Y125697D01*
X132716Y125773D01*
X132759Y125818D01*
X132798Y125846D01*
X135338Y128386D01*
X135390Y128456D01*
X135450Y128520D01*
X135476Y128569D01*
X135509Y128614D01*
X135540Y128695D01*
X135580Y128773D01*
X135588Y128821D01*
X135610Y128879D01*
X135622Y129027D01*
X135635Y129104D01*
X135635Y212504D01*
X154261Y231129D01*
X154313Y231199D01*
X154373Y231263D01*
X154399Y231312D01*
X154432Y231357D01*
X154463Y231438D01*
X154503Y231516D01*
X154511Y231564D01*
X154533Y231622D01*
X154545Y231770D01*
X154558Y231847D01*
X154558Y233749D01*
X155583Y236223D01*
X157477Y238117D01*
X159951Y239142D01*
X162629Y239142D01*
X165103Y238117D01*
X166997Y236223D01*
X168022Y233749D01*
X168022Y231071D01*
X166997Y228597D01*
X165103Y226703D01*
X162629Y225678D01*
X160727Y225678D01*
X160641Y225666D01*
X160553Y225663D01*
X160501Y225646D01*
X160446Y225638D01*
X160366Y225603D01*
X160283Y225576D01*
X160243Y225548D01*
X160186Y225522D01*
X160073Y225426D01*
X160009Y225381D01*
X144062Y209434D01*
X144010Y209364D01*
X143950Y209300D01*
X143924Y209251D01*
X143891Y209206D01*
X143860Y209125D01*
X143820Y209047D01*
X143812Y208999D01*
X143790Y208941D01*
X143778Y208793D01*
X143765Y208716D01*
X143765Y147897D01*
X143777Y147812D01*
X143779Y147726D01*
X143797Y147672D01*
X143805Y147616D01*
X143840Y147538D01*
X143866Y147456D01*
X143898Y147408D01*
X143921Y147357D01*
X143976Y147291D01*
X144024Y147220D01*
X144068Y147183D01*
X144104Y147140D01*
X144176Y147092D01*
X144242Y147037D01*
X144294Y147013D01*
X144341Y146982D01*
X144423Y146956D01*
X144502Y146921D01*
X144558Y146913D01*
X144612Y146896D01*
X144698Y146894D01*
X144783Y146882D01*
X144839Y146890D01*
X144896Y146889D01*
X144979Y146911D01*
X145064Y146923D01*
X145116Y146946D01*
X145171Y146961D01*
X145245Y147005D01*
X145324Y147040D01*
X145367Y147077D01*
X145416Y147106D01*
X145475Y147169D01*
X145540Y147224D01*
X145566Y147266D01*
X145610Y147313D01*
X145676Y147442D01*
X145718Y147509D01*
X146693Y149863D01*
X148587Y151757D01*
X151061Y152782D01*
X152963Y152782D01*
X153049Y152794D01*
X153137Y152797D01*
X153189Y152814D01*
X153244Y152822D01*
X153324Y152857D01*
X153407Y152884D01*
X153447Y152912D01*
X153504Y152938D01*
X153617Y153034D01*
X153681Y153079D01*
X159606Y159005D01*
X240504Y159005D01*
X240591Y159017D01*
X240678Y159020D01*
X240731Y159037D01*
X240786Y159045D01*
X240865Y159080D01*
X240949Y159107D01*
X240988Y159135D01*
X241045Y159161D01*
X241158Y159257D01*
X241222Y159302D01*
X242567Y160647D01*
X245041Y161672D01*
X247719Y161672D01*
X250193Y160647D01*
X251538Y159302D01*
X251608Y159250D01*
X251672Y159190D01*
X251721Y159164D01*
X251765Y159131D01*
X251847Y159100D01*
X251925Y159060D01*
X251972Y159052D01*
X252031Y159030D01*
X252179Y159018D01*
X252256Y159005D01*
X291266Y159005D01*
X291352Y159017D01*
X291440Y159020D01*
X291492Y159037D01*
X291547Y159045D01*
X291627Y159080D01*
X291710Y159107D01*
X291750Y159135D01*
X291807Y159161D01*
X291920Y159257D01*
X291984Y159302D01*
X309201Y176519D01*
X309253Y176589D01*
X309313Y176653D01*
X309339Y176702D01*
X309372Y176747D01*
X309403Y176828D01*
X309443Y176906D01*
X309451Y176954D01*
X309473Y177012D01*
X309485Y177160D01*
X309498Y177237D01*
X309498Y179139D01*
X310523Y181613D01*
X312417Y183507D01*
X314891Y184532D01*
X317569Y184532D01*
X320043Y183507D01*
X321937Y181613D01*
X322962Y179139D01*
X322962Y176461D01*
X321937Y173987D01*
X320043Y172093D01*
X317569Y171068D01*
X315667Y171068D01*
X315581Y171056D01*
X315493Y171053D01*
X315441Y171036D01*
X315386Y171028D01*
X315306Y170993D01*
X315223Y170966D01*
X315183Y170938D01*
X315126Y170912D01*
X315013Y170816D01*
X314949Y170771D01*
X295054Y150875D01*
X252256Y150875D01*
X252169Y150863D01*
X252082Y150860D01*
X252029Y150843D01*
X251974Y150835D01*
X251895Y150800D01*
X251811Y150773D01*
X251772Y150745D01*
X251715Y150719D01*
X251602Y150623D01*
X251538Y150578D01*
X250193Y149233D01*
X247719Y148208D01*
X245041Y148208D01*
X242567Y149233D01*
X241222Y150578D01*
X241152Y150630D01*
X241088Y150690D01*
X241039Y150716D01*
X240995Y150749D01*
X240913Y150780D01*
X240835Y150820D01*
X240788Y150828D01*
X240729Y150850D01*
X240581Y150862D01*
X240504Y150875D01*
X163394Y150875D01*
X163308Y150863D01*
X163220Y150860D01*
X163168Y150843D01*
X163113Y150835D01*
X163033Y150800D01*
X162950Y150773D01*
X162910Y150745D01*
X162853Y150719D01*
X162740Y150623D01*
X162676Y150578D01*
X159429Y147331D01*
X159377Y147261D01*
X159317Y147197D01*
X159291Y147148D01*
X159258Y147103D01*
X159227Y147022D01*
X159187Y146944D01*
X159179Y146896D01*
X159157Y146838D01*
X159145Y146690D01*
X159132Y146613D01*
X159132Y144711D01*
X158107Y142237D01*
X156213Y140343D01*
X153739Y139318D01*
X151061Y139318D01*
X148587Y140343D01*
X146693Y142237D01*
X145718Y144591D01*
X145674Y144665D01*
X145639Y144743D01*
X145602Y144787D01*
X145573Y144836D01*
X145511Y144895D01*
X145455Y144960D01*
X145408Y144992D01*
X145367Y145031D01*
X145290Y145070D01*
X145219Y145118D01*
X145165Y145135D01*
X145114Y145161D01*
X145030Y145178D01*
X144948Y145204D01*
X144891Y145205D01*
X144835Y145216D01*
X144750Y145209D01*
X144664Y145211D01*
X144609Y145197D01*
X144552Y145192D01*
X144472Y145161D01*
X144389Y145139D01*
X144340Y145110D01*
X144287Y145090D01*
X144218Y145038D01*
X144144Y144994D01*
X144105Y144953D01*
X144060Y144918D01*
X144008Y144849D01*
X143950Y144787D01*
X143924Y144736D01*
X143890Y144691D01*
X143859Y144610D01*
X143820Y144534D01*
X143812Y144485D01*
X143789Y144425D01*
X143784Y144352D01*
X143779Y144337D01*
X143777Y144277D01*
X143765Y144203D01*
X143765Y125316D01*
X115984Y97535D01*
X82076Y97535D01*
X81989Y97523D01*
X81902Y97520D01*
X81849Y97503D01*
X81794Y97495D01*
X81715Y97460D01*
X81631Y97433D01*
X81592Y97405D01*
X81535Y97379D01*
X81422Y97283D01*
X81358Y97238D01*
X80013Y95893D01*
X77539Y94868D01*
X74861Y94868D01*
X72387Y95893D01*
X70493Y97787D01*
X69468Y100261D01*
X69468Y102939D01*
X70493Y105413D01*
X71838Y106758D01*
X71890Y106828D01*
X71950Y106892D01*
X71976Y106941D01*
X72009Y106985D01*
X72040Y107067D01*
X72080Y107145D01*
X72088Y107192D01*
X72110Y107251D01*
X72122Y107399D01*
X72135Y107476D01*
X72135Y146524D01*
X72123Y146611D01*
X72120Y146698D01*
X72103Y146751D01*
X72095Y146806D01*
X72060Y146885D01*
X72033Y146969D01*
X72005Y147008D01*
X71979Y147065D01*
X71883Y147178D01*
X71838Y147242D01*
X70493Y148587D01*
X69468Y151061D01*
X69468Y153739D01*
X70493Y156213D01*
X72387Y158107D01*
X74861Y159132D01*
X77539Y159132D01*
X80013Y158107D01*
X81907Y156213D01*
X82932Y153739D01*
X82932Y151061D01*
X81907Y148587D01*
X80562Y147242D01*
X80510Y147172D01*
X80450Y147108D01*
X80424Y147059D01*
X80391Y147015D01*
X80360Y146933D01*
X80320Y146855D01*
X80312Y146808D01*
X80290Y146749D01*
X80278Y146601D01*
X80265Y146524D01*
X80265Y107476D01*
X80277Y107389D01*
X80280Y107302D01*
X80297Y107249D01*
X80305Y107194D01*
X80340Y107115D01*
X80367Y107031D01*
X80395Y106992D01*
X80421Y106935D01*
X80517Y106822D01*
X80562Y106758D01*
X81358Y105962D01*
X81428Y105910D01*
X81492Y105850D01*
X81541Y105824D01*
X81585Y105791D01*
X81667Y105760D01*
X81745Y105720D01*
X81792Y105712D01*
X81851Y105690D01*
X81999Y105678D01*
X82076Y105665D01*
X112196Y105665D01*
X112282Y105677D01*
X112370Y105680D01*
X112422Y105697D01*
X112477Y105705D01*
X112557Y105740D01*
X112640Y105767D01*
X112680Y105795D01*
X112737Y105821D01*
X112850Y105917D01*
X112914Y105962D01*
X128154Y121202D01*
X128171Y121226D01*
X128194Y121245D01*
X128257Y121339D01*
X128325Y121429D01*
X128335Y121457D01*
X128351Y121481D01*
X128386Y121589D01*
X128426Y121695D01*
X128428Y121724D01*
X128437Y121752D01*
X128440Y121866D01*
X128449Y121978D01*
X128444Y122007D01*
X128444Y122036D01*
X128416Y122146D01*
X128394Y122257D01*
X128380Y122283D01*
X128373Y122311D01*
X128315Y122409D01*
X128263Y122509D01*
X128242Y122531D01*
X128227Y122556D01*
X128145Y122633D01*
X128067Y122715D01*
X128041Y122730D01*
X128020Y122750D01*
X127919Y122802D01*
X127821Y122859D01*
X127793Y122866D01*
X127767Y122880D01*
X127690Y122893D01*
X127546Y122929D01*
X127483Y122927D01*
X127436Y122935D01*
X112616Y122935D01*
X110235Y125316D01*
X110235Y248920D01*
X110227Y248978D01*
X110229Y249036D01*
X110207Y249118D01*
X110195Y249202D01*
X110172Y249255D01*
X110157Y249311D01*
X110114Y249384D01*
X110079Y249461D01*
X110041Y249506D01*
X110012Y249556D01*
X109950Y249614D01*
X109896Y249678D01*
X109847Y249710D01*
X109804Y249750D01*
X109729Y249789D01*
X109659Y249836D01*
X109603Y249853D01*
X109551Y249880D01*
X109483Y249891D01*
X109388Y249921D01*
X109288Y249924D01*
X109220Y249935D01*
X37933Y249935D01*
X37860Y249925D01*
X37786Y249925D01*
X37720Y249905D01*
X37651Y249895D01*
X37584Y249865D01*
X37514Y249845D01*
X37455Y249808D01*
X37392Y249779D01*
X37336Y249732D01*
X37274Y249692D01*
X37228Y249640D01*
X37175Y249596D01*
X37134Y249534D01*
X37085Y249479D01*
X37056Y249417D01*
X37017Y249359D01*
X36995Y249289D01*
X36964Y249222D01*
X36952Y249154D01*
X36932Y249088D01*
X36930Y249014D01*
X36918Y248942D01*
X36926Y248873D01*
X36924Y248804D01*
X36943Y248733D01*
X36952Y248659D01*
X36979Y248596D01*
X36996Y248529D01*
X37034Y248465D01*
X37062Y248398D01*
X37101Y248353D01*
X37141Y248284D01*
X37231Y248200D01*
X37280Y248142D01*
X42985Y243356D01*
X43079Y243192D01*
X43144Y243109D01*
X43203Y243022D01*
X43231Y242998D01*
X43255Y242968D01*
X43340Y242907D01*
X43420Y242839D01*
X43455Y242824D01*
X43485Y242802D01*
X43584Y242766D01*
X43680Y242723D01*
X43717Y242718D01*
X43753Y242705D01*
X43858Y242699D01*
X43962Y242684D01*
X43999Y242690D01*
X44036Y242687D01*
X44139Y242710D01*
X44243Y242725D01*
X44277Y242740D01*
X44314Y242749D01*
X44406Y242799D01*
X44502Y242842D01*
X44531Y242866D01*
X44564Y242884D01*
X44638Y242958D01*
X44719Y243026D01*
X44736Y243055D01*
X44766Y243084D01*
X44864Y243260D01*
X44897Y243311D01*
X45524Y244825D01*
X47274Y246576D01*
X49562Y247524D01*
X52038Y247524D01*
X54326Y246576D01*
X56076Y244826D01*
X57024Y242538D01*
X57024Y240062D01*
X56076Y237774D01*
X54326Y236024D01*
X52038Y235076D01*
X49562Y235076D01*
X48738Y235418D01*
X48679Y235433D01*
X48623Y235457D01*
X48542Y235468D01*
X48463Y235488D01*
X48402Y235487D01*
X48341Y235495D01*
X48260Y235483D01*
X48179Y235480D01*
X48120Y235462D01*
X48060Y235453D01*
X47986Y235419D01*
X47908Y235394D01*
X47857Y235360D01*
X47801Y235334D01*
X47740Y235281D01*
X47672Y235235D01*
X47632Y235189D01*
X47586Y235149D01*
X47541Y235080D01*
X47489Y235018D01*
X47464Y234962D01*
X47430Y234911D01*
X47407Y234833D01*
X47373Y234758D01*
X47365Y234697D01*
X47347Y234639D01*
X47348Y234572D01*
X47334Y234476D01*
X47349Y234374D01*
X47350Y234303D01*
X48355Y228600D01*
X46971Y220749D01*
X42985Y213845D01*
X36878Y208720D01*
X29386Y205993D01*
X21414Y205993D01*
X13922Y208720D01*
X7815Y213844D01*
X5959Y217059D01*
X5947Y217074D01*
X5939Y217092D01*
X5860Y217186D01*
X5784Y217283D01*
X5768Y217294D01*
X5755Y217309D01*
X5653Y217378D01*
X5554Y217449D01*
X5535Y217456D01*
X5519Y217467D01*
X5401Y217504D01*
X5286Y217546D01*
X5266Y217547D01*
X5248Y217553D01*
X5125Y217556D01*
X5002Y217564D01*
X4983Y217559D01*
X4964Y217560D01*
X4845Y217529D01*
X4725Y217502D01*
X4707Y217493D01*
X4689Y217488D01*
X4583Y217426D01*
X4475Y217367D01*
X4461Y217353D01*
X4444Y217343D01*
X4360Y217253D01*
X4273Y217167D01*
X4263Y217150D01*
X4250Y217136D01*
X4194Y217026D01*
X4134Y216919D01*
X4129Y216900D01*
X4120Y216882D01*
X4108Y216810D01*
X4069Y216642D01*
X4071Y216591D01*
X4065Y216551D01*
X4065Y178238D01*
X4077Y178153D01*
X4079Y178066D01*
X4097Y178013D01*
X4105Y177957D01*
X4140Y177878D01*
X4166Y177795D01*
X4198Y177749D01*
X4221Y177697D01*
X4277Y177631D01*
X4325Y177560D01*
X4368Y177523D01*
X4404Y177480D01*
X4477Y177432D01*
X4543Y177377D01*
X4594Y177354D01*
X4641Y177323D01*
X4724Y177297D01*
X4803Y177262D01*
X4859Y177254D01*
X4912Y177237D01*
X4999Y177235D01*
X5084Y177223D01*
X5133Y177231D01*
X5196Y177230D01*
X5338Y177267D01*
X5415Y177280D01*
X5920Y177457D01*
X6052Y177525D01*
X6124Y177555D01*
X6667Y177896D01*
X6669Y177898D01*
X6671Y177899D01*
X6687Y177913D01*
X6809Y178016D01*
X6937Y178005D01*
X6967Y178012D01*
X6993Y178010D01*
X7630Y178082D01*
X7774Y178119D01*
X7852Y178133D01*
X8046Y178201D01*
X8099Y178228D01*
X8156Y178246D01*
X8211Y178286D01*
X8235Y178298D01*
X8378Y178319D01*
X8407Y178331D01*
X8432Y178336D01*
X8625Y178403D01*
X8676Y178379D01*
X8732Y178361D01*
X8785Y178334D01*
X8853Y178323D01*
X8946Y178293D01*
X9047Y178290D01*
X9116Y178279D01*
X9319Y178279D01*
X9383Y178288D01*
X9433Y178285D01*
X10515Y178407D01*
X10601Y178356D01*
X10631Y178348D01*
X10658Y178334D01*
X10736Y178321D01*
X10877Y178285D01*
X10941Y178287D01*
X10989Y178279D01*
X14111Y178279D01*
X14141Y178283D01*
X14172Y178281D01*
X14281Y178303D01*
X14392Y178319D01*
X14420Y178331D01*
X14450Y178337D01*
X14519Y178375D01*
X14589Y178407D01*
X15667Y178285D01*
X15732Y178287D01*
X15781Y178279D01*
X15984Y178279D01*
X16043Y178287D01*
X16102Y178286D01*
X16168Y178305D01*
X16265Y178319D01*
X16358Y178360D01*
X16424Y178379D01*
X16474Y178403D01*
X16668Y178336D01*
X16670Y178335D01*
X16672Y178334D01*
X16692Y178331D01*
X16863Y178297D01*
X16898Y178270D01*
X16993Y178234D01*
X17054Y178201D01*
X17248Y178133D01*
X17395Y178103D01*
X17470Y178082D01*
X18107Y178010D01*
X18109Y178010D01*
X18112Y178010D01*
X18132Y178011D01*
X18293Y178015D01*
X18386Y177928D01*
X18414Y177913D01*
X18433Y177896D01*
X18976Y177555D01*
X19112Y177494D01*
X19180Y177457D01*
X19785Y177245D01*
X19788Y177244D01*
X19790Y177243D01*
X19810Y177240D01*
X19968Y177209D01*
X20039Y177103D01*
X20063Y177082D01*
X20077Y177061D01*
X20531Y176608D01*
X20650Y176518D01*
X20709Y176466D01*
X21251Y176125D01*
X21253Y176124D01*
X21255Y176123D01*
X21275Y176115D01*
X21421Y176049D01*
X21466Y175930D01*
X21485Y175905D01*
X21495Y175881D01*
X21836Y175339D01*
X21933Y175224D01*
X21978Y175161D01*
X22431Y174707D01*
X22433Y174706D01*
X22435Y174704D01*
X22452Y174692D01*
X22580Y174596D01*
X22598Y174469D01*
X22610Y174441D01*
X22615Y174416D01*
X22740Y174057D01*
X22741Y174057D01*
X22741Y174056D01*
X22807Y173927D01*
X22871Y173805D01*
X22871Y173804D01*
X22872Y173803D01*
X22971Y173699D01*
X23066Y173598D01*
X23067Y173598D01*
X23068Y173597D01*
X23189Y173526D01*
X23311Y173454D01*
X23312Y173454D01*
X23313Y173453D01*
X23445Y173420D01*
X23586Y173384D01*
X23588Y173384D01*
X23588Y173383D01*
X23727Y173388D01*
X23871Y173392D01*
X23872Y173392D01*
X23873Y173392D01*
X24013Y173438D01*
X24141Y173479D01*
X24142Y173480D01*
X24143Y173480D01*
X24151Y173486D01*
X24377Y173638D01*
X24396Y173661D01*
X24416Y173675D01*
X26554Y175812D01*
X35146Y184405D01*
X67746Y184405D01*
X67832Y184417D01*
X67920Y184420D01*
X67972Y184437D01*
X68027Y184445D01*
X68107Y184480D01*
X68190Y184507D01*
X68230Y184535D01*
X68287Y184561D01*
X68400Y184657D01*
X68464Y184702D01*
X71838Y188076D01*
X71890Y188146D01*
X71950Y188210D01*
X71976Y188259D01*
X72009Y188304D01*
X72040Y188385D01*
X72080Y188463D01*
X72088Y188511D01*
X72110Y188569D01*
X72118Y188661D01*
X72121Y188672D01*
X72122Y188718D01*
X72135Y188794D01*
X72135Y190627D01*
X72127Y190685D01*
X72129Y190743D01*
X72107Y190825D01*
X72095Y190909D01*
X72072Y190962D01*
X72057Y191018D01*
X72014Y191091D01*
X71979Y191168D01*
X71941Y191213D01*
X71912Y191263D01*
X71850Y191321D01*
X71796Y191385D01*
X71747Y191417D01*
X71704Y191457D01*
X71629Y191496D01*
X71559Y191543D01*
X71503Y191560D01*
X71451Y191587D01*
X71383Y191598D01*
X71288Y191628D01*
X71188Y191631D01*
X71120Y191642D01*
X68877Y191642D01*
X66801Y193718D01*
X66801Y202268D01*
X67016Y202482D01*
X67051Y202529D01*
X67093Y202569D01*
X67136Y202642D01*
X67187Y202709D01*
X67207Y202764D01*
X67237Y202814D01*
X67258Y202896D01*
X67288Y202975D01*
X67293Y203033D01*
X67307Y203090D01*
X67304Y203174D01*
X67311Y203258D01*
X67300Y203316D01*
X67298Y203374D01*
X67272Y203454D01*
X67255Y203537D01*
X67229Y203589D01*
X67211Y203645D01*
X67170Y203701D01*
X67124Y203789D01*
X67056Y203862D01*
X67016Y203918D01*
X66801Y204132D01*
X66801Y212682D01*
X68877Y214758D01*
X71120Y214758D01*
X71178Y214766D01*
X71236Y214764D01*
X71318Y214786D01*
X71402Y214798D01*
X71455Y214821D01*
X71511Y214836D01*
X71584Y214879D01*
X71661Y214914D01*
X71706Y214952D01*
X71756Y214981D01*
X71814Y215043D01*
X71878Y215097D01*
X71910Y215146D01*
X71950Y215189D01*
X71989Y215264D01*
X72036Y215334D01*
X72053Y215390D01*
X72080Y215442D01*
X72091Y215510D01*
X72121Y215605D01*
X72124Y215705D01*
X72135Y215773D01*
X72135Y218914D01*
X72123Y219001D01*
X72120Y219088D01*
X72103Y219141D01*
X72095Y219196D01*
X72060Y219275D01*
X72033Y219359D01*
X72005Y219398D01*
X71979Y219455D01*
X71883Y219568D01*
X71838Y219632D01*
X70493Y220977D01*
X69468Y223451D01*
X69468Y226129D01*
X70493Y228603D01*
X72387Y230497D01*
X74861Y231522D01*
X77539Y231522D01*
X80013Y230497D01*
X81907Y228603D01*
X82932Y226129D01*
X82932Y223451D01*
X81907Y220977D01*
X80562Y219632D01*
X80510Y219562D01*
X80450Y219498D01*
X80424Y219449D01*
X80391Y219405D01*
X80360Y219323D01*
X80320Y219245D01*
X80312Y219198D01*
X80290Y219139D01*
X80278Y218991D01*
X80265Y218914D01*
X80265Y215773D01*
X80273Y215715D01*
X80271Y215657D01*
X80293Y215575D01*
X80305Y215491D01*
X80328Y215438D01*
X80343Y215382D01*
X80386Y215309D01*
X80421Y215232D01*
X80459Y215187D01*
X80488Y215137D01*
X80550Y215079D01*
X80604Y215015D01*
X80653Y214983D01*
X80696Y214943D01*
X80771Y214904D01*
X80841Y214857D01*
X80897Y214840D01*
X80949Y214813D01*
X81017Y214802D01*
X81112Y214772D01*
X81212Y214769D01*
X81280Y214758D01*
X83523Y214758D01*
X85599Y212682D01*
X85599Y204132D01*
X85384Y203918D01*
X85349Y203871D01*
X85307Y203831D01*
X85264Y203758D01*
X85213Y203691D01*
X85193Y203636D01*
X85163Y203586D01*
X85142Y203504D01*
X85112Y203425D01*
X85107Y203367D01*
X85093Y203310D01*
X85096Y203226D01*
X85089Y203142D01*
X85100Y203084D01*
X85102Y203026D01*
X85128Y202946D01*
X85145Y202863D01*
X85171Y202811D01*
X85189Y202755D01*
X85229Y202699D01*
X85275Y202611D01*
X85344Y202538D01*
X85384Y202482D01*
X85599Y202268D01*
X85599Y193718D01*
X83523Y191642D01*
X81280Y191642D01*
X81222Y191634D01*
X81164Y191636D01*
X81082Y191614D01*
X80998Y191602D01*
X80945Y191579D01*
X80889Y191564D01*
X80816Y191521D01*
X80739Y191486D01*
X80694Y191448D01*
X80644Y191419D01*
X80586Y191357D01*
X80522Y191303D01*
X80490Y191254D01*
X80450Y191211D01*
X80411Y191136D01*
X80364Y191066D01*
X80347Y191010D01*
X80320Y190958D01*
X80309Y190890D01*
X80279Y190795D01*
X80276Y190695D01*
X80265Y190627D01*
X80265Y185006D01*
X71534Y176275D01*
X67695Y176275D01*
X67609Y176263D01*
X67523Y176261D01*
X67469Y176243D01*
X67413Y176235D01*
X67335Y176200D01*
X67252Y176174D01*
X67205Y176142D01*
X67154Y176119D01*
X67088Y176063D01*
X67016Y176015D01*
X66980Y175972D01*
X66937Y175936D01*
X66889Y175864D01*
X66833Y175797D01*
X66811Y175746D01*
X66779Y175699D01*
X66753Y175616D01*
X66718Y175537D01*
X66711Y175481D01*
X66694Y175428D01*
X66691Y175341D01*
X66680Y175256D01*
X66688Y175207D01*
X66686Y175144D01*
X66723Y175002D01*
X66737Y174925D01*
X66780Y174801D01*
X66807Y174748D01*
X66825Y174692D01*
X66865Y174636D01*
X66877Y174612D01*
X66898Y174469D01*
X66911Y174441D01*
X66915Y174415D01*
X67127Y173810D01*
X67195Y173678D01*
X67225Y173606D01*
X67566Y173063D01*
X67568Y173061D01*
X67569Y173059D01*
X67583Y173043D01*
X67603Y173019D01*
X67629Y172976D01*
X67681Y172927D01*
X67686Y172921D01*
X67675Y172793D01*
X67682Y172763D01*
X67680Y172737D01*
X67752Y172100D01*
X67789Y171956D01*
X67803Y171878D01*
X68014Y171273D01*
X68015Y171271D01*
X68016Y171269D01*
X68025Y171252D01*
X68100Y171108D01*
X68061Y170987D01*
X68060Y170955D01*
X68053Y170931D01*
X67981Y170294D01*
X67985Y170144D01*
X67981Y170066D01*
X68053Y169429D01*
X68054Y169427D01*
X68053Y169425D01*
X68059Y169405D01*
X68099Y169249D01*
X68034Y169139D01*
X68027Y169109D01*
X68014Y169087D01*
X67803Y168482D01*
X67773Y168335D01*
X67752Y168260D01*
X67680Y167623D01*
X67680Y167621D01*
X67680Y167618D01*
X67681Y167598D01*
X67684Y167491D01*
X67682Y167434D01*
X67598Y167344D01*
X67583Y167316D01*
X67566Y167297D01*
X67225Y166754D01*
X67164Y166618D01*
X67127Y166550D01*
X66915Y165945D01*
X66914Y165942D01*
X66913Y165940D01*
X66910Y165920D01*
X66879Y165762D01*
X66773Y165691D01*
X66752Y165667D01*
X66731Y165653D01*
X66278Y165199D01*
X66254Y165167D01*
X66234Y165150D01*
X66183Y165074D01*
X66136Y165021D01*
X65795Y164479D01*
X65794Y164477D01*
X65793Y164475D01*
X65785Y164456D01*
X65719Y164309D01*
X65600Y164264D01*
X65575Y164245D01*
X65551Y164235D01*
X65009Y163894D01*
X64894Y163797D01*
X64831Y163752D01*
X64377Y163299D01*
X64376Y163297D01*
X64374Y163295D01*
X64362Y163277D01*
X64266Y163150D01*
X64139Y163132D01*
X64111Y163119D01*
X64085Y163115D01*
X63480Y162903D01*
X63348Y162835D01*
X63276Y162805D01*
X62733Y162464D01*
X62731Y162462D01*
X62729Y162461D01*
X62713Y162447D01*
X62591Y162344D01*
X62463Y162355D01*
X62433Y162348D01*
X62407Y162350D01*
X61770Y162278D01*
X61626Y162241D01*
X61548Y162227D01*
X61354Y162159D01*
X61301Y162132D01*
X61244Y162114D01*
X61189Y162074D01*
X61165Y162062D01*
X61022Y162041D01*
X60993Y162029D01*
X60968Y162024D01*
X60775Y161957D01*
X60724Y161981D01*
X60668Y161999D01*
X60615Y162026D01*
X60547Y162037D01*
X60454Y162067D01*
X60353Y162070D01*
X60284Y162081D01*
X60081Y162081D01*
X60017Y162072D01*
X59967Y162075D01*
X58885Y161953D01*
X58799Y162004D01*
X58769Y162012D01*
X58742Y162026D01*
X58664Y162039D01*
X58523Y162075D01*
X58459Y162073D01*
X58411Y162081D01*
X54227Y162081D01*
X54198Y162077D01*
X54169Y162080D01*
X54058Y162057D01*
X53946Y162041D01*
X53919Y162029D01*
X53890Y162024D01*
X53790Y161971D01*
X53687Y161925D01*
X53664Y161906D01*
X53638Y161893D01*
X53556Y161815D01*
X53470Y161742D01*
X53453Y161717D01*
X53432Y161697D01*
X53375Y161599D01*
X53312Y161505D01*
X53303Y161477D01*
X53288Y161452D01*
X53260Y161342D01*
X53226Y161234D01*
X53225Y161204D01*
X53218Y161176D01*
X53222Y161063D01*
X53219Y160950D01*
X53226Y160921D01*
X53227Y160892D01*
X53262Y160784D01*
X53291Y160675D01*
X53306Y160649D01*
X53315Y160621D01*
X53360Y160557D01*
X53436Y160430D01*
X53482Y160387D01*
X53510Y160348D01*
X54390Y159468D01*
X55349Y157153D01*
X55349Y154647D01*
X54390Y152332D01*
X52618Y150560D01*
X50303Y149601D01*
X47797Y149601D01*
X45482Y150560D01*
X43710Y152332D01*
X42751Y154647D01*
X42751Y157153D01*
X43710Y159468D01*
X45504Y161262D01*
X45505Y161263D01*
X45590Y161376D01*
X45675Y161489D01*
X45675Y161490D01*
X45676Y161490D01*
X45720Y161608D01*
X45776Y161754D01*
X45776Y161755D01*
X45776Y161756D01*
X45788Y161894D01*
X45800Y162038D01*
X45799Y162039D01*
X45800Y162040D01*
X45771Y162180D01*
X45744Y162317D01*
X45743Y162317D01*
X45743Y162318D01*
X45678Y162444D01*
X45613Y162569D01*
X45612Y162569D01*
X45612Y162570D01*
X45511Y162676D01*
X45417Y162775D01*
X45416Y162775D01*
X45415Y162776D01*
X45407Y162781D01*
X45172Y162919D01*
X45143Y162926D01*
X45121Y162938D01*
X44614Y163115D01*
X44612Y163116D01*
X44610Y163117D01*
X44591Y163120D01*
X44432Y163151D01*
X44361Y163257D01*
X44337Y163278D01*
X44323Y163299D01*
X43869Y163752D01*
X43750Y163842D01*
X43691Y163894D01*
X43149Y164235D01*
X43147Y164236D01*
X43145Y164237D01*
X43126Y164245D01*
X42979Y164311D01*
X42934Y164430D01*
X42915Y164455D01*
X42905Y164479D01*
X42564Y165021D01*
X42526Y165066D01*
X42500Y165110D01*
X42456Y165151D01*
X42422Y165199D01*
X41969Y165653D01*
X41967Y165654D01*
X41965Y165656D01*
X41947Y165668D01*
X41820Y165764D01*
X41802Y165891D01*
X41789Y165919D01*
X41785Y165945D01*
X41573Y166550D01*
X41505Y166682D01*
X41475Y166754D01*
X41134Y167297D01*
X41132Y167299D01*
X41131Y167301D01*
X41117Y167317D01*
X41014Y167439D01*
X41025Y167567D01*
X41018Y167597D01*
X41020Y167623D01*
X40948Y168260D01*
X40911Y168404D01*
X40897Y168482D01*
X40686Y169087D01*
X40685Y169089D01*
X40684Y169091D01*
X40674Y169109D01*
X40600Y169252D01*
X40639Y169373D01*
X40639Y169379D01*
X40640Y169383D01*
X40641Y169408D01*
X40647Y169429D01*
X40719Y170066D01*
X40715Y170216D01*
X40719Y170294D01*
X40647Y170931D01*
X40646Y170933D01*
X40647Y170935D01*
X40641Y170955D01*
X40601Y171111D01*
X40608Y171122D01*
X40621Y171142D01*
X40623Y171148D01*
X40666Y171221D01*
X40673Y171251D01*
X40686Y171273D01*
X40897Y171878D01*
X40927Y172025D01*
X40948Y172100D01*
X41020Y172737D01*
X41020Y172739D01*
X41020Y172742D01*
X41019Y172762D01*
X41015Y172917D01*
X41037Y172936D01*
X41062Y172973D01*
X41102Y173016D01*
X41117Y173044D01*
X41134Y173063D01*
X41475Y173606D01*
X41536Y173742D01*
X41573Y173810D01*
X41785Y174415D01*
X41786Y174418D01*
X41787Y174420D01*
X41790Y174440D01*
X41824Y174610D01*
X41851Y174646D01*
X41887Y174740D01*
X41920Y174801D01*
X41963Y174925D01*
X41980Y175010D01*
X42006Y175092D01*
X42008Y175148D01*
X42019Y175204D01*
X42011Y175290D01*
X42014Y175376D01*
X41999Y175431D01*
X41995Y175487D01*
X41964Y175568D01*
X41942Y175651D01*
X41913Y175700D01*
X41893Y175752D01*
X41841Y175822D01*
X41797Y175896D01*
X41756Y175934D01*
X41722Y175979D01*
X41652Y176031D01*
X41589Y176090D01*
X41539Y176116D01*
X41494Y176150D01*
X41413Y176180D01*
X41336Y176220D01*
X41288Y176228D01*
X41228Y176250D01*
X41082Y176262D01*
X41005Y176275D01*
X38934Y176275D01*
X38848Y176263D01*
X38760Y176260D01*
X38708Y176243D01*
X38653Y176235D01*
X38573Y176200D01*
X38490Y176173D01*
X38450Y176145D01*
X38393Y176119D01*
X38280Y176023D01*
X38216Y175978D01*
X32302Y170064D01*
X32250Y169994D01*
X32190Y169930D01*
X32164Y169881D01*
X32131Y169836D01*
X32100Y169755D01*
X32060Y169677D01*
X32052Y169629D01*
X32030Y169571D01*
X32018Y169423D01*
X32005Y169346D01*
X32005Y144087D01*
X32017Y144002D01*
X32019Y143916D01*
X32037Y143862D01*
X32045Y143806D01*
X32080Y143728D01*
X32106Y143646D01*
X32138Y143598D01*
X32161Y143547D01*
X32216Y143481D01*
X32264Y143410D01*
X32308Y143373D01*
X32344Y143330D01*
X32416Y143282D01*
X32482Y143227D01*
X32534Y143203D01*
X32581Y143172D01*
X32663Y143146D01*
X32742Y143111D01*
X32798Y143103D01*
X32852Y143086D01*
X32938Y143084D01*
X33023Y143072D01*
X33079Y143080D01*
X33136Y143079D01*
X33219Y143101D01*
X33304Y143113D01*
X33356Y143136D01*
X33411Y143151D01*
X33485Y143195D01*
X33564Y143230D01*
X33607Y143267D01*
X33656Y143296D01*
X33715Y143359D01*
X33780Y143414D01*
X33806Y143456D01*
X33850Y143503D01*
X33916Y143632D01*
X33958Y143699D01*
X34933Y146053D01*
X36827Y147947D01*
X39301Y148972D01*
X41979Y148972D01*
X44453Y147947D01*
X46347Y146053D01*
X47372Y143579D01*
X47372Y141498D01*
X47384Y141411D01*
X47387Y141324D01*
X47404Y141271D01*
X47412Y141216D01*
X47447Y141136D01*
X47474Y141053D01*
X47502Y141014D01*
X47528Y140957D01*
X47624Y140843D01*
X47669Y140780D01*
X48324Y140125D01*
X50928Y137521D01*
X50928Y130195D01*
X46399Y125666D01*
X46347Y125596D01*
X46287Y125533D01*
X46261Y125483D01*
X46228Y125439D01*
X46197Y125357D01*
X46157Y125279D01*
X46149Y125232D01*
X46127Y125173D01*
X46117Y125051D01*
X46116Y125047D01*
X46115Y125034D01*
X46115Y125026D01*
X46102Y124948D01*
X46102Y122867D01*
X45077Y120393D01*
X44065Y119381D01*
X44064Y119380D01*
X44063Y119379D01*
X43978Y119265D01*
X43894Y119154D01*
X43894Y119152D01*
X43893Y119151D01*
X43844Y119021D01*
X43793Y118888D01*
X43793Y118887D01*
X43792Y118885D01*
X43781Y118742D01*
X43770Y118605D01*
X43770Y118604D01*
X43770Y118602D01*
X43773Y118586D01*
X43825Y118326D01*
X43840Y118299D01*
X43845Y118275D01*
X44832Y115893D01*
X44832Y113215D01*
X43807Y110741D01*
X41913Y108847D01*
X39439Y107822D01*
X36761Y107822D01*
X34287Y108847D01*
X33738Y109396D01*
X33714Y109414D01*
X33695Y109436D01*
X33601Y109499D01*
X33511Y109567D01*
X33483Y109577D01*
X33459Y109594D01*
X33351Y109628D01*
X33245Y109668D01*
X33216Y109671D01*
X33188Y109679D01*
X33074Y109682D01*
X32962Y109692D01*
X32933Y109686D01*
X32904Y109687D01*
X32794Y109658D01*
X32683Y109636D01*
X32657Y109622D01*
X32629Y109615D01*
X32531Y109557D01*
X32431Y109505D01*
X32409Y109485D01*
X32384Y109470D01*
X32307Y109387D01*
X32225Y109309D01*
X32210Y109284D01*
X32190Y109262D01*
X32138Y109161D01*
X32081Y109064D01*
X32074Y109035D01*
X32060Y109009D01*
X32047Y108932D01*
X32011Y108788D01*
X32013Y108726D01*
X32005Y108678D01*
X32005Y74494D01*
X32017Y74408D01*
X32020Y74320D01*
X32037Y74268D01*
X32045Y74213D01*
X32080Y74133D01*
X32107Y74050D01*
X32135Y74010D01*
X32161Y73953D01*
X32257Y73840D01*
X32302Y73776D01*
X61076Y45002D01*
X61146Y44950D01*
X61210Y44890D01*
X61259Y44864D01*
X61304Y44831D01*
X61385Y44800D01*
X61463Y44760D01*
X61511Y44752D01*
X61569Y44730D01*
X61717Y44718D01*
X61794Y44705D01*
X133764Y44705D01*
X143765Y34704D01*
X143765Y25167D01*
X143765Y25165D01*
X143765Y25164D01*
X143785Y25024D01*
X143805Y24885D01*
X143805Y24884D01*
X143805Y24882D01*
X143862Y24757D01*
X143921Y24626D01*
X143922Y24625D01*
X143923Y24623D01*
X144014Y24516D01*
X144104Y24409D01*
X144106Y24408D01*
X144107Y24407D01*
X144120Y24399D01*
X144341Y24251D01*
X144370Y24242D01*
X144391Y24229D01*
X146751Y23252D01*
X150252Y19751D01*
X151462Y16829D01*
X151477Y16804D01*
X151486Y16776D01*
X151549Y16681D01*
X151607Y16584D01*
X151628Y16564D01*
X151644Y16539D01*
X151731Y16466D01*
X151813Y16389D01*
X151839Y16375D01*
X151862Y16356D01*
X151965Y16310D01*
X152066Y16259D01*
X152095Y16253D01*
X152122Y16241D01*
X152234Y16225D01*
X152345Y16204D01*
X152374Y16206D01*
X152403Y16202D01*
X152515Y16218D01*
X152628Y16228D01*
X152655Y16239D01*
X152685Y16243D01*
X152788Y16289D01*
X152893Y16330D01*
X152917Y16348D01*
X152944Y16360D01*
X153030Y16433D01*
X153120Y16502D01*
X153138Y16525D01*
X153160Y16544D01*
X153202Y16611D01*
X153290Y16729D01*
X153312Y16788D01*
X153338Y16829D01*
X154548Y19751D01*
X158049Y23252D01*
X162624Y25147D01*
X167576Y25147D01*
X172151Y23252D01*
X175652Y19751D01*
X176862Y16829D01*
X176877Y16804D01*
X176886Y16776D01*
X176949Y16681D01*
X177007Y16584D01*
X177028Y16564D01*
X177044Y16539D01*
X177131Y16466D01*
X177213Y16389D01*
X177239Y16375D01*
X177262Y16356D01*
X177365Y16310D01*
X177466Y16259D01*
X177495Y16253D01*
X177522Y16241D01*
X177634Y16225D01*
X177745Y16204D01*
X177774Y16206D01*
X177803Y16202D01*
X177915Y16218D01*
X178028Y16228D01*
X178055Y16239D01*
X178085Y16243D01*
X178188Y16289D01*
X178293Y16330D01*
X178317Y16348D01*
X178344Y16360D01*
X178430Y16433D01*
X178520Y16502D01*
X178538Y16525D01*
X178560Y16544D01*
X178602Y16611D01*
X178690Y16729D01*
X178712Y16788D01*
X178738Y16829D01*
X179948Y19751D01*
X183449Y23252D01*
X185809Y24229D01*
X185810Y24230D01*
X185811Y24230D01*
X185932Y24302D01*
X186053Y24373D01*
X186054Y24375D01*
X186056Y24375D01*
X186153Y24479D01*
X186249Y24580D01*
X186249Y24582D01*
X186250Y24583D01*
X186315Y24708D01*
X186379Y24833D01*
X186379Y24834D01*
X186380Y24836D01*
X186382Y24851D01*
X186434Y25112D01*
X186431Y25142D01*
X186435Y25167D01*
X186435Y53754D01*
X234536Y101855D01*
X250317Y101855D01*
X250375Y101863D01*
X250433Y101861D01*
X250515Y101883D01*
X250599Y101895D01*
X250652Y101918D01*
X250708Y101933D01*
X250781Y101976D01*
X250858Y102011D01*
X250903Y102049D01*
X250953Y102078D01*
X251011Y102140D01*
X251075Y102194D01*
X251107Y102243D01*
X251147Y102286D01*
X251186Y102361D01*
X251233Y102431D01*
X251250Y102487D01*
X251277Y102539D01*
X251288Y102607D01*
X251318Y102702D01*
X251321Y102802D01*
X251332Y102870D01*
X251332Y105113D01*
X253408Y107189D01*
X261958Y107189D01*
X262172Y106974D01*
X262219Y106939D01*
X262259Y106897D01*
X262332Y106854D01*
X262399Y106803D01*
X262454Y106783D01*
X262504Y106753D01*
X262586Y106732D01*
X262665Y106702D01*
X262723Y106697D01*
X262780Y106683D01*
X262864Y106686D01*
X262948Y106679D01*
X263006Y106690D01*
X263064Y106692D01*
X263144Y106718D01*
X263227Y106735D01*
X263279Y106761D01*
X263335Y106779D01*
X263391Y106820D01*
X263479Y106866D01*
X263552Y106934D01*
X263608Y106974D01*
X263822Y107189D01*
X272372Y107189D01*
X274448Y105113D01*
X274448Y90467D01*
X273602Y89622D01*
X273550Y89552D01*
X273490Y89488D01*
X273464Y89439D01*
X273431Y89394D01*
X273400Y89313D01*
X273360Y89235D01*
X273352Y89187D01*
X273330Y89129D01*
X273318Y88981D01*
X273305Y88904D01*
X273305Y47846D01*
X267114Y41655D01*
X264956Y41655D01*
X264869Y41643D01*
X264782Y41640D01*
X264729Y41623D01*
X264674Y41615D01*
X264595Y41580D01*
X264511Y41553D01*
X264472Y41525D01*
X264415Y41499D01*
X264302Y41403D01*
X264238Y41358D01*
X262893Y40013D01*
X260419Y38988D01*
X257741Y38988D01*
X255267Y40013D01*
X253373Y41907D01*
X252348Y44381D01*
X252348Y47059D01*
X253373Y49533D01*
X255267Y51427D01*
X257741Y52452D01*
X260419Y52452D01*
X262893Y51427D01*
X263423Y50897D01*
X263470Y50862D01*
X263511Y50819D01*
X263583Y50777D01*
X263650Y50726D01*
X263705Y50705D01*
X263756Y50676D01*
X263837Y50655D01*
X263916Y50625D01*
X263975Y50620D01*
X264032Y50606D01*
X264116Y50608D01*
X264199Y50601D01*
X264257Y50613D01*
X264316Y50615D01*
X264396Y50641D01*
X264478Y50657D01*
X264530Y50684D01*
X264586Y50703D01*
X264642Y50743D01*
X264730Y50788D01*
X264773Y50829D01*
X264796Y50843D01*
X264823Y50872D01*
X264859Y50898D01*
X264878Y50917D01*
X264911Y50960D01*
X264936Y50984D01*
X264949Y51006D01*
X264990Y51050D01*
X265016Y51100D01*
X265049Y51144D01*
X265080Y51226D01*
X265120Y51303D01*
X265128Y51351D01*
X265150Y51410D01*
X265162Y51557D01*
X265175Y51634D01*
X265175Y87376D01*
X265168Y87425D01*
X265169Y87432D01*
X265167Y87437D01*
X265169Y87492D01*
X265147Y87574D01*
X265135Y87658D01*
X265112Y87711D01*
X265097Y87767D01*
X265054Y87840D01*
X265019Y87917D01*
X264981Y87962D01*
X264952Y88012D01*
X264890Y88070D01*
X264836Y88134D01*
X264787Y88166D01*
X264744Y88206D01*
X264669Y88245D01*
X264599Y88292D01*
X264543Y88309D01*
X264491Y88336D01*
X264423Y88347D01*
X264328Y88377D01*
X264228Y88380D01*
X264160Y88391D01*
X263822Y88391D01*
X263608Y88606D01*
X263561Y88641D01*
X263521Y88683D01*
X263448Y88726D01*
X263381Y88777D01*
X263326Y88797D01*
X263276Y88827D01*
X263194Y88848D01*
X263115Y88878D01*
X263057Y88883D01*
X263000Y88897D01*
X262916Y88894D01*
X262832Y88901D01*
X262774Y88890D01*
X262716Y88888D01*
X262636Y88862D01*
X262553Y88845D01*
X262501Y88819D01*
X262445Y88801D01*
X262389Y88761D01*
X262301Y88715D01*
X262228Y88646D01*
X262172Y88606D01*
X261958Y88391D01*
X253408Y88391D01*
X251332Y90467D01*
X251332Y92710D01*
X251324Y92768D01*
X251326Y92826D01*
X251304Y92908D01*
X251292Y92992D01*
X251269Y93045D01*
X251254Y93101D01*
X251211Y93174D01*
X251176Y93251D01*
X251138Y93296D01*
X251109Y93346D01*
X251047Y93404D01*
X250993Y93468D01*
X250944Y93500D01*
X250901Y93540D01*
X250826Y93579D01*
X250756Y93626D01*
X250700Y93643D01*
X250648Y93670D01*
X250580Y93681D01*
X250485Y93711D01*
X250385Y93714D01*
X250317Y93725D01*
X238324Y93725D01*
X238238Y93713D01*
X238150Y93710D01*
X238098Y93693D01*
X238043Y93685D01*
X237963Y93650D01*
X237880Y93623D01*
X237840Y93595D01*
X237783Y93569D01*
X237670Y93473D01*
X237606Y93428D01*
X194862Y50684D01*
X194810Y50614D01*
X194750Y50550D01*
X194724Y50501D01*
X194691Y50456D01*
X194660Y50375D01*
X194620Y50297D01*
X194612Y50249D01*
X194590Y50191D01*
X194578Y50043D01*
X194565Y49966D01*
X194565Y25167D01*
X194565Y25165D01*
X194565Y25164D01*
X194585Y25024D01*
X194605Y24885D01*
X194605Y24884D01*
X194605Y24882D01*
X194662Y24757D01*
X194721Y24626D01*
X194722Y24625D01*
X194723Y24623D01*
X194814Y24516D01*
X194904Y24409D01*
X194906Y24408D01*
X194907Y24407D01*
X194920Y24399D01*
X195141Y24251D01*
X195170Y24242D01*
X195191Y24229D01*
X197551Y23252D01*
X201052Y19751D01*
X202947Y15176D01*
X202947Y10224D01*
X200977Y5469D01*
X200948Y5357D01*
X200914Y5248D01*
X200913Y5220D01*
X200906Y5193D01*
X200909Y5079D01*
X200906Y4964D01*
X200913Y4937D01*
X200914Y4909D01*
X200949Y4800D01*
X200978Y4689D01*
X200992Y4665D01*
X201001Y4638D01*
X201065Y4543D01*
X201123Y4444D01*
X201144Y4425D01*
X201159Y4402D01*
X201247Y4328D01*
X201331Y4250D01*
X201355Y4237D01*
X201377Y4219D01*
X201481Y4173D01*
X201584Y4120D01*
X201608Y4116D01*
X201636Y4104D01*
X201900Y4067D01*
X201915Y4065D01*
X229000Y4065D01*
X229058Y4073D01*
G37*
G36*
X53115Y4078D02*
X53115Y4078D01*
X53207Y4081D01*
X53256Y4097D01*
X53306Y4105D01*
X53390Y4142D01*
X53477Y4171D01*
X53519Y4200D01*
X53565Y4221D01*
X53635Y4280D01*
X53711Y4332D01*
X53743Y4372D01*
X53782Y4404D01*
X53833Y4481D01*
X53892Y4552D01*
X53912Y4599D01*
X53940Y4641D01*
X53968Y4729D01*
X54004Y4813D01*
X54010Y4864D01*
X54026Y4912D01*
X54028Y5004D01*
X54039Y5095D01*
X54032Y5146D01*
X54033Y5196D01*
X54010Y5285D01*
X53995Y5376D01*
X53975Y5416D01*
X53961Y5471D01*
X53880Y5608D01*
X53846Y5677D01*
X53289Y6443D01*
X52436Y8117D01*
X51855Y9904D01*
X51734Y10669D01*
X62484Y10669D01*
X62542Y10677D01*
X62600Y10675D01*
X62682Y10697D01*
X62765Y10709D01*
X62819Y10733D01*
X62875Y10747D01*
X62948Y10790D01*
X63025Y10825D01*
X63069Y10863D01*
X63120Y10893D01*
X63177Y10954D01*
X63242Y11009D01*
X63274Y11057D01*
X63314Y11100D01*
X63353Y11175D01*
X63399Y11245D01*
X63417Y11301D01*
X63444Y11353D01*
X63455Y11421D01*
X63485Y11516D01*
X63488Y11616D01*
X63499Y11684D01*
X63499Y12701D01*
X64516Y12701D01*
X64574Y12709D01*
X64632Y12708D01*
X64714Y12729D01*
X64797Y12741D01*
X64851Y12765D01*
X64907Y12779D01*
X64980Y12822D01*
X65057Y12857D01*
X65102Y12895D01*
X65152Y12925D01*
X65210Y12986D01*
X65274Y13041D01*
X65306Y13089D01*
X65346Y13132D01*
X65385Y13207D01*
X65431Y13277D01*
X65449Y13333D01*
X65476Y13385D01*
X65487Y13453D01*
X65517Y13548D01*
X65520Y13648D01*
X65531Y13716D01*
X65531Y24466D01*
X66296Y24345D01*
X68083Y23764D01*
X69757Y22911D01*
X71278Y21806D01*
X72606Y20478D01*
X73711Y18957D01*
X74564Y17283D01*
X74928Y16163D01*
X74958Y16101D01*
X74979Y16035D01*
X75020Y15974D01*
X75053Y15908D01*
X75099Y15857D01*
X75138Y15799D01*
X75194Y15752D01*
X75243Y15697D01*
X75302Y15661D01*
X75355Y15616D01*
X75422Y15586D01*
X75485Y15547D01*
X75552Y15529D01*
X75615Y15501D01*
X75688Y15491D01*
X75759Y15471D01*
X75828Y15471D01*
X75897Y15462D01*
X75969Y15472D01*
X76043Y15473D01*
X76110Y15493D01*
X76178Y15502D01*
X76245Y15533D01*
X76316Y15554D01*
X76374Y15591D01*
X76437Y15620D01*
X76493Y15667D01*
X76555Y15707D01*
X76601Y15759D01*
X76653Y15804D01*
X76686Y15857D01*
X76743Y15921D01*
X76792Y16025D01*
X76831Y16089D01*
X78348Y19751D01*
X81849Y23252D01*
X86424Y25147D01*
X91376Y25147D01*
X95951Y23252D01*
X99452Y19751D01*
X100662Y16829D01*
X100677Y16804D01*
X100686Y16776D01*
X100749Y16681D01*
X100807Y16584D01*
X100828Y16564D01*
X100844Y16539D01*
X100931Y16466D01*
X101013Y16389D01*
X101039Y16375D01*
X101062Y16356D01*
X101165Y16310D01*
X101266Y16259D01*
X101295Y16253D01*
X101322Y16241D01*
X101434Y16225D01*
X101545Y16204D01*
X101574Y16206D01*
X101603Y16202D01*
X101715Y16218D01*
X101828Y16228D01*
X101855Y16239D01*
X101885Y16243D01*
X101988Y16289D01*
X102093Y16330D01*
X102117Y16348D01*
X102144Y16360D01*
X102230Y16433D01*
X102320Y16502D01*
X102338Y16525D01*
X102360Y16544D01*
X102402Y16611D01*
X102490Y16729D01*
X102512Y16788D01*
X102538Y16829D01*
X103748Y19751D01*
X107249Y23252D01*
X111824Y25147D01*
X116776Y25147D01*
X121351Y23252D01*
X124852Y19751D01*
X126062Y16829D01*
X126077Y16804D01*
X126086Y16776D01*
X126149Y16681D01*
X126207Y16584D01*
X126228Y16564D01*
X126244Y16539D01*
X126331Y16466D01*
X126413Y16389D01*
X126439Y16375D01*
X126462Y16356D01*
X126565Y16310D01*
X126666Y16259D01*
X126695Y16253D01*
X126722Y16241D01*
X126834Y16225D01*
X126945Y16204D01*
X126974Y16206D01*
X127003Y16202D01*
X127115Y16218D01*
X127228Y16228D01*
X127255Y16239D01*
X127285Y16243D01*
X127388Y16289D01*
X127493Y16330D01*
X127517Y16348D01*
X127544Y16360D01*
X127630Y16433D01*
X127720Y16502D01*
X127738Y16525D01*
X127760Y16544D01*
X127802Y16611D01*
X127890Y16729D01*
X127912Y16788D01*
X127938Y16829D01*
X129148Y19751D01*
X132649Y23252D01*
X135009Y24229D01*
X135010Y24230D01*
X135011Y24230D01*
X135132Y24302D01*
X135253Y24373D01*
X135254Y24375D01*
X135256Y24375D01*
X135353Y24479D01*
X135449Y24580D01*
X135449Y24582D01*
X135450Y24583D01*
X135515Y24708D01*
X135579Y24833D01*
X135579Y24834D01*
X135580Y24836D01*
X135582Y24851D01*
X135634Y25112D01*
X135631Y25142D01*
X135635Y25167D01*
X135635Y30916D01*
X135623Y31002D01*
X135620Y31090D01*
X135603Y31142D01*
X135595Y31197D01*
X135560Y31277D01*
X135533Y31360D01*
X135505Y31400D01*
X135479Y31457D01*
X135383Y31570D01*
X135338Y31634D01*
X130694Y36278D01*
X130624Y36330D01*
X130560Y36390D01*
X130511Y36416D01*
X130466Y36449D01*
X130385Y36480D01*
X130307Y36520D01*
X130259Y36528D01*
X130201Y36550D01*
X130053Y36562D01*
X129976Y36575D01*
X58006Y36575D01*
X23875Y70706D01*
X23875Y78285D01*
X23871Y78314D01*
X23874Y78344D01*
X23851Y78455D01*
X23835Y78567D01*
X23823Y78594D01*
X23818Y78622D01*
X23766Y78723D01*
X23719Y78826D01*
X23700Y78849D01*
X23687Y78875D01*
X23609Y78957D01*
X23536Y79043D01*
X23511Y79060D01*
X23491Y79081D01*
X23393Y79138D01*
X23299Y79201D01*
X23271Y79210D01*
X23246Y79225D01*
X23136Y79252D01*
X23028Y79287D01*
X22998Y79287D01*
X22970Y79295D01*
X22857Y79291D01*
X22744Y79294D01*
X22715Y79287D01*
X22686Y79286D01*
X22578Y79251D01*
X22469Y79222D01*
X22443Y79207D01*
X22415Y79198D01*
X22352Y79153D01*
X22224Y79077D01*
X22181Y79031D01*
X22142Y79003D01*
X21978Y78839D01*
X21888Y78720D01*
X21836Y78661D01*
X21495Y78119D01*
X21494Y78117D01*
X21493Y78115D01*
X21485Y78096D01*
X21419Y77949D01*
X21300Y77904D01*
X21275Y77885D01*
X21251Y77875D01*
X20709Y77534D01*
X20594Y77437D01*
X20531Y77392D01*
X20077Y76939D01*
X20076Y76937D01*
X20074Y76935D01*
X20062Y76917D01*
X19966Y76790D01*
X19839Y76772D01*
X19811Y76759D01*
X19785Y76755D01*
X19180Y76543D01*
X19048Y76475D01*
X18976Y76445D01*
X18433Y76104D01*
X18431Y76102D01*
X18429Y76101D01*
X18413Y76087D01*
X18291Y75984D01*
X18163Y75995D01*
X18133Y75988D01*
X18107Y75990D01*
X17470Y75918D01*
X17326Y75881D01*
X17248Y75867D01*
X17054Y75799D01*
X17001Y75772D01*
X16944Y75754D01*
X16889Y75714D01*
X16865Y75702D01*
X16722Y75681D01*
X16693Y75669D01*
X16668Y75664D01*
X16475Y75597D01*
X16424Y75621D01*
X16368Y75639D01*
X16315Y75666D01*
X16247Y75677D01*
X16154Y75707D01*
X16053Y75710D01*
X15984Y75721D01*
X15781Y75721D01*
X15717Y75712D01*
X15667Y75715D01*
X14585Y75593D01*
X14499Y75644D01*
X14469Y75652D01*
X14442Y75666D01*
X14364Y75679D01*
X14223Y75715D01*
X14159Y75713D01*
X14111Y75721D01*
X10989Y75721D01*
X10959Y75717D01*
X10928Y75719D01*
X10819Y75697D01*
X10708Y75681D01*
X10680Y75669D01*
X10650Y75663D01*
X10581Y75625D01*
X10511Y75593D01*
X9433Y75715D01*
X9368Y75713D01*
X9319Y75721D01*
X9116Y75721D01*
X9057Y75713D01*
X8998Y75714D01*
X8932Y75695D01*
X8835Y75681D01*
X8742Y75640D01*
X8676Y75621D01*
X8626Y75597D01*
X8432Y75664D01*
X8430Y75665D01*
X8428Y75666D01*
X8408Y75669D01*
X8237Y75703D01*
X8202Y75730D01*
X8107Y75766D01*
X8046Y75799D01*
X7852Y75867D01*
X7705Y75897D01*
X7630Y75918D01*
X6993Y75990D01*
X6991Y75990D01*
X6988Y75990D01*
X6968Y75989D01*
X6807Y75985D01*
X6714Y76072D01*
X6686Y76087D01*
X6667Y76104D01*
X6124Y76445D01*
X5988Y76506D01*
X5920Y76543D01*
X5415Y76720D01*
X5330Y76737D01*
X5248Y76763D01*
X5192Y76764D01*
X5136Y76775D01*
X5050Y76768D01*
X4964Y76770D01*
X4909Y76756D01*
X4853Y76751D01*
X4772Y76720D01*
X4689Y76698D01*
X4640Y76670D01*
X4588Y76650D01*
X4519Y76597D01*
X4444Y76553D01*
X4406Y76512D01*
X4361Y76478D01*
X4309Y76409D01*
X4250Y76346D01*
X4224Y76296D01*
X4190Y76251D01*
X4160Y76170D01*
X4120Y76093D01*
X4112Y76044D01*
X4090Y75985D01*
X4078Y75839D01*
X4065Y75762D01*
X4065Y37449D01*
X4067Y37429D01*
X4065Y37410D01*
X4087Y37289D01*
X4105Y37167D01*
X4113Y37149D01*
X4116Y37130D01*
X4171Y37020D01*
X4221Y36908D01*
X4233Y36893D01*
X4242Y36875D01*
X4325Y36784D01*
X4404Y36691D01*
X4421Y36680D01*
X4434Y36665D01*
X4539Y36601D01*
X4641Y36533D01*
X4660Y36527D01*
X4676Y36517D01*
X4795Y36484D01*
X4912Y36447D01*
X4932Y36447D01*
X4951Y36442D01*
X5073Y36443D01*
X5196Y36440D01*
X5215Y36445D01*
X5235Y36445D01*
X5353Y36481D01*
X5471Y36512D01*
X5488Y36522D01*
X5507Y36528D01*
X5610Y36594D01*
X5716Y36657D01*
X5729Y36671D01*
X5746Y36682D01*
X5792Y36739D01*
X5910Y36864D01*
X5934Y36910D01*
X5959Y36941D01*
X7815Y40156D01*
X13922Y45280D01*
X21414Y48007D01*
X29386Y48007D01*
X36878Y45280D01*
X42985Y40156D01*
X46971Y33251D01*
X48355Y25400D01*
X46971Y17549D01*
X42985Y10645D01*
X37280Y5858D01*
X37231Y5803D01*
X37175Y5755D01*
X37136Y5698D01*
X37090Y5646D01*
X37058Y5580D01*
X37017Y5519D01*
X36996Y5453D01*
X36966Y5390D01*
X36954Y5318D01*
X36932Y5248D01*
X36930Y5179D01*
X36918Y5110D01*
X36926Y5037D01*
X36924Y4964D01*
X36942Y4897D01*
X36949Y4828D01*
X36977Y4760D01*
X36996Y4689D01*
X37031Y4629D01*
X37058Y4565D01*
X37104Y4507D01*
X37141Y4444D01*
X37192Y4397D01*
X37235Y4343D01*
X37295Y4300D01*
X37349Y4250D01*
X37410Y4218D01*
X37467Y4178D01*
X37536Y4154D01*
X37602Y4120D01*
X37660Y4110D01*
X37735Y4084D01*
X37857Y4077D01*
X37933Y4065D01*
X53024Y4065D01*
X53115Y4078D01*
G37*
%LPC*%
G36*
X303461Y69468D02*
X303461Y69468D01*
X300987Y70493D01*
X299093Y72387D01*
X298068Y74861D01*
X298068Y77539D01*
X299093Y80013D01*
X300438Y81358D01*
X300490Y81428D01*
X300550Y81492D01*
X300576Y81541D01*
X300609Y81585D01*
X300640Y81667D01*
X300680Y81745D01*
X300688Y81792D01*
X300710Y81851D01*
X300722Y81999D01*
X300735Y82076D01*
X300735Y109656D01*
X300727Y109713D01*
X300729Y109767D01*
X300721Y109795D01*
X300720Y109830D01*
X300703Y109882D01*
X300695Y109937D01*
X300668Y109998D01*
X300657Y110042D01*
X300645Y110061D01*
X300633Y110100D01*
X300605Y110140D01*
X300579Y110197D01*
X300531Y110253D01*
X300512Y110287D01*
X300477Y110319D01*
X300438Y110374D01*
X289444Y121368D01*
X289374Y121420D01*
X289310Y121480D01*
X289261Y121506D01*
X289216Y121539D01*
X289135Y121570D01*
X289057Y121610D01*
X289009Y121618D01*
X288951Y121640D01*
X288803Y121652D01*
X288726Y121665D01*
X275463Y121665D01*
X275405Y121657D01*
X275347Y121659D01*
X275265Y121637D01*
X275181Y121625D01*
X275128Y121602D01*
X275072Y121587D01*
X274999Y121544D01*
X274922Y121509D01*
X274877Y121471D01*
X274827Y121442D01*
X274769Y121380D01*
X274705Y121326D01*
X274673Y121277D01*
X274633Y121234D01*
X274594Y121159D01*
X274547Y121089D01*
X274530Y121033D01*
X274503Y120981D01*
X274492Y120913D01*
X274462Y120818D01*
X274459Y120718D01*
X274448Y120650D01*
X274448Y118407D01*
X272372Y116331D01*
X263822Y116331D01*
X263608Y116546D01*
X263561Y116581D01*
X263521Y116623D01*
X263448Y116666D01*
X263381Y116717D01*
X263326Y116737D01*
X263276Y116767D01*
X263194Y116788D01*
X263115Y116818D01*
X263057Y116823D01*
X263000Y116837D01*
X262916Y116834D01*
X262832Y116841D01*
X262774Y116830D01*
X262716Y116828D01*
X262636Y116802D01*
X262553Y116785D01*
X262501Y116759D01*
X262445Y116741D01*
X262389Y116701D01*
X262301Y116655D01*
X262228Y116586D01*
X262172Y116546D01*
X261958Y116331D01*
X253408Y116331D01*
X251332Y118407D01*
X251332Y133053D01*
X253321Y135041D01*
X253373Y135111D01*
X253433Y135175D01*
X253459Y135224D01*
X253492Y135269D01*
X253523Y135350D01*
X253563Y135428D01*
X253571Y135476D01*
X253593Y135534D01*
X253605Y135682D01*
X253618Y135759D01*
X253618Y136304D01*
X261079Y143765D01*
X328803Y143765D01*
X328861Y143773D01*
X328919Y143771D01*
X329001Y143793D01*
X329085Y143805D01*
X329138Y143828D01*
X329194Y143843D01*
X329267Y143886D01*
X329344Y143921D01*
X329389Y143959D01*
X329439Y143988D01*
X329497Y144050D01*
X329561Y144104D01*
X329593Y144153D01*
X329633Y144196D01*
X329672Y144271D01*
X329719Y144341D01*
X329736Y144397D01*
X329763Y144449D01*
X329774Y144517D01*
X329804Y144612D01*
X329807Y144712D01*
X329818Y144780D01*
X329818Y146119D01*
X330843Y148593D01*
X332737Y150487D01*
X335211Y151512D01*
X337889Y151512D01*
X340363Y150487D01*
X342257Y148593D01*
X343282Y146119D01*
X343282Y143441D01*
X342257Y140967D01*
X340363Y139073D01*
X337889Y138048D01*
X335987Y138048D01*
X335901Y138036D01*
X335813Y138033D01*
X335761Y138016D01*
X335706Y138008D01*
X335626Y137973D01*
X335543Y137946D01*
X335503Y137918D01*
X335446Y137892D01*
X335333Y137796D01*
X335269Y137751D01*
X333154Y135635D01*
X274316Y135635D01*
X274287Y135631D01*
X274258Y135634D01*
X274147Y135611D01*
X274035Y135595D01*
X274008Y135583D01*
X273979Y135578D01*
X273878Y135525D01*
X273775Y135479D01*
X273753Y135460D01*
X273727Y135447D01*
X273645Y135369D01*
X273558Y135296D01*
X273542Y135271D01*
X273521Y135251D01*
X273464Y135153D01*
X273401Y135059D01*
X273392Y135031D01*
X273377Y135006D01*
X273349Y134896D01*
X273315Y134788D01*
X273314Y134758D01*
X273307Y134730D01*
X273311Y134617D01*
X273308Y134504D01*
X273315Y134475D01*
X273316Y134446D01*
X273351Y134338D01*
X273379Y134229D01*
X273394Y134203D01*
X273403Y134175D01*
X273449Y134111D01*
X273525Y133984D01*
X273570Y133941D01*
X273598Y133902D01*
X274448Y133053D01*
X274448Y130810D01*
X274456Y130752D01*
X274454Y130694D01*
X274476Y130612D01*
X274488Y130528D01*
X274511Y130475D01*
X274526Y130419D01*
X274569Y130346D01*
X274604Y130269D01*
X274642Y130224D01*
X274671Y130174D01*
X274733Y130116D01*
X274787Y130052D01*
X274836Y130020D01*
X274879Y129980D01*
X274954Y129941D01*
X275024Y129894D01*
X275080Y129877D01*
X275132Y129850D01*
X275200Y129839D01*
X275295Y129809D01*
X275395Y129806D01*
X275463Y129795D01*
X292514Y129795D01*
X308865Y113444D01*
X308865Y82076D01*
X308877Y81989D01*
X308880Y81902D01*
X308897Y81849D01*
X308905Y81794D01*
X308940Y81715D01*
X308967Y81631D01*
X308995Y81592D01*
X309021Y81535D01*
X309117Y81422D01*
X309162Y81358D01*
X310507Y80013D01*
X311532Y77539D01*
X311532Y74861D01*
X310507Y72387D01*
X308613Y70493D01*
X306139Y69468D01*
X303461Y69468D01*
G37*
%LPD*%
G36*
X22947Y88347D02*
X22947Y88347D01*
X22976Y88346D01*
X23086Y88375D01*
X23197Y88397D01*
X23223Y88410D01*
X23251Y88418D01*
X23349Y88476D01*
X23449Y88528D01*
X23471Y88548D01*
X23496Y88563D01*
X23573Y88646D01*
X23655Y88724D01*
X23670Y88749D01*
X23690Y88770D01*
X23742Y88871D01*
X23799Y88969D01*
X23806Y88997D01*
X23820Y89024D01*
X23833Y89101D01*
X23869Y89245D01*
X23867Y89307D01*
X23875Y89355D01*
X23875Y164645D01*
X23871Y164674D01*
X23874Y164704D01*
X23851Y164815D01*
X23835Y164927D01*
X23823Y164954D01*
X23818Y164982D01*
X23766Y165083D01*
X23719Y165186D01*
X23700Y165209D01*
X23687Y165235D01*
X23609Y165317D01*
X23536Y165403D01*
X23511Y165420D01*
X23491Y165441D01*
X23393Y165498D01*
X23299Y165561D01*
X23271Y165570D01*
X23246Y165585D01*
X23136Y165612D01*
X23028Y165647D01*
X22998Y165647D01*
X22970Y165655D01*
X22857Y165651D01*
X22744Y165654D01*
X22715Y165647D01*
X22686Y165646D01*
X22578Y165611D01*
X22469Y165582D01*
X22443Y165567D01*
X22415Y165558D01*
X22352Y165513D01*
X22224Y165437D01*
X22181Y165391D01*
X22142Y165363D01*
X21978Y165199D01*
X21954Y165167D01*
X21934Y165150D01*
X21883Y165074D01*
X21836Y165021D01*
X21495Y164479D01*
X21494Y164477D01*
X21493Y164475D01*
X21485Y164456D01*
X21419Y164309D01*
X21300Y164264D01*
X21275Y164245D01*
X21251Y164235D01*
X20709Y163894D01*
X20595Y163797D01*
X20531Y163752D01*
X20077Y163299D01*
X20076Y163297D01*
X20074Y163295D01*
X20063Y163279D01*
X19966Y163150D01*
X19839Y163132D01*
X19811Y163119D01*
X19785Y163115D01*
X19180Y162903D01*
X19048Y162835D01*
X18976Y162805D01*
X18433Y162464D01*
X18431Y162462D01*
X18429Y162461D01*
X18413Y162447D01*
X18291Y162344D01*
X18163Y162355D01*
X18133Y162348D01*
X18107Y162350D01*
X17470Y162278D01*
X17326Y162241D01*
X17248Y162227D01*
X17054Y162159D01*
X17001Y162132D01*
X16944Y162114D01*
X16889Y162074D01*
X16865Y162062D01*
X16722Y162041D01*
X16693Y162029D01*
X16668Y162024D01*
X16475Y161957D01*
X16424Y161981D01*
X16368Y161999D01*
X16315Y162026D01*
X16247Y162037D01*
X16154Y162067D01*
X16053Y162070D01*
X15984Y162081D01*
X15781Y162081D01*
X15717Y162072D01*
X15667Y162075D01*
X14585Y161953D01*
X14499Y162004D01*
X14469Y162012D01*
X14442Y162026D01*
X14364Y162039D01*
X14223Y162075D01*
X14159Y162073D01*
X14111Y162081D01*
X10989Y162081D01*
X10959Y162077D01*
X10928Y162079D01*
X10819Y162057D01*
X10708Y162041D01*
X10680Y162029D01*
X10650Y162023D01*
X10581Y161985D01*
X10511Y161953D01*
X9433Y162075D01*
X9368Y162073D01*
X9319Y162081D01*
X9116Y162081D01*
X9057Y162073D01*
X8998Y162074D01*
X8932Y162055D01*
X8835Y162041D01*
X8742Y162000D01*
X8676Y161981D01*
X8626Y161957D01*
X8432Y162024D01*
X8430Y162025D01*
X8428Y162026D01*
X8408Y162029D01*
X8237Y162063D01*
X8202Y162090D01*
X8107Y162126D01*
X8046Y162159D01*
X7852Y162227D01*
X7705Y162257D01*
X7630Y162278D01*
X6993Y162350D01*
X6991Y162350D01*
X6988Y162350D01*
X6968Y162349D01*
X6807Y162345D01*
X6714Y162432D01*
X6686Y162447D01*
X6667Y162464D01*
X6124Y162805D01*
X5988Y162866D01*
X5920Y162903D01*
X5415Y163080D01*
X5330Y163097D01*
X5248Y163123D01*
X5192Y163124D01*
X5136Y163135D01*
X5050Y163128D01*
X4964Y163130D01*
X4909Y163116D01*
X4853Y163111D01*
X4772Y163080D01*
X4689Y163058D01*
X4640Y163030D01*
X4588Y163010D01*
X4519Y162957D01*
X4444Y162913D01*
X4406Y162872D01*
X4361Y162838D01*
X4309Y162769D01*
X4250Y162706D01*
X4224Y162656D01*
X4190Y162611D01*
X4160Y162530D01*
X4120Y162453D01*
X4112Y162404D01*
X4090Y162345D01*
X4078Y162199D01*
X4065Y162122D01*
X4065Y91878D01*
X4077Y91793D01*
X4079Y91706D01*
X4097Y91653D01*
X4105Y91597D01*
X4140Y91518D01*
X4166Y91435D01*
X4198Y91389D01*
X4221Y91337D01*
X4277Y91271D01*
X4325Y91200D01*
X4368Y91163D01*
X4404Y91120D01*
X4477Y91072D01*
X4543Y91017D01*
X4594Y90994D01*
X4641Y90963D01*
X4724Y90937D01*
X4803Y90902D01*
X4859Y90894D01*
X4912Y90877D01*
X4999Y90875D01*
X5084Y90863D01*
X5133Y90871D01*
X5196Y90870D01*
X5338Y90907D01*
X5415Y90920D01*
X5920Y91097D01*
X6052Y91165D01*
X6124Y91195D01*
X6661Y91532D01*
X6667Y91536D01*
X6669Y91538D01*
X6671Y91539D01*
X6687Y91553D01*
X6809Y91656D01*
X6937Y91645D01*
X6967Y91652D01*
X6993Y91650D01*
X7630Y91722D01*
X7774Y91759D01*
X7852Y91773D01*
X8046Y91841D01*
X8099Y91868D01*
X8156Y91886D01*
X8211Y91926D01*
X8235Y91938D01*
X8378Y91959D01*
X8407Y91971D01*
X8432Y91976D01*
X8625Y92043D01*
X8676Y92019D01*
X8732Y92001D01*
X8785Y91974D01*
X8853Y91963D01*
X8946Y91933D01*
X9047Y91930D01*
X9116Y91919D01*
X9319Y91919D01*
X9383Y91928D01*
X9433Y91925D01*
X10515Y92047D01*
X10601Y91996D01*
X10631Y91988D01*
X10658Y91974D01*
X10736Y91961D01*
X10877Y91925D01*
X10941Y91927D01*
X10989Y91919D01*
X14111Y91919D01*
X14141Y91923D01*
X14172Y91921D01*
X14281Y91943D01*
X14392Y91959D01*
X14420Y91971D01*
X14450Y91977D01*
X14519Y92015D01*
X14589Y92047D01*
X15667Y91925D01*
X15732Y91927D01*
X15781Y91919D01*
X15984Y91919D01*
X16043Y91927D01*
X16102Y91926D01*
X16168Y91945D01*
X16265Y91959D01*
X16358Y92000D01*
X16424Y92019D01*
X16474Y92043D01*
X16668Y91976D01*
X16670Y91975D01*
X16672Y91974D01*
X16692Y91971D01*
X16863Y91937D01*
X16898Y91910D01*
X16993Y91874D01*
X17054Y91841D01*
X17248Y91773D01*
X17395Y91743D01*
X17470Y91722D01*
X18107Y91650D01*
X18109Y91650D01*
X18112Y91650D01*
X18132Y91651D01*
X18293Y91655D01*
X18386Y91568D01*
X18393Y91564D01*
X18396Y91561D01*
X18417Y91550D01*
X18433Y91536D01*
X18976Y91195D01*
X19112Y91134D01*
X19180Y91097D01*
X19785Y90885D01*
X19788Y90884D01*
X19790Y90883D01*
X19810Y90880D01*
X19968Y90849D01*
X20039Y90742D01*
X20063Y90722D01*
X20077Y90701D01*
X20531Y90248D01*
X20650Y90158D01*
X20709Y90106D01*
X21251Y89765D01*
X21253Y89764D01*
X21255Y89763D01*
X21274Y89755D01*
X21421Y89689D01*
X21466Y89570D01*
X21485Y89545D01*
X21495Y89521D01*
X21836Y88979D01*
X21933Y88864D01*
X21978Y88801D01*
X22142Y88637D01*
X22166Y88619D01*
X22185Y88597D01*
X22279Y88534D01*
X22369Y88466D01*
X22397Y88455D01*
X22421Y88439D01*
X22529Y88405D01*
X22635Y88365D01*
X22664Y88362D01*
X22692Y88353D01*
X22806Y88350D01*
X22918Y88341D01*
X22947Y88347D01*
G37*
%LPC*%
G36*
X214561Y183768D02*
X214561Y183768D01*
X212087Y184793D01*
X210193Y186687D01*
X209168Y189161D01*
X209168Y191839D01*
X210193Y194313D01*
X211538Y195658D01*
X211590Y195728D01*
X211650Y195792D01*
X211676Y195841D01*
X211709Y195885D01*
X211740Y195967D01*
X211780Y196045D01*
X211788Y196092D01*
X211810Y196151D01*
X211822Y196299D01*
X211835Y196376D01*
X211835Y217584D01*
X225646Y231395D01*
X311624Y231395D01*
X311711Y231407D01*
X311798Y231410D01*
X311851Y231427D01*
X311906Y231435D01*
X311985Y231470D01*
X312069Y231497D01*
X312108Y231525D01*
X312165Y231551D01*
X312278Y231647D01*
X312342Y231692D01*
X313687Y233037D01*
X316161Y234062D01*
X318839Y234062D01*
X321313Y233037D01*
X323207Y231143D01*
X324232Y228669D01*
X324232Y225991D01*
X323207Y223517D01*
X321313Y221623D01*
X318839Y220598D01*
X316161Y220598D01*
X313687Y221623D01*
X312342Y222968D01*
X312272Y223020D01*
X312208Y223080D01*
X312159Y223106D01*
X312115Y223139D01*
X312033Y223170D01*
X311955Y223210D01*
X311908Y223218D01*
X311849Y223240D01*
X311701Y223252D01*
X311624Y223265D01*
X229434Y223265D01*
X229348Y223253D01*
X229260Y223250D01*
X229208Y223233D01*
X229153Y223225D01*
X229073Y223190D01*
X228990Y223163D01*
X228950Y223135D01*
X228893Y223109D01*
X228780Y223013D01*
X228716Y222968D01*
X220262Y214514D01*
X220210Y214444D01*
X220150Y214380D01*
X220124Y214331D01*
X220091Y214286D01*
X220060Y214205D01*
X220020Y214127D01*
X220012Y214079D01*
X219990Y214021D01*
X219978Y213873D01*
X219965Y213796D01*
X219965Y196376D01*
X219977Y196289D01*
X219980Y196202D01*
X219997Y196149D01*
X220005Y196094D01*
X220040Y196015D01*
X220067Y195931D01*
X220095Y195892D01*
X220121Y195835D01*
X220217Y195722D01*
X220262Y195658D01*
X221607Y194313D01*
X222632Y191839D01*
X222632Y189161D01*
X221607Y186687D01*
X219713Y184793D01*
X217239Y183768D01*
X214561Y183768D01*
G37*
%LPD*%
%LPC*%
G36*
X406044Y201141D02*
X406044Y201141D01*
X401248Y203128D01*
X397578Y206798D01*
X395591Y211594D01*
X395591Y216786D01*
X397578Y221582D01*
X401248Y225252D01*
X406044Y227239D01*
X411236Y227239D01*
X416032Y225252D01*
X419702Y221582D01*
X421689Y216786D01*
X421689Y211594D01*
X419702Y206798D01*
X416032Y203128D01*
X411236Y201141D01*
X406044Y201141D01*
G37*
%LPD*%
%LPC*%
G36*
X299044Y27141D02*
X299044Y27141D01*
X294248Y29128D01*
X290578Y32798D01*
X288591Y37594D01*
X288591Y42786D01*
X290578Y47582D01*
X294248Y51252D01*
X299044Y53239D01*
X304236Y53239D01*
X309032Y51252D01*
X312702Y47582D01*
X314689Y42786D01*
X314689Y37594D01*
X312702Y32798D01*
X309032Y29128D01*
X304236Y27141D01*
X299044Y27141D01*
G37*
%LPD*%
%LPC*%
G36*
X58799Y75644D02*
X58799Y75644D01*
X58769Y75652D01*
X58742Y75666D01*
X58664Y75679D01*
X58523Y75715D01*
X58459Y75713D01*
X58411Y75721D01*
X50289Y75721D01*
X50259Y75717D01*
X50228Y75719D01*
X50119Y75697D01*
X50008Y75681D01*
X49980Y75669D01*
X49950Y75663D01*
X49881Y75625D01*
X49811Y75593D01*
X48733Y75715D01*
X48668Y75713D01*
X48619Y75721D01*
X48416Y75721D01*
X48357Y75713D01*
X48298Y75714D01*
X48232Y75695D01*
X48135Y75681D01*
X48042Y75640D01*
X47976Y75621D01*
X47926Y75597D01*
X47732Y75664D01*
X47730Y75665D01*
X47728Y75666D01*
X47708Y75669D01*
X47537Y75703D01*
X47502Y75730D01*
X47407Y75766D01*
X47346Y75799D01*
X47152Y75867D01*
X47005Y75897D01*
X46930Y75918D01*
X46293Y75990D01*
X46291Y75990D01*
X46288Y75990D01*
X46268Y75989D01*
X46107Y75985D01*
X46014Y76072D01*
X45986Y76087D01*
X45967Y76104D01*
X45424Y76445D01*
X45288Y76506D01*
X45220Y76543D01*
X44615Y76755D01*
X44612Y76756D01*
X44610Y76757D01*
X44590Y76760D01*
X44432Y76791D01*
X44361Y76897D01*
X44337Y76918D01*
X44323Y76939D01*
X43869Y77392D01*
X43750Y77482D01*
X43691Y77534D01*
X43149Y77875D01*
X43147Y77876D01*
X43145Y77877D01*
X43126Y77885D01*
X42979Y77951D01*
X42934Y78070D01*
X42915Y78095D01*
X42905Y78119D01*
X42564Y78661D01*
X42467Y78776D01*
X42422Y78839D01*
X41969Y79293D01*
X41967Y79294D01*
X41965Y79296D01*
X41947Y79308D01*
X41820Y79404D01*
X41802Y79531D01*
X41789Y79559D01*
X41785Y79585D01*
X41573Y80190D01*
X41505Y80322D01*
X41475Y80394D01*
X41134Y80937D01*
X41132Y80939D01*
X41131Y80941D01*
X41117Y80957D01*
X41014Y81079D01*
X41025Y81207D01*
X41018Y81237D01*
X41020Y81263D01*
X40948Y81900D01*
X40911Y82044D01*
X40897Y82122D01*
X40686Y82727D01*
X40685Y82729D01*
X40684Y82731D01*
X40674Y82749D01*
X40600Y82892D01*
X40639Y83013D01*
X40640Y83045D01*
X40647Y83069D01*
X40719Y83706D01*
X40715Y83856D01*
X40719Y83934D01*
X40647Y84571D01*
X40646Y84573D01*
X40647Y84575D01*
X40641Y84595D01*
X40601Y84751D01*
X40666Y84861D01*
X40673Y84891D01*
X40686Y84913D01*
X40897Y85518D01*
X40927Y85665D01*
X40948Y85740D01*
X41020Y86377D01*
X41020Y86379D01*
X41020Y86382D01*
X41019Y86402D01*
X41015Y86563D01*
X41102Y86656D01*
X41117Y86684D01*
X41134Y86703D01*
X41475Y87246D01*
X41536Y87382D01*
X41573Y87450D01*
X41785Y88055D01*
X41786Y88058D01*
X41787Y88060D01*
X41790Y88080D01*
X41805Y88157D01*
X41807Y88163D01*
X41807Y88166D01*
X41821Y88238D01*
X41927Y88309D01*
X41948Y88333D01*
X41969Y88347D01*
X42422Y88801D01*
X42512Y88920D01*
X42564Y88979D01*
X42905Y89521D01*
X42906Y89523D01*
X42907Y89525D01*
X42915Y89544D01*
X42981Y89691D01*
X43100Y89736D01*
X43125Y89755D01*
X43149Y89765D01*
X43691Y90106D01*
X43806Y90203D01*
X43869Y90248D01*
X44323Y90701D01*
X44324Y90703D01*
X44326Y90705D01*
X44338Y90723D01*
X44434Y90850D01*
X44561Y90868D01*
X44589Y90881D01*
X44615Y90885D01*
X45121Y91062D01*
X45122Y91063D01*
X45123Y91063D01*
X45251Y91129D01*
X45374Y91193D01*
X45375Y91193D01*
X45375Y91194D01*
X45476Y91289D01*
X45580Y91388D01*
X45581Y91389D01*
X45581Y91390D01*
X45649Y91505D01*
X45725Y91633D01*
X45725Y91634D01*
X45725Y91635D01*
X45756Y91757D01*
X45795Y91909D01*
X45795Y91910D01*
X45791Y92044D01*
X45787Y92193D01*
X45786Y92194D01*
X45786Y92195D01*
X45745Y92323D01*
X45700Y92463D01*
X45699Y92464D01*
X45699Y92465D01*
X45694Y92472D01*
X45541Y92699D01*
X45518Y92718D01*
X45504Y92738D01*
X43710Y94532D01*
X42751Y96847D01*
X42751Y99353D01*
X43710Y101668D01*
X45482Y103440D01*
X47797Y104399D01*
X50303Y104399D01*
X52618Y103440D01*
X54390Y101668D01*
X55349Y99353D01*
X55349Y96847D01*
X54390Y94532D01*
X53510Y93652D01*
X53492Y93628D01*
X53470Y93609D01*
X53407Y93515D01*
X53339Y93425D01*
X53328Y93397D01*
X53312Y93373D01*
X53278Y93265D01*
X53237Y93159D01*
X53235Y93130D01*
X53226Y93102D01*
X53223Y92988D01*
X53214Y92876D01*
X53220Y92847D01*
X53219Y92818D01*
X53248Y92708D01*
X53270Y92597D01*
X53283Y92571D01*
X53291Y92543D01*
X53348Y92445D01*
X53401Y92345D01*
X53421Y92323D01*
X53436Y92298D01*
X53519Y92221D01*
X53597Y92139D01*
X53622Y92124D01*
X53643Y92104D01*
X53744Y92052D01*
X53842Y91995D01*
X53870Y91988D01*
X53896Y91974D01*
X53974Y91961D01*
X54117Y91925D01*
X54180Y91927D01*
X54227Y91919D01*
X58410Y91919D01*
X58441Y91923D01*
X58471Y91921D01*
X58581Y91943D01*
X58692Y91959D01*
X58720Y91971D01*
X58750Y91977D01*
X58819Y92015D01*
X58889Y92047D01*
X59967Y91925D01*
X60032Y91927D01*
X60081Y91919D01*
X60284Y91919D01*
X60343Y91927D01*
X60402Y91926D01*
X60468Y91945D01*
X60565Y91959D01*
X60658Y92000D01*
X60724Y92019D01*
X60775Y92043D01*
X60968Y91976D01*
X60970Y91975D01*
X60972Y91974D01*
X60992Y91971D01*
X61163Y91937D01*
X61198Y91910D01*
X61293Y91874D01*
X61354Y91841D01*
X61548Y91773D01*
X61695Y91743D01*
X61770Y91722D01*
X62407Y91650D01*
X62409Y91650D01*
X62412Y91650D01*
X62432Y91651D01*
X62593Y91655D01*
X62686Y91568D01*
X62693Y91564D01*
X62696Y91561D01*
X62717Y91550D01*
X62733Y91536D01*
X63276Y91195D01*
X63412Y91134D01*
X63480Y91097D01*
X64085Y90885D01*
X64088Y90884D01*
X64090Y90883D01*
X64110Y90880D01*
X64268Y90849D01*
X64339Y90742D01*
X64363Y90722D01*
X64377Y90701D01*
X64831Y90248D01*
X64950Y90158D01*
X65009Y90106D01*
X65551Y89765D01*
X65553Y89764D01*
X65555Y89763D01*
X65574Y89755D01*
X65721Y89689D01*
X65766Y89570D01*
X65785Y89545D01*
X65795Y89521D01*
X66136Y88979D01*
X66233Y88864D01*
X66278Y88801D01*
X66731Y88347D01*
X66733Y88346D01*
X66735Y88344D01*
X66753Y88332D01*
X66880Y88236D01*
X66898Y88109D01*
X66911Y88081D01*
X66915Y88055D01*
X67127Y87450D01*
X67195Y87318D01*
X67225Y87246D01*
X67566Y86703D01*
X67568Y86701D01*
X67569Y86699D01*
X67583Y86683D01*
X67686Y86561D01*
X67675Y86433D01*
X67682Y86403D01*
X67680Y86377D01*
X67752Y85740D01*
X67789Y85596D01*
X67803Y85518D01*
X68014Y84913D01*
X68015Y84911D01*
X68016Y84909D01*
X68022Y84898D01*
X68023Y84893D01*
X68034Y84875D01*
X68100Y84748D01*
X68061Y84627D01*
X68060Y84595D01*
X68053Y84571D01*
X67981Y83934D01*
X67985Y83784D01*
X67981Y83706D01*
X68053Y83069D01*
X68054Y83067D01*
X68053Y83065D01*
X68059Y83045D01*
X68099Y82889D01*
X68034Y82779D01*
X68027Y82749D01*
X68014Y82727D01*
X67803Y82122D01*
X67773Y81975D01*
X67752Y81900D01*
X67680Y81263D01*
X67680Y81261D01*
X67680Y81258D01*
X67681Y81238D01*
X67685Y81077D01*
X67598Y80984D01*
X67583Y80956D01*
X67566Y80937D01*
X67225Y80394D01*
X67164Y80258D01*
X67127Y80190D01*
X66915Y79585D01*
X66914Y79582D01*
X66913Y79580D01*
X66910Y79560D01*
X66879Y79402D01*
X66772Y79331D01*
X66752Y79307D01*
X66731Y79293D01*
X66278Y78839D01*
X66188Y78720D01*
X66136Y78661D01*
X65795Y78119D01*
X65794Y78117D01*
X65793Y78115D01*
X65785Y78096D01*
X65719Y77949D01*
X65600Y77904D01*
X65575Y77885D01*
X65551Y77875D01*
X65009Y77534D01*
X64894Y77437D01*
X64831Y77392D01*
X64377Y76939D01*
X64376Y76937D01*
X64374Y76935D01*
X64362Y76917D01*
X64266Y76790D01*
X64139Y76772D01*
X64111Y76759D01*
X64085Y76755D01*
X63480Y76543D01*
X63348Y76475D01*
X63276Y76445D01*
X62733Y76104D01*
X62731Y76102D01*
X62729Y76101D01*
X62713Y76087D01*
X62591Y75984D01*
X62463Y75995D01*
X62433Y75988D01*
X62407Y75990D01*
X61770Y75918D01*
X61626Y75881D01*
X61548Y75867D01*
X61354Y75799D01*
X61301Y75772D01*
X61244Y75754D01*
X61189Y75714D01*
X61165Y75702D01*
X61022Y75681D01*
X60993Y75669D01*
X60968Y75664D01*
X60775Y75597D01*
X60724Y75621D01*
X60668Y75639D01*
X60615Y75666D01*
X60547Y75677D01*
X60454Y75707D01*
X60353Y75710D01*
X60284Y75721D01*
X60081Y75721D01*
X60017Y75712D01*
X59967Y75715D01*
X58885Y75593D01*
X58799Y75644D01*
G37*
%LPD*%
%LPC*%
G36*
X257741Y171068D02*
X257741Y171068D01*
X255267Y172093D01*
X253373Y173987D01*
X252348Y176461D01*
X252348Y179139D01*
X253373Y181613D01*
X254718Y182958D01*
X254770Y183028D01*
X254830Y183092D01*
X254856Y183141D01*
X254889Y183185D01*
X254920Y183267D01*
X254960Y183345D01*
X254968Y183392D01*
X254990Y183451D01*
X255002Y183599D01*
X255015Y183676D01*
X255015Y199424D01*
X255003Y199511D01*
X255000Y199598D01*
X254983Y199651D01*
X254975Y199706D01*
X254940Y199785D01*
X254913Y199869D01*
X254885Y199908D01*
X254859Y199965D01*
X254763Y200078D01*
X254718Y200142D01*
X253373Y201487D01*
X252348Y203961D01*
X252348Y206639D01*
X253373Y209113D01*
X255267Y211007D01*
X257741Y212032D01*
X260419Y212032D01*
X262893Y211007D01*
X264787Y209113D01*
X265812Y206639D01*
X265812Y203961D01*
X264787Y201487D01*
X263442Y200142D01*
X263390Y200072D01*
X263330Y200008D01*
X263304Y199959D01*
X263271Y199915D01*
X263240Y199833D01*
X263200Y199755D01*
X263192Y199708D01*
X263170Y199649D01*
X263158Y199501D01*
X263145Y199424D01*
X263145Y183676D01*
X263157Y183589D01*
X263160Y183502D01*
X263177Y183449D01*
X263185Y183394D01*
X263220Y183315D01*
X263247Y183231D01*
X263275Y183192D01*
X263301Y183135D01*
X263397Y183022D01*
X263442Y182958D01*
X264787Y181613D01*
X265812Y179139D01*
X265812Y176461D01*
X264787Y173987D01*
X262893Y172093D01*
X260419Y171068D01*
X257741Y171068D01*
G37*
%LPD*%
G36*
X59853Y165133D02*
X59853Y165133D01*
X59856Y165131D01*
X60968Y165256D01*
X60974Y165262D01*
X60979Y165259D01*
X62036Y165629D01*
X62040Y165636D01*
X62046Y165633D01*
X62994Y166229D01*
X62997Y166237D01*
X63002Y166236D01*
X63794Y167028D01*
X63795Y167036D01*
X63801Y167036D01*
X64397Y167984D01*
X64396Y167993D01*
X64401Y167994D01*
X64771Y169051D01*
X64770Y169055D01*
X64772Y169057D01*
X64770Y169060D01*
X64774Y169062D01*
X64899Y170175D01*
X64895Y170182D01*
X64899Y170186D01*
X64774Y171298D01*
X64768Y171304D01*
X64771Y171309D01*
X64401Y172366D01*
X64395Y172370D01*
X64397Y172376D01*
X63801Y173324D01*
X63793Y173327D01*
X63794Y173332D01*
X63002Y174124D01*
X62994Y174125D01*
X62994Y174131D01*
X62046Y174727D01*
X62037Y174726D01*
X62036Y174731D01*
X60979Y175101D01*
X60971Y175099D01*
X60968Y175104D01*
X59856Y175229D01*
X59852Y175227D01*
X59850Y175229D01*
X48850Y175229D01*
X48847Y175227D01*
X48846Y175227D01*
X48845Y175229D01*
X47732Y175104D01*
X47726Y175098D01*
X47721Y175101D01*
X46664Y174731D01*
X46660Y174725D01*
X46654Y174727D01*
X45706Y174131D01*
X45703Y174123D01*
X45698Y174124D01*
X44906Y173332D01*
X44905Y173324D01*
X44899Y173324D01*
X44303Y172376D01*
X44304Y172367D01*
X44299Y172366D01*
X43929Y171309D01*
X43931Y171303D01*
X43927Y171300D01*
X43928Y171299D01*
X43926Y171298D01*
X43801Y170186D01*
X43805Y170178D01*
X43801Y170175D01*
X43926Y169062D01*
X43932Y169056D01*
X43929Y169051D01*
X44299Y167994D01*
X44306Y167990D01*
X44303Y167984D01*
X44899Y167036D01*
X44907Y167033D01*
X44906Y167028D01*
X45698Y166236D01*
X45706Y166235D01*
X45706Y166229D01*
X46654Y165633D01*
X46663Y165634D01*
X46664Y165629D01*
X47721Y165259D01*
X47729Y165261D01*
X47732Y165256D01*
X48845Y165131D01*
X48848Y165133D01*
X48850Y165131D01*
X59850Y165131D01*
X59853Y165133D01*
G37*
G36*
X59853Y78773D02*
X59853Y78773D01*
X59856Y78771D01*
X60968Y78896D01*
X60974Y78902D01*
X60979Y78899D01*
X62036Y79269D01*
X62040Y79276D01*
X62046Y79273D01*
X62994Y79869D01*
X62997Y79877D01*
X63002Y79876D01*
X63794Y80668D01*
X63795Y80676D01*
X63801Y80676D01*
X64397Y81624D01*
X64396Y81633D01*
X64401Y81634D01*
X64771Y82691D01*
X64770Y82695D01*
X64772Y82697D01*
X64770Y82700D01*
X64774Y82702D01*
X64899Y83815D01*
X64895Y83822D01*
X64899Y83826D01*
X64774Y84938D01*
X64768Y84944D01*
X64771Y84949D01*
X64401Y86006D01*
X64395Y86010D01*
X64397Y86016D01*
X63801Y86964D01*
X63793Y86967D01*
X63794Y86972D01*
X63002Y87764D01*
X62994Y87765D01*
X62994Y87771D01*
X62046Y88367D01*
X62037Y88366D01*
X62036Y88371D01*
X60979Y88741D01*
X60971Y88739D01*
X60968Y88744D01*
X59856Y88869D01*
X59852Y88867D01*
X59850Y88869D01*
X48850Y88869D01*
X48847Y88867D01*
X48846Y88867D01*
X48845Y88869D01*
X47732Y88744D01*
X47726Y88738D01*
X47721Y88741D01*
X46664Y88371D01*
X46660Y88365D01*
X46654Y88367D01*
X45706Y87771D01*
X45703Y87763D01*
X45698Y87764D01*
X44906Y86972D01*
X44905Y86964D01*
X44899Y86964D01*
X44303Y86016D01*
X44304Y86007D01*
X44299Y86006D01*
X43929Y84949D01*
X43931Y84943D01*
X43927Y84940D01*
X43928Y84939D01*
X43926Y84938D01*
X43801Y83826D01*
X43805Y83818D01*
X43801Y83815D01*
X43926Y82702D01*
X43932Y82696D01*
X43929Y82691D01*
X44299Y81634D01*
X44306Y81630D01*
X44303Y81624D01*
X44899Y80676D01*
X44907Y80673D01*
X44906Y80668D01*
X45698Y79876D01*
X45706Y79875D01*
X45706Y79869D01*
X46654Y79273D01*
X46663Y79274D01*
X46664Y79269D01*
X47721Y78899D01*
X47729Y78901D01*
X47732Y78896D01*
X48845Y78771D01*
X48848Y78773D01*
X48850Y78771D01*
X59850Y78771D01*
X59853Y78773D01*
G37*
%LPC*%
G36*
X416058Y91651D02*
X416058Y91651D01*
X413467Y92724D01*
X411484Y94707D01*
X410411Y97298D01*
X410411Y100102D01*
X411484Y102693D01*
X413467Y104676D01*
X416058Y105749D01*
X418862Y105749D01*
X421453Y104676D01*
X423436Y102693D01*
X424509Y100102D01*
X424509Y97298D01*
X423436Y94707D01*
X421453Y92724D01*
X418862Y91651D01*
X416058Y91651D01*
G37*
%LPD*%
%LPC*%
G36*
X354558Y30151D02*
X354558Y30151D01*
X351967Y31224D01*
X349984Y33207D01*
X348911Y35798D01*
X348911Y38602D01*
X349984Y41193D01*
X351967Y43176D01*
X354558Y44249D01*
X357362Y44249D01*
X359953Y43176D01*
X361936Y41193D01*
X363009Y38602D01*
X363009Y35798D01*
X361936Y33207D01*
X359953Y31224D01*
X357362Y30151D01*
X354558Y30151D01*
G37*
%LPD*%
G36*
X15553Y165133D02*
X15553Y165133D01*
X15556Y165131D01*
X16668Y165256D01*
X16674Y165262D01*
X16679Y165259D01*
X17736Y165629D01*
X17740Y165636D01*
X17746Y165633D01*
X18694Y166229D01*
X18697Y166237D01*
X18702Y166236D01*
X19494Y167028D01*
X19495Y167036D01*
X19501Y167036D01*
X20097Y167984D01*
X20096Y167993D01*
X20101Y167994D01*
X20471Y169051D01*
X20470Y169055D01*
X20472Y169057D01*
X20470Y169060D01*
X20474Y169062D01*
X20599Y170175D01*
X20595Y170182D01*
X20599Y170186D01*
X20474Y171298D01*
X20468Y171304D01*
X20471Y171309D01*
X20101Y172366D01*
X20095Y172370D01*
X20097Y172376D01*
X19501Y173324D01*
X19493Y173327D01*
X19494Y173332D01*
X18702Y174124D01*
X18694Y174125D01*
X18694Y174131D01*
X17746Y174727D01*
X17737Y174726D01*
X17736Y174731D01*
X16679Y175101D01*
X16671Y175099D01*
X16668Y175104D01*
X15556Y175229D01*
X15552Y175227D01*
X15550Y175229D01*
X9550Y175229D01*
X9547Y175227D01*
X9546Y175227D01*
X9545Y175229D01*
X8432Y175104D01*
X8426Y175098D01*
X8421Y175101D01*
X7364Y174731D01*
X7360Y174725D01*
X7354Y174727D01*
X6406Y174131D01*
X6403Y174123D01*
X6398Y174124D01*
X5606Y173332D01*
X5605Y173324D01*
X5599Y173324D01*
X5003Y172376D01*
X5004Y172367D01*
X4999Y172366D01*
X4629Y171309D01*
X4631Y171303D01*
X4627Y171300D01*
X4628Y171299D01*
X4626Y171298D01*
X4501Y170186D01*
X4505Y170178D01*
X4501Y170175D01*
X4626Y169062D01*
X4632Y169056D01*
X4629Y169051D01*
X4999Y167994D01*
X5006Y167990D01*
X5003Y167984D01*
X5599Y167036D01*
X5607Y167033D01*
X5606Y167028D01*
X6398Y166236D01*
X6406Y166235D01*
X6406Y166229D01*
X7354Y165633D01*
X7363Y165634D01*
X7364Y165629D01*
X8421Y165259D01*
X8429Y165261D01*
X8432Y165256D01*
X9545Y165131D01*
X9548Y165133D01*
X9550Y165131D01*
X15550Y165131D01*
X15553Y165133D01*
G37*
G36*
X15553Y78773D02*
X15553Y78773D01*
X15556Y78771D01*
X16668Y78896D01*
X16674Y78902D01*
X16679Y78899D01*
X17736Y79269D01*
X17740Y79276D01*
X17746Y79273D01*
X18694Y79869D01*
X18697Y79877D01*
X18702Y79876D01*
X19494Y80668D01*
X19495Y80676D01*
X19501Y80676D01*
X20097Y81624D01*
X20096Y81633D01*
X20101Y81634D01*
X20471Y82691D01*
X20470Y82695D01*
X20472Y82697D01*
X20470Y82700D01*
X20474Y82702D01*
X20599Y83815D01*
X20595Y83822D01*
X20599Y83826D01*
X20474Y84938D01*
X20468Y84944D01*
X20471Y84949D01*
X20101Y86006D01*
X20095Y86010D01*
X20097Y86016D01*
X19501Y86964D01*
X19493Y86967D01*
X19494Y86972D01*
X18702Y87764D01*
X18694Y87765D01*
X18694Y87771D01*
X17746Y88367D01*
X17737Y88366D01*
X17736Y88371D01*
X16679Y88741D01*
X16671Y88739D01*
X16668Y88744D01*
X15556Y88869D01*
X15552Y88867D01*
X15550Y88869D01*
X9550Y88869D01*
X9547Y88867D01*
X9546Y88867D01*
X9545Y88869D01*
X8432Y88744D01*
X8426Y88738D01*
X8421Y88741D01*
X7364Y88371D01*
X7360Y88365D01*
X7354Y88367D01*
X6406Y87771D01*
X6403Y87763D01*
X6398Y87764D01*
X5606Y86972D01*
X5605Y86964D01*
X5599Y86964D01*
X5003Y86016D01*
X5004Y86007D01*
X4999Y86006D01*
X4629Y84949D01*
X4631Y84943D01*
X4627Y84940D01*
X4628Y84939D01*
X4626Y84938D01*
X4501Y83826D01*
X4505Y83818D01*
X4501Y83815D01*
X4626Y82702D01*
X4632Y82696D01*
X4629Y82691D01*
X4999Y81634D01*
X5006Y81630D01*
X5003Y81624D01*
X5599Y80676D01*
X5607Y80673D01*
X5606Y80668D01*
X6398Y79876D01*
X6406Y79875D01*
X6406Y79869D01*
X7354Y79273D01*
X7363Y79274D01*
X7364Y79269D01*
X8421Y78899D01*
X8429Y78901D01*
X8432Y78896D01*
X9545Y78771D01*
X9548Y78773D01*
X9550Y78771D01*
X15550Y78771D01*
X15553Y78773D01*
G37*
%LPC*%
G36*
X430562Y19176D02*
X430562Y19176D01*
X428274Y20124D01*
X426524Y21874D01*
X425576Y24162D01*
X425576Y26638D01*
X426524Y28926D01*
X428274Y30676D01*
X430562Y31624D01*
X433038Y31624D01*
X435326Y30676D01*
X437076Y28926D01*
X438024Y26638D01*
X438024Y24162D01*
X437076Y21874D01*
X435326Y20124D01*
X433038Y19176D01*
X430562Y19176D01*
G37*
%LPD*%
%LPC*%
G36*
X51734Y14731D02*
X51734Y14731D01*
X51855Y15496D01*
X52436Y17283D01*
X53289Y18957D01*
X54394Y20478D01*
X55722Y21806D01*
X57243Y22911D01*
X58917Y23764D01*
X60704Y24345D01*
X61469Y24466D01*
X61469Y14731D01*
X51734Y14731D01*
G37*
%LPD*%
G36*
X77489Y201308D02*
X77489Y201308D01*
X77511Y201311D01*
X77518Y201327D01*
X77527Y201333D01*
X77526Y201343D01*
X77533Y201359D01*
X77533Y210185D01*
X77521Y210204D01*
X77517Y210226D01*
X77502Y210233D01*
X77496Y210242D01*
X77486Y210241D01*
X77470Y210248D01*
X74930Y210248D01*
X74911Y210236D01*
X74889Y210232D01*
X74882Y210217D01*
X74873Y210211D01*
X74874Y210201D01*
X74867Y210185D01*
X74867Y201359D01*
X74879Y201340D01*
X74883Y201317D01*
X74898Y201310D01*
X74904Y201301D01*
X74914Y201303D01*
X74930Y201296D01*
X77470Y201296D01*
X77489Y201308D01*
G37*
G36*
X269894Y124409D02*
X269894Y124409D01*
X269916Y124413D01*
X269923Y124428D01*
X269932Y124434D01*
X269931Y124444D01*
X269938Y124460D01*
X269938Y127000D01*
X269926Y127019D01*
X269922Y127041D01*
X269907Y127048D01*
X269901Y127057D01*
X269891Y127056D01*
X269875Y127063D01*
X261049Y127063D01*
X261030Y127051D01*
X261007Y127047D01*
X261000Y127032D01*
X260991Y127026D01*
X260993Y127016D01*
X260986Y127000D01*
X260986Y124460D01*
X260998Y124441D01*
X261001Y124419D01*
X261017Y124412D01*
X261023Y124403D01*
X261033Y124404D01*
X261049Y124397D01*
X269875Y124397D01*
X269894Y124409D01*
G37*
G36*
X269894Y96469D02*
X269894Y96469D01*
X269916Y96473D01*
X269923Y96488D01*
X269932Y96494D01*
X269931Y96504D01*
X269938Y96520D01*
X269938Y99060D01*
X269926Y99079D01*
X269922Y99101D01*
X269907Y99108D01*
X269901Y99117D01*
X269891Y99116D01*
X269875Y99123D01*
X261049Y99123D01*
X261030Y99111D01*
X261007Y99107D01*
X261000Y99092D01*
X260991Y99086D01*
X260993Y99076D01*
X260986Y99060D01*
X260986Y96520D01*
X260998Y96501D01*
X261001Y96479D01*
X261017Y96472D01*
X261023Y96463D01*
X261033Y96464D01*
X261049Y96457D01*
X269875Y96457D01*
X269894Y96469D01*
G37*
D10*
X271653Y16468D02*
X268323Y6477D01*
X264993Y16468D01*
X258417Y18133D02*
X254255Y21463D01*
X254255Y6477D01*
X258417Y6477D02*
X250092Y6477D01*
X242786Y18133D02*
X238624Y21463D01*
X238624Y6477D01*
X242786Y6477D02*
X234461Y6477D01*
D11*
X16328Y170180D02*
X8772Y170180D01*
X8772Y83820D02*
X16328Y83820D01*
X50572Y83820D02*
X58128Y83820D01*
X58128Y170180D02*
X50572Y170180D01*
D12*
X190500Y12700D03*
X165100Y12700D03*
X139700Y12700D03*
X114300Y12700D03*
X88900Y12700D03*
X63500Y12700D03*
D13*
X265290Y103645D02*
X270904Y103645D01*
X270904Y91935D01*
X265290Y91935D01*
X265290Y103645D01*
X265290Y92876D02*
X270904Y92876D01*
X270904Y93817D02*
X265290Y93817D01*
X265290Y94758D02*
X270904Y94758D01*
X270904Y95699D02*
X265290Y95699D01*
X265290Y96640D02*
X270904Y96640D01*
X270904Y97581D02*
X265290Y97581D01*
X265290Y98522D02*
X270904Y98522D01*
X270904Y99463D02*
X265290Y99463D01*
X265290Y100404D02*
X270904Y100404D01*
X270904Y101345D02*
X265290Y101345D01*
X265290Y102286D02*
X270904Y102286D01*
X270904Y103227D02*
X265290Y103227D01*
X260490Y103645D02*
X254876Y103645D01*
X260490Y103645D02*
X260490Y91935D01*
X254876Y91935D01*
X254876Y103645D01*
X254876Y92876D02*
X260490Y92876D01*
X260490Y93817D02*
X254876Y93817D01*
X254876Y94758D02*
X260490Y94758D01*
X260490Y95699D02*
X254876Y95699D01*
X254876Y96640D02*
X260490Y96640D01*
X260490Y97581D02*
X254876Y97581D01*
X254876Y98522D02*
X260490Y98522D01*
X260490Y99463D02*
X254876Y99463D01*
X254876Y100404D02*
X260490Y100404D01*
X260490Y101345D02*
X254876Y101345D01*
X254876Y102286D02*
X260490Y102286D01*
X260490Y103227D02*
X254876Y103227D01*
D14*
X431800Y25400D03*
X50800Y241300D03*
D13*
X265290Y131585D02*
X270904Y131585D01*
X270904Y119875D01*
X265290Y119875D01*
X265290Y131585D01*
X265290Y120816D02*
X270904Y120816D01*
X270904Y121757D02*
X265290Y121757D01*
X265290Y122698D02*
X270904Y122698D01*
X270904Y123639D02*
X265290Y123639D01*
X265290Y124580D02*
X270904Y124580D01*
X270904Y125521D02*
X265290Y125521D01*
X265290Y126462D02*
X270904Y126462D01*
X270904Y127403D02*
X265290Y127403D01*
X265290Y128344D02*
X270904Y128344D01*
X270904Y129285D02*
X265290Y129285D01*
X265290Y130226D02*
X270904Y130226D01*
X270904Y131167D02*
X265290Y131167D01*
X260490Y131585D02*
X254876Y131585D01*
X260490Y131585D02*
X260490Y119875D01*
X254876Y119875D01*
X254876Y131585D01*
X254876Y120816D02*
X260490Y120816D01*
X260490Y121757D02*
X254876Y121757D01*
X254876Y122698D02*
X260490Y122698D01*
X260490Y123639D02*
X254876Y123639D01*
X254876Y124580D02*
X260490Y124580D01*
X260490Y125521D02*
X254876Y125521D01*
X254876Y126462D02*
X260490Y126462D01*
X260490Y127403D02*
X254876Y127403D01*
X254876Y128344D02*
X260490Y128344D01*
X260490Y129285D02*
X254876Y129285D01*
X254876Y130226D02*
X260490Y130226D01*
X260490Y131167D02*
X254876Y131167D01*
X70345Y205600D02*
X70345Y211214D01*
X82055Y211214D01*
X82055Y205600D01*
X70345Y205600D01*
X70345Y206541D02*
X82055Y206541D01*
X82055Y207482D02*
X70345Y207482D01*
X70345Y208423D02*
X82055Y208423D01*
X82055Y209364D02*
X70345Y209364D01*
X70345Y210305D02*
X82055Y210305D01*
X70345Y200800D02*
X70345Y195186D01*
X70345Y200800D02*
X82055Y200800D01*
X82055Y195186D01*
X70345Y195186D01*
X70345Y196127D02*
X82055Y196127D01*
X82055Y197068D02*
X70345Y197068D01*
X70345Y198009D02*
X82055Y198009D01*
X82055Y198950D02*
X70345Y198950D01*
X70345Y199891D02*
X82055Y199891D01*
D15*
X50800Y190500D03*
X38100Y190500D03*
X101600Y177800D03*
X12700Y139700D03*
X12700Y114300D03*
X191770Y133350D03*
X246380Y177800D03*
X246380Y166370D03*
X152400Y177800D03*
X190500Y215900D03*
X190500Y203200D03*
X190500Y190500D03*
X76200Y76200D03*
X152400Y146050D03*
D16*
X161290Y154940D01*
X246380Y154940D01*
D15*
X246380Y154940D03*
X316230Y177800D03*
D16*
X293370Y154940D02*
X246380Y154940D01*
X293370Y154940D02*
X316230Y177800D01*
X76200Y186690D02*
X76200Y197993D01*
X76200Y186690D02*
X69850Y180340D01*
X59690Y40640D02*
X132080Y40640D01*
X139700Y33020D01*
X139700Y12700D01*
X69850Y180340D02*
X36830Y180340D01*
X27940Y171450D01*
X27940Y72390D01*
X59690Y40640D01*
D15*
X76200Y152400D03*
D16*
X76200Y101600D01*
D15*
X76200Y101600D03*
X161290Y232410D03*
D16*
X139700Y210820D01*
X139700Y127000D01*
X114300Y101600D01*
X76200Y101600D01*
D15*
X215900Y190500D03*
D16*
X215900Y215900D01*
X227330Y227330D01*
X317500Y227330D01*
D15*
X317500Y227330D03*
X259080Y177800D03*
D16*
X259080Y205300D01*
D15*
X259080Y205300D03*
X40640Y142240D03*
X39370Y124206D03*
D17*
X46990Y135890D02*
X40640Y142240D01*
X46990Y135890D02*
X46990Y131826D01*
X39370Y124206D01*
D15*
X36830Y133858D03*
X38100Y114554D03*
D17*
X33020Y130048D02*
X36830Y133858D01*
X33020Y130048D02*
X33020Y118110D01*
X36576Y114554D02*
X38100Y114554D01*
X36576Y114554D02*
X33020Y118110D01*
D16*
X236220Y97790D02*
X257683Y97790D01*
X236220Y97790D02*
X190500Y52070D01*
X190500Y12700D01*
X269240Y96647D02*
X268097Y97790D01*
X269240Y96647D02*
X269240Y49530D01*
X265430Y45720D01*
X259080Y45720D01*
D15*
X259080Y45720D03*
X336550Y144780D03*
D16*
X331470Y139700D01*
X262763Y139700D01*
X257683Y134620D02*
X257683Y125730D01*
X257683Y134620D02*
X262763Y139700D01*
X290830Y125730D02*
X304800Y111760D01*
X290830Y125730D02*
X268097Y125730D01*
X304800Y111760D02*
X304800Y76200D01*
D15*
X304800Y76200D03*
X76200Y224790D03*
D16*
X76200Y208407D01*
M02*
