G04 EAGLE Gerber RS-274X export*
G75*
%MOMM*%
%FSLAX34Y34*%
%LPD*%
%INSilkscreen Top*%
%IPPOS*%
%AMOC8*
5,1,8,0,0,1.08239X$1,22.5*%
G01*
%ADD10C,0.203200*%
%ADD11C,0.254000*%
%ADD12C,0.152400*%

G36*
X197347Y14807D02*
X197347Y14807D01*
X197342Y14814D01*
X197349Y14820D01*
X197349Y70720D01*
X197333Y70741D01*
X197335Y70755D01*
X197035Y71055D01*
X197010Y71058D01*
X197006Y71063D01*
X196988Y71063D01*
X196986Y71062D01*
X196982Y71062D01*
X196978Y71064D01*
X190981Y68066D01*
X190404Y67873D01*
X184322Y70864D01*
X183722Y71164D01*
X183717Y71163D01*
X183713Y71167D01*
X183706Y71162D01*
X183700Y71162D01*
X183696Y71159D01*
X183664Y71153D01*
X183667Y71137D01*
X183653Y71126D01*
X183655Y71123D01*
X183651Y71120D01*
X183651Y14820D01*
X183687Y14773D01*
X183694Y14778D01*
X183700Y14771D01*
X197300Y14771D01*
X197347Y14807D01*
G37*
G36*
X311454Y97654D02*
X311454Y97654D01*
X311457Y97651D01*
X312157Y97751D01*
X312158Y97752D01*
X312158Y97751D01*
X312758Y97851D01*
X312761Y97855D01*
X312764Y97853D01*
X313464Y98053D01*
X313468Y98058D01*
X313472Y98056D01*
X314672Y98656D01*
X314674Y98660D01*
X314677Y98659D01*
X315277Y99059D01*
X315278Y99062D01*
X315281Y99062D01*
X315781Y99462D01*
X315782Y99466D01*
X315785Y99465D01*
X316285Y99965D01*
X316285Y99969D01*
X316288Y99969D01*
X316688Y100469D01*
X316689Y100473D01*
X316691Y100473D01*
X317091Y101073D01*
X317091Y101077D01*
X317094Y101078D01*
X317394Y101678D01*
X317393Y101683D01*
X317397Y101684D01*
X317597Y102284D01*
X317596Y102286D01*
X317597Y102286D01*
X317797Y102986D01*
X317796Y102991D01*
X317799Y102993D01*
X317899Y103692D01*
X317999Y104292D01*
X317996Y104297D01*
X317999Y104300D01*
X317999Y145800D01*
X317996Y145804D01*
X317999Y145807D01*
X317799Y147207D01*
X317794Y147212D01*
X317797Y147216D01*
X317597Y147815D01*
X317397Y148514D01*
X317389Y148520D01*
X317391Y148527D01*
X316992Y149126D01*
X316692Y149625D01*
X316684Y149629D01*
X316685Y149635D01*
X316187Y150133D01*
X315788Y150631D01*
X315781Y150633D01*
X315782Y150638D01*
X315182Y151138D01*
X315176Y151138D01*
X315175Y151142D01*
X314676Y151442D01*
X314077Y151841D01*
X314068Y151840D01*
X314066Y151847D01*
X313466Y152047D01*
X313464Y152046D01*
X313464Y152047D01*
X312764Y152247D01*
X312759Y152246D01*
X312757Y152249D01*
X312058Y152349D01*
X311458Y152449D01*
X311453Y152446D01*
X311450Y152449D01*
X310750Y152449D01*
X310746Y152446D01*
X310743Y152449D01*
X310043Y152349D01*
X310042Y152348D01*
X310042Y152349D01*
X309442Y152249D01*
X309439Y152245D01*
X309436Y152247D01*
X308736Y152047D01*
X308732Y152042D01*
X308728Y152044D01*
X307528Y151444D01*
X307526Y151440D01*
X307523Y151441D01*
X306923Y151041D01*
X306920Y151034D01*
X306915Y151035D01*
X306415Y150535D01*
X306415Y150531D01*
X306412Y150531D01*
X305612Y149531D01*
X305611Y149527D01*
X305609Y149527D01*
X305209Y148927D01*
X305209Y148923D01*
X305206Y148922D01*
X304906Y148322D01*
X304907Y148317D01*
X304903Y148316D01*
X304703Y147716D01*
X304704Y147714D01*
X304703Y147714D01*
X304503Y147014D01*
X304503Y147013D01*
X304502Y147013D01*
X304504Y147011D01*
X304504Y147010D01*
X304501Y147008D01*
X304401Y146408D01*
X304402Y146407D01*
X304401Y146407D01*
X304301Y145707D01*
X304304Y145702D01*
X304301Y145700D01*
X304301Y104400D01*
X304304Y104396D01*
X304301Y104393D01*
X304401Y103693D01*
X304402Y103692D01*
X304401Y103692D01*
X304501Y103092D01*
X304505Y103089D01*
X304503Y103086D01*
X304703Y102386D01*
X304704Y102385D01*
X304703Y102384D01*
X304903Y101784D01*
X304908Y101781D01*
X304906Y101778D01*
X305206Y101178D01*
X305210Y101176D01*
X305209Y101173D01*
X305609Y100573D01*
X305612Y100572D01*
X305612Y100569D01*
X306012Y100069D01*
X306016Y100068D01*
X306015Y100065D01*
X307015Y99065D01*
X307024Y99064D01*
X307025Y99058D01*
X307524Y98758D01*
X308123Y98359D01*
X308132Y98360D01*
X308134Y98353D01*
X308734Y98153D01*
X308736Y98154D01*
X308736Y98153D01*
X309435Y97953D01*
X310034Y97753D01*
X310041Y97755D01*
X310043Y97751D01*
X310743Y97651D01*
X310748Y97654D01*
X310750Y97651D01*
X311450Y97651D01*
X311454Y97654D01*
G37*
G36*
X146118Y15064D02*
X146118Y15064D01*
X146130Y15061D01*
X146530Y15361D01*
X146534Y15377D01*
X146541Y15382D01*
X146537Y15388D01*
X146539Y15392D01*
X146549Y15400D01*
X146549Y60000D01*
X146513Y60047D01*
X146510Y60045D01*
X146508Y60049D01*
X145908Y60149D01*
X145903Y60146D01*
X145900Y60149D01*
X133100Y60149D01*
X133062Y60120D01*
X133054Y60118D01*
X132854Y59618D01*
X132858Y59605D01*
X132851Y59600D01*
X132851Y15500D01*
X132864Y15482D01*
X132861Y15470D01*
X133161Y15070D01*
X133192Y15062D01*
X133200Y15051D01*
X146100Y15051D01*
X146118Y15064D01*
G37*
G36*
X171305Y19224D02*
X171305Y19224D01*
X171308Y19221D01*
X171908Y19321D01*
X171949Y19365D01*
X171946Y19368D01*
X171949Y19370D01*
X171949Y61270D01*
X171930Y61295D01*
X171931Y61308D01*
X171431Y61708D01*
X171423Y61709D01*
X171422Y61714D01*
X165322Y64714D01*
X165301Y64710D01*
X165292Y64719D01*
X164692Y64619D01*
X164685Y64611D01*
X164678Y64614D01*
X158678Y61614D01*
X158671Y61601D01*
X158662Y61601D01*
X158262Y61101D01*
X158261Y61078D01*
X158251Y61070D01*
X158251Y19770D01*
X158259Y19759D01*
X158254Y19752D01*
X158454Y19252D01*
X158495Y19227D01*
X158500Y19221D01*
X171300Y19221D01*
X171305Y19224D01*
G37*
G36*
X70247Y16347D02*
X70247Y16347D01*
X70245Y16350D01*
X70249Y16352D01*
X70349Y16952D01*
X70346Y16957D01*
X70349Y16960D01*
X70349Y57560D01*
X70313Y57607D01*
X70306Y57602D01*
X70300Y57609D01*
X56800Y57609D01*
X56753Y57573D01*
X56755Y57570D01*
X56751Y57568D01*
X56651Y56968D01*
X56654Y56963D01*
X56651Y56960D01*
X56651Y16360D01*
X56687Y16313D01*
X56694Y16318D01*
X56700Y16311D01*
X70200Y16311D01*
X70247Y16347D01*
G37*
G36*
X95747Y14887D02*
X95747Y14887D01*
X95742Y14894D01*
X95749Y14900D01*
X95749Y50500D01*
X95713Y50547D01*
X95712Y50547D01*
X95712Y50548D01*
X95312Y50648D01*
X95290Y50638D01*
X95278Y50644D01*
X89285Y47647D01*
X88708Y47551D01*
X82622Y50544D01*
X82619Y50544D01*
X82618Y50546D01*
X82118Y50746D01*
X82115Y50745D01*
X82113Y50747D01*
X82107Y50743D01*
X82061Y50730D01*
X82066Y50712D01*
X82051Y50700D01*
X82051Y15500D01*
X82054Y15495D01*
X82051Y15492D01*
X82151Y14892D01*
X82195Y14851D01*
X82198Y14854D01*
X82200Y14851D01*
X95700Y14851D01*
X95747Y14887D01*
G37*
G36*
X120830Y16473D02*
X120830Y16473D01*
X120842Y16475D01*
X121142Y16975D01*
X121142Y16978D01*
X121143Y16979D01*
X121142Y16981D01*
X121140Y16993D01*
X121149Y17000D01*
X121149Y47200D01*
X121133Y47221D01*
X121135Y47235D01*
X120735Y47635D01*
X120723Y47636D01*
X120722Y47644D01*
X114622Y50644D01*
X114611Y50642D01*
X114608Y50649D01*
X114008Y50749D01*
X113989Y50738D01*
X113977Y50744D01*
X107977Y47644D01*
X107974Y47637D01*
X107969Y47638D01*
X107469Y47238D01*
X107462Y47208D01*
X107451Y47200D01*
X107451Y16800D01*
X107473Y16770D01*
X107475Y16758D01*
X107975Y16458D01*
X107993Y16460D01*
X108000Y16451D01*
X120800Y16451D01*
X120830Y16473D01*
G37*
G36*
X137859Y103561D02*
X137859Y103561D01*
X137921Y103563D01*
X137943Y103576D01*
X137969Y103580D01*
X138040Y103628D01*
X138073Y103646D01*
X138079Y103654D01*
X138089Y103661D01*
X138589Y104161D01*
X138608Y104192D01*
X138646Y104234D01*
X138922Y104694D01*
X139389Y105161D01*
X139397Y105174D01*
X139412Y105187D01*
X139901Y105773D01*
X141089Y106961D01*
X141096Y106972D01*
X141109Y106983D01*
X142299Y108372D01*
X143256Y109328D01*
X144154Y109867D01*
X144651Y109950D01*
X146520Y109950D01*
X146546Y109956D01*
X146583Y109955D01*
X147783Y110155D01*
X147798Y110162D01*
X147820Y110163D01*
X148920Y110463D01*
X148937Y110472D01*
X148961Y110477D01*
X149961Y110877D01*
X149983Y110892D01*
X150016Y110904D01*
X151016Y111504D01*
X151036Y111524D01*
X151070Y111544D01*
X151870Y112244D01*
X151877Y112253D01*
X151889Y112261D01*
X152689Y113061D01*
X152700Y113079D01*
X152720Y113097D01*
X153420Y113997D01*
X153431Y114020D01*
X153452Y114045D01*
X154452Y115845D01*
X154463Y115881D01*
X154488Y115933D01*
X154988Y117833D01*
X154989Y117865D01*
X155000Y117908D01*
X155100Y119608D01*
X155093Y119644D01*
X155094Y119700D01*
X154794Y121300D01*
X154785Y121321D01*
X154781Y121350D01*
X154281Y122850D01*
X154262Y122881D01*
X154241Y122934D01*
X153541Y124034D01*
X153522Y124053D01*
X153504Y124083D01*
X153279Y124336D01*
X152941Y124716D01*
X152704Y124983D01*
X152672Y125005D01*
X152622Y125052D01*
X151822Y125552D01*
X151792Y125563D01*
X151772Y125577D01*
X151737Y125583D01*
X151692Y125603D01*
X151675Y125603D01*
X151658Y125608D01*
X151626Y125604D01*
X151620Y125604D01*
X151612Y125602D01*
X151589Y125599D01*
X151519Y125597D01*
X151504Y125588D01*
X151486Y125586D01*
X151456Y125566D01*
X151451Y125565D01*
X151437Y125553D01*
X151428Y125547D01*
X151367Y125514D01*
X151357Y125499D01*
X151342Y125489D01*
X151326Y125461D01*
X151318Y125455D01*
X151304Y125424D01*
X151267Y125372D01*
X151264Y125353D01*
X151256Y125339D01*
X151254Y125313D01*
X151247Y125296D01*
X151248Y125271D01*
X151240Y125230D01*
X151240Y124392D01*
X151168Y124176D01*
X151108Y124055D01*
X150915Y123862D01*
X150758Y123810D01*
X150567Y123810D01*
X149853Y123989D01*
X149511Y124160D01*
X149240Y124341D01*
X148870Y124618D01*
X148316Y125172D01*
X147973Y125686D01*
X147900Y125977D01*
X147900Y126468D01*
X147972Y126684D01*
X148050Y126839D01*
X148200Y127065D01*
X148521Y127305D01*
X148844Y127467D01*
X149295Y127557D01*
X149302Y127561D01*
X149312Y127561D01*
X149667Y127650D01*
X150130Y127650D01*
X150250Y127590D01*
X150265Y127586D01*
X150278Y127577D01*
X150412Y127551D01*
X150419Y127550D01*
X150420Y127550D01*
X150520Y127550D01*
X150545Y127556D01*
X150571Y127553D01*
X150629Y127575D01*
X150689Y127589D01*
X150709Y127606D01*
X150733Y127615D01*
X150775Y127660D01*
X150822Y127699D01*
X150833Y127723D01*
X150850Y127742D01*
X150868Y127801D01*
X150893Y127858D01*
X150892Y127883D01*
X150900Y127908D01*
X150889Y127969D01*
X150887Y128031D01*
X150874Y128053D01*
X150870Y128079D01*
X150822Y128150D01*
X150804Y128183D01*
X150796Y128189D01*
X150789Y128199D01*
X150689Y128299D01*
X150669Y128311D01*
X150648Y128334D01*
X150248Y128634D01*
X150222Y128646D01*
X150190Y128670D01*
X148790Y129370D01*
X148778Y129373D01*
X148769Y129379D01*
X148740Y129385D01*
X148703Y129401D01*
X147803Y129601D01*
X147769Y129601D01*
X147720Y129610D01*
X146720Y129610D01*
X146692Y129604D01*
X146652Y129604D01*
X145552Y129404D01*
X145517Y129389D01*
X145460Y129371D01*
X145445Y129367D01*
X145442Y129365D01*
X145438Y129364D01*
X144338Y128764D01*
X144318Y128746D01*
X144287Y128730D01*
X143387Y128030D01*
X143367Y128006D01*
X143298Y127932D01*
X142798Y127132D01*
X142786Y127098D01*
X142759Y127050D01*
X142459Y126150D01*
X142456Y126113D01*
X142440Y126030D01*
X142440Y125230D01*
X142447Y125197D01*
X142449Y125148D01*
X142649Y124248D01*
X142666Y124212D01*
X142688Y124145D01*
X143188Y123245D01*
X143210Y123221D01*
X143234Y123180D01*
X143934Y122380D01*
X143935Y122379D01*
X143936Y122377D01*
X144736Y121477D01*
X144744Y121472D01*
X144751Y121461D01*
X145393Y120819D01*
X145640Y120161D01*
X145640Y119592D01*
X145481Y119115D01*
X145160Y118714D01*
X144664Y118383D01*
X143973Y118210D01*
X143258Y118210D01*
X142829Y118296D01*
X142434Y118454D01*
X141916Y118972D01*
X141765Y119199D01*
X141700Y119392D01*
X141700Y119668D01*
X141752Y119825D01*
X142225Y120298D01*
X142440Y120369D01*
X142460Y120382D01*
X142490Y120390D01*
X142890Y120590D01*
X142919Y120614D01*
X142989Y120661D01*
X143089Y120761D01*
X143102Y120782D01*
X143121Y120798D01*
X143147Y120855D01*
X143180Y120908D01*
X143183Y120933D01*
X143193Y120956D01*
X143191Y121019D01*
X143197Y121081D01*
X143188Y121104D01*
X143187Y121129D01*
X143157Y121184D01*
X143135Y121243D01*
X143117Y121260D01*
X143105Y121282D01*
X143035Y121336D01*
X143008Y121360D01*
X142999Y121363D01*
X142990Y121370D01*
X142590Y121570D01*
X142575Y121574D01*
X142562Y121583D01*
X142428Y121609D01*
X142422Y121610D01*
X142421Y121610D01*
X142420Y121610D01*
X141220Y121610D01*
X141194Y121604D01*
X141158Y121605D01*
X140558Y121505D01*
X140552Y121503D01*
X140545Y121503D01*
X140045Y121403D01*
X140019Y121391D01*
X139979Y121383D01*
X139479Y121183D01*
X139448Y121161D01*
X139392Y121134D01*
X138992Y120834D01*
X138988Y120830D01*
X138982Y120827D01*
X138482Y120427D01*
X138465Y120404D01*
X138394Y120326D01*
X137794Y119326D01*
X137782Y119290D01*
X137754Y119234D01*
X137554Y118534D01*
X137553Y118509D01*
X137543Y118477D01*
X137443Y117677D01*
X137445Y117656D01*
X137440Y117630D01*
X137440Y103930D01*
X137446Y103905D01*
X137443Y103879D01*
X137465Y103822D01*
X137479Y103761D01*
X137496Y103741D01*
X137505Y103717D01*
X137550Y103675D01*
X137589Y103628D01*
X137613Y103617D01*
X137632Y103600D01*
X137691Y103582D01*
X137748Y103557D01*
X137773Y103558D01*
X137798Y103550D01*
X137859Y103561D01*
G37*
G36*
X174375Y118444D02*
X174375Y118444D01*
X174378Y118441D01*
X174978Y118541D01*
X174981Y118545D01*
X174984Y118543D01*
X175684Y118743D01*
X175688Y118748D01*
X175692Y118746D01*
X176292Y119046D01*
X176293Y119049D01*
X176295Y119048D01*
X176795Y119348D01*
X176799Y119356D01*
X176805Y119355D01*
X177805Y120355D01*
X177806Y120367D01*
X177814Y120368D01*
X178414Y121568D01*
X178413Y121573D01*
X178417Y121574D01*
X178617Y122174D01*
X178615Y122181D01*
X178619Y122183D01*
X178719Y122883D01*
X178716Y122888D01*
X178719Y122890D01*
X178719Y123590D01*
X178716Y123594D01*
X178719Y123597D01*
X178619Y124297D01*
X178615Y124301D01*
X178617Y124304D01*
X178417Y125004D01*
X178410Y125009D01*
X178412Y125015D01*
X178113Y125513D01*
X177814Y126112D01*
X177804Y126117D01*
X177805Y126125D01*
X176805Y127125D01*
X176793Y127126D01*
X176792Y127134D01*
X175592Y127734D01*
X175587Y127733D01*
X175586Y127737D01*
X174986Y127937D01*
X174979Y127935D01*
X174977Y127939D01*
X174277Y128039D01*
X174272Y128036D01*
X174270Y128039D01*
X171070Y128039D01*
X171055Y128028D01*
X171045Y128032D01*
X170545Y127732D01*
X170536Y127710D01*
X170523Y127706D01*
X170323Y127106D01*
X170327Y127095D01*
X170321Y127090D01*
X170321Y119590D01*
X170324Y119586D01*
X170321Y119583D01*
X170421Y118883D01*
X170440Y118864D01*
X170440Y118851D01*
X170840Y118551D01*
X170858Y118551D01*
X170863Y118541D01*
X171563Y118441D01*
X171568Y118444D01*
X171570Y118441D01*
X174370Y118441D01*
X174375Y118444D01*
G37*
G36*
X106780Y198292D02*
X106780Y198292D01*
X106792Y198286D01*
X107192Y198486D01*
X107201Y198504D01*
X107213Y198506D01*
X107613Y199206D01*
X107612Y199214D01*
X107617Y199216D01*
X107817Y199916D01*
X107805Y199948D01*
X107808Y199961D01*
X107408Y200461D01*
X107390Y200465D01*
X107387Y200476D01*
X102997Y202073D01*
X102861Y202208D01*
X106686Y203483D01*
X107286Y203683D01*
X107298Y203702D01*
X107311Y203703D01*
X107711Y204303D01*
X107710Y204320D01*
X107716Y204325D01*
X107712Y204330D01*
X107719Y204337D01*
X107619Y205037D01*
X107609Y205047D01*
X107612Y205055D01*
X107312Y205555D01*
X107292Y205563D01*
X107289Y205575D01*
X106589Y205875D01*
X106587Y205875D01*
X106586Y205877D01*
X102861Y207151D01*
X102997Y207287D01*
X106886Y208583D01*
X106889Y208588D01*
X106892Y208586D01*
X107492Y208886D01*
X107501Y208903D01*
X107512Y208905D01*
X107812Y209405D01*
X107809Y209433D01*
X107817Y209444D01*
X107617Y210144D01*
X107610Y210149D01*
X107613Y210154D01*
X107213Y210854D01*
X107186Y210866D01*
X107180Y210878D01*
X106680Y210978D01*
X106665Y210971D01*
X106656Y210977D01*
X105956Y210777D01*
X105955Y210776D01*
X105954Y210777D01*
X98854Y208377D01*
X98847Y208366D01*
X98839Y208368D01*
X98339Y207968D01*
X98335Y207953D01*
X98327Y207947D01*
X98328Y207946D01*
X98323Y207944D01*
X98123Y207244D01*
X98128Y207229D01*
X98121Y207222D01*
X98221Y206622D01*
X98239Y206605D01*
X98238Y206592D01*
X98838Y206092D01*
X98851Y206092D01*
X98854Y206083D01*
X101154Y205283D01*
X101154Y205284D01*
X101154Y205283D01*
X103114Y204630D01*
X98754Y203177D01*
X98745Y203163D01*
X98735Y203165D01*
X98235Y202665D01*
X98232Y202643D01*
X98221Y202637D01*
X98121Y201937D01*
X98131Y201919D01*
X98126Y201908D01*
X98426Y201308D01*
X98439Y201301D01*
X98439Y201292D01*
X98939Y200892D01*
X98952Y200891D01*
X98954Y200883D01*
X106054Y198483D01*
X106056Y198484D01*
X106056Y198483D01*
X106756Y198283D01*
X106780Y198292D01*
G37*
G36*
X188774Y118444D02*
X188774Y118444D01*
X188777Y118441D01*
X189477Y118541D01*
X189482Y118546D01*
X189486Y118543D01*
X190086Y118743D01*
X190093Y118754D01*
X190101Y118752D01*
X190601Y119152D01*
X190602Y119156D01*
X190605Y119155D01*
X191105Y119655D01*
X191106Y119667D01*
X191114Y119668D01*
X191414Y120268D01*
X191413Y120275D01*
X191417Y120276D01*
X191617Y120976D01*
X191614Y120986D01*
X191617Y120988D01*
X191617Y120989D01*
X191619Y120990D01*
X191619Y121690D01*
X191616Y121694D01*
X191619Y121697D01*
X191519Y122397D01*
X191514Y122402D01*
X191517Y122406D01*
X191317Y123006D01*
X191306Y123013D01*
X191308Y123021D01*
X190925Y123500D01*
X191016Y123771D01*
X191314Y124368D01*
X191312Y124379D01*
X191319Y124383D01*
X191419Y125083D01*
X191414Y125092D01*
X191419Y125097D01*
X191319Y125797D01*
X191314Y125802D01*
X191317Y125806D01*
X191117Y126406D01*
X191109Y126411D01*
X191111Y126417D01*
X190711Y127017D01*
X190704Y127020D01*
X190705Y127025D01*
X190205Y127525D01*
X190193Y127526D01*
X190192Y127534D01*
X189592Y127834D01*
X189587Y127833D01*
X189586Y127837D01*
X188986Y128037D01*
X188975Y128033D01*
X188970Y128039D01*
X184770Y128039D01*
X184755Y128028D01*
X184745Y128032D01*
X184245Y127732D01*
X184236Y127710D01*
X184223Y127706D01*
X184023Y127106D01*
X184027Y127095D01*
X184021Y127090D01*
X184021Y119590D01*
X184024Y119586D01*
X184021Y119583D01*
X184121Y118883D01*
X184140Y118864D01*
X184140Y118851D01*
X184540Y118551D01*
X184558Y118551D01*
X184564Y118541D01*
X185364Y118441D01*
X185368Y118443D01*
X185370Y118441D01*
X188770Y118441D01*
X188774Y118444D01*
G37*
G36*
X99884Y188683D02*
X99884Y188683D01*
X99885Y188684D01*
X99886Y188683D01*
X100186Y188783D01*
X100188Y188787D01*
X100191Y188785D01*
X101485Y189383D01*
X101954Y189477D01*
X102435Y188995D01*
X102451Y188993D01*
X102454Y188983D01*
X103054Y188783D01*
X103056Y188784D01*
X103056Y188783D01*
X103756Y188583D01*
X103766Y188586D01*
X103770Y188581D01*
X104470Y188581D01*
X104474Y188584D01*
X104477Y188581D01*
X105177Y188681D01*
X105182Y188686D01*
X105186Y188683D01*
X105786Y188883D01*
X105789Y188888D01*
X105792Y188886D01*
X106392Y189186D01*
X106399Y189199D01*
X106408Y189199D01*
X106808Y189699D01*
X106809Y189720D01*
X106836Y189694D01*
X106895Y189688D01*
X106897Y189702D01*
X106911Y189703D01*
X107311Y190303D01*
X107311Y190307D01*
X107314Y190308D01*
X107614Y190908D01*
X107612Y190919D01*
X107619Y190923D01*
X107719Y191622D01*
X107819Y192222D01*
X107816Y192227D01*
X107819Y192230D01*
X107819Y195030D01*
X107813Y195038D01*
X107817Y195044D01*
X107617Y195744D01*
X107592Y195763D01*
X107588Y195776D01*
X107088Y195976D01*
X107075Y195972D01*
X107070Y195979D01*
X98870Y195979D01*
X98859Y195971D01*
X98852Y195976D01*
X98352Y195776D01*
X98335Y195748D01*
X98323Y195744D01*
X98123Y195044D01*
X98128Y195030D01*
X98121Y195024D01*
X98221Y194224D01*
X98234Y194210D01*
X98232Y194199D01*
X98632Y193699D01*
X98656Y193693D01*
X98662Y193681D01*
X99262Y193581D01*
X99267Y193584D01*
X99270Y193581D01*
X100637Y193581D01*
X100821Y193121D01*
X100821Y191857D01*
X100047Y191374D01*
X98450Y190675D01*
X98440Y190657D01*
X98428Y190655D01*
X98128Y190155D01*
X98130Y190132D01*
X98121Y190123D01*
X98221Y189423D01*
X98231Y189414D01*
X98227Y189406D01*
X98627Y188706D01*
X98648Y188697D01*
X98652Y188684D01*
X99152Y188484D01*
X99173Y188490D01*
X99184Y188483D01*
X99884Y188683D01*
G37*
%LPC*%
G36*
X59949Y34860D02*
X59949Y34860D01*
X59913Y34907D01*
X59910Y34905D01*
X59908Y34909D01*
X59324Y35006D01*
X58946Y35383D01*
X58849Y36063D01*
X58849Y36740D01*
X59432Y37323D01*
X64230Y40921D01*
X64234Y40937D01*
X64247Y40947D01*
X64240Y40957D01*
X64246Y40978D01*
X64218Y40986D01*
X64200Y41009D01*
X59509Y41009D01*
X59041Y41197D01*
X58849Y41867D01*
X58849Y42740D01*
X59224Y43114D01*
X59804Y43211D01*
X67292Y43211D01*
X67871Y43018D01*
X68251Y42543D01*
X68251Y41867D01*
X68058Y41191D01*
X67473Y40801D01*
X67472Y40799D01*
X67470Y40799D01*
X63770Y37999D01*
X62970Y37399D01*
X62969Y37394D01*
X62965Y37395D01*
X62765Y37195D01*
X62763Y37181D01*
X62753Y37173D01*
X62761Y37163D01*
X62757Y37136D01*
X62784Y37132D01*
X62800Y37111D01*
X67580Y37111D01*
X68251Y36440D01*
X68251Y35674D01*
X67964Y35196D01*
X67486Y34909D01*
X60000Y34909D01*
X59953Y34873D01*
X59957Y34867D01*
X59951Y34862D01*
X59949Y34831D01*
X59949Y34860D01*
G37*
%LPD*%
G36*
X105083Y212590D02*
X105083Y212590D01*
X105092Y212586D01*
X105892Y212986D01*
X105895Y212993D01*
X105901Y212992D01*
X106401Y213392D01*
X106402Y213396D01*
X106405Y213395D01*
X106905Y213895D01*
X106906Y213902D01*
X106911Y213903D01*
X107311Y214503D01*
X107311Y214507D01*
X107314Y214508D01*
X107614Y215108D01*
X107612Y215119D01*
X107619Y215122D01*
X107719Y215722D01*
X107716Y215727D01*
X107719Y215730D01*
X107719Y219230D01*
X107712Y219239D01*
X107717Y219246D01*
X107517Y219846D01*
X107492Y219863D01*
X107488Y219876D01*
X106988Y220076D01*
X106975Y220072D01*
X106970Y220079D01*
X98770Y220079D01*
X98754Y220067D01*
X98753Y220067D01*
X98752Y220066D01*
X98740Y220069D01*
X98340Y219769D01*
X98334Y219748D01*
X98323Y219744D01*
X98123Y219044D01*
X98126Y219034D01*
X98121Y219030D01*
X98121Y218230D01*
X98137Y218209D01*
X98135Y218195D01*
X98535Y217795D01*
X98556Y217792D01*
X98562Y217781D01*
X99162Y217681D01*
X99167Y217684D01*
X99170Y217681D01*
X100537Y217681D01*
X100721Y217221D01*
X100721Y215930D01*
X100724Y215926D01*
X100721Y215923D01*
X100821Y215223D01*
X100826Y215218D01*
X100823Y215214D01*
X101023Y214614D01*
X101031Y214609D01*
X101029Y214603D01*
X101429Y214003D01*
X101432Y214002D01*
X101432Y213999D01*
X101832Y213499D01*
X101839Y213497D01*
X101839Y213492D01*
X102339Y213092D01*
X102349Y213091D01*
X102351Y213085D01*
X103051Y212785D01*
X103054Y212786D01*
X103054Y212783D01*
X103654Y212583D01*
X103665Y212587D01*
X103670Y212581D01*
X105070Y212581D01*
X105083Y212590D01*
G37*
%LPC*%
G36*
X307554Y106049D02*
X307554Y106049D01*
X306974Y106146D01*
X306597Y106523D01*
X306499Y107303D01*
X306499Y107975D01*
X307179Y108460D01*
X307179Y108461D01*
X307180Y108461D01*
X310780Y111261D01*
X311879Y112060D01*
X311884Y112076D01*
X311897Y112087D01*
X311890Y112097D01*
X311896Y112117D01*
X311868Y112126D01*
X311850Y112149D01*
X307064Y112149D01*
X306595Y112430D01*
X306499Y113103D01*
X306499Y113876D01*
X306967Y114251D01*
X315046Y114251D01*
X315617Y114156D01*
X315901Y113588D01*
X315901Y112912D01*
X315611Y112331D01*
X315019Y111839D01*
X312321Y109840D01*
X312321Y109839D01*
X312320Y109839D01*
X310620Y108539D01*
X310616Y108524D01*
X310606Y108522D01*
X310506Y108322D01*
X310507Y108317D01*
X310503Y108313D01*
X310509Y108305D01*
X310517Y108264D01*
X310537Y108267D01*
X310550Y108251D01*
X315338Y108251D01*
X315710Y108065D01*
X315901Y107492D01*
X315901Y106714D01*
X315617Y106241D01*
X315042Y106049D01*
X307554Y106049D01*
G37*
%LPD*%
%LPC*%
G36*
X63204Y24609D02*
X63204Y24609D01*
X62611Y24708D01*
X61918Y24906D01*
X61323Y25203D01*
X60829Y25500D01*
X60235Y25995D01*
X59838Y26491D01*
X59442Y26987D01*
X59146Y27578D01*
X58948Y28271D01*
X58849Y28864D01*
X58849Y31657D01*
X58947Y32341D01*
X59227Y32714D01*
X59903Y32811D01*
X66173Y32811D01*
X65661Y30609D01*
X61700Y30609D01*
X61695Y30606D01*
X61692Y30609D01*
X61092Y30509D01*
X61051Y30465D01*
X61054Y30463D01*
X61051Y30460D01*
X61051Y28460D01*
X61058Y28451D01*
X61053Y28444D01*
X61153Y28144D01*
X61167Y28135D01*
X61165Y28125D01*
X61665Y27625D01*
X61669Y27625D01*
X61669Y27622D01*
X62169Y27222D01*
X62177Y27221D01*
X62178Y27216D01*
X62778Y26916D01*
X62789Y26918D01*
X62793Y26911D01*
X63493Y26811D01*
X63502Y26816D01*
X63507Y26811D01*
X64207Y26911D01*
X64215Y26919D01*
X64222Y26916D01*
X64822Y27216D01*
X64825Y27223D01*
X64831Y27222D01*
X65331Y27622D01*
X65333Y27629D01*
X65338Y27629D01*
X65738Y28129D01*
X65739Y28137D01*
X65744Y28138D01*
X66044Y28738D01*
X66041Y28753D01*
X66047Y28758D01*
X66049Y28760D01*
X66049Y30160D01*
X66036Y30178D01*
X66039Y30190D01*
X65753Y30571D01*
X66274Y32811D01*
X67392Y32811D01*
X67970Y32618D01*
X68251Y32244D01*
X68251Y28964D01*
X68152Y28371D01*
X67954Y27678D01*
X67657Y27083D01*
X67360Y26589D01*
X66865Y25995D01*
X66369Y25598D01*
X65873Y25202D01*
X65282Y24906D01*
X64590Y24708D01*
X63897Y24609D01*
X63204Y24609D01*
G37*
%LPD*%
G36*
X242488Y106517D02*
X242488Y106517D01*
X242501Y106514D01*
X243001Y106914D01*
X243005Y106929D01*
X243010Y106933D01*
X243007Y106937D01*
X243007Y106938D01*
X243019Y106944D01*
X243119Y107544D01*
X243116Y107549D01*
X243119Y107552D01*
X243119Y108252D01*
X243105Y108270D01*
X243108Y108283D01*
X242708Y108783D01*
X242683Y108789D01*
X242677Y108801D01*
X241977Y108901D01*
X241972Y108898D01*
X241970Y108901D01*
X239890Y108901D01*
X239849Y108942D01*
X240293Y109209D01*
X240892Y109508D01*
X240896Y109516D01*
X240902Y109514D01*
X241502Y110014D01*
X241502Y110018D01*
X241505Y110017D01*
X242005Y110517D01*
X242006Y110526D01*
X242012Y110527D01*
X242312Y111027D01*
X242312Y111032D01*
X242315Y111033D01*
X242615Y111733D01*
X242613Y111741D01*
X242619Y111744D01*
X242719Y112344D01*
X242716Y112349D01*
X242717Y112350D01*
X242719Y112352D01*
X242719Y113052D01*
X242713Y113060D01*
X242717Y113066D01*
X242517Y113766D01*
X242516Y113767D01*
X242517Y113768D01*
X242317Y114368D01*
X242306Y114375D01*
X242308Y114383D01*
X241508Y115383D01*
X241498Y115385D01*
X241497Y115393D01*
X240897Y115793D01*
X240893Y115793D01*
X240892Y115796D01*
X240292Y116096D01*
X240282Y116094D01*
X240278Y116101D01*
X239678Y116201D01*
X239673Y116198D01*
X239670Y116201D01*
X238870Y116201D01*
X238865Y116198D01*
X238862Y116201D01*
X238262Y116101D01*
X238259Y116097D01*
X238256Y116099D01*
X237556Y115899D01*
X237551Y115892D01*
X237545Y115894D01*
X237045Y115594D01*
X237041Y115586D01*
X237035Y115587D01*
X236535Y115087D01*
X236534Y115080D01*
X236529Y115079D01*
X236129Y114479D01*
X236129Y114475D01*
X236126Y114474D01*
X235826Y113874D01*
X235828Y113864D01*
X235821Y113860D01*
X235721Y113260D01*
X235722Y113259D01*
X235721Y113259D01*
X235621Y112559D01*
X235627Y112549D01*
X235621Y112544D01*
X235721Y111944D01*
X235737Y111929D01*
X235735Y111917D01*
X236135Y111517D01*
X236162Y111514D01*
X236170Y111503D01*
X237070Y111503D01*
X237078Y111509D01*
X237084Y111505D01*
X237784Y111705D01*
X237803Y111730D01*
X237816Y111734D01*
X238016Y112234D01*
X238014Y112241D01*
X238019Y112244D01*
X238118Y112840D01*
X238311Y113420D01*
X238885Y113803D01*
X239553Y113803D01*
X240031Y113420D01*
X240319Y112844D01*
X240223Y112270D01*
X239833Y111686D01*
X239339Y111290D01*
X238842Y110892D01*
X237044Y109794D01*
X237043Y109790D01*
X237039Y109790D01*
X236539Y109390D01*
X236538Y109386D01*
X236535Y109387D01*
X236035Y108887D01*
X236034Y108875D01*
X236026Y108874D01*
X235726Y108274D01*
X235728Y108264D01*
X235721Y108260D01*
X235621Y107660D01*
X235629Y107645D01*
X235623Y107636D01*
X235823Y107036D01*
X235839Y107026D01*
X235838Y107014D01*
X236438Y106514D01*
X236462Y106513D01*
X236470Y106503D01*
X242470Y106503D01*
X242488Y106517D01*
G37*
G36*
X167588Y118455D02*
X167588Y118455D01*
X167601Y118452D01*
X168101Y118852D01*
X168105Y118867D01*
X168110Y118871D01*
X168107Y118875D01*
X168107Y118876D01*
X168119Y118882D01*
X168219Y119482D01*
X168213Y119492D01*
X168219Y119497D01*
X168119Y120197D01*
X168106Y120210D01*
X168108Y120221D01*
X167708Y120721D01*
X167683Y120727D01*
X167677Y120739D01*
X166977Y120839D01*
X166972Y120836D01*
X166970Y120839D01*
X164990Y120839D01*
X164949Y120880D01*
X165393Y121147D01*
X165992Y121446D01*
X165996Y121454D01*
X166002Y121452D01*
X166602Y121952D01*
X166602Y121956D01*
X166605Y121955D01*
X167105Y122455D01*
X167106Y122464D01*
X167112Y122465D01*
X167412Y122965D01*
X167412Y122970D01*
X167415Y122971D01*
X167715Y123671D01*
X167713Y123679D01*
X167719Y123682D01*
X167819Y124282D01*
X167816Y124287D01*
X167817Y124288D01*
X167819Y124290D01*
X167819Y124990D01*
X167813Y124998D01*
X167817Y125004D01*
X167617Y125704D01*
X167616Y125705D01*
X167617Y125706D01*
X167417Y126306D01*
X167406Y126313D01*
X167408Y126321D01*
X166608Y127321D01*
X166598Y127323D01*
X166597Y127331D01*
X165997Y127731D01*
X165993Y127731D01*
X165992Y127734D01*
X165392Y128034D01*
X165382Y128032D01*
X165378Y128039D01*
X164778Y128139D01*
X164773Y128136D01*
X164770Y128139D01*
X163970Y128139D01*
X163966Y128136D01*
X163963Y128139D01*
X163263Y128039D01*
X163258Y128034D01*
X163254Y128037D01*
X162654Y127837D01*
X162650Y127830D01*
X162645Y127832D01*
X162145Y127532D01*
X162141Y127524D01*
X162135Y127525D01*
X161635Y127025D01*
X161634Y127018D01*
X161629Y127017D01*
X161229Y126417D01*
X161229Y126413D01*
X161226Y126412D01*
X160926Y125812D01*
X160928Y125802D01*
X160921Y125798D01*
X160821Y125198D01*
X160822Y125197D01*
X160821Y125197D01*
X160721Y124497D01*
X160727Y124487D01*
X160721Y124482D01*
X160821Y123882D01*
X160837Y123867D01*
X160835Y123855D01*
X161235Y123455D01*
X161262Y123452D01*
X161270Y123441D01*
X162170Y123441D01*
X162179Y123448D01*
X162186Y123443D01*
X162786Y123643D01*
X162799Y123663D01*
X162812Y123665D01*
X163112Y124165D01*
X163111Y124178D01*
X163119Y124182D01*
X163218Y124778D01*
X163411Y125358D01*
X163985Y125741D01*
X164653Y125741D01*
X165131Y125358D01*
X165419Y124782D01*
X165323Y124208D01*
X164933Y123624D01*
X164441Y123230D01*
X163843Y122831D01*
X162143Y121731D01*
X162142Y121728D01*
X162139Y121728D01*
X161639Y121328D01*
X161638Y121324D01*
X161635Y121325D01*
X161135Y120825D01*
X161134Y120813D01*
X161126Y120812D01*
X160826Y120212D01*
X160828Y120202D01*
X160821Y120198D01*
X160721Y119598D01*
X160729Y119583D01*
X160723Y119574D01*
X160923Y118974D01*
X160937Y118965D01*
X160935Y118955D01*
X161435Y118455D01*
X161462Y118452D01*
X161470Y118441D01*
X167570Y118441D01*
X167588Y118455D01*
G37*
%LPC*%
G36*
X110136Y36336D02*
X110136Y36336D01*
X109747Y37017D01*
X109652Y37590D01*
X109934Y38061D01*
X111520Y38755D01*
X111522Y38760D01*
X111526Y38758D01*
X112326Y39258D01*
X112334Y39279D01*
X112347Y39289D01*
X112343Y39295D01*
X112349Y39300D01*
X112349Y40600D01*
X112342Y40609D01*
X112347Y40616D01*
X112147Y41216D01*
X112103Y41246D01*
X112100Y41249D01*
X110803Y41249D01*
X110120Y41347D01*
X109747Y41627D01*
X109650Y42496D01*
X109841Y43163D01*
X110313Y43352D01*
X110904Y43451D01*
X118391Y43451D01*
X118882Y43254D01*
X118904Y43261D01*
X118915Y43253D01*
X118959Y43267D01*
X119124Y42772D01*
X116785Y41249D01*
X114800Y41249D01*
X114779Y41233D01*
X114765Y41235D01*
X114565Y41035D01*
X114562Y41008D01*
X114551Y41000D01*
X114551Y39700D01*
X114554Y39696D01*
X114551Y39693D01*
X114651Y38993D01*
X114664Y38980D01*
X114662Y38969D01*
X115062Y38469D01*
X115087Y38463D01*
X115093Y38451D01*
X115793Y38351D01*
X115811Y38361D01*
X115822Y38356D01*
X116422Y38656D01*
X116429Y38669D01*
X116438Y38669D01*
X116838Y39169D01*
X116839Y39184D01*
X116848Y39191D01*
X116847Y39192D01*
X116849Y39193D01*
X116949Y39893D01*
X116946Y39898D01*
X116949Y39900D01*
X116949Y40500D01*
X116946Y40504D01*
X116949Y40507D01*
X116853Y41176D01*
X119151Y42672D01*
X119151Y39208D01*
X118954Y38619D01*
X118657Y38025D01*
X118260Y37429D01*
X117866Y36937D01*
X117275Y36543D01*
X116685Y36248D01*
X115997Y36149D01*
X115308Y36149D01*
X114716Y36347D01*
X114714Y36346D01*
X114714Y36347D01*
X114023Y36545D01*
X113531Y36938D01*
X113514Y36939D01*
X113510Y36948D01*
X113010Y37048D01*
X112991Y37039D01*
X112981Y37045D01*
X111781Y36545D01*
X111780Y36543D01*
X111778Y36544D01*
X111181Y36246D01*
X110606Y36054D01*
X110136Y36336D01*
G37*
%LPD*%
G36*
X230174Y118444D02*
X230174Y118444D01*
X230177Y118441D01*
X230877Y118541D01*
X230890Y118554D01*
X230901Y118552D01*
X231373Y118929D01*
X231643Y118749D01*
X231647Y118749D01*
X231648Y118746D01*
X232248Y118446D01*
X232264Y118449D01*
X232270Y118441D01*
X233070Y118441D01*
X233085Y118452D01*
X233095Y118448D01*
X233595Y118748D01*
X233603Y118767D01*
X233606Y118769D01*
X233616Y118772D01*
X233816Y119272D01*
X233812Y119285D01*
X233819Y119290D01*
X233819Y127490D01*
X233813Y127498D01*
X233817Y127504D01*
X233617Y128204D01*
X233597Y128219D01*
X233595Y128232D01*
X233095Y128532D01*
X233079Y128530D01*
X233074Y128537D01*
X233072Y128537D01*
X233070Y128539D01*
X232370Y128539D01*
X232367Y128537D01*
X232362Y128537D01*
X232360Y128535D01*
X232356Y128537D01*
X231656Y128337D01*
X231640Y128315D01*
X231639Y128314D01*
X231626Y128312D01*
X231526Y128112D01*
X231527Y128109D01*
X231524Y128107D01*
X231528Y128103D01*
X231528Y128102D01*
X231521Y128098D01*
X231421Y127498D01*
X231424Y127493D01*
X231421Y127490D01*
X231421Y124882D01*
X231197Y125031D01*
X231188Y125030D01*
X231186Y125037D01*
X230586Y125237D01*
X230579Y125234D01*
X230576Y125239D01*
X229776Y125339D01*
X229771Y125336D01*
X229765Y125336D01*
X229762Y125339D01*
X229162Y125239D01*
X229155Y125231D01*
X229148Y125234D01*
X228548Y124934D01*
X228545Y124927D01*
X228539Y124928D01*
X228039Y124528D01*
X228037Y124521D01*
X228032Y124522D01*
X227532Y123922D01*
X227532Y123921D01*
X227132Y123421D01*
X227131Y123407D01*
X227123Y123404D01*
X226923Y122704D01*
X226924Y122700D01*
X226921Y122698D01*
X226821Y122098D01*
X226827Y122088D01*
X226821Y122083D01*
X226921Y121383D01*
X226922Y121382D01*
X226921Y121382D01*
X227021Y120782D01*
X227028Y120776D01*
X227025Y120771D01*
X227325Y120071D01*
X227333Y120066D01*
X227332Y120059D01*
X227732Y119559D01*
X227736Y119558D01*
X227735Y119555D01*
X228235Y119055D01*
X228242Y119054D01*
X228243Y119049D01*
X228843Y118649D01*
X228852Y118650D01*
X228854Y118643D01*
X229454Y118443D01*
X229465Y118447D01*
X229470Y118441D01*
X230170Y118441D01*
X230174Y118444D01*
G37*
%LPC*%
G36*
X160617Y24419D02*
X160617Y24419D01*
X160133Y24807D01*
X159741Y25199D01*
X159446Y25789D01*
X159248Y26381D01*
X159149Y27076D01*
X159049Y27873D01*
X159049Y28562D01*
X159247Y29154D01*
X159246Y29155D01*
X159247Y29156D01*
X159446Y29850D01*
X159742Y30344D01*
X160138Y30939D01*
X160631Y31432D01*
X161227Y31829D01*
X161228Y31832D01*
X161231Y31832D01*
X161724Y32226D01*
X162315Y32423D01*
X163010Y32622D01*
X163700Y32720D01*
X164393Y32621D01*
X164398Y32624D01*
X164400Y32621D01*
X165092Y32621D01*
X165681Y32424D01*
X166275Y32127D01*
X166871Y31730D01*
X167363Y31336D01*
X167759Y30743D01*
X167762Y30742D01*
X167762Y30739D01*
X168158Y30243D01*
X168454Y29651D01*
X168652Y29059D01*
X168751Y28367D01*
X168751Y27077D01*
X168554Y26388D01*
X168256Y25792D01*
X167959Y25199D01*
X167480Y24719D01*
X166916Y24719D01*
X166237Y25204D01*
X165949Y25684D01*
X165949Y26157D01*
X166343Y26846D01*
X166342Y26853D01*
X166347Y26854D01*
X166547Y27454D01*
X166543Y27465D01*
X166549Y27470D01*
X166549Y28170D01*
X166546Y28174D01*
X166549Y28177D01*
X166449Y28877D01*
X166441Y28885D01*
X166444Y28892D01*
X166144Y29492D01*
X166134Y29497D01*
X166135Y29505D01*
X165635Y30005D01*
X165623Y30006D01*
X165622Y30014D01*
X165022Y30314D01*
X165012Y30312D01*
X165008Y30319D01*
X164408Y30419D01*
X164403Y30416D01*
X164400Y30419D01*
X163600Y30419D01*
X163595Y30416D01*
X163592Y30419D01*
X162992Y30319D01*
X162985Y30311D01*
X162978Y30314D01*
X162378Y30014D01*
X162373Y30004D01*
X162365Y30005D01*
X161865Y29505D01*
X161864Y29498D01*
X161859Y29497D01*
X161459Y28897D01*
X161459Y28890D01*
X161455Y28887D01*
X161456Y28886D01*
X161453Y28886D01*
X161253Y28286D01*
X161257Y28275D01*
X161251Y28270D01*
X161251Y27570D01*
X161257Y27562D01*
X161253Y27556D01*
X161453Y26856D01*
X161475Y26839D01*
X161478Y26826D01*
X161878Y26626D01*
X161894Y26629D01*
X161900Y26621D01*
X162600Y26621D01*
X162618Y26634D01*
X162630Y26631D01*
X163030Y26931D01*
X163039Y26962D01*
X163049Y26970D01*
X163049Y27567D01*
X163144Y28233D01*
X163705Y28420D01*
X164377Y28324D01*
X164753Y27947D01*
X164851Y27167D01*
X164851Y25182D01*
X164564Y24609D01*
X164091Y24419D01*
X160617Y24419D01*
G37*
%LPD*%
%LPC*%
G36*
X60629Y45500D02*
X60629Y45500D01*
X60619Y45497D01*
X60616Y45507D01*
X60029Y45702D01*
X59640Y46188D01*
X59343Y46683D01*
X59047Y47275D01*
X58949Y47867D01*
X58849Y48663D01*
X58849Y49357D01*
X58949Y50052D01*
X59047Y50645D01*
X59343Y51235D01*
X59738Y51829D01*
X60731Y52821D01*
X61223Y53117D01*
X61818Y53414D01*
X62514Y53613D01*
X62515Y53614D01*
X62516Y53613D01*
X63108Y53811D01*
X63797Y53811D01*
X64493Y53711D01*
X65185Y53612D01*
X65778Y53316D01*
X66373Y53018D01*
X66867Y52623D01*
X67363Y52127D01*
X67758Y51633D01*
X68056Y51038D01*
X68352Y50445D01*
X68451Y49753D01*
X68550Y49061D01*
X68451Y48468D01*
X68452Y48467D01*
X68451Y48467D01*
X68352Y47771D01*
X68154Y47179D01*
X67857Y46585D01*
X67468Y46001D01*
X66900Y45812D01*
X66327Y46003D01*
X65745Y46584D01*
X65652Y47053D01*
X66244Y48238D01*
X66242Y48249D01*
X66249Y48253D01*
X66349Y48953D01*
X66344Y48962D01*
X66349Y48967D01*
X66249Y49667D01*
X66244Y49672D01*
X66247Y49676D01*
X66047Y50276D01*
X66039Y50281D01*
X66041Y50287D01*
X65641Y50887D01*
X65628Y50892D01*
X65627Y50901D01*
X65027Y51301D01*
X65018Y51300D01*
X65016Y51307D01*
X64416Y51507D01*
X64409Y51505D01*
X64407Y51509D01*
X63707Y51609D01*
X63698Y51604D01*
X63693Y51609D01*
X62993Y51509D01*
X62985Y51501D01*
X62978Y51504D01*
X62378Y51204D01*
X62375Y51197D01*
X62369Y51198D01*
X61869Y50798D01*
X61868Y50794D01*
X61865Y50795D01*
X61365Y50295D01*
X61364Y50283D01*
X61356Y50282D01*
X61056Y49682D01*
X61058Y49670D01*
X61053Y49666D01*
X61055Y49663D01*
X61051Y49660D01*
X61051Y48260D01*
X61062Y48245D01*
X61058Y48235D01*
X61358Y47735D01*
X61392Y47721D01*
X61400Y47711D01*
X62700Y47711D01*
X62747Y47747D01*
X62743Y47753D01*
X62749Y47757D01*
X62848Y49138D01*
X63220Y49511D01*
X63892Y49511D01*
X64461Y49321D01*
X64651Y48752D01*
X64651Y46567D01*
X64457Y45890D01*
X64081Y45607D01*
X63397Y45509D01*
X60700Y45509D01*
X60662Y45481D01*
X60654Y45479D01*
X60644Y45452D01*
X60629Y45500D01*
G37*
%LPD*%
G36*
X245065Y52412D02*
X245065Y52412D01*
X245076Y52408D01*
X245876Y52908D01*
X245882Y52924D01*
X245892Y52925D01*
X246192Y53425D01*
X246189Y53457D01*
X246196Y53468D01*
X245996Y53968D01*
X245994Y53969D01*
X245995Y53971D01*
X242495Y61471D01*
X242484Y61477D01*
X242485Y61485D01*
X242185Y61785D01*
X242173Y61786D01*
X242172Y61794D01*
X241572Y62094D01*
X241551Y62090D01*
X241542Y62099D01*
X240942Y61999D01*
X240932Y61988D01*
X240923Y61991D01*
X240323Y61591D01*
X240317Y61574D01*
X240306Y61572D01*
X240006Y60972D01*
X236706Y54172D01*
X236707Y54167D01*
X236703Y54166D01*
X236503Y53566D01*
X236510Y53547D01*
X236509Y53547D01*
X236510Y53546D01*
X236511Y53543D01*
X236504Y53532D01*
X236704Y53032D01*
X236721Y53022D01*
X236721Y53010D01*
X237421Y52510D01*
X237437Y52510D01*
X237442Y52501D01*
X238042Y52401D01*
X238061Y52411D01*
X238072Y52406D01*
X238672Y52706D01*
X238682Y52726D01*
X238694Y52728D01*
X238994Y53328D01*
X239580Y54501D01*
X242930Y54501D01*
X243309Y54121D01*
X243905Y52829D01*
X243920Y52822D01*
X243919Y52812D01*
X244419Y52412D01*
X244442Y52411D01*
X244450Y52401D01*
X245050Y52401D01*
X245065Y52412D01*
G37*
%LPC*%
G36*
X92228Y23841D02*
X92228Y23841D01*
X89149Y26522D01*
X89149Y26600D01*
X89142Y26610D01*
X89144Y26622D01*
X89131Y26625D01*
X89113Y26647D01*
X89092Y26632D01*
X89067Y26636D01*
X86567Y24336D01*
X86566Y24335D01*
X86565Y24335D01*
X86071Y23841D01*
X85498Y23554D01*
X85028Y23742D01*
X84442Y24328D01*
X84252Y24802D01*
X84442Y25372D01*
X87532Y28063D01*
X87535Y28077D01*
X87546Y28086D01*
X87539Y28095D01*
X87545Y28121D01*
X87533Y28123D01*
X87535Y28135D01*
X87135Y28535D01*
X87132Y28535D01*
X87132Y28537D01*
X85032Y30337D01*
X85032Y30338D01*
X84441Y30830D01*
X84251Y31305D01*
X84346Y31876D01*
X84928Y32458D01*
X85402Y32648D01*
X85976Y32456D01*
X86568Y31963D01*
X89067Y29664D01*
X89126Y29658D01*
X89126Y29663D01*
X89131Y29662D01*
X89631Y30062D01*
X89631Y30063D01*
X89633Y30063D01*
X92130Y32261D01*
X92710Y32648D01*
X93176Y32555D01*
X93757Y31973D01*
X93949Y31397D01*
X93855Y30924D01*
X93266Y30336D01*
X90767Y28137D01*
X90764Y28120D01*
X90754Y28112D01*
X90761Y28103D01*
X90756Y28079D01*
X90767Y28076D01*
X90765Y28065D01*
X91165Y27665D01*
X91167Y27665D01*
X91167Y27663D01*
X93167Y25863D01*
X93169Y25863D01*
X93168Y25862D01*
X93758Y25371D01*
X93948Y24802D01*
X93757Y24326D01*
X93270Y23741D01*
X92802Y23554D01*
X92228Y23841D01*
G37*
%LPD*%
%LPC*%
G36*
X117528Y25441D02*
X117528Y25441D01*
X115034Y27736D01*
X114535Y28235D01*
X114476Y28243D01*
X114475Y28235D01*
X114467Y28236D01*
X111967Y25936D01*
X111966Y25935D01*
X111965Y25935D01*
X111471Y25441D01*
X110898Y25154D01*
X110428Y25342D01*
X109843Y25927D01*
X109652Y26498D01*
X109841Y26971D01*
X112932Y29663D01*
X112935Y29677D01*
X112946Y29686D01*
X112939Y29695D01*
X112945Y29721D01*
X112936Y29723D01*
X112938Y29731D01*
X112538Y30231D01*
X112531Y30233D01*
X112531Y30238D01*
X110432Y31938D01*
X109842Y32429D01*
X109652Y32998D01*
X109843Y33474D01*
X110330Y34059D01*
X110818Y34254D01*
X110849Y34305D01*
X110849Y34306D01*
X110849Y34307D01*
X110852Y34291D01*
X110878Y34267D01*
X110882Y34254D01*
X111374Y34057D01*
X111968Y33563D01*
X114467Y31264D01*
X114526Y31258D01*
X114526Y31263D01*
X114531Y31262D01*
X115031Y31662D01*
X115031Y31664D01*
X115033Y31664D01*
X117528Y33959D01*
X118107Y34248D01*
X118576Y34155D01*
X119157Y33573D01*
X119348Y33002D01*
X119158Y32528D01*
X118667Y32036D01*
X116068Y29838D01*
X116064Y29817D01*
X116055Y29811D01*
X116061Y29804D01*
X116055Y29780D01*
X116067Y29777D01*
X116065Y29765D01*
X116565Y29265D01*
X116567Y29265D01*
X116567Y29263D01*
X118567Y27463D01*
X118569Y27463D01*
X118568Y27462D01*
X119159Y26970D01*
X119348Y26498D01*
X119156Y25924D01*
X118671Y25342D01*
X118104Y25153D01*
X117528Y25441D01*
G37*
%LPD*%
%LPC*%
G36*
X170033Y22719D02*
X170033Y22719D01*
X169849Y23179D01*
X169849Y57297D01*
X171151Y57692D01*
X171151Y22810D01*
X170695Y22719D01*
X170033Y22719D01*
G37*
%LPD*%
G36*
X220554Y52404D02*
X220554Y52404D01*
X220557Y52401D01*
X221257Y52501D01*
X221265Y52509D01*
X221272Y52506D01*
X222472Y53106D01*
X222475Y53113D01*
X222481Y53112D01*
X222981Y53512D01*
X222984Y53526D01*
X222994Y53528D01*
X223294Y54128D01*
X223293Y54133D01*
X223297Y54134D01*
X223497Y54734D01*
X223495Y54741D01*
X223499Y54743D01*
X223599Y55443D01*
X223596Y55448D01*
X223599Y55450D01*
X223599Y56250D01*
X223592Y56259D01*
X223597Y56266D01*
X223397Y56866D01*
X223386Y56873D01*
X223388Y56881D01*
X222988Y57381D01*
X222981Y57383D01*
X222981Y57388D01*
X222481Y57788D01*
X222473Y57789D01*
X222472Y57794D01*
X221872Y58094D01*
X221865Y58093D01*
X221864Y58097D01*
X221164Y58297D01*
X221162Y58297D01*
X221161Y58298D01*
X219870Y58596D01*
X219295Y58979D01*
X219202Y59536D01*
X219576Y60004D01*
X220245Y60100D01*
X220826Y59906D01*
X221418Y59412D01*
X221442Y59411D01*
X221450Y59401D01*
X221950Y59401D01*
X221963Y59410D01*
X221972Y59406D01*
X222572Y59706D01*
X222581Y59724D01*
X222593Y59726D01*
X222993Y60426D01*
X222990Y60443D01*
X222999Y60450D01*
X222999Y60950D01*
X222983Y60971D01*
X222985Y60985D01*
X222085Y61885D01*
X222066Y61887D01*
X222062Y61898D01*
X221262Y62098D01*
X221259Y62097D01*
X221258Y62099D01*
X220658Y62199D01*
X220657Y62198D01*
X220657Y62199D01*
X219957Y62299D01*
X219949Y62294D01*
X219944Y62299D01*
X219144Y62199D01*
X219139Y62194D01*
X219134Y62197D01*
X218534Y61997D01*
X218531Y61992D01*
X218528Y61994D01*
X217928Y61694D01*
X217923Y61684D01*
X217915Y61685D01*
X217515Y61285D01*
X217514Y61278D01*
X217509Y61277D01*
X217109Y60677D01*
X217109Y60673D01*
X217106Y60672D01*
X216806Y60072D01*
X216808Y60062D01*
X216801Y60058D01*
X216701Y59458D01*
X216707Y59448D01*
X216701Y59443D01*
X216801Y58743D01*
X216805Y58739D01*
X216803Y58736D01*
X217003Y58036D01*
X217014Y58028D01*
X217012Y58019D01*
X217412Y57519D01*
X217419Y57517D01*
X217419Y57512D01*
X217919Y57112D01*
X217927Y57111D01*
X217928Y57106D01*
X219128Y56506D01*
X219135Y56507D01*
X219136Y56503D01*
X219836Y56303D01*
X219841Y56305D01*
X219843Y56301D01*
X220533Y56203D01*
X221009Y55917D01*
X221196Y55356D01*
X220915Y54888D01*
X220342Y54601D01*
X219668Y54697D01*
X219080Y55089D01*
X218482Y55588D01*
X218470Y55588D01*
X218468Y55596D01*
X217968Y55796D01*
X217956Y55792D01*
X217951Y55799D01*
X217949Y55799D01*
X217945Y55796D01*
X217942Y55799D01*
X217342Y55699D01*
X217327Y55683D01*
X217315Y55685D01*
X216715Y55085D01*
X216714Y55074D01*
X216713Y55074D01*
X216714Y55073D01*
X216712Y55065D01*
X216702Y55060D01*
X216602Y54560D01*
X216612Y54538D01*
X216607Y54526D01*
X217007Y53826D01*
X217016Y53822D01*
X217015Y53815D01*
X217415Y53415D01*
X217419Y53415D01*
X217419Y53412D01*
X217919Y53012D01*
X217923Y53011D01*
X217923Y53009D01*
X218523Y52609D01*
X218534Y52610D01*
X218536Y52603D01*
X219236Y52403D01*
X219246Y52406D01*
X219250Y52401D01*
X220550Y52401D01*
X220554Y52404D01*
G37*
G36*
X164674Y106506D02*
X164674Y106506D01*
X164677Y106503D01*
X165377Y106603D01*
X165385Y106611D01*
X165392Y106608D01*
X166592Y107208D01*
X166595Y107215D01*
X166601Y107214D01*
X167101Y107614D01*
X167104Y107628D01*
X167114Y107630D01*
X167414Y108230D01*
X167413Y108235D01*
X167417Y108236D01*
X167617Y108836D01*
X167615Y108843D01*
X167619Y108845D01*
X167719Y109545D01*
X167716Y109550D01*
X167719Y109552D01*
X167719Y110352D01*
X167712Y110361D01*
X167717Y110368D01*
X167517Y110968D01*
X167506Y110975D01*
X167508Y110983D01*
X167108Y111483D01*
X167101Y111485D01*
X167101Y111490D01*
X166601Y111890D01*
X166593Y111891D01*
X166592Y111896D01*
X165992Y112196D01*
X165985Y112195D01*
X165984Y112199D01*
X165284Y112399D01*
X165282Y112399D01*
X165281Y112400D01*
X163990Y112698D01*
X163415Y113081D01*
X163322Y113638D01*
X163696Y114106D01*
X164365Y114202D01*
X164946Y114008D01*
X165538Y113514D01*
X165562Y113513D01*
X165570Y113503D01*
X166070Y113503D01*
X166083Y113512D01*
X166092Y113508D01*
X166692Y113808D01*
X166701Y113826D01*
X166713Y113828D01*
X167113Y114528D01*
X167110Y114545D01*
X167119Y114552D01*
X167119Y115052D01*
X167103Y115073D01*
X167105Y115087D01*
X166205Y115987D01*
X166186Y115989D01*
X166182Y116000D01*
X165382Y116200D01*
X165379Y116199D01*
X165378Y116201D01*
X164778Y116301D01*
X164777Y116300D01*
X164777Y116301D01*
X164077Y116401D01*
X164069Y116396D01*
X164064Y116401D01*
X163264Y116301D01*
X163259Y116296D01*
X163254Y116299D01*
X162654Y116099D01*
X162651Y116094D01*
X162648Y116096D01*
X162048Y115796D01*
X162043Y115786D01*
X162035Y115787D01*
X161635Y115387D01*
X161634Y115380D01*
X161629Y115379D01*
X161229Y114779D01*
X161229Y114775D01*
X161226Y114774D01*
X160926Y114174D01*
X160928Y114164D01*
X160921Y114160D01*
X160821Y113560D01*
X160827Y113550D01*
X160821Y113545D01*
X160921Y112845D01*
X160925Y112841D01*
X160923Y112838D01*
X161123Y112138D01*
X161134Y112130D01*
X161132Y112121D01*
X161532Y111621D01*
X161539Y111619D01*
X161539Y111614D01*
X162039Y111214D01*
X162047Y111213D01*
X162048Y111208D01*
X163248Y110608D01*
X163255Y110609D01*
X163256Y110605D01*
X163956Y110405D01*
X163961Y110407D01*
X163963Y110403D01*
X164653Y110305D01*
X165129Y110019D01*
X165316Y109458D01*
X165035Y108990D01*
X164462Y108703D01*
X163788Y108799D01*
X163200Y109191D01*
X162602Y109690D01*
X162590Y109690D01*
X162588Y109698D01*
X162088Y109898D01*
X162076Y109894D01*
X162071Y109901D01*
X162069Y109901D01*
X162065Y109898D01*
X162062Y109901D01*
X161462Y109801D01*
X161447Y109785D01*
X161435Y109787D01*
X160835Y109187D01*
X160834Y109176D01*
X160833Y109176D01*
X160834Y109175D01*
X160832Y109167D01*
X160822Y109162D01*
X160722Y108662D01*
X160732Y108640D01*
X160727Y108628D01*
X161127Y107928D01*
X161136Y107924D01*
X161135Y107917D01*
X161535Y107517D01*
X161539Y107517D01*
X161539Y107514D01*
X162039Y107114D01*
X162043Y107113D01*
X162043Y107111D01*
X162643Y106711D01*
X162654Y106712D01*
X162656Y106705D01*
X163356Y106505D01*
X163366Y106508D01*
X163370Y106503D01*
X164670Y106503D01*
X164674Y106506D01*
G37*
%LPC*%
G36*
X137803Y49249D02*
X137803Y49249D01*
X137115Y49348D01*
X136527Y49642D01*
X136035Y50035D01*
X135642Y50527D01*
X135346Y51119D01*
X135148Y51711D01*
X135049Y52403D01*
X135049Y53197D01*
X135148Y53889D01*
X135346Y54481D01*
X135642Y55073D01*
X136035Y55565D01*
X136526Y55957D01*
X137214Y56252D01*
X137894Y56349D01*
X138362Y56162D01*
X138552Y55688D01*
X138649Y54811D01*
X138365Y54338D01*
X137778Y54044D01*
X137773Y54034D01*
X137765Y54035D01*
X137265Y53535D01*
X137262Y53513D01*
X137251Y53507D01*
X137151Y52807D01*
X137156Y52798D01*
X137151Y52793D01*
X137251Y52093D01*
X137264Y52080D01*
X137262Y52069D01*
X137662Y51569D01*
X137686Y51563D01*
X137692Y51551D01*
X138292Y51451D01*
X138318Y51465D01*
X138331Y51462D01*
X138831Y51862D01*
X138835Y51876D01*
X138835Y51877D01*
X138836Y51882D01*
X138847Y51886D01*
X139047Y52586D01*
X139044Y52596D01*
X139049Y52600D01*
X139049Y53186D01*
X139330Y53654D01*
X140100Y53750D01*
X140873Y53654D01*
X141153Y53281D01*
X141251Y52593D01*
X141351Y51794D01*
X141388Y51756D01*
X141390Y51752D01*
X141890Y51652D01*
X141918Y51665D01*
X141931Y51662D01*
X142431Y52062D01*
X142437Y52087D01*
X142449Y52093D01*
X142549Y52793D01*
X142541Y52807D01*
X142547Y52816D01*
X142347Y53416D01*
X142332Y53426D01*
X142333Y53437D01*
X141349Y54322D01*
X141349Y54890D01*
X141638Y55564D01*
X142212Y55851D01*
X142690Y55851D01*
X143374Y55557D01*
X143869Y55162D01*
X143905Y55161D01*
X143874Y55142D01*
X143853Y55087D01*
X143865Y55082D01*
X143862Y55069D01*
X144258Y54573D01*
X144553Y53985D01*
X144651Y53392D01*
X144751Y52697D01*
X144751Y51316D01*
X144463Y50932D01*
X143967Y50437D01*
X143471Y50040D01*
X142878Y49645D01*
X142289Y49448D01*
X141605Y49350D01*
X141024Y49544D01*
X140533Y49937D01*
X140135Y50335D01*
X140076Y50343D01*
X140075Y50334D01*
X140065Y50335D01*
X139567Y49837D01*
X139076Y49444D01*
X138492Y49249D01*
X137803Y49249D01*
G37*
%LPD*%
%LPC*%
G36*
X137903Y35449D02*
X137903Y35449D01*
X137215Y35548D01*
X136627Y35842D01*
X136133Y36237D01*
X135641Y36729D01*
X135346Y37319D01*
X135148Y37911D01*
X135049Y38603D01*
X135049Y39297D01*
X135247Y40683D01*
X135540Y41172D01*
X135937Y41667D01*
X136428Y42158D01*
X137114Y42452D01*
X137799Y42550D01*
X138269Y42456D01*
X138552Y41984D01*
X138650Y41205D01*
X138460Y40635D01*
X137878Y40344D01*
X137875Y40337D01*
X137869Y40338D01*
X137369Y39938D01*
X137364Y39918D01*
X137353Y39914D01*
X137153Y39214D01*
X137158Y39200D01*
X137151Y39193D01*
X137251Y38493D01*
X137259Y38485D01*
X137256Y38478D01*
X137556Y37878D01*
X137580Y37866D01*
X137584Y37853D01*
X138184Y37653D01*
X138194Y37657D01*
X138210Y37657D01*
X138216Y37661D01*
X138225Y37658D01*
X138725Y37958D01*
X138733Y37977D01*
X138735Y37978D01*
X138745Y37981D01*
X139045Y38681D01*
X139042Y38694D01*
X139049Y38700D01*
X139049Y39386D01*
X139333Y39859D01*
X139905Y40050D01*
X140777Y39953D01*
X141154Y39576D01*
X141251Y38993D01*
X141351Y38194D01*
X141370Y38174D01*
X141370Y38161D01*
X141770Y37861D01*
X141791Y37861D01*
X141796Y37854D01*
X141806Y37854D01*
X141814Y37860D01*
X141822Y37856D01*
X142422Y38156D01*
X142432Y38176D01*
X142444Y38185D01*
X142441Y38189D01*
X142449Y38193D01*
X142549Y38893D01*
X142544Y38902D01*
X142549Y38907D01*
X142449Y39607D01*
X142433Y39622D01*
X142435Y39635D01*
X141935Y40135D01*
X141931Y40135D01*
X141931Y40138D01*
X141446Y40527D01*
X141351Y41092D01*
X141641Y41671D01*
X142120Y42151D01*
X142590Y42151D01*
X143277Y41856D01*
X143863Y41465D01*
X144157Y40977D01*
X144454Y40382D01*
X144652Y39690D01*
X144751Y38997D01*
X144751Y37709D01*
X144559Y37229D01*
X143570Y36339D01*
X142978Y35945D01*
X142388Y35748D01*
X141799Y35650D01*
X141118Y35747D01*
X140537Y36135D01*
X140242Y36625D01*
X140187Y36648D01*
X140181Y36633D01*
X140165Y36635D01*
X139667Y36137D01*
X139173Y35742D01*
X138588Y35449D01*
X137903Y35449D01*
G37*
%LPD*%
G36*
X196979Y118448D02*
X196979Y118448D01*
X196986Y118443D01*
X197586Y118643D01*
X197595Y118657D01*
X197605Y118655D01*
X198060Y119111D01*
X198328Y118665D01*
X198348Y118656D01*
X198352Y118644D01*
X198852Y118444D01*
X198865Y118448D01*
X198870Y118441D01*
X199770Y118441D01*
X199788Y118454D01*
X199800Y118451D01*
X200200Y118751D01*
X200204Y118767D01*
X200211Y118772D01*
X200210Y118774D01*
X200217Y118776D01*
X200417Y119476D01*
X200414Y119486D01*
X200419Y119490D01*
X200419Y124290D01*
X200412Y124299D01*
X200417Y124306D01*
X200217Y124906D01*
X200200Y124917D01*
X200201Y124928D01*
X199701Y125328D01*
X199680Y125329D01*
X199674Y125336D01*
X199673Y125336D01*
X199670Y125339D01*
X198970Y125339D01*
X198965Y125336D01*
X198959Y125336D01*
X198956Y125337D01*
X198256Y125137D01*
X198241Y125117D01*
X198233Y125111D01*
X198224Y125108D01*
X198052Y124678D01*
X198005Y124725D01*
X198001Y124725D01*
X198001Y124728D01*
X197501Y125128D01*
X197487Y125129D01*
X197484Y125137D01*
X196784Y125337D01*
X196779Y125336D01*
X196773Y125336D01*
X196770Y125339D01*
X196070Y125339D01*
X196065Y125336D01*
X196059Y125336D01*
X196058Y125334D01*
X196054Y125337D01*
X195454Y125137D01*
X195451Y125132D01*
X195448Y125134D01*
X194848Y124834D01*
X194843Y124824D01*
X194835Y124825D01*
X194335Y124325D01*
X194334Y124318D01*
X194329Y124317D01*
X193929Y123717D01*
X193929Y123713D01*
X193926Y123712D01*
X193626Y123112D01*
X193627Y123107D01*
X193623Y123106D01*
X193423Y122506D01*
X193427Y122496D01*
X193423Y122493D01*
X193423Y122492D01*
X193421Y122490D01*
X193421Y121090D01*
X193428Y121081D01*
X193423Y121074D01*
X193623Y120474D01*
X193631Y120469D01*
X193629Y120463D01*
X194029Y119863D01*
X194032Y119862D01*
X194032Y119859D01*
X194432Y119359D01*
X194439Y119357D01*
X194438Y119352D01*
X195038Y118852D01*
X195047Y118852D01*
X195048Y118846D01*
X195648Y118546D01*
X195659Y118548D01*
X195662Y118541D01*
X196262Y118441D01*
X196267Y118444D01*
X196270Y118441D01*
X196970Y118441D01*
X196979Y118448D01*
G37*
G36*
X181379Y106510D02*
X181379Y106510D01*
X181386Y106505D01*
X181986Y106705D01*
X181995Y106719D01*
X182005Y106717D01*
X182452Y107164D01*
X182624Y106734D01*
X182650Y106718D01*
X182654Y106705D01*
X183254Y106505D01*
X183265Y106509D01*
X183270Y106503D01*
X184070Y106503D01*
X184085Y106514D01*
X184095Y106510D01*
X184595Y106810D01*
X184603Y106829D01*
X184610Y106834D01*
X184607Y106838D01*
X184619Y106845D01*
X184719Y107545D01*
X184716Y107550D01*
X184719Y107552D01*
X184719Y112352D01*
X184716Y112357D01*
X184719Y112360D01*
X184619Y112960D01*
X184600Y112977D01*
X184601Y112990D01*
X184101Y113390D01*
X184079Y113391D01*
X184074Y113398D01*
X184073Y113398D01*
X184070Y113401D01*
X183270Y113401D01*
X183265Y113398D01*
X183260Y113398D01*
X183258Y113396D01*
X183254Y113399D01*
X182654Y113199D01*
X182641Y113179D01*
X182628Y113177D01*
X182360Y112731D01*
X182305Y112787D01*
X182301Y112787D01*
X182301Y112790D01*
X181801Y113190D01*
X181788Y113191D01*
X181786Y113199D01*
X181186Y113399D01*
X181181Y113397D01*
X181181Y113398D01*
X181173Y113398D01*
X181170Y113401D01*
X180470Y113401D01*
X180465Y113398D01*
X180460Y113398D01*
X180458Y113396D01*
X180454Y113399D01*
X179854Y113199D01*
X179851Y113194D01*
X179848Y113196D01*
X179248Y112896D01*
X179243Y112886D01*
X179235Y112887D01*
X178735Y112387D01*
X178735Y112383D01*
X178732Y112384D01*
X178232Y111784D01*
X178232Y111775D01*
X178226Y111774D01*
X177926Y111174D01*
X177928Y111164D01*
X177921Y111160D01*
X177821Y110560D01*
X177822Y110559D01*
X177821Y110559D01*
X177721Y109859D01*
X177726Y109850D01*
X177721Y109845D01*
X177821Y109145D01*
X177826Y109140D01*
X177823Y109136D01*
X178023Y108536D01*
X178028Y108533D01*
X178026Y108530D01*
X178326Y107930D01*
X178336Y107925D01*
X178335Y107917D01*
X178835Y107417D01*
X178839Y107417D01*
X178838Y107414D01*
X179438Y106914D01*
X179444Y106914D01*
X179445Y106910D01*
X179945Y106610D01*
X179958Y106611D01*
X179962Y106603D01*
X180562Y106503D01*
X180567Y106506D01*
X180570Y106503D01*
X181370Y106503D01*
X181379Y106510D01*
G37*
G36*
X221675Y118444D02*
X221675Y118444D01*
X221678Y118441D01*
X222278Y118541D01*
X222284Y118548D01*
X222289Y118545D01*
X222989Y118845D01*
X222994Y118853D01*
X223001Y118852D01*
X224001Y119652D01*
X224003Y119662D01*
X224011Y119663D01*
X224411Y120263D01*
X224411Y120267D01*
X224414Y120268D01*
X224714Y120868D01*
X224712Y120879D01*
X224719Y120883D01*
X224819Y121583D01*
X224816Y121588D01*
X224819Y121590D01*
X224819Y122290D01*
X224816Y122294D01*
X224819Y122297D01*
X224719Y122997D01*
X224714Y123002D01*
X224717Y123006D01*
X224517Y123606D01*
X224509Y123611D01*
X224511Y123617D01*
X224111Y124217D01*
X224108Y124218D01*
X224108Y124221D01*
X223708Y124721D01*
X223698Y124723D01*
X223697Y124731D01*
X223097Y125131D01*
X223093Y125131D01*
X223092Y125134D01*
X222492Y125434D01*
X222482Y125432D01*
X222481Y125433D01*
X222478Y125439D01*
X221878Y125539D01*
X221877Y125538D01*
X221877Y125539D01*
X221177Y125639D01*
X221168Y125634D01*
X221163Y125639D01*
X220463Y125539D01*
X220458Y125534D01*
X220454Y125537D01*
X219854Y125337D01*
X219851Y125332D01*
X219848Y125334D01*
X219248Y125034D01*
X219244Y125027D01*
X219238Y125028D01*
X218638Y124528D01*
X218638Y124526D01*
X218637Y124527D01*
X217637Y123627D01*
X217632Y123598D01*
X217621Y123590D01*
X217621Y121490D01*
X217627Y121482D01*
X217623Y121476D01*
X217823Y120776D01*
X217828Y120772D01*
X217826Y120768D01*
X218126Y120168D01*
X218130Y120166D01*
X218129Y120163D01*
X218529Y119563D01*
X218539Y119559D01*
X218539Y119552D01*
X219039Y119152D01*
X219043Y119151D01*
X219043Y119149D01*
X219643Y118749D01*
X219654Y118750D01*
X219656Y118743D01*
X220356Y118543D01*
X220360Y118544D01*
X220362Y118541D01*
X220962Y118441D01*
X220967Y118444D01*
X220970Y118441D01*
X221670Y118441D01*
X221675Y118444D01*
G37*
%LPC*%
G36*
X309254Y138449D02*
X309254Y138449D01*
X308662Y138548D01*
X308074Y138744D01*
X307485Y139235D01*
X307092Y139727D01*
X306796Y140319D01*
X306598Y140911D01*
X306499Y141603D01*
X306499Y142296D01*
X306598Y142889D01*
X306795Y143579D01*
X307190Y144171D01*
X307585Y144664D01*
X307976Y144958D01*
X308552Y145246D01*
X309024Y145057D01*
X309604Y144574D01*
X309699Y144005D01*
X309507Y143526D01*
X309012Y142932D01*
X309012Y142928D01*
X309009Y142927D01*
X308609Y142327D01*
X308610Y142307D01*
X308601Y142300D01*
X308601Y141500D01*
X308608Y141491D01*
X308603Y141484D01*
X308803Y140884D01*
X308828Y140867D01*
X308832Y140854D01*
X309332Y140654D01*
X309355Y140661D01*
X309366Y140653D01*
X309966Y140853D01*
X309981Y140875D01*
X309994Y140878D01*
X310294Y141478D01*
X310292Y141489D01*
X310299Y141493D01*
X310398Y142189D01*
X310596Y142782D01*
X310895Y143479D01*
X311192Y144073D01*
X311582Y144561D01*
X312168Y144854D01*
X312857Y145051D01*
X313546Y145051D01*
X314138Y144952D01*
X314728Y144755D01*
X315316Y144363D01*
X315708Y143873D01*
X316002Y143285D01*
X316101Y142593D01*
X316200Y141900D01*
X316101Y141208D01*
X316002Y140613D01*
X315708Y139827D01*
X314838Y138958D01*
X314372Y139144D01*
X313687Y139535D01*
X313403Y140104D01*
X313594Y140676D01*
X313988Y141169D01*
X313989Y141183D01*
X313997Y141186D01*
X314197Y141886D01*
X314190Y141906D01*
X314197Y141916D01*
X313997Y142516D01*
X313975Y142531D01*
X313972Y142544D01*
X313372Y142844D01*
X313343Y142839D01*
X313332Y142846D01*
X312832Y142646D01*
X312819Y142624D01*
X312806Y142622D01*
X312506Y142022D01*
X312508Y142013D01*
X312502Y142010D01*
X312203Y140617D01*
X311906Y140022D01*
X311906Y140020D01*
X311905Y140019D01*
X311907Y140017D01*
X311903Y140016D01*
X311707Y139427D01*
X311221Y138941D01*
X310631Y138646D01*
X310042Y138449D01*
X309254Y138449D01*
G37*
%LPD*%
G36*
X229178Y106603D02*
X229178Y106603D01*
X229190Y106616D01*
X229201Y106614D01*
X229701Y107014D01*
X229703Y107024D01*
X229711Y107025D01*
X230111Y107625D01*
X230111Y107630D01*
X230114Y107631D01*
X233314Y114231D01*
X233314Y114232D01*
X233315Y114233D01*
X233615Y114933D01*
X233609Y114959D01*
X233616Y114970D01*
X233416Y115470D01*
X233401Y115479D01*
X233402Y115490D01*
X232802Y115990D01*
X232788Y115990D01*
X232786Y115999D01*
X232186Y116199D01*
X232165Y116192D01*
X232154Y116199D01*
X231554Y115999D01*
X231539Y115976D01*
X231526Y115973D01*
X228647Y109919D01*
X228508Y109988D01*
X226115Y115272D01*
X226114Y115273D01*
X226114Y115274D01*
X225914Y115674D01*
X225904Y115679D01*
X225905Y115687D01*
X225405Y116187D01*
X225372Y116191D01*
X225362Y116201D01*
X224762Y116101D01*
X224753Y116091D01*
X224746Y116095D01*
X224046Y115695D01*
X224039Y115679D01*
X224028Y115677D01*
X223728Y115177D01*
X223731Y115148D01*
X223723Y115136D01*
X223923Y114536D01*
X223928Y114534D01*
X223926Y114530D01*
X227526Y107230D01*
X227529Y107229D01*
X227528Y107227D01*
X227828Y106727D01*
X227852Y106717D01*
X227856Y106705D01*
X228556Y106505D01*
X228571Y106510D01*
X228578Y106503D01*
X229178Y106603D01*
G37*
%LPC*%
G36*
X188603Y57169D02*
X188603Y57169D01*
X187915Y57268D01*
X187327Y57562D01*
X186835Y57955D01*
X186442Y58447D01*
X186146Y59039D01*
X185948Y59631D01*
X185849Y60323D01*
X185849Y61016D01*
X185948Y61709D01*
X186145Y62298D01*
X186538Y62889D01*
X187329Y63679D01*
X187902Y63966D01*
X188374Y63777D01*
X188954Y63294D01*
X189049Y62725D01*
X188857Y62246D01*
X188362Y61652D01*
X188362Y61648D01*
X188359Y61647D01*
X187959Y61047D01*
X187960Y61036D01*
X187952Y61030D01*
X187954Y61028D01*
X187951Y61026D01*
X187851Y60226D01*
X187861Y60209D01*
X187856Y60198D01*
X188156Y59598D01*
X188178Y59587D01*
X188182Y59574D01*
X188682Y59374D01*
X188705Y59381D01*
X188716Y59373D01*
X189316Y59573D01*
X189331Y59595D01*
X189344Y59598D01*
X189644Y60198D01*
X189642Y60209D01*
X189649Y60213D01*
X189748Y60909D01*
X189946Y61502D01*
X190245Y62199D01*
X190542Y62793D01*
X190932Y63281D01*
X191518Y63574D01*
X192207Y63771D01*
X192896Y63771D01*
X193488Y63672D01*
X194078Y63475D01*
X194666Y63083D01*
X195058Y62593D01*
X195352Y62005D01*
X195451Y61313D01*
X195550Y60620D01*
X195451Y59927D01*
X195352Y59233D01*
X195058Y58548D01*
X194187Y57676D01*
X193624Y57864D01*
X193038Y58353D01*
X192754Y58826D01*
X192945Y59398D01*
X193341Y59993D01*
X193340Y60002D01*
X193347Y60004D01*
X193547Y60604D01*
X193545Y60608D01*
X193547Y60609D01*
X193544Y60613D01*
X193540Y60624D01*
X193547Y60634D01*
X193347Y61334D01*
X193320Y61354D01*
X193316Y61367D01*
X192716Y61567D01*
X192690Y61558D01*
X192678Y61564D01*
X192078Y61264D01*
X192066Y61240D01*
X192053Y61236D01*
X191853Y60636D01*
X191854Y60635D01*
X191853Y60634D01*
X191453Y59334D01*
X191254Y58640D01*
X190960Y58148D01*
X190568Y57659D01*
X189982Y57366D01*
X189293Y57169D01*
X188603Y57169D01*
G37*
%LPD*%
%LPC*%
G36*
X313680Y128640D02*
X313680Y128640D01*
X313199Y129120D01*
X313199Y129585D01*
X313591Y130173D01*
X313590Y130182D01*
X313597Y130184D01*
X313797Y130784D01*
X313795Y130791D01*
X313799Y130793D01*
X313899Y131493D01*
X313894Y131502D01*
X313899Y131507D01*
X313799Y132207D01*
X313791Y132215D01*
X313794Y132222D01*
X313494Y132822D01*
X313490Y132824D01*
X313491Y132827D01*
X313091Y133427D01*
X313081Y133431D01*
X313081Y133438D01*
X312581Y133838D01*
X312568Y133839D01*
X312566Y133847D01*
X311966Y134047D01*
X311960Y134045D01*
X311958Y134047D01*
X311952Y134047D01*
X311950Y134049D01*
X310550Y134049D01*
X310546Y134047D01*
X310545Y134047D01*
X310536Y134040D01*
X310528Y134044D01*
X309928Y133744D01*
X309925Y133737D01*
X309919Y133738D01*
X309419Y133338D01*
X309417Y133328D01*
X309409Y133327D01*
X309009Y132727D01*
X309009Y132723D01*
X309006Y132722D01*
X308706Y132122D01*
X308709Y132106D01*
X308701Y132100D01*
X308701Y131400D01*
X308704Y131395D01*
X308701Y131392D01*
X308801Y130792D01*
X308808Y130786D01*
X308805Y130781D01*
X309303Y129584D01*
X309395Y129215D01*
X308920Y128740D01*
X308237Y128349D01*
X307674Y128349D01*
X307288Y128831D01*
X306895Y129323D01*
X306697Y130014D01*
X306499Y130707D01*
X306499Y131997D01*
X306598Y132685D01*
X306894Y133278D01*
X307491Y134471D01*
X307983Y134963D01*
X308479Y135360D01*
X309075Y135757D01*
X309665Y136053D01*
X310258Y136151D01*
X310299Y136195D01*
X310294Y136199D01*
X310296Y136200D01*
X310295Y136201D01*
X310299Y136204D01*
X310298Y136218D01*
X310301Y136193D01*
X310343Y136151D01*
X310351Y136159D01*
X310358Y136151D01*
X310954Y136251D01*
X312343Y136251D01*
X313032Y136054D01*
X313625Y135757D01*
X314219Y135362D01*
X315112Y134469D01*
X315507Y133875D01*
X315804Y133282D01*
X316002Y132589D01*
X316101Y131996D01*
X316101Y130707D01*
X315903Y130014D01*
X315705Y129323D01*
X315312Y128831D01*
X314923Y128346D01*
X314359Y128251D01*
X313680Y128640D01*
G37*
%LPD*%
%LPC*%
G36*
X159820Y39019D02*
X159820Y39019D01*
X159342Y39498D01*
X159051Y40176D01*
X159146Y40746D01*
X159428Y41028D01*
X161418Y41824D01*
X161431Y41846D01*
X161444Y41848D01*
X161744Y42448D01*
X161743Y42452D01*
X161746Y42453D01*
X161742Y42458D01*
X161741Y42464D01*
X161749Y42470D01*
X161749Y43870D01*
X161720Y43908D01*
X161718Y43916D01*
X161218Y44116D01*
X161205Y44112D01*
X161200Y44119D01*
X159908Y44119D01*
X159339Y44309D01*
X159149Y44878D01*
X159149Y45756D01*
X159431Y46225D01*
X160004Y46321D01*
X166319Y46321D01*
X165860Y44119D01*
X164600Y44119D01*
X164581Y44105D01*
X164568Y44108D01*
X163968Y43608D01*
X163962Y43578D01*
X163951Y43570D01*
X163951Y42170D01*
X163960Y42157D01*
X163956Y42148D01*
X164256Y41548D01*
X164276Y41538D01*
X164278Y41526D01*
X164878Y41226D01*
X164898Y41230D01*
X164907Y41221D01*
X165607Y41321D01*
X165620Y41334D01*
X165631Y41332D01*
X166103Y41710D01*
X167931Y40555D01*
X167563Y40004D01*
X167071Y39610D01*
X166482Y39217D01*
X165793Y39119D01*
X165100Y39020D01*
X164411Y39118D01*
X163819Y39316D01*
X163227Y39612D01*
X162731Y40008D01*
X162689Y40010D01*
X162680Y40015D01*
X161581Y39515D01*
X160882Y39216D01*
X160292Y39019D01*
X159820Y39019D01*
G37*
%LPD*%
G36*
X209378Y106509D02*
X209378Y106509D01*
X209384Y106505D01*
X210084Y106705D01*
X210089Y106712D01*
X210095Y106710D01*
X210595Y107010D01*
X210599Y107018D01*
X210605Y107017D01*
X210905Y107317D01*
X210909Y107344D01*
X210919Y107352D01*
X210919Y107852D01*
X210911Y107863D01*
X210915Y107871D01*
X210615Y108571D01*
X210594Y108583D01*
X210592Y108596D01*
X209992Y108896D01*
X209966Y108891D01*
X209954Y108899D01*
X208762Y108501D01*
X208077Y108501D01*
X207399Y108695D01*
X207047Y109135D01*
X207392Y109308D01*
X207408Y109339D01*
X207416Y109346D01*
X207413Y109350D01*
X207417Y109358D01*
X207418Y109359D01*
X207422Y109340D01*
X207469Y109303D01*
X207469Y109304D01*
X207470Y109303D01*
X210170Y109303D01*
X210180Y109310D01*
X210185Y109310D01*
X210186Y109311D01*
X210192Y109308D01*
X210792Y109608D01*
X210795Y109615D01*
X210801Y109614D01*
X211301Y110014D01*
X211305Y110029D01*
X211313Y110035D01*
X211308Y110042D01*
X211308Y110044D01*
X211319Y110052D01*
X211319Y110852D01*
X211316Y110856D01*
X211319Y110859D01*
X211219Y111559D01*
X211214Y111564D01*
X211217Y111568D01*
X211017Y112168D01*
X211006Y112175D01*
X211008Y112183D01*
X210608Y112683D01*
X210604Y112684D01*
X210605Y112687D01*
X210105Y113187D01*
X210093Y113188D01*
X210092Y113196D01*
X209492Y113496D01*
X209482Y113494D01*
X209480Y113496D01*
X209479Y113496D01*
X209477Y113501D01*
X208077Y113701D01*
X208068Y113696D01*
X208063Y113701D01*
X207363Y113601D01*
X207359Y113597D01*
X207356Y113599D01*
X206656Y113399D01*
X206652Y113394D01*
X206648Y113396D01*
X206048Y113096D01*
X206045Y113089D01*
X206039Y113090D01*
X205539Y112690D01*
X205538Y112686D01*
X205535Y112687D01*
X205135Y112287D01*
X205134Y112280D01*
X205129Y112279D01*
X204729Y111679D01*
X204730Y111670D01*
X204723Y111668D01*
X204523Y111068D01*
X204525Y111061D01*
X204521Y111059D01*
X204421Y110359D01*
X204424Y110354D01*
X204421Y110352D01*
X204421Y109652D01*
X204427Y109644D01*
X204423Y109638D01*
X204623Y108938D01*
X204624Y108937D01*
X204623Y108936D01*
X204823Y108336D01*
X204831Y108331D01*
X204829Y108325D01*
X205229Y107725D01*
X205232Y107724D01*
X205232Y107721D01*
X205632Y107221D01*
X205642Y107219D01*
X205643Y107211D01*
X206243Y106811D01*
X206252Y106812D01*
X206254Y106805D01*
X206854Y106605D01*
X206861Y106607D01*
X206863Y106603D01*
X207563Y106503D01*
X207568Y106506D01*
X207570Y106503D01*
X209370Y106503D01*
X209378Y106509D01*
G37*
G36*
X240578Y118447D02*
X240578Y118447D01*
X240584Y118443D01*
X241284Y118643D01*
X241289Y118650D01*
X241295Y118648D01*
X241795Y118948D01*
X241799Y118956D01*
X241805Y118955D01*
X242105Y119255D01*
X242109Y119282D01*
X242119Y119290D01*
X242119Y119790D01*
X242111Y119801D01*
X242115Y119809D01*
X241815Y120509D01*
X241797Y120520D01*
X241795Y120532D01*
X241295Y120832D01*
X241267Y120829D01*
X241256Y120837D01*
X240556Y120637D01*
X240555Y120636D01*
X240554Y120637D01*
X239962Y120439D01*
X239277Y120439D01*
X238599Y120633D01*
X238250Y121069D01*
X238679Y121241D01*
X241370Y121241D01*
X241380Y121248D01*
X241384Y121248D01*
X241386Y121249D01*
X241392Y121246D01*
X241992Y121546D01*
X241995Y121553D01*
X242001Y121552D01*
X242501Y121952D01*
X242505Y121967D01*
X242513Y121973D01*
X242508Y121980D01*
X242508Y121982D01*
X242519Y121990D01*
X242519Y122790D01*
X242516Y122794D01*
X242519Y122797D01*
X242419Y123497D01*
X242414Y123502D01*
X242417Y123506D01*
X242217Y124106D01*
X242206Y124113D01*
X242208Y124121D01*
X241808Y124621D01*
X241804Y124622D01*
X241805Y124625D01*
X241305Y125125D01*
X241293Y125126D01*
X241292Y125134D01*
X240692Y125434D01*
X240682Y125432D01*
X240681Y125433D01*
X240678Y125439D01*
X240078Y125539D01*
X240077Y125538D01*
X240076Y125539D01*
X239276Y125639D01*
X239268Y125634D01*
X239263Y125639D01*
X238563Y125539D01*
X238558Y125534D01*
X238554Y125537D01*
X237954Y125337D01*
X237951Y125332D01*
X237948Y125334D01*
X237348Y125034D01*
X237346Y125030D01*
X237343Y125031D01*
X236743Y124631D01*
X236740Y124624D01*
X236735Y124625D01*
X236335Y124225D01*
X236334Y124213D01*
X236326Y124212D01*
X235726Y123012D01*
X235728Y123001D01*
X235721Y122997D01*
X235621Y122297D01*
X235624Y122292D01*
X235621Y122290D01*
X235621Y121590D01*
X235627Y121582D01*
X235623Y121576D01*
X235823Y120876D01*
X235824Y120875D01*
X235823Y120874D01*
X236023Y120274D01*
X236031Y120269D01*
X236029Y120263D01*
X236429Y119663D01*
X236432Y119662D01*
X236432Y119659D01*
X236832Y119159D01*
X236842Y119157D01*
X236843Y119149D01*
X237443Y118749D01*
X237452Y118750D01*
X237454Y118743D01*
X238054Y118543D01*
X238061Y118545D01*
X238063Y118541D01*
X238763Y118441D01*
X238768Y118444D01*
X238770Y118441D01*
X240570Y118441D01*
X240578Y118447D01*
G37*
%LPC*%
G36*
X142720Y24045D02*
X142720Y24045D01*
X136022Y27344D01*
X135432Y27639D01*
X135049Y28117D01*
X135049Y28792D01*
X135241Y29368D01*
X135825Y29757D01*
X143115Y33353D01*
X143686Y33448D01*
X144159Y33070D01*
X144451Y32291D01*
X144451Y31724D01*
X143973Y31342D01*
X143579Y31145D01*
X138980Y29045D01*
X138281Y28745D01*
X138260Y28709D01*
X138256Y28706D01*
X138257Y28705D01*
X138251Y28694D01*
X138261Y28688D01*
X138256Y28678D01*
X138356Y28478D01*
X138377Y28468D01*
X138379Y28455D01*
X143379Y26156D01*
X143973Y25858D01*
X144451Y25476D01*
X144451Y24906D01*
X144355Y24523D01*
X143870Y23941D01*
X143401Y23753D01*
X142720Y24045D01*
G37*
%LPD*%
%LPC*%
G36*
X306889Y117132D02*
X306889Y117132D01*
X306499Y117912D01*
X306499Y118476D01*
X306977Y118858D01*
X308172Y119456D01*
X308177Y119466D01*
X308185Y119465D01*
X308585Y119865D01*
X308588Y119892D01*
X308597Y119898D01*
X308597Y119899D01*
X308599Y119900D01*
X308599Y122536D01*
X310401Y122062D01*
X310401Y120800D01*
X310437Y120753D01*
X310449Y120762D01*
X310460Y120752D01*
X310960Y120852D01*
X310966Y120859D01*
X310972Y120856D01*
X312172Y121456D01*
X312191Y121493D01*
X312199Y121500D01*
X312199Y121600D01*
X312171Y121637D01*
X312169Y121645D01*
X310969Y122145D01*
X310956Y122142D01*
X310950Y122149D01*
X310485Y122149D01*
X309340Y125375D01*
X315421Y122459D01*
X315904Y121977D01*
X316000Y121305D01*
X315809Y120732D01*
X315226Y120343D01*
X308530Y117145D01*
X307835Y116847D01*
X307363Y116753D01*
X306889Y117132D01*
G37*
%LPD*%
G36*
X197488Y106516D02*
X197488Y106516D01*
X197500Y106513D01*
X197900Y106813D01*
X197904Y106829D01*
X197911Y106834D01*
X197911Y106835D01*
X197917Y106836D01*
X198117Y107436D01*
X198113Y107447D01*
X198119Y107452D01*
X198119Y110140D01*
X198407Y110715D01*
X198982Y111003D01*
X199653Y111003D01*
X200127Y110623D01*
X200321Y109945D01*
X200321Y107252D01*
X200329Y107241D01*
X200324Y107234D01*
X200524Y106734D01*
X200550Y106718D01*
X200554Y106705D01*
X201154Y106505D01*
X201165Y106509D01*
X201170Y106503D01*
X202070Y106503D01*
X202088Y106517D01*
X202101Y106514D01*
X202601Y106914D01*
X202605Y106929D01*
X202610Y106933D01*
X202607Y106937D01*
X202607Y106938D01*
X202619Y106944D01*
X202719Y107544D01*
X202716Y107549D01*
X202719Y107552D01*
X202719Y110352D01*
X202712Y110361D01*
X202717Y110368D01*
X202517Y110967D01*
X202317Y111666D01*
X202310Y111671D01*
X202312Y111677D01*
X202012Y112177D01*
X202004Y112181D01*
X202005Y112187D01*
X201505Y112687D01*
X201498Y112688D01*
X201497Y112693D01*
X200897Y113093D01*
X200888Y113092D01*
X200886Y113099D01*
X200286Y113299D01*
X200279Y113297D01*
X200277Y113301D01*
X199577Y113401D01*
X199572Y113398D01*
X199566Y113398D01*
X199563Y113401D01*
X198863Y113301D01*
X198850Y113288D01*
X198839Y113290D01*
X198348Y112897D01*
X197993Y112809D01*
X197712Y113277D01*
X197684Y113289D01*
X197677Y113301D01*
X196977Y113401D01*
X196972Y113398D01*
X196967Y113398D01*
X196964Y113401D01*
X196164Y113301D01*
X196148Y113285D01*
X196135Y113287D01*
X195735Y112887D01*
X195734Y112875D01*
X195727Y112869D01*
X195732Y112862D01*
X195732Y112860D01*
X195721Y112852D01*
X195721Y107352D01*
X195728Y107343D01*
X195723Y107336D01*
X195923Y106736D01*
X195950Y106718D01*
X195954Y106705D01*
X196554Y106505D01*
X196565Y106509D01*
X196570Y106503D01*
X197470Y106503D01*
X197488Y106516D01*
G37*
G36*
X252955Y52404D02*
X252955Y52404D01*
X252958Y52401D01*
X253558Y52501D01*
X253581Y52526D01*
X253594Y52528D01*
X253894Y53128D01*
X253891Y53144D01*
X253899Y53150D01*
X253899Y59908D01*
X254454Y60001D01*
X256550Y60001D01*
X256563Y60010D01*
X256572Y60006D01*
X257172Y60306D01*
X257187Y60336D01*
X257199Y60342D01*
X257299Y60942D01*
X257293Y60952D01*
X257299Y60957D01*
X257199Y61657D01*
X257177Y61679D01*
X257175Y61692D01*
X256675Y61992D01*
X256657Y61990D01*
X256650Y61999D01*
X249150Y61999D01*
X249146Y61996D01*
X249143Y61999D01*
X248443Y61899D01*
X248419Y61874D01*
X248406Y61872D01*
X248106Y61272D01*
X248110Y61252D01*
X248101Y61243D01*
X248201Y60543D01*
X248217Y60528D01*
X248215Y60515D01*
X248615Y60115D01*
X248637Y60112D01*
X248643Y60101D01*
X249343Y60001D01*
X249348Y60004D01*
X249350Y60001D01*
X251325Y60001D01*
X251601Y59634D01*
X251601Y52850D01*
X251620Y52825D01*
X251619Y52812D01*
X252119Y52412D01*
X252142Y52411D01*
X252150Y52401D01*
X252950Y52401D01*
X252955Y52404D01*
G37*
G36*
X230255Y52404D02*
X230255Y52404D01*
X230258Y52401D01*
X230858Y52501D01*
X230881Y52526D01*
X230894Y52528D01*
X231194Y53128D01*
X231191Y53144D01*
X231199Y53150D01*
X231199Y59908D01*
X231754Y60001D01*
X233850Y60001D01*
X233863Y60010D01*
X233872Y60006D01*
X234472Y60306D01*
X234487Y60336D01*
X234499Y60342D01*
X234599Y60942D01*
X234593Y60952D01*
X234599Y60957D01*
X234499Y61657D01*
X234477Y61679D01*
X234475Y61692D01*
X233975Y61992D01*
X233957Y61990D01*
X233950Y61999D01*
X226450Y61999D01*
X226446Y61996D01*
X226443Y61999D01*
X225743Y61899D01*
X225719Y61874D01*
X225706Y61872D01*
X225406Y61272D01*
X225410Y61252D01*
X225401Y61243D01*
X225501Y60543D01*
X225517Y60528D01*
X225515Y60515D01*
X225915Y60115D01*
X225937Y60112D01*
X225943Y60101D01*
X226643Y60001D01*
X226648Y60004D01*
X226650Y60001D01*
X228625Y60001D01*
X228901Y59634D01*
X228901Y52850D01*
X228920Y52825D01*
X228919Y52812D01*
X229419Y52412D01*
X229442Y52411D01*
X229450Y52401D01*
X230250Y52401D01*
X230255Y52404D01*
G37*
G36*
X188585Y106514D02*
X188585Y106514D01*
X188595Y106510D01*
X189095Y106810D01*
X189103Y106829D01*
X189110Y106834D01*
X189107Y106838D01*
X189119Y106844D01*
X189219Y107444D01*
X189216Y107449D01*
X189219Y107452D01*
X189219Y110140D01*
X189507Y110715D01*
X190082Y111003D01*
X190753Y111003D01*
X191227Y110623D01*
X191421Y109945D01*
X191421Y107252D01*
X191429Y107241D01*
X191424Y107234D01*
X191624Y106734D01*
X191652Y106717D01*
X191656Y106705D01*
X192356Y106505D01*
X192366Y106508D01*
X192370Y106503D01*
X193170Y106503D01*
X193188Y106517D01*
X193201Y106514D01*
X193701Y106914D01*
X193705Y106929D01*
X193710Y106933D01*
X193707Y106937D01*
X193707Y106938D01*
X193719Y106944D01*
X193819Y107544D01*
X193816Y107549D01*
X193819Y107552D01*
X193819Y110352D01*
X193816Y110357D01*
X193819Y110360D01*
X193719Y110960D01*
X193712Y110966D01*
X193715Y110971D01*
X193415Y111671D01*
X193411Y111674D01*
X193412Y111677D01*
X193112Y112177D01*
X193104Y112181D01*
X193105Y112187D01*
X192605Y112687D01*
X192601Y112687D01*
X192601Y112690D01*
X192101Y113090D01*
X192087Y113091D01*
X192084Y113099D01*
X191384Y113299D01*
X191380Y113298D01*
X191378Y113301D01*
X190778Y113401D01*
X190773Y113398D01*
X190766Y113398D01*
X190763Y113401D01*
X190063Y113301D01*
X190052Y113290D01*
X190043Y113293D01*
X189448Y112897D01*
X189192Y112811D01*
X188912Y113277D01*
X188883Y113289D01*
X188876Y113301D01*
X188076Y113401D01*
X188071Y113398D01*
X188067Y113398D01*
X188064Y113401D01*
X187264Y113301D01*
X187244Y113282D01*
X187231Y113282D01*
X186931Y112882D01*
X186931Y112873D01*
X186926Y112869D01*
X186931Y112863D01*
X186931Y112860D01*
X186921Y112852D01*
X186921Y107352D01*
X186924Y107347D01*
X186921Y107344D01*
X187021Y106744D01*
X187051Y106716D01*
X187054Y106705D01*
X187654Y106505D01*
X187665Y106509D01*
X187670Y106503D01*
X188570Y106503D01*
X188585Y106514D01*
G37*
%LPC*%
G36*
X166939Y48909D02*
X166939Y48909D01*
X166749Y49478D01*
X166749Y51570D01*
X166745Y51576D01*
X166748Y51580D01*
X166648Y52080D01*
X166604Y52119D01*
X166602Y52117D01*
X166600Y52119D01*
X160503Y52119D01*
X159712Y52218D01*
X159240Y52407D01*
X159049Y52978D01*
X159049Y53753D01*
X159427Y54225D01*
X160004Y54321D01*
X166100Y54321D01*
X166105Y54324D01*
X166108Y54321D01*
X166708Y54421D01*
X166749Y54465D01*
X166746Y54468D01*
X166749Y54470D01*
X166749Y57253D01*
X167124Y57721D01*
X167792Y57721D01*
X168356Y57533D01*
X168451Y56962D01*
X168495Y56921D01*
X168504Y56930D01*
X168514Y56923D01*
X168551Y56934D01*
X168551Y49973D01*
X168453Y49287D01*
X168170Y48815D01*
X167505Y48720D01*
X166939Y48909D01*
G37*
%LPD*%
%LPC*%
G36*
X92130Y34845D02*
X92130Y34845D01*
X91849Y35314D01*
X91849Y38100D01*
X91813Y38147D01*
X91806Y38142D01*
X91800Y38149D01*
X85108Y38149D01*
X84535Y38340D01*
X84249Y38912D01*
X84249Y39592D01*
X84439Y40161D01*
X85008Y40351D01*
X91800Y40351D01*
X91847Y40387D01*
X91842Y40394D01*
X91847Y40398D01*
X91849Y40400D01*
X91849Y43088D01*
X92133Y43656D01*
X92701Y43750D01*
X93370Y43655D01*
X93651Y43186D01*
X93651Y35408D01*
X93463Y34844D01*
X92800Y34750D01*
X92130Y34845D01*
G37*
%LPD*%
%LPC*%
G36*
X194109Y46169D02*
X194109Y46169D01*
X193641Y46357D01*
X193449Y47027D01*
X193449Y49020D01*
X193441Y49031D01*
X193446Y49038D01*
X193246Y49538D01*
X193205Y49563D01*
X193200Y49569D01*
X186417Y49569D01*
X185946Y49947D01*
X185849Y50524D01*
X185849Y51200D01*
X186320Y51671D01*
X193000Y51671D01*
X193018Y51684D01*
X193030Y51681D01*
X193430Y51981D01*
X193439Y52012D01*
X193449Y52020D01*
X193449Y54117D01*
X193546Y54793D01*
X193919Y55073D01*
X194689Y55169D01*
X195154Y54890D01*
X195251Y54017D01*
X195251Y46544D01*
X194783Y46169D01*
X194109Y46169D01*
G37*
%LPD*%
%LPC*%
G36*
X193730Y23565D02*
X193730Y23565D01*
X193449Y24034D01*
X193449Y26820D01*
X193413Y26867D01*
X193406Y26862D01*
X193400Y26869D01*
X186608Y26869D01*
X186039Y27059D01*
X185849Y27628D01*
X185849Y28406D01*
X186131Y28875D01*
X186704Y28971D01*
X192800Y28971D01*
X192805Y28974D01*
X192808Y28971D01*
X193408Y29071D01*
X193449Y29115D01*
X193446Y29118D01*
X193449Y29120D01*
X193449Y31906D01*
X193730Y32375D01*
X194397Y32470D01*
X195062Y32280D01*
X195251Y31712D01*
X195251Y24034D01*
X194970Y23565D01*
X194399Y23470D01*
X193730Y23565D01*
G37*
%LPD*%
G36*
X173674Y106506D02*
X173674Y106506D01*
X173677Y106503D01*
X174377Y106603D01*
X174385Y106611D01*
X174392Y106608D01*
X174992Y106908D01*
X174996Y106916D01*
X175002Y106914D01*
X175602Y107414D01*
X175605Y107431D01*
X175616Y107434D01*
X175816Y107934D01*
X175808Y107962D01*
X175814Y107974D01*
X175514Y108574D01*
X175507Y108578D01*
X175508Y108584D01*
X175008Y109184D01*
X174991Y109187D01*
X174988Y109198D01*
X174488Y109398D01*
X174460Y109390D01*
X174448Y109396D01*
X173852Y109098D01*
X173167Y108902D01*
X172594Y108998D01*
X172119Y109472D01*
X172119Y110144D01*
X172311Y110720D01*
X172885Y111103D01*
X173460Y111103D01*
X174151Y110807D01*
X174152Y110807D01*
X174152Y110806D01*
X174652Y110606D01*
X174683Y110615D01*
X174695Y110610D01*
X175195Y110910D01*
X175201Y110923D01*
X175210Y110923D01*
X175710Y111623D01*
X175710Y111639D01*
X175719Y111644D01*
X175819Y112244D01*
X175805Y112270D01*
X175808Y112283D01*
X175408Y112783D01*
X175398Y112785D01*
X175397Y112793D01*
X174797Y113193D01*
X174786Y113192D01*
X174784Y113199D01*
X174084Y113399D01*
X174079Y113398D01*
X174077Y113401D01*
X173377Y113501D01*
X173372Y113498D01*
X173370Y113501D01*
X172770Y113501D01*
X172763Y113496D01*
X172761Y113496D01*
X172756Y113499D01*
X172056Y113299D01*
X172055Y113298D01*
X172054Y113299D01*
X171454Y113099D01*
X171449Y113091D01*
X171443Y113093D01*
X170843Y112693D01*
X170839Y112683D01*
X170832Y112683D01*
X170432Y112183D01*
X170431Y112179D01*
X170429Y112179D01*
X170029Y111579D01*
X170030Y111570D01*
X170023Y111568D01*
X169823Y110968D01*
X169825Y110961D01*
X169821Y110959D01*
X169721Y110259D01*
X169724Y110254D01*
X169721Y110252D01*
X169721Y109552D01*
X169724Y109548D01*
X169721Y109545D01*
X169821Y108845D01*
X169829Y108837D01*
X169826Y108830D01*
X170126Y108230D01*
X170133Y108227D01*
X170132Y108221D01*
X170532Y107721D01*
X170536Y107720D01*
X170535Y107717D01*
X171035Y107217D01*
X171042Y107216D01*
X171043Y107211D01*
X171643Y106811D01*
X171654Y106812D01*
X171656Y106805D01*
X172356Y106605D01*
X172360Y106606D01*
X172362Y106603D01*
X172962Y106503D01*
X172967Y106506D01*
X172970Y106503D01*
X173670Y106503D01*
X173674Y106506D01*
G37*
G36*
X213574Y118444D02*
X213574Y118444D01*
X213577Y118441D01*
X214277Y118541D01*
X214285Y118549D01*
X214292Y118546D01*
X214892Y118846D01*
X214896Y118854D01*
X214902Y118852D01*
X215502Y119352D01*
X215505Y119369D01*
X215516Y119372D01*
X215716Y119872D01*
X215708Y119900D01*
X215714Y119912D01*
X215414Y120512D01*
X215407Y120516D01*
X215408Y120522D01*
X214908Y121122D01*
X214891Y121125D01*
X214888Y121136D01*
X214388Y121336D01*
X214360Y121328D01*
X214348Y121334D01*
X213752Y121036D01*
X213067Y120840D01*
X212494Y120936D01*
X212019Y121410D01*
X212019Y122082D01*
X212212Y122661D01*
X212687Y123041D01*
X213360Y123041D01*
X214051Y122745D01*
X214052Y122745D01*
X214052Y122744D01*
X214552Y122544D01*
X214583Y122553D01*
X214595Y122548D01*
X215095Y122848D01*
X215101Y122861D01*
X215110Y122861D01*
X215610Y123561D01*
X215610Y123577D01*
X215619Y123582D01*
X215719Y124182D01*
X215705Y124208D01*
X215708Y124221D01*
X215308Y124721D01*
X215298Y124723D01*
X215297Y124731D01*
X214697Y125131D01*
X214686Y125130D01*
X214684Y125137D01*
X213984Y125337D01*
X213979Y125336D01*
X213977Y125339D01*
X213277Y125439D01*
X213272Y125436D01*
X213270Y125439D01*
X212670Y125439D01*
X212663Y125434D01*
X212661Y125434D01*
X212656Y125437D01*
X211956Y125237D01*
X211955Y125236D01*
X211954Y125237D01*
X211354Y125037D01*
X211349Y125029D01*
X211343Y125031D01*
X210743Y124631D01*
X210739Y124621D01*
X210732Y124621D01*
X210332Y124121D01*
X210331Y124117D01*
X210329Y124117D01*
X209929Y123517D01*
X209930Y123508D01*
X209923Y123506D01*
X209723Y122906D01*
X209725Y122899D01*
X209721Y122897D01*
X209621Y122197D01*
X209624Y122192D01*
X209621Y122190D01*
X209621Y121490D01*
X209624Y121486D01*
X209621Y121483D01*
X209721Y120783D01*
X209729Y120775D01*
X209726Y120768D01*
X210026Y120168D01*
X210033Y120165D01*
X210032Y120159D01*
X210432Y119659D01*
X210436Y119658D01*
X210435Y119655D01*
X210935Y119155D01*
X210942Y119154D01*
X210943Y119149D01*
X211543Y118749D01*
X211554Y118750D01*
X211556Y118743D01*
X212256Y118543D01*
X212260Y118544D01*
X212262Y118541D01*
X212862Y118441D01*
X212867Y118444D01*
X212870Y118441D01*
X213570Y118441D01*
X213574Y118444D01*
G37*
%LPC*%
G36*
X186433Y34760D02*
X186433Y34760D01*
X186045Y35342D01*
X185852Y35920D01*
X186041Y36488D01*
X186625Y36877D01*
X187822Y37476D01*
X187834Y37500D01*
X187846Y37509D01*
X187848Y37510D01*
X187943Y37986D01*
X189778Y38855D01*
X189956Y38498D01*
X190009Y38472D01*
X190014Y38480D01*
X190022Y38476D01*
X191222Y39076D01*
X191241Y39113D01*
X191249Y39120D01*
X191249Y39510D01*
X192171Y41608D01*
X194574Y40478D01*
X195061Y40088D01*
X195351Y39508D01*
X195351Y38840D01*
X194871Y38361D01*
X194278Y38064D01*
X187580Y34865D01*
X186899Y34573D01*
X186433Y34760D01*
G37*
%LPD*%
G36*
X215276Y106603D02*
X215276Y106603D01*
X215289Y106616D01*
X215300Y106613D01*
X215700Y106913D01*
X215704Y106929D01*
X215709Y106933D01*
X215706Y106937D01*
X215709Y106944D01*
X215719Y106952D01*
X215719Y110340D01*
X216007Y110915D01*
X216578Y111201D01*
X217159Y111104D01*
X217856Y110905D01*
X217888Y110917D01*
X217901Y110914D01*
X218401Y111314D01*
X218405Y111330D01*
X218415Y111333D01*
X218715Y112033D01*
X218712Y112046D01*
X218719Y112052D01*
X218719Y112652D01*
X218710Y112665D01*
X218714Y112674D01*
X218414Y113274D01*
X218383Y113289D01*
X218377Y113301D01*
X217678Y113401D01*
X217078Y113501D01*
X217070Y113496D01*
X217058Y113496D01*
X217056Y113494D01*
X217051Y113497D01*
X216351Y113197D01*
X216346Y113189D01*
X216339Y113190D01*
X215874Y112818D01*
X215605Y113087D01*
X215600Y113088D01*
X215600Y113091D01*
X215200Y113391D01*
X215180Y113391D01*
X215175Y113398D01*
X215173Y113398D01*
X215170Y113401D01*
X214270Y113401D01*
X214265Y113398D01*
X214260Y113398D01*
X214258Y113396D01*
X214254Y113399D01*
X213654Y113199D01*
X213641Y113179D01*
X213628Y113169D01*
X213623Y113168D01*
X213423Y112568D01*
X213427Y112557D01*
X213421Y112552D01*
X213421Y107152D01*
X213432Y107137D01*
X213428Y107127D01*
X213728Y106627D01*
X213756Y106615D01*
X213763Y106603D01*
X214463Y106503D01*
X214471Y106508D01*
X214476Y106503D01*
X215276Y106603D01*
G37*
G36*
X204376Y118541D02*
X204376Y118541D01*
X204389Y118554D01*
X204400Y118551D01*
X204800Y118851D01*
X204804Y118867D01*
X204809Y118871D01*
X204806Y118875D01*
X204809Y118882D01*
X204819Y118890D01*
X204819Y122278D01*
X205107Y122853D01*
X205678Y123139D01*
X206259Y123042D01*
X206956Y122843D01*
X206988Y122855D01*
X207001Y122852D01*
X207501Y123252D01*
X207505Y123268D01*
X207515Y123271D01*
X207815Y123971D01*
X207812Y123984D01*
X207819Y123990D01*
X207819Y124590D01*
X207810Y124603D01*
X207814Y124612D01*
X207514Y125212D01*
X207483Y125227D01*
X207477Y125239D01*
X206778Y125339D01*
X206178Y125439D01*
X206170Y125434D01*
X206158Y125434D01*
X206156Y125432D01*
X206151Y125435D01*
X205451Y125135D01*
X205446Y125127D01*
X205439Y125128D01*
X204974Y124756D01*
X204705Y125025D01*
X204700Y125026D01*
X204700Y125029D01*
X204300Y125329D01*
X204280Y125329D01*
X204275Y125336D01*
X204273Y125336D01*
X204270Y125339D01*
X203370Y125339D01*
X203365Y125336D01*
X203359Y125336D01*
X203358Y125334D01*
X203354Y125337D01*
X202754Y125137D01*
X202741Y125117D01*
X202728Y125107D01*
X202723Y125106D01*
X202523Y124506D01*
X202527Y124495D01*
X202521Y124490D01*
X202521Y119090D01*
X202532Y119075D01*
X202528Y119065D01*
X202828Y118565D01*
X202856Y118553D01*
X202863Y118541D01*
X203563Y118441D01*
X203571Y118446D01*
X203576Y118441D01*
X204376Y118541D01*
G37*
%LPC*%
G36*
X167640Y34566D02*
X167640Y34566D01*
X167634Y34605D01*
X167613Y34602D01*
X167600Y34619D01*
X160203Y34619D01*
X159520Y34717D01*
X159146Y34997D01*
X159050Y35767D01*
X159244Y36541D01*
X159616Y36821D01*
X167692Y36821D01*
X168263Y36631D01*
X168451Y36161D01*
X168451Y35284D01*
X168166Y34810D01*
X167682Y34616D01*
X167670Y34596D01*
X167657Y34595D01*
X167641Y34566D01*
X167640Y34566D01*
G37*
%LPD*%
%LPC*%
G36*
X187949Y40820D02*
X187949Y40820D01*
X187936Y40838D01*
X187939Y40850D01*
X187639Y41250D01*
X187625Y41254D01*
X187623Y41263D01*
X186330Y41960D01*
X185945Y42344D01*
X185852Y42813D01*
X186241Y43591D01*
X186620Y43971D01*
X187188Y43971D01*
X187778Y43676D01*
X187779Y43676D01*
X187779Y43675D01*
X192082Y41650D01*
X191175Y39586D01*
X189921Y40165D01*
X189863Y40152D01*
X189866Y40137D01*
X189852Y40130D01*
X189752Y39630D01*
X189755Y39623D01*
X189751Y39620D01*
X189751Y38953D01*
X187949Y38194D01*
X187949Y40820D01*
G37*
%LPD*%
%LPC*%
G36*
X172903Y120839D02*
X172903Y120839D01*
X172719Y121299D01*
X172719Y125365D01*
X173086Y125641D01*
X174360Y125641D01*
X175048Y125346D01*
X175535Y125053D01*
X175927Y124465D01*
X176222Y123875D01*
X176320Y123191D01*
X176223Y122605D01*
X175927Y122015D01*
X175533Y121424D01*
X175039Y121028D01*
X175038Y121024D01*
X175035Y121025D01*
X174850Y120839D01*
X172903Y120839D01*
G37*
%LPD*%
%LPC*%
G36*
X166159Y41791D02*
X166159Y41791D01*
X166347Y42354D01*
X166347Y42355D01*
X166346Y42356D01*
X166343Y42365D01*
X166349Y42370D01*
X166349Y43770D01*
X166330Y43796D01*
X166330Y43809D01*
X165955Y44091D01*
X166419Y46321D01*
X167497Y46321D01*
X168173Y46224D01*
X168453Y45851D01*
X168551Y45067D01*
X168551Y42374D01*
X168452Y41782D01*
X168254Y41189D01*
X167980Y40641D01*
X166159Y41791D01*
G37*
%LPD*%
%LPC*%
G36*
X186512Y120839D02*
X186512Y120839D01*
X186419Y121394D01*
X186419Y125457D01*
X186879Y125641D01*
X188167Y125641D01*
X188831Y125546D01*
X189017Y124897D01*
X188740Y124436D01*
X187964Y124339D01*
X187957Y124332D01*
X187952Y124336D01*
X187452Y124136D01*
X187432Y124103D01*
X187421Y124097D01*
X187321Y123397D01*
X187326Y123388D01*
X187321Y123383D01*
X187421Y122683D01*
X187451Y122654D01*
X187454Y122643D01*
X188054Y122443D01*
X188065Y122447D01*
X188070Y122441D01*
X188850Y122441D01*
X189235Y122055D01*
X189263Y122051D01*
X189236Y122026D01*
X189233Y122008D01*
X189223Y122000D01*
X189227Y121995D01*
X189221Y121990D01*
X189221Y121598D01*
X189031Y121029D01*
X188462Y120839D01*
X186512Y120839D01*
G37*
%LPD*%
%LPC*%
G36*
X308599Y122638D02*
X308599Y122638D01*
X308599Y123300D01*
X308574Y123333D01*
X308572Y123344D01*
X306787Y124237D01*
X306503Y124804D01*
X306695Y125380D01*
X307084Y126061D01*
X307548Y126246D01*
X308128Y125956D01*
X308129Y125956D01*
X309214Y125435D01*
X310372Y122171D01*
X308599Y122638D01*
G37*
%LPD*%
%LPC*%
G36*
X103403Y215367D02*
X103403Y215367D01*
X103105Y215665D01*
X103064Y215670D01*
X103094Y215687D01*
X103104Y215709D01*
X103117Y215719D01*
X103113Y215725D01*
X103119Y215730D01*
X103119Y217681D01*
X105045Y217681D01*
X105321Y217314D01*
X105321Y216037D01*
X105129Y215364D01*
X104555Y215078D01*
X103884Y214982D01*
X103403Y215367D01*
G37*
%LPD*%
%LPC*%
G36*
X103887Y190979D02*
X103887Y190979D01*
X103412Y191359D01*
X103219Y191938D01*
X103219Y193581D01*
X105145Y193581D01*
X105421Y193214D01*
X105421Y191942D01*
X105126Y191352D01*
X105136Y191296D01*
X105136Y191294D01*
X105162Y191270D01*
X105154Y191271D01*
X105148Y191274D01*
X104558Y190979D01*
X103887Y190979D01*
G37*
%LPD*%
%LPC*%
G36*
X135423Y44846D02*
X135423Y44846D01*
X135049Y45220D01*
X135049Y45997D01*
X135146Y46673D01*
X135520Y46953D01*
X136200Y47050D01*
X136877Y46954D01*
X137253Y46577D01*
X137350Y45800D01*
X137255Y45130D01*
X136783Y44847D01*
X136100Y44750D01*
X135423Y44846D01*
G37*
%LPD*%
%LPC*%
G36*
X220787Y120839D02*
X220787Y120839D01*
X220309Y121222D01*
X220021Y121798D01*
X220117Y122470D01*
X220502Y122951D01*
X221082Y123241D01*
X221655Y123241D01*
X222229Y122858D01*
X222420Y122285D01*
X222323Y121510D01*
X221941Y121032D01*
X221362Y120839D01*
X220787Y120839D01*
G37*
%LPD*%
%LPC*%
G36*
X180982Y108901D02*
X180982Y108901D01*
X180396Y109194D01*
X180023Y109474D01*
X180118Y110137D01*
X180407Y110715D01*
X180982Y111003D01*
X181570Y111003D01*
X181603Y111028D01*
X181614Y111030D01*
X181628Y111058D01*
X181636Y111025D01*
X181635Y111017D01*
X182028Y110624D01*
X182317Y109950D01*
X182127Y109379D01*
X181650Y108901D01*
X180982Y108901D01*
G37*
%LPD*%
%LPC*%
G36*
X196584Y120839D02*
X196584Y120839D01*
X196098Y121131D01*
X195719Y121415D01*
X195719Y122078D01*
X196007Y122653D01*
X196582Y122941D01*
X197253Y122941D01*
X197727Y122561D01*
X197918Y121891D01*
X197727Y121317D01*
X197250Y120839D01*
X196584Y120839D01*
G37*
%LPD*%
%LPC*%
G36*
X229794Y120839D02*
X229794Y120839D01*
X229414Y121314D01*
X229222Y121890D01*
X229412Y122461D01*
X229890Y122843D01*
X230560Y122939D01*
X231032Y122655D01*
X231321Y122078D01*
X231321Y121410D01*
X230846Y120936D01*
X230266Y120839D01*
X229794Y120839D01*
G37*
%LPD*%
%LPC*%
G36*
X240880Y56499D02*
X240880Y56499D01*
X240705Y56850D01*
X241294Y58028D01*
X241293Y58033D01*
X241297Y58034D01*
X241357Y58216D01*
X241904Y57032D01*
X242082Y56499D01*
X240880Y56499D01*
G37*
%LPD*%
%LPC*%
G36*
X207196Y110601D02*
X207196Y110601D01*
X207033Y110846D01*
X207496Y111308D01*
X208173Y111502D01*
X208733Y111408D01*
X208912Y110870D01*
X208554Y110601D01*
X207196Y110601D01*
G37*
%LPD*%
%LPC*%
G36*
X238406Y122539D02*
X238406Y122539D01*
X238326Y122777D01*
X238797Y123247D01*
X239374Y123439D01*
X239937Y123346D01*
X240206Y122809D01*
X239756Y122539D01*
X238406Y122539D01*
G37*
%LPD*%
%LPC*%
G36*
X169849Y57645D02*
X169849Y57645D01*
X170216Y57921D01*
X171151Y57921D01*
X171151Y57801D01*
X169849Y57418D01*
X169849Y57645D01*
G37*
%LPD*%
D10*
X41500Y170200D02*
X23500Y170200D01*
X23500Y83800D02*
X41500Y83800D01*
D11*
X168402Y201930D03*
D10*
X139700Y196064D02*
X139700Y187476D01*
X165100Y187476D02*
X165100Y196064D01*
X155084Y184682D02*
X149716Y184682D01*
X372760Y211200D02*
X372760Y217200D01*
X364760Y217200D01*
X372760Y195200D02*
X372760Y189200D01*
X364760Y189200D01*
X420460Y60200D02*
X420068Y59189D01*
X419651Y58188D01*
X419210Y57197D01*
X418746Y56217D01*
X418257Y55249D01*
X417746Y54292D01*
X417211Y53349D01*
X416654Y52419D01*
X416074Y51502D01*
X415472Y50600D01*
X414849Y49713D01*
X414204Y48841D01*
X413538Y47985D01*
X412852Y47145D01*
X412145Y46322D01*
X411419Y45517D01*
X410674Y44730D01*
X409909Y43960D01*
X409126Y43210D01*
X408326Y42479D01*
X407507Y41767D01*
X406672Y41076D01*
X405820Y40404D01*
X404952Y39754D01*
X404069Y39125D01*
X403171Y38518D01*
X402258Y37932D01*
X401331Y37369D01*
X400391Y36829D01*
X399438Y36311D01*
X398473Y35817D01*
X397496Y35346D01*
X396508Y34899D01*
X395509Y34476D01*
X394500Y34078D01*
X393483Y33704D01*
X392456Y33355D01*
X391421Y33031D01*
X390379Y32732D01*
X389329Y32458D01*
X388273Y32210D01*
X387212Y31988D01*
X386146Y31791D01*
X385075Y31620D01*
X384000Y31476D01*
X382922Y31357D01*
X381841Y31265D01*
X380759Y31199D01*
X379675Y31159D01*
X378591Y31145D01*
X377507Y31158D01*
X376423Y31197D01*
X375340Y31262D01*
X374260Y31353D01*
X373182Y31471D01*
X372107Y31615D01*
X371036Y31785D01*
X369969Y31980D01*
X368908Y32202D01*
X367852Y32449D01*
X366802Y32722D01*
X365759Y33020D01*
X347980Y43180D02*
X347202Y43909D01*
X346442Y44655D01*
X345699Y45420D01*
X344975Y46202D01*
X344270Y47000D01*
X343583Y47816D01*
X342916Y48647D01*
X342269Y49493D01*
X341641Y50355D01*
X341035Y51231D01*
X340449Y52122D01*
X339884Y53026D01*
X339341Y53943D01*
X338820Y54872D01*
X338321Y55814D01*
X337844Y56767D01*
X337390Y57731D01*
X336958Y58705D01*
X336550Y59690D01*
X336460Y92200D02*
X336899Y93276D01*
X337364Y94342D01*
X337854Y95396D01*
X338369Y96438D01*
X338910Y97467D01*
X339474Y98483D01*
X340063Y99486D01*
X340676Y100474D01*
X341312Y101447D01*
X341971Y102404D01*
X342654Y103345D01*
X343358Y104270D01*
X344085Y105178D01*
X344833Y106067D01*
X345602Y106939D01*
X346392Y107792D01*
X347202Y108626D01*
X348032Y109440D01*
X348881Y110234D01*
X349749Y111007D01*
X350635Y111760D01*
X351539Y112490D01*
X352460Y113199D01*
X404460Y112200D02*
X405216Y111721D01*
X405961Y111225D01*
X406694Y110712D01*
X407416Y110183D01*
X408126Y109638D01*
X408823Y109077D01*
X409507Y108500D01*
X410178Y107908D01*
X410836Y107301D01*
X411480Y106680D01*
X404460Y136200D02*
X352460Y136200D01*
X352460Y113200D01*
X404460Y112200D02*
X404460Y136200D01*
X311800Y211200D02*
X311800Y217200D01*
X303800Y217200D01*
X311800Y195200D02*
X311800Y189200D01*
X303800Y189200D01*
X290830Y151130D02*
X265730Y151130D01*
X303530Y141130D02*
X303530Y110330D01*
X290530Y100330D02*
X265730Y100330D01*
X252730Y110330D02*
X252730Y141130D01*
X265430Y125730D02*
X265434Y126042D01*
X265445Y126353D01*
X265464Y126664D01*
X265491Y126975D01*
X265526Y127285D01*
X265567Y127593D01*
X265617Y127901D01*
X265674Y128208D01*
X265739Y128513D01*
X265811Y128816D01*
X265890Y129117D01*
X265977Y129417D01*
X266071Y129714D01*
X266172Y130009D01*
X266281Y130301D01*
X266397Y130590D01*
X266520Y130877D01*
X266649Y131160D01*
X266786Y131440D01*
X266930Y131717D01*
X267080Y131990D01*
X267237Y132259D01*
X267400Y132524D01*
X267570Y132786D01*
X267747Y133043D01*
X267929Y133295D01*
X268118Y133543D01*
X268313Y133787D01*
X268513Y134025D01*
X268720Y134259D01*
X268932Y134487D01*
X269150Y134710D01*
X269373Y134928D01*
X269601Y135140D01*
X269835Y135347D01*
X270073Y135547D01*
X270317Y135742D01*
X270565Y135931D01*
X270817Y136113D01*
X271074Y136290D01*
X271336Y136460D01*
X271601Y136623D01*
X271870Y136780D01*
X272143Y136930D01*
X272420Y137074D01*
X272700Y137211D01*
X272983Y137340D01*
X273270Y137463D01*
X273559Y137579D01*
X273851Y137688D01*
X274146Y137789D01*
X274443Y137883D01*
X274743Y137970D01*
X275044Y138049D01*
X275347Y138121D01*
X275652Y138186D01*
X275959Y138243D01*
X276267Y138293D01*
X276575Y138334D01*
X276885Y138369D01*
X277196Y138396D01*
X277507Y138415D01*
X277818Y138426D01*
X278130Y138430D01*
X278442Y138426D01*
X278753Y138415D01*
X279064Y138396D01*
X279375Y138369D01*
X279685Y138334D01*
X279993Y138293D01*
X280301Y138243D01*
X280608Y138186D01*
X280913Y138121D01*
X281216Y138049D01*
X281517Y137970D01*
X281817Y137883D01*
X282114Y137789D01*
X282409Y137688D01*
X282701Y137579D01*
X282990Y137463D01*
X283277Y137340D01*
X283560Y137211D01*
X283840Y137074D01*
X284117Y136930D01*
X284390Y136780D01*
X284659Y136623D01*
X284924Y136460D01*
X285186Y136290D01*
X285443Y136113D01*
X285695Y135931D01*
X285943Y135742D01*
X286187Y135547D01*
X286425Y135347D01*
X286659Y135140D01*
X286887Y134928D01*
X287110Y134710D01*
X287328Y134487D01*
X287540Y134259D01*
X287747Y134025D01*
X287947Y133787D01*
X288142Y133543D01*
X288331Y133295D01*
X288513Y133043D01*
X288690Y132786D01*
X288860Y132524D01*
X289023Y132259D01*
X289180Y131990D01*
X289330Y131717D01*
X289474Y131440D01*
X289611Y131160D01*
X289740Y130877D01*
X289863Y130590D01*
X289979Y130301D01*
X290088Y130009D01*
X290189Y129714D01*
X290283Y129417D01*
X290370Y129117D01*
X290449Y128816D01*
X290521Y128513D01*
X290586Y128208D01*
X290643Y127901D01*
X290693Y127593D01*
X290734Y127285D01*
X290769Y126975D01*
X290796Y126664D01*
X290815Y126353D01*
X290826Y126042D01*
X290830Y125730D01*
X290826Y125418D01*
X290815Y125107D01*
X290796Y124796D01*
X290769Y124485D01*
X290734Y124175D01*
X290693Y123867D01*
X290643Y123559D01*
X290586Y123252D01*
X290521Y122947D01*
X290449Y122644D01*
X290370Y122343D01*
X290283Y122043D01*
X290189Y121746D01*
X290088Y121451D01*
X289979Y121159D01*
X289863Y120870D01*
X289740Y120583D01*
X289611Y120300D01*
X289474Y120020D01*
X289330Y119743D01*
X289180Y119470D01*
X289023Y119201D01*
X288860Y118936D01*
X288690Y118674D01*
X288513Y118417D01*
X288331Y118165D01*
X288142Y117917D01*
X287947Y117673D01*
X287747Y117435D01*
X287540Y117201D01*
X287328Y116973D01*
X287110Y116750D01*
X286887Y116532D01*
X286659Y116320D01*
X286425Y116113D01*
X286187Y115913D01*
X285943Y115718D01*
X285695Y115529D01*
X285443Y115347D01*
X285186Y115170D01*
X284924Y115000D01*
X284659Y114837D01*
X284390Y114680D01*
X284117Y114530D01*
X283840Y114386D01*
X283560Y114249D01*
X283277Y114120D01*
X282990Y113997D01*
X282701Y113881D01*
X282409Y113772D01*
X282114Y113671D01*
X281817Y113577D01*
X281517Y113490D01*
X281216Y113411D01*
X280913Y113339D01*
X280608Y113274D01*
X280301Y113217D01*
X279993Y113167D01*
X279685Y113126D01*
X279375Y113091D01*
X279064Y113064D01*
X278753Y113045D01*
X278442Y113034D01*
X278130Y113030D01*
X277818Y113034D01*
X277507Y113045D01*
X277196Y113064D01*
X276885Y113091D01*
X276575Y113126D01*
X276267Y113167D01*
X275959Y113217D01*
X275652Y113274D01*
X275347Y113339D01*
X275044Y113411D01*
X274743Y113490D01*
X274443Y113577D01*
X274146Y113671D01*
X273851Y113772D01*
X273559Y113881D01*
X273270Y113997D01*
X272983Y114120D01*
X272700Y114249D01*
X272420Y114386D01*
X272143Y114530D01*
X271870Y114680D01*
X271601Y114837D01*
X271336Y115000D01*
X271074Y115170D01*
X270817Y115347D01*
X270565Y115529D01*
X270317Y115718D01*
X270073Y115913D01*
X269835Y116113D01*
X269601Y116320D01*
X269373Y116532D01*
X269150Y116750D01*
X268932Y116973D01*
X268720Y117201D01*
X268513Y117435D01*
X268313Y117673D01*
X268118Y117917D01*
X267929Y118165D01*
X267747Y118417D01*
X267570Y118674D01*
X267400Y118936D01*
X267237Y119201D01*
X267080Y119470D01*
X266930Y119743D01*
X266786Y120020D01*
X266649Y120300D01*
X266520Y120583D01*
X266397Y120870D01*
X266281Y121159D01*
X266172Y121451D01*
X266071Y121746D01*
X265977Y122043D01*
X265890Y122343D01*
X265811Y122644D01*
X265739Y122947D01*
X265674Y123252D01*
X265617Y123559D01*
X265567Y123867D01*
X265526Y124175D01*
X265491Y124485D01*
X265464Y124796D01*
X265445Y125107D01*
X265434Y125418D01*
X265430Y125730D01*
X93663Y219075D02*
X84138Y219075D01*
D12*
X227400Y217800D02*
X227400Y208800D01*
X227400Y217800D02*
X211400Y217800D01*
X198400Y211800D02*
X198400Y143800D01*
X211400Y137800D02*
X227400Y137800D01*
X227400Y146800D01*
D10*
X222885Y49213D02*
X222885Y39688D01*
M02*
