M48
;GenerationSoftware,Autodesk,EAGLE,9.6.2*%
;CreationDate,2026-02-24T20:43:29Z*%
FMAT,2
ICI,OFF
METRIC,TZ,000.000
T7C0.381
T6C0.400
T5C0.650
T4C0.800
T3C1.016
T2C2.000
T1C3.302
%
G90
M71
T1
X2540Y2540
X2540Y22860
T2
X30164Y4019
X40864Y21419
T3
X6350Y1270
X19050Y1270
X16510Y1270
X13970Y1270
X11430Y1270
X8890Y1270
T4
X35596Y3720
X41746Y9870
T5
X4905Y15590
X4905Y9810
T6
X1255Y17018
X1255Y8382
X5435Y8382
X5435Y17018
T7
X16129Y23241
X21590Y19050
X31750Y22733
X25908Y17780
X25908Y20530
X4064Y14224
X24638Y17780
X3683Y13386
X3810Y11455
X25908Y4572
X33655Y14478
X30480Y7620
X7620Y22479
X5080Y19050
X3810Y19050
X10160Y17780
X1270Y13970
X1270Y11430
X19177Y13335
X24638Y16637
X15240Y17780
X19050Y21590
X19050Y20320
X19050Y19050
X3937Y12421
X7620Y7620
X15240Y14605
X24638Y15494
X31623Y17780
X7620Y15240
X7620Y10160
M30