G04 EAGLE Gerber RS-274X export*
G75*
%MOMM*%
%FSLAX34Y34*%
%LPD*%
%IN*%
%IPPOS*%
%AMOC8*
5,1,8,0,0,1.08239X$1,22.5*%
G01*
%ADD10C,0.203200*%
%ADD11C,0.076200*%
%ADD12C,0.000000*%
%ADD13C,0.600000*%
%ADD14C,0.254000*%


D10*
X114300Y254000D02*
X114300Y127000D01*
X127000Y127000D01*
X127000Y254000D01*
X114300Y254000D02*
X0Y254000D01*
X0Y0D01*
X444500Y0D01*
X444500Y254000D01*
X127000Y254000D01*
D11*
X122809Y165687D02*
X118491Y165687D01*
X118491Y166886D01*
X118493Y166954D01*
X118499Y167023D01*
X118509Y167090D01*
X118522Y167158D01*
X118540Y167224D01*
X118561Y167289D01*
X118586Y167353D01*
X118614Y167415D01*
X118646Y167476D01*
X118681Y167534D01*
X118720Y167591D01*
X118762Y167645D01*
X118807Y167697D01*
X118854Y167746D01*
X118905Y167792D01*
X118958Y167835D01*
X119013Y167876D01*
X119071Y167913D01*
X119130Y167946D01*
X119192Y167977D01*
X119255Y168003D01*
X119319Y168026D01*
X119385Y168046D01*
X119452Y168061D01*
X119519Y168073D01*
X119587Y168081D01*
X119656Y168085D01*
X119724Y168085D01*
X119793Y168081D01*
X119861Y168073D01*
X119928Y168061D01*
X119995Y168046D01*
X120061Y168026D01*
X120125Y168003D01*
X120188Y167977D01*
X120250Y167946D01*
X120309Y167913D01*
X120367Y167876D01*
X120422Y167835D01*
X120475Y167792D01*
X120526Y167746D01*
X120573Y167697D01*
X120618Y167645D01*
X120660Y167591D01*
X120699Y167534D01*
X120734Y167476D01*
X120766Y167415D01*
X120794Y167353D01*
X120819Y167289D01*
X120840Y167224D01*
X120858Y167158D01*
X120871Y167090D01*
X120881Y167023D01*
X120887Y166954D01*
X120889Y166886D01*
X120890Y166886D02*
X120890Y165687D01*
X120890Y167126D02*
X122809Y168086D01*
X121849Y170152D02*
X120890Y170152D01*
X120890Y170151D02*
X120830Y170153D01*
X120770Y170159D01*
X120710Y170168D01*
X120651Y170181D01*
X120593Y170198D01*
X120537Y170218D01*
X120481Y170242D01*
X120428Y170270D01*
X120376Y170300D01*
X120326Y170334D01*
X120278Y170371D01*
X120233Y170411D01*
X120190Y170454D01*
X120150Y170499D01*
X120113Y170547D01*
X120079Y170597D01*
X120049Y170649D01*
X120021Y170702D01*
X119997Y170758D01*
X119977Y170814D01*
X119960Y170872D01*
X119947Y170931D01*
X119938Y170991D01*
X119932Y171051D01*
X119930Y171111D01*
X119932Y171171D01*
X119938Y171231D01*
X119947Y171291D01*
X119960Y171350D01*
X119977Y171408D01*
X119997Y171464D01*
X120021Y171520D01*
X120049Y171573D01*
X120079Y171625D01*
X120113Y171675D01*
X120150Y171723D01*
X120190Y171768D01*
X120233Y171811D01*
X120278Y171851D01*
X120326Y171888D01*
X120376Y171922D01*
X120428Y171952D01*
X120481Y171980D01*
X120537Y172004D01*
X120593Y172024D01*
X120651Y172041D01*
X120710Y172054D01*
X120770Y172063D01*
X120830Y172069D01*
X120890Y172071D01*
X121849Y172071D01*
X121909Y172069D01*
X121969Y172063D01*
X122029Y172054D01*
X122088Y172041D01*
X122146Y172024D01*
X122202Y172004D01*
X122258Y171980D01*
X122311Y171952D01*
X122363Y171922D01*
X122413Y171888D01*
X122461Y171851D01*
X122506Y171811D01*
X122549Y171768D01*
X122589Y171723D01*
X122626Y171675D01*
X122660Y171625D01*
X122690Y171573D01*
X122718Y171520D01*
X122742Y171464D01*
X122762Y171408D01*
X122779Y171350D01*
X122792Y171291D01*
X122801Y171231D01*
X122807Y171171D01*
X122809Y171111D01*
X122807Y171051D01*
X122801Y170991D01*
X122792Y170931D01*
X122779Y170872D01*
X122762Y170814D01*
X122742Y170758D01*
X122718Y170702D01*
X122690Y170649D01*
X122660Y170597D01*
X122626Y170547D01*
X122589Y170499D01*
X122549Y170454D01*
X122506Y170411D01*
X122461Y170371D01*
X122413Y170334D01*
X122363Y170300D01*
X122311Y170270D01*
X122258Y170242D01*
X122202Y170218D01*
X122146Y170198D01*
X122088Y170181D01*
X122029Y170168D01*
X121969Y170159D01*
X121909Y170153D01*
X121849Y170151D01*
X122089Y174266D02*
X119930Y174266D01*
X122089Y174266D02*
X122140Y174268D01*
X122191Y174273D01*
X122242Y174282D01*
X122292Y174295D01*
X122341Y174311D01*
X122388Y174331D01*
X122434Y174354D01*
X122478Y174380D01*
X122520Y174410D01*
X122561Y174442D01*
X122598Y174477D01*
X122633Y174515D01*
X122665Y174555D01*
X122695Y174597D01*
X122721Y174641D01*
X122744Y174687D01*
X122764Y174734D01*
X122780Y174783D01*
X122793Y174833D01*
X122802Y174884D01*
X122807Y174935D01*
X122809Y174986D01*
X122809Y176186D01*
X119930Y176186D01*
X119930Y177958D02*
X119930Y179398D01*
X118491Y178438D02*
X122089Y178438D01*
X122140Y178440D01*
X122191Y178445D01*
X122242Y178454D01*
X122292Y178467D01*
X122341Y178483D01*
X122388Y178503D01*
X122434Y178526D01*
X122478Y178552D01*
X122520Y178582D01*
X122561Y178614D01*
X122598Y178649D01*
X122633Y178687D01*
X122665Y178727D01*
X122695Y178769D01*
X122721Y178813D01*
X122744Y178859D01*
X122764Y178906D01*
X122780Y178955D01*
X122793Y179005D01*
X122802Y179056D01*
X122807Y179107D01*
X122809Y179158D01*
X122809Y179398D01*
X122809Y181996D02*
X122809Y183196D01*
X122809Y181996D02*
X122807Y181945D01*
X122802Y181894D01*
X122793Y181843D01*
X122780Y181793D01*
X122764Y181744D01*
X122744Y181697D01*
X122721Y181651D01*
X122695Y181607D01*
X122665Y181565D01*
X122633Y181525D01*
X122598Y181487D01*
X122561Y181452D01*
X122520Y181420D01*
X122478Y181390D01*
X122434Y181364D01*
X122388Y181341D01*
X122341Y181321D01*
X122292Y181305D01*
X122242Y181292D01*
X122191Y181283D01*
X122140Y181278D01*
X122089Y181276D01*
X122089Y181277D02*
X120890Y181277D01*
X120890Y181276D02*
X120830Y181278D01*
X120770Y181284D01*
X120710Y181293D01*
X120651Y181306D01*
X120593Y181323D01*
X120537Y181343D01*
X120481Y181367D01*
X120428Y181395D01*
X120376Y181425D01*
X120326Y181459D01*
X120278Y181496D01*
X120233Y181536D01*
X120190Y181579D01*
X120150Y181624D01*
X120113Y181672D01*
X120079Y181722D01*
X120049Y181774D01*
X120021Y181827D01*
X119997Y181883D01*
X119977Y181939D01*
X119960Y181997D01*
X119947Y182056D01*
X119938Y182116D01*
X119932Y182176D01*
X119930Y182236D01*
X119932Y182296D01*
X119938Y182356D01*
X119947Y182416D01*
X119960Y182475D01*
X119977Y182533D01*
X119997Y182589D01*
X120021Y182645D01*
X120049Y182698D01*
X120079Y182750D01*
X120113Y182800D01*
X120150Y182848D01*
X120190Y182893D01*
X120233Y182936D01*
X120278Y182976D01*
X120326Y183013D01*
X120376Y183047D01*
X120428Y183077D01*
X120481Y183105D01*
X120537Y183129D01*
X120593Y183149D01*
X120651Y183166D01*
X120710Y183179D01*
X120770Y183188D01*
X120830Y183194D01*
X120890Y183196D01*
X121370Y183196D01*
X121370Y181277D01*
X121610Y187742D02*
X119690Y187742D01*
X119690Y187743D02*
X119622Y187745D01*
X119553Y187751D01*
X119486Y187761D01*
X119418Y187774D01*
X119352Y187792D01*
X119287Y187813D01*
X119223Y187838D01*
X119161Y187866D01*
X119100Y187898D01*
X119042Y187933D01*
X118985Y187972D01*
X118931Y188014D01*
X118879Y188059D01*
X118830Y188106D01*
X118784Y188157D01*
X118741Y188210D01*
X118700Y188265D01*
X118663Y188323D01*
X118630Y188382D01*
X118599Y188444D01*
X118573Y188507D01*
X118550Y188571D01*
X118530Y188637D01*
X118515Y188704D01*
X118503Y188771D01*
X118495Y188839D01*
X118491Y188908D01*
X118491Y188976D01*
X118495Y189045D01*
X118503Y189113D01*
X118515Y189180D01*
X118530Y189247D01*
X118550Y189313D01*
X118573Y189377D01*
X118599Y189440D01*
X118630Y189502D01*
X118663Y189561D01*
X118700Y189619D01*
X118741Y189674D01*
X118784Y189727D01*
X118830Y189778D01*
X118879Y189825D01*
X118931Y189870D01*
X118985Y189912D01*
X119042Y189951D01*
X119100Y189986D01*
X119161Y190018D01*
X119223Y190046D01*
X119287Y190071D01*
X119352Y190092D01*
X119418Y190110D01*
X119486Y190123D01*
X119553Y190133D01*
X119622Y190139D01*
X119690Y190141D01*
X121610Y190141D01*
X121678Y190139D01*
X121747Y190133D01*
X121814Y190123D01*
X121882Y190110D01*
X121948Y190092D01*
X122013Y190071D01*
X122077Y190046D01*
X122139Y190018D01*
X122200Y189986D01*
X122258Y189951D01*
X122315Y189912D01*
X122369Y189870D01*
X122421Y189825D01*
X122470Y189778D01*
X122516Y189727D01*
X122559Y189674D01*
X122600Y189619D01*
X122637Y189561D01*
X122670Y189502D01*
X122701Y189440D01*
X122727Y189377D01*
X122750Y189313D01*
X122770Y189247D01*
X122785Y189180D01*
X122797Y189113D01*
X122805Y189045D01*
X122809Y188976D01*
X122809Y188908D01*
X122805Y188839D01*
X122797Y188771D01*
X122785Y188704D01*
X122770Y188637D01*
X122750Y188571D01*
X122727Y188507D01*
X122701Y188444D01*
X122670Y188382D01*
X122637Y188323D01*
X122600Y188265D01*
X122559Y188210D01*
X122516Y188157D01*
X122470Y188106D01*
X122421Y188059D01*
X122369Y188014D01*
X122315Y187972D01*
X122258Y187933D01*
X122200Y187898D01*
X122139Y187866D01*
X122077Y187838D01*
X122013Y187813D01*
X121948Y187792D01*
X121882Y187774D01*
X121814Y187761D01*
X121747Y187751D01*
X121678Y187745D01*
X121610Y187743D01*
X122089Y192402D02*
X119930Y192402D01*
X122089Y192401D02*
X122140Y192403D01*
X122191Y192408D01*
X122242Y192417D01*
X122292Y192430D01*
X122341Y192446D01*
X122388Y192466D01*
X122434Y192489D01*
X122478Y192515D01*
X122520Y192545D01*
X122561Y192577D01*
X122598Y192612D01*
X122633Y192650D01*
X122665Y192690D01*
X122695Y192732D01*
X122721Y192776D01*
X122744Y192822D01*
X122764Y192869D01*
X122780Y192918D01*
X122793Y192968D01*
X122802Y193019D01*
X122807Y193070D01*
X122809Y193121D01*
X122809Y194321D01*
X119930Y194321D01*
X119930Y196094D02*
X119930Y197533D01*
X118491Y196574D02*
X122089Y196574D01*
X122089Y196573D02*
X122140Y196575D01*
X122191Y196580D01*
X122242Y196589D01*
X122292Y196602D01*
X122341Y196618D01*
X122388Y196638D01*
X122434Y196661D01*
X122478Y196687D01*
X122520Y196717D01*
X122561Y196749D01*
X122598Y196784D01*
X122633Y196822D01*
X122665Y196862D01*
X122695Y196904D01*
X122721Y196948D01*
X122744Y196994D01*
X122764Y197041D01*
X122780Y197090D01*
X122793Y197140D01*
X122802Y197191D01*
X122807Y197242D01*
X122809Y197293D01*
X122809Y197533D01*
D12*
X45800Y155900D02*
X45802Y156013D01*
X45808Y156127D01*
X45818Y156240D01*
X45832Y156352D01*
X45849Y156464D01*
X45871Y156576D01*
X45897Y156686D01*
X45926Y156796D01*
X45959Y156904D01*
X45996Y157012D01*
X46037Y157117D01*
X46081Y157222D01*
X46129Y157325D01*
X46180Y157426D01*
X46235Y157525D01*
X46294Y157622D01*
X46356Y157717D01*
X46421Y157810D01*
X46489Y157901D01*
X46560Y157989D01*
X46635Y158075D01*
X46712Y158158D01*
X46792Y158238D01*
X46875Y158315D01*
X46961Y158390D01*
X47049Y158461D01*
X47140Y158529D01*
X47233Y158594D01*
X47328Y158656D01*
X47425Y158715D01*
X47524Y158770D01*
X47625Y158821D01*
X47728Y158869D01*
X47833Y158913D01*
X47938Y158954D01*
X48046Y158991D01*
X48154Y159024D01*
X48264Y159053D01*
X48374Y159079D01*
X48486Y159101D01*
X48598Y159118D01*
X48710Y159132D01*
X48823Y159142D01*
X48937Y159148D01*
X49050Y159150D01*
X49163Y159148D01*
X49277Y159142D01*
X49390Y159132D01*
X49502Y159118D01*
X49614Y159101D01*
X49726Y159079D01*
X49836Y159053D01*
X49946Y159024D01*
X50054Y158991D01*
X50162Y158954D01*
X50267Y158913D01*
X50372Y158869D01*
X50475Y158821D01*
X50576Y158770D01*
X50675Y158715D01*
X50772Y158656D01*
X50867Y158594D01*
X50960Y158529D01*
X51051Y158461D01*
X51139Y158390D01*
X51225Y158315D01*
X51308Y158238D01*
X51388Y158158D01*
X51465Y158075D01*
X51540Y157989D01*
X51611Y157901D01*
X51679Y157810D01*
X51744Y157717D01*
X51806Y157622D01*
X51865Y157525D01*
X51920Y157426D01*
X51971Y157325D01*
X52019Y157222D01*
X52063Y157117D01*
X52104Y157012D01*
X52141Y156904D01*
X52174Y156796D01*
X52203Y156686D01*
X52229Y156576D01*
X52251Y156464D01*
X52268Y156352D01*
X52282Y156240D01*
X52292Y156127D01*
X52298Y156013D01*
X52300Y155900D01*
X52298Y155787D01*
X52292Y155673D01*
X52282Y155560D01*
X52268Y155448D01*
X52251Y155336D01*
X52229Y155224D01*
X52203Y155114D01*
X52174Y155004D01*
X52141Y154896D01*
X52104Y154788D01*
X52063Y154683D01*
X52019Y154578D01*
X51971Y154475D01*
X51920Y154374D01*
X51865Y154275D01*
X51806Y154178D01*
X51744Y154083D01*
X51679Y153990D01*
X51611Y153899D01*
X51540Y153811D01*
X51465Y153725D01*
X51388Y153642D01*
X51308Y153562D01*
X51225Y153485D01*
X51139Y153410D01*
X51051Y153339D01*
X50960Y153271D01*
X50867Y153206D01*
X50772Y153144D01*
X50675Y153085D01*
X50576Y153030D01*
X50475Y152979D01*
X50372Y152931D01*
X50267Y152887D01*
X50162Y152846D01*
X50054Y152809D01*
X49946Y152776D01*
X49836Y152747D01*
X49726Y152721D01*
X49614Y152699D01*
X49502Y152682D01*
X49390Y152668D01*
X49277Y152658D01*
X49163Y152652D01*
X49050Y152650D01*
X48937Y152652D01*
X48823Y152658D01*
X48710Y152668D01*
X48598Y152682D01*
X48486Y152699D01*
X48374Y152721D01*
X48264Y152747D01*
X48154Y152776D01*
X48046Y152809D01*
X47938Y152846D01*
X47833Y152887D01*
X47728Y152931D01*
X47625Y152979D01*
X47524Y153030D01*
X47425Y153085D01*
X47328Y153144D01*
X47233Y153206D01*
X47140Y153271D01*
X47049Y153339D01*
X46961Y153410D01*
X46875Y153485D01*
X46792Y153562D01*
X46712Y153642D01*
X46635Y153725D01*
X46560Y153811D01*
X46489Y153899D01*
X46421Y153990D01*
X46356Y154083D01*
X46294Y154178D01*
X46235Y154275D01*
X46180Y154374D01*
X46129Y154475D01*
X46081Y154578D01*
X46037Y154683D01*
X45996Y154788D01*
X45959Y154896D01*
X45926Y155004D01*
X45897Y155114D01*
X45871Y155224D01*
X45849Y155336D01*
X45832Y155448D01*
X45818Y155560D01*
X45808Y155673D01*
X45802Y155787D01*
X45800Y155900D01*
X45800Y98100D02*
X45802Y98213D01*
X45808Y98327D01*
X45818Y98440D01*
X45832Y98552D01*
X45849Y98664D01*
X45871Y98776D01*
X45897Y98886D01*
X45926Y98996D01*
X45959Y99104D01*
X45996Y99212D01*
X46037Y99317D01*
X46081Y99422D01*
X46129Y99525D01*
X46180Y99626D01*
X46235Y99725D01*
X46294Y99822D01*
X46356Y99917D01*
X46421Y100010D01*
X46489Y100101D01*
X46560Y100189D01*
X46635Y100275D01*
X46712Y100358D01*
X46792Y100438D01*
X46875Y100515D01*
X46961Y100590D01*
X47049Y100661D01*
X47140Y100729D01*
X47233Y100794D01*
X47328Y100856D01*
X47425Y100915D01*
X47524Y100970D01*
X47625Y101021D01*
X47728Y101069D01*
X47833Y101113D01*
X47938Y101154D01*
X48046Y101191D01*
X48154Y101224D01*
X48264Y101253D01*
X48374Y101279D01*
X48486Y101301D01*
X48598Y101318D01*
X48710Y101332D01*
X48823Y101342D01*
X48937Y101348D01*
X49050Y101350D01*
X49163Y101348D01*
X49277Y101342D01*
X49390Y101332D01*
X49502Y101318D01*
X49614Y101301D01*
X49726Y101279D01*
X49836Y101253D01*
X49946Y101224D01*
X50054Y101191D01*
X50162Y101154D01*
X50267Y101113D01*
X50372Y101069D01*
X50475Y101021D01*
X50576Y100970D01*
X50675Y100915D01*
X50772Y100856D01*
X50867Y100794D01*
X50960Y100729D01*
X51051Y100661D01*
X51139Y100590D01*
X51225Y100515D01*
X51308Y100438D01*
X51388Y100358D01*
X51465Y100275D01*
X51540Y100189D01*
X51611Y100101D01*
X51679Y100010D01*
X51744Y99917D01*
X51806Y99822D01*
X51865Y99725D01*
X51920Y99626D01*
X51971Y99525D01*
X52019Y99422D01*
X52063Y99317D01*
X52104Y99212D01*
X52141Y99104D01*
X52174Y98996D01*
X52203Y98886D01*
X52229Y98776D01*
X52251Y98664D01*
X52268Y98552D01*
X52282Y98440D01*
X52292Y98327D01*
X52298Y98213D01*
X52300Y98100D01*
X52298Y97987D01*
X52292Y97873D01*
X52282Y97760D01*
X52268Y97648D01*
X52251Y97536D01*
X52229Y97424D01*
X52203Y97314D01*
X52174Y97204D01*
X52141Y97096D01*
X52104Y96988D01*
X52063Y96883D01*
X52019Y96778D01*
X51971Y96675D01*
X51920Y96574D01*
X51865Y96475D01*
X51806Y96378D01*
X51744Y96283D01*
X51679Y96190D01*
X51611Y96099D01*
X51540Y96011D01*
X51465Y95925D01*
X51388Y95842D01*
X51308Y95762D01*
X51225Y95685D01*
X51139Y95610D01*
X51051Y95539D01*
X50960Y95471D01*
X50867Y95406D01*
X50772Y95344D01*
X50675Y95285D01*
X50576Y95230D01*
X50475Y95179D01*
X50372Y95131D01*
X50267Y95087D01*
X50162Y95046D01*
X50054Y95009D01*
X49946Y94976D01*
X49836Y94947D01*
X49726Y94921D01*
X49614Y94899D01*
X49502Y94882D01*
X49390Y94868D01*
X49277Y94858D01*
X49163Y94852D01*
X49050Y94850D01*
X48937Y94852D01*
X48823Y94858D01*
X48710Y94868D01*
X48598Y94882D01*
X48486Y94899D01*
X48374Y94921D01*
X48264Y94947D01*
X48154Y94976D01*
X48046Y95009D01*
X47938Y95046D01*
X47833Y95087D01*
X47728Y95131D01*
X47625Y95179D01*
X47524Y95230D01*
X47425Y95285D01*
X47328Y95344D01*
X47233Y95406D01*
X47140Y95471D01*
X47049Y95539D01*
X46961Y95610D01*
X46875Y95685D01*
X46792Y95762D01*
X46712Y95842D01*
X46635Y95925D01*
X46560Y96011D01*
X46489Y96099D01*
X46421Y96190D01*
X46356Y96283D01*
X46294Y96378D01*
X46235Y96475D01*
X46180Y96574D01*
X46129Y96675D01*
X46081Y96778D01*
X46037Y96883D01*
X45996Y96988D01*
X45959Y97096D01*
X45926Y97204D01*
X45897Y97314D01*
X45871Y97424D01*
X45849Y97536D01*
X45832Y97648D01*
X45818Y97760D01*
X45808Y97873D01*
X45802Y97987D01*
X45800Y98100D01*
D13*
X48850Y170180D02*
X59850Y170180D01*
X59850Y83820D02*
X48850Y83820D01*
X15700Y170180D02*
X9500Y170180D01*
X9500Y83820D02*
X15700Y83820D01*
D12*
X291640Y40190D02*
X291643Y40435D01*
X291652Y40681D01*
X291667Y40926D01*
X291688Y41170D01*
X291715Y41414D01*
X291748Y41657D01*
X291787Y41900D01*
X291832Y42141D01*
X291883Y42381D01*
X291940Y42620D01*
X292002Y42857D01*
X292071Y43093D01*
X292145Y43327D01*
X292225Y43559D01*
X292310Y43789D01*
X292401Y44017D01*
X292498Y44242D01*
X292600Y44466D01*
X292708Y44686D01*
X292821Y44904D01*
X292939Y45119D01*
X293063Y45331D01*
X293191Y45540D01*
X293325Y45746D01*
X293464Y45948D01*
X293608Y46147D01*
X293757Y46342D01*
X293910Y46534D01*
X294068Y46722D01*
X294230Y46906D01*
X294398Y47085D01*
X294569Y47261D01*
X294745Y47432D01*
X294924Y47600D01*
X295108Y47762D01*
X295296Y47920D01*
X295488Y48073D01*
X295683Y48222D01*
X295882Y48366D01*
X296084Y48505D01*
X296290Y48639D01*
X296499Y48767D01*
X296711Y48891D01*
X296926Y49009D01*
X297144Y49122D01*
X297364Y49230D01*
X297588Y49332D01*
X297813Y49429D01*
X298041Y49520D01*
X298271Y49605D01*
X298503Y49685D01*
X298737Y49759D01*
X298973Y49828D01*
X299210Y49890D01*
X299449Y49947D01*
X299689Y49998D01*
X299930Y50043D01*
X300173Y50082D01*
X300416Y50115D01*
X300660Y50142D01*
X300904Y50163D01*
X301149Y50178D01*
X301395Y50187D01*
X301640Y50190D01*
X301885Y50187D01*
X302131Y50178D01*
X302376Y50163D01*
X302620Y50142D01*
X302864Y50115D01*
X303107Y50082D01*
X303350Y50043D01*
X303591Y49998D01*
X303831Y49947D01*
X304070Y49890D01*
X304307Y49828D01*
X304543Y49759D01*
X304777Y49685D01*
X305009Y49605D01*
X305239Y49520D01*
X305467Y49429D01*
X305692Y49332D01*
X305916Y49230D01*
X306136Y49122D01*
X306354Y49009D01*
X306569Y48891D01*
X306781Y48767D01*
X306990Y48639D01*
X307196Y48505D01*
X307398Y48366D01*
X307597Y48222D01*
X307792Y48073D01*
X307984Y47920D01*
X308172Y47762D01*
X308356Y47600D01*
X308535Y47432D01*
X308711Y47261D01*
X308882Y47085D01*
X309050Y46906D01*
X309212Y46722D01*
X309370Y46534D01*
X309523Y46342D01*
X309672Y46147D01*
X309816Y45948D01*
X309955Y45746D01*
X310089Y45540D01*
X310217Y45331D01*
X310341Y45119D01*
X310459Y44904D01*
X310572Y44686D01*
X310680Y44466D01*
X310782Y44242D01*
X310879Y44017D01*
X310970Y43789D01*
X311055Y43559D01*
X311135Y43327D01*
X311209Y43093D01*
X311278Y42857D01*
X311340Y42620D01*
X311397Y42381D01*
X311448Y42141D01*
X311493Y41900D01*
X311532Y41657D01*
X311565Y41414D01*
X311592Y41170D01*
X311613Y40926D01*
X311628Y40681D01*
X311637Y40435D01*
X311640Y40190D01*
X311637Y39945D01*
X311628Y39699D01*
X311613Y39454D01*
X311592Y39210D01*
X311565Y38966D01*
X311532Y38723D01*
X311493Y38480D01*
X311448Y38239D01*
X311397Y37999D01*
X311340Y37760D01*
X311278Y37523D01*
X311209Y37287D01*
X311135Y37053D01*
X311055Y36821D01*
X310970Y36591D01*
X310879Y36363D01*
X310782Y36138D01*
X310680Y35914D01*
X310572Y35694D01*
X310459Y35476D01*
X310341Y35261D01*
X310217Y35049D01*
X310089Y34840D01*
X309955Y34634D01*
X309816Y34432D01*
X309672Y34233D01*
X309523Y34038D01*
X309370Y33846D01*
X309212Y33658D01*
X309050Y33474D01*
X308882Y33295D01*
X308711Y33119D01*
X308535Y32948D01*
X308356Y32780D01*
X308172Y32618D01*
X307984Y32460D01*
X307792Y32307D01*
X307597Y32158D01*
X307398Y32014D01*
X307196Y31875D01*
X306990Y31741D01*
X306781Y31613D01*
X306569Y31489D01*
X306354Y31371D01*
X306136Y31258D01*
X305916Y31150D01*
X305692Y31048D01*
X305467Y30951D01*
X305239Y30860D01*
X305009Y30775D01*
X304777Y30695D01*
X304543Y30621D01*
X304307Y30552D01*
X304070Y30490D01*
X303831Y30433D01*
X303591Y30382D01*
X303350Y30337D01*
X303107Y30298D01*
X302864Y30265D01*
X302620Y30238D01*
X302376Y30217D01*
X302131Y30202D01*
X301885Y30193D01*
X301640Y30190D01*
X301395Y30193D01*
X301149Y30202D01*
X300904Y30217D01*
X300660Y30238D01*
X300416Y30265D01*
X300173Y30298D01*
X299930Y30337D01*
X299689Y30382D01*
X299449Y30433D01*
X299210Y30490D01*
X298973Y30552D01*
X298737Y30621D01*
X298503Y30695D01*
X298271Y30775D01*
X298041Y30860D01*
X297813Y30951D01*
X297588Y31048D01*
X297364Y31150D01*
X297144Y31258D01*
X296926Y31371D01*
X296711Y31489D01*
X296499Y31613D01*
X296290Y31741D01*
X296084Y31875D01*
X295882Y32014D01*
X295683Y32158D01*
X295488Y32307D01*
X295296Y32460D01*
X295108Y32618D01*
X294924Y32780D01*
X294745Y32948D01*
X294569Y33119D01*
X294398Y33295D01*
X294230Y33474D01*
X294068Y33658D01*
X293910Y33846D01*
X293757Y34038D01*
X293608Y34233D01*
X293464Y34432D01*
X293325Y34634D01*
X293191Y34840D01*
X293063Y35049D01*
X292939Y35261D01*
X292821Y35476D01*
X292708Y35694D01*
X292600Y35914D01*
X292498Y36138D01*
X292401Y36363D01*
X292310Y36591D01*
X292225Y36821D01*
X292145Y37053D01*
X292071Y37287D01*
X292002Y37523D01*
X291940Y37760D01*
X291883Y37999D01*
X291832Y38239D01*
X291787Y38480D01*
X291748Y38723D01*
X291715Y38966D01*
X291688Y39210D01*
X291667Y39454D01*
X291652Y39699D01*
X291643Y39945D01*
X291640Y40190D01*
X398640Y214190D02*
X398643Y214435D01*
X398652Y214681D01*
X398667Y214926D01*
X398688Y215170D01*
X398715Y215414D01*
X398748Y215657D01*
X398787Y215900D01*
X398832Y216141D01*
X398883Y216381D01*
X398940Y216620D01*
X399002Y216857D01*
X399071Y217093D01*
X399145Y217327D01*
X399225Y217559D01*
X399310Y217789D01*
X399401Y218017D01*
X399498Y218242D01*
X399600Y218466D01*
X399708Y218686D01*
X399821Y218904D01*
X399939Y219119D01*
X400063Y219331D01*
X400191Y219540D01*
X400325Y219746D01*
X400464Y219948D01*
X400608Y220147D01*
X400757Y220342D01*
X400910Y220534D01*
X401068Y220722D01*
X401230Y220906D01*
X401398Y221085D01*
X401569Y221261D01*
X401745Y221432D01*
X401924Y221600D01*
X402108Y221762D01*
X402296Y221920D01*
X402488Y222073D01*
X402683Y222222D01*
X402882Y222366D01*
X403084Y222505D01*
X403290Y222639D01*
X403499Y222767D01*
X403711Y222891D01*
X403926Y223009D01*
X404144Y223122D01*
X404364Y223230D01*
X404588Y223332D01*
X404813Y223429D01*
X405041Y223520D01*
X405271Y223605D01*
X405503Y223685D01*
X405737Y223759D01*
X405973Y223828D01*
X406210Y223890D01*
X406449Y223947D01*
X406689Y223998D01*
X406930Y224043D01*
X407173Y224082D01*
X407416Y224115D01*
X407660Y224142D01*
X407904Y224163D01*
X408149Y224178D01*
X408395Y224187D01*
X408640Y224190D01*
X408885Y224187D01*
X409131Y224178D01*
X409376Y224163D01*
X409620Y224142D01*
X409864Y224115D01*
X410107Y224082D01*
X410350Y224043D01*
X410591Y223998D01*
X410831Y223947D01*
X411070Y223890D01*
X411307Y223828D01*
X411543Y223759D01*
X411777Y223685D01*
X412009Y223605D01*
X412239Y223520D01*
X412467Y223429D01*
X412692Y223332D01*
X412916Y223230D01*
X413136Y223122D01*
X413354Y223009D01*
X413569Y222891D01*
X413781Y222767D01*
X413990Y222639D01*
X414196Y222505D01*
X414398Y222366D01*
X414597Y222222D01*
X414792Y222073D01*
X414984Y221920D01*
X415172Y221762D01*
X415356Y221600D01*
X415535Y221432D01*
X415711Y221261D01*
X415882Y221085D01*
X416050Y220906D01*
X416212Y220722D01*
X416370Y220534D01*
X416523Y220342D01*
X416672Y220147D01*
X416816Y219948D01*
X416955Y219746D01*
X417089Y219540D01*
X417217Y219331D01*
X417341Y219119D01*
X417459Y218904D01*
X417572Y218686D01*
X417680Y218466D01*
X417782Y218242D01*
X417879Y218017D01*
X417970Y217789D01*
X418055Y217559D01*
X418135Y217327D01*
X418209Y217093D01*
X418278Y216857D01*
X418340Y216620D01*
X418397Y216381D01*
X418448Y216141D01*
X418493Y215900D01*
X418532Y215657D01*
X418565Y215414D01*
X418592Y215170D01*
X418613Y214926D01*
X418628Y214681D01*
X418637Y214435D01*
X418640Y214190D01*
X418637Y213945D01*
X418628Y213699D01*
X418613Y213454D01*
X418592Y213210D01*
X418565Y212966D01*
X418532Y212723D01*
X418493Y212480D01*
X418448Y212239D01*
X418397Y211999D01*
X418340Y211760D01*
X418278Y211523D01*
X418209Y211287D01*
X418135Y211053D01*
X418055Y210821D01*
X417970Y210591D01*
X417879Y210363D01*
X417782Y210138D01*
X417680Y209914D01*
X417572Y209694D01*
X417459Y209476D01*
X417341Y209261D01*
X417217Y209049D01*
X417089Y208840D01*
X416955Y208634D01*
X416816Y208432D01*
X416672Y208233D01*
X416523Y208038D01*
X416370Y207846D01*
X416212Y207658D01*
X416050Y207474D01*
X415882Y207295D01*
X415711Y207119D01*
X415535Y206948D01*
X415356Y206780D01*
X415172Y206618D01*
X414984Y206460D01*
X414792Y206307D01*
X414597Y206158D01*
X414398Y206014D01*
X414196Y205875D01*
X413990Y205741D01*
X413781Y205613D01*
X413569Y205489D01*
X413354Y205371D01*
X413136Y205258D01*
X412916Y205150D01*
X412692Y205048D01*
X412467Y204951D01*
X412239Y204860D01*
X412009Y204775D01*
X411777Y204695D01*
X411543Y204621D01*
X411307Y204552D01*
X411070Y204490D01*
X410831Y204433D01*
X410591Y204382D01*
X410350Y204337D01*
X410107Y204298D01*
X409864Y204265D01*
X409620Y204238D01*
X409376Y204217D01*
X409131Y204202D01*
X408885Y204193D01*
X408640Y204190D01*
X408395Y204193D01*
X408149Y204202D01*
X407904Y204217D01*
X407660Y204238D01*
X407416Y204265D01*
X407173Y204298D01*
X406930Y204337D01*
X406689Y204382D01*
X406449Y204433D01*
X406210Y204490D01*
X405973Y204552D01*
X405737Y204621D01*
X405503Y204695D01*
X405271Y204775D01*
X405041Y204860D01*
X404813Y204951D01*
X404588Y205048D01*
X404364Y205150D01*
X404144Y205258D01*
X403926Y205371D01*
X403711Y205489D01*
X403499Y205613D01*
X403290Y205741D01*
X403084Y205875D01*
X402882Y206014D01*
X402683Y206158D01*
X402488Y206307D01*
X402296Y206460D01*
X402108Y206618D01*
X401924Y206780D01*
X401745Y206948D01*
X401569Y207119D01*
X401398Y207295D01*
X401230Y207474D01*
X401068Y207658D01*
X400910Y207846D01*
X400757Y208038D01*
X400608Y208233D01*
X400464Y208432D01*
X400325Y208634D01*
X400191Y208840D01*
X400063Y209049D01*
X399939Y209261D01*
X399821Y209476D01*
X399708Y209694D01*
X399600Y209914D01*
X399498Y210138D01*
X399401Y210363D01*
X399310Y210591D01*
X399225Y210821D01*
X399145Y211053D01*
X399071Y211287D01*
X399002Y211523D01*
X398940Y211760D01*
X398883Y211999D01*
X398832Y212239D01*
X398787Y212480D01*
X398748Y212723D01*
X398715Y212966D01*
X398688Y213210D01*
X398667Y213454D01*
X398652Y213699D01*
X398643Y213945D01*
X398640Y214190D01*
X413460Y98700D02*
X413462Y98826D01*
X413468Y98952D01*
X413478Y99078D01*
X413492Y99204D01*
X413510Y99329D01*
X413532Y99453D01*
X413557Y99577D01*
X413587Y99700D01*
X413620Y99821D01*
X413658Y99942D01*
X413699Y100061D01*
X413744Y100180D01*
X413792Y100296D01*
X413844Y100411D01*
X413900Y100524D01*
X413960Y100636D01*
X414023Y100745D01*
X414089Y100853D01*
X414158Y100958D01*
X414231Y101061D01*
X414308Y101162D01*
X414387Y101260D01*
X414469Y101356D01*
X414555Y101449D01*
X414643Y101540D01*
X414734Y101627D01*
X414828Y101712D01*
X414924Y101793D01*
X415023Y101872D01*
X415124Y101947D01*
X415228Y102019D01*
X415334Y102088D01*
X415442Y102154D01*
X415552Y102216D01*
X415664Y102274D01*
X415777Y102329D01*
X415893Y102380D01*
X416010Y102428D01*
X416128Y102472D01*
X416248Y102512D01*
X416369Y102548D01*
X416491Y102581D01*
X416614Y102610D01*
X416738Y102634D01*
X416862Y102655D01*
X416987Y102672D01*
X417113Y102685D01*
X417239Y102694D01*
X417365Y102699D01*
X417492Y102700D01*
X417618Y102697D01*
X417744Y102690D01*
X417870Y102679D01*
X417995Y102664D01*
X418120Y102645D01*
X418244Y102622D01*
X418368Y102596D01*
X418490Y102565D01*
X418612Y102531D01*
X418732Y102492D01*
X418851Y102450D01*
X418969Y102405D01*
X419085Y102355D01*
X419200Y102302D01*
X419312Y102245D01*
X419423Y102185D01*
X419532Y102121D01*
X419639Y102054D01*
X419744Y101984D01*
X419847Y101910D01*
X419947Y101833D01*
X420045Y101753D01*
X420140Y101670D01*
X420232Y101584D01*
X420322Y101495D01*
X420409Y101403D01*
X420492Y101309D01*
X420573Y101212D01*
X420651Y101112D01*
X420726Y101010D01*
X420797Y100906D01*
X420865Y100799D01*
X420929Y100691D01*
X420990Y100580D01*
X421048Y100468D01*
X421102Y100354D01*
X421152Y100238D01*
X421199Y100121D01*
X421242Y100002D01*
X421281Y99882D01*
X421317Y99761D01*
X421348Y99638D01*
X421376Y99515D01*
X421400Y99391D01*
X421420Y99266D01*
X421436Y99141D01*
X421448Y99015D01*
X421456Y98889D01*
X421460Y98763D01*
X421460Y98637D01*
X421456Y98511D01*
X421448Y98385D01*
X421436Y98259D01*
X421420Y98134D01*
X421400Y98009D01*
X421376Y97885D01*
X421348Y97762D01*
X421317Y97639D01*
X421281Y97518D01*
X421242Y97398D01*
X421199Y97279D01*
X421152Y97162D01*
X421102Y97046D01*
X421048Y96932D01*
X420990Y96820D01*
X420929Y96709D01*
X420865Y96601D01*
X420797Y96494D01*
X420726Y96390D01*
X420651Y96288D01*
X420573Y96188D01*
X420492Y96091D01*
X420409Y95997D01*
X420322Y95905D01*
X420232Y95816D01*
X420140Y95730D01*
X420045Y95647D01*
X419947Y95567D01*
X419847Y95490D01*
X419744Y95416D01*
X419639Y95346D01*
X419532Y95279D01*
X419423Y95215D01*
X419312Y95155D01*
X419200Y95098D01*
X419085Y95045D01*
X418969Y94995D01*
X418851Y94950D01*
X418732Y94908D01*
X418612Y94869D01*
X418490Y94835D01*
X418368Y94804D01*
X418244Y94778D01*
X418120Y94755D01*
X417995Y94736D01*
X417870Y94721D01*
X417744Y94710D01*
X417618Y94703D01*
X417492Y94700D01*
X417365Y94701D01*
X417239Y94706D01*
X417113Y94715D01*
X416987Y94728D01*
X416862Y94745D01*
X416738Y94766D01*
X416614Y94790D01*
X416491Y94819D01*
X416369Y94852D01*
X416248Y94888D01*
X416128Y94928D01*
X416010Y94972D01*
X415893Y95020D01*
X415777Y95071D01*
X415664Y95126D01*
X415552Y95184D01*
X415442Y95246D01*
X415334Y95312D01*
X415228Y95381D01*
X415124Y95453D01*
X415023Y95528D01*
X414924Y95607D01*
X414828Y95688D01*
X414734Y95773D01*
X414643Y95860D01*
X414555Y95951D01*
X414469Y96044D01*
X414387Y96140D01*
X414308Y96238D01*
X414231Y96339D01*
X414158Y96442D01*
X414089Y96547D01*
X414023Y96655D01*
X413960Y96764D01*
X413900Y96876D01*
X413844Y96989D01*
X413792Y97104D01*
X413744Y97220D01*
X413699Y97339D01*
X413658Y97458D01*
X413620Y97579D01*
X413587Y97700D01*
X413557Y97823D01*
X413532Y97947D01*
X413510Y98071D01*
X413492Y98196D01*
X413478Y98322D01*
X413468Y98448D01*
X413462Y98574D01*
X413460Y98700D01*
X351960Y37200D02*
X351962Y37326D01*
X351968Y37452D01*
X351978Y37578D01*
X351992Y37704D01*
X352010Y37829D01*
X352032Y37953D01*
X352057Y38077D01*
X352087Y38200D01*
X352120Y38321D01*
X352158Y38442D01*
X352199Y38561D01*
X352244Y38680D01*
X352292Y38796D01*
X352344Y38911D01*
X352400Y39024D01*
X352460Y39136D01*
X352523Y39245D01*
X352589Y39353D01*
X352658Y39458D01*
X352731Y39561D01*
X352808Y39662D01*
X352887Y39760D01*
X352969Y39856D01*
X353055Y39949D01*
X353143Y40040D01*
X353234Y40127D01*
X353328Y40212D01*
X353424Y40293D01*
X353523Y40372D01*
X353624Y40447D01*
X353728Y40519D01*
X353834Y40588D01*
X353942Y40654D01*
X354052Y40716D01*
X354164Y40774D01*
X354277Y40829D01*
X354393Y40880D01*
X354510Y40928D01*
X354628Y40972D01*
X354748Y41012D01*
X354869Y41048D01*
X354991Y41081D01*
X355114Y41110D01*
X355238Y41134D01*
X355362Y41155D01*
X355487Y41172D01*
X355613Y41185D01*
X355739Y41194D01*
X355865Y41199D01*
X355992Y41200D01*
X356118Y41197D01*
X356244Y41190D01*
X356370Y41179D01*
X356495Y41164D01*
X356620Y41145D01*
X356744Y41122D01*
X356868Y41096D01*
X356990Y41065D01*
X357112Y41031D01*
X357232Y40992D01*
X357351Y40950D01*
X357469Y40905D01*
X357585Y40855D01*
X357700Y40802D01*
X357812Y40745D01*
X357923Y40685D01*
X358032Y40621D01*
X358139Y40554D01*
X358244Y40484D01*
X358347Y40410D01*
X358447Y40333D01*
X358545Y40253D01*
X358640Y40170D01*
X358732Y40084D01*
X358822Y39995D01*
X358909Y39903D01*
X358992Y39809D01*
X359073Y39712D01*
X359151Y39612D01*
X359226Y39510D01*
X359297Y39406D01*
X359365Y39299D01*
X359429Y39191D01*
X359490Y39080D01*
X359548Y38968D01*
X359602Y38854D01*
X359652Y38738D01*
X359699Y38621D01*
X359742Y38502D01*
X359781Y38382D01*
X359817Y38261D01*
X359848Y38138D01*
X359876Y38015D01*
X359900Y37891D01*
X359920Y37766D01*
X359936Y37641D01*
X359948Y37515D01*
X359956Y37389D01*
X359960Y37263D01*
X359960Y37137D01*
X359956Y37011D01*
X359948Y36885D01*
X359936Y36759D01*
X359920Y36634D01*
X359900Y36509D01*
X359876Y36385D01*
X359848Y36262D01*
X359817Y36139D01*
X359781Y36018D01*
X359742Y35898D01*
X359699Y35779D01*
X359652Y35662D01*
X359602Y35546D01*
X359548Y35432D01*
X359490Y35320D01*
X359429Y35209D01*
X359365Y35101D01*
X359297Y34994D01*
X359226Y34890D01*
X359151Y34788D01*
X359073Y34688D01*
X358992Y34591D01*
X358909Y34497D01*
X358822Y34405D01*
X358732Y34316D01*
X358640Y34230D01*
X358545Y34147D01*
X358447Y34067D01*
X358347Y33990D01*
X358244Y33916D01*
X358139Y33846D01*
X358032Y33779D01*
X357923Y33715D01*
X357812Y33655D01*
X357700Y33598D01*
X357585Y33545D01*
X357469Y33495D01*
X357351Y33450D01*
X357232Y33408D01*
X357112Y33369D01*
X356990Y33335D01*
X356868Y33304D01*
X356744Y33278D01*
X356620Y33255D01*
X356495Y33236D01*
X356370Y33221D01*
X356244Y33210D01*
X356118Y33203D01*
X355992Y33200D01*
X355865Y33201D01*
X355739Y33206D01*
X355613Y33215D01*
X355487Y33228D01*
X355362Y33245D01*
X355238Y33266D01*
X355114Y33290D01*
X354991Y33319D01*
X354869Y33352D01*
X354748Y33388D01*
X354628Y33428D01*
X354510Y33472D01*
X354393Y33520D01*
X354277Y33571D01*
X354164Y33626D01*
X354052Y33684D01*
X353942Y33746D01*
X353834Y33812D01*
X353728Y33881D01*
X353624Y33953D01*
X353523Y34028D01*
X353424Y34107D01*
X353328Y34188D01*
X353234Y34273D01*
X353143Y34360D01*
X353055Y34451D01*
X352969Y34544D01*
X352887Y34640D01*
X352808Y34738D01*
X352731Y34839D01*
X352658Y34942D01*
X352589Y35047D01*
X352523Y35155D01*
X352460Y35264D01*
X352400Y35376D01*
X352344Y35489D01*
X352292Y35604D01*
X352244Y35720D01*
X352199Y35839D01*
X352158Y35958D01*
X352120Y36079D01*
X352087Y36200D01*
X352057Y36323D01*
X352032Y36447D01*
X352010Y36571D01*
X351992Y36696D01*
X351978Y36822D01*
X351968Y36948D01*
X351962Y37074D01*
X351960Y37200D01*
X8890Y25400D02*
X8895Y25805D01*
X8910Y26210D01*
X8935Y26615D01*
X8970Y27018D01*
X9014Y27421D01*
X9069Y27823D01*
X9133Y28223D01*
X9207Y28621D01*
X9291Y29017D01*
X9385Y29412D01*
X9488Y29803D01*
X9601Y30193D01*
X9723Y30579D01*
X9855Y30962D01*
X9996Y31342D01*
X10147Y31718D01*
X10306Y32091D01*
X10475Y32459D01*
X10653Y32823D01*
X10839Y33183D01*
X11035Y33538D01*
X11239Y33888D01*
X11451Y34233D01*
X11672Y34572D01*
X11902Y34907D01*
X12139Y35235D01*
X12384Y35557D01*
X12638Y35874D01*
X12898Y36184D01*
X13167Y36487D01*
X13443Y36784D01*
X13726Y37074D01*
X14016Y37357D01*
X14313Y37633D01*
X14616Y37902D01*
X14926Y38162D01*
X15243Y38416D01*
X15565Y38661D01*
X15893Y38898D01*
X16228Y39128D01*
X16567Y39349D01*
X16912Y39561D01*
X17262Y39765D01*
X17617Y39961D01*
X17977Y40147D01*
X18341Y40325D01*
X18709Y40494D01*
X19082Y40653D01*
X19458Y40804D01*
X19838Y40945D01*
X20221Y41077D01*
X20607Y41199D01*
X20997Y41312D01*
X21388Y41415D01*
X21783Y41509D01*
X22179Y41593D01*
X22577Y41667D01*
X22977Y41731D01*
X23379Y41786D01*
X23782Y41830D01*
X24185Y41865D01*
X24590Y41890D01*
X24995Y41905D01*
X25400Y41910D01*
X25805Y41905D01*
X26210Y41890D01*
X26615Y41865D01*
X27018Y41830D01*
X27421Y41786D01*
X27823Y41731D01*
X28223Y41667D01*
X28621Y41593D01*
X29017Y41509D01*
X29412Y41415D01*
X29803Y41312D01*
X30193Y41199D01*
X30579Y41077D01*
X30962Y40945D01*
X31342Y40804D01*
X31718Y40653D01*
X32091Y40494D01*
X32459Y40325D01*
X32823Y40147D01*
X33183Y39961D01*
X33538Y39765D01*
X33888Y39561D01*
X34233Y39349D01*
X34572Y39128D01*
X34907Y38898D01*
X35235Y38661D01*
X35557Y38416D01*
X35874Y38162D01*
X36184Y37902D01*
X36487Y37633D01*
X36784Y37357D01*
X37074Y37074D01*
X37357Y36784D01*
X37633Y36487D01*
X37902Y36184D01*
X38162Y35874D01*
X38416Y35557D01*
X38661Y35235D01*
X38898Y34907D01*
X39128Y34572D01*
X39349Y34233D01*
X39561Y33888D01*
X39765Y33538D01*
X39961Y33183D01*
X40147Y32823D01*
X40325Y32459D01*
X40494Y32091D01*
X40653Y31718D01*
X40804Y31342D01*
X40945Y30962D01*
X41077Y30579D01*
X41199Y30193D01*
X41312Y29803D01*
X41415Y29412D01*
X41509Y29017D01*
X41593Y28621D01*
X41667Y28223D01*
X41731Y27823D01*
X41786Y27421D01*
X41830Y27018D01*
X41865Y26615D01*
X41890Y26210D01*
X41905Y25805D01*
X41910Y25400D01*
X41905Y24995D01*
X41890Y24590D01*
X41865Y24185D01*
X41830Y23782D01*
X41786Y23379D01*
X41731Y22977D01*
X41667Y22577D01*
X41593Y22179D01*
X41509Y21783D01*
X41415Y21388D01*
X41312Y20997D01*
X41199Y20607D01*
X41077Y20221D01*
X40945Y19838D01*
X40804Y19458D01*
X40653Y19082D01*
X40494Y18709D01*
X40325Y18341D01*
X40147Y17977D01*
X39961Y17617D01*
X39765Y17262D01*
X39561Y16912D01*
X39349Y16567D01*
X39128Y16228D01*
X38898Y15893D01*
X38661Y15565D01*
X38416Y15243D01*
X38162Y14926D01*
X37902Y14616D01*
X37633Y14313D01*
X37357Y14016D01*
X37074Y13726D01*
X36784Y13443D01*
X36487Y13167D01*
X36184Y12898D01*
X35874Y12638D01*
X35557Y12384D01*
X35235Y12139D01*
X34907Y11902D01*
X34572Y11672D01*
X34233Y11451D01*
X33888Y11239D01*
X33538Y11035D01*
X33183Y10839D01*
X32823Y10653D01*
X32459Y10475D01*
X32091Y10306D01*
X31718Y10147D01*
X31342Y9996D01*
X30962Y9855D01*
X30579Y9723D01*
X30193Y9601D01*
X29803Y9488D01*
X29412Y9385D01*
X29017Y9291D01*
X28621Y9207D01*
X28223Y9133D01*
X27823Y9069D01*
X27421Y9014D01*
X27018Y8970D01*
X26615Y8935D01*
X26210Y8910D01*
X25805Y8895D01*
X25400Y8890D01*
X24995Y8895D01*
X24590Y8910D01*
X24185Y8935D01*
X23782Y8970D01*
X23379Y9014D01*
X22977Y9069D01*
X22577Y9133D01*
X22179Y9207D01*
X21783Y9291D01*
X21388Y9385D01*
X20997Y9488D01*
X20607Y9601D01*
X20221Y9723D01*
X19838Y9855D01*
X19458Y9996D01*
X19082Y10147D01*
X18709Y10306D01*
X18341Y10475D01*
X17977Y10653D01*
X17617Y10839D01*
X17262Y11035D01*
X16912Y11239D01*
X16567Y11451D01*
X16228Y11672D01*
X15893Y11902D01*
X15565Y12139D01*
X15243Y12384D01*
X14926Y12638D01*
X14616Y12898D01*
X14313Y13167D01*
X14016Y13443D01*
X13726Y13726D01*
X13443Y14016D01*
X13167Y14313D01*
X12898Y14616D01*
X12638Y14926D01*
X12384Y15243D01*
X12139Y15565D01*
X11902Y15893D01*
X11672Y16228D01*
X11451Y16567D01*
X11239Y16912D01*
X11035Y17262D01*
X10839Y17617D01*
X10653Y17977D01*
X10475Y18341D01*
X10306Y18709D01*
X10147Y19082D01*
X9996Y19458D01*
X9855Y19838D01*
X9723Y20221D01*
X9601Y20607D01*
X9488Y20997D01*
X9385Y21388D01*
X9291Y21783D01*
X9207Y22179D01*
X9133Y22577D01*
X9069Y22977D01*
X9014Y23379D01*
X8970Y23782D01*
X8935Y24185D01*
X8910Y24590D01*
X8895Y24995D01*
X8890Y25400D01*
X8890Y228600D02*
X8895Y229005D01*
X8910Y229410D01*
X8935Y229815D01*
X8970Y230218D01*
X9014Y230621D01*
X9069Y231023D01*
X9133Y231423D01*
X9207Y231821D01*
X9291Y232217D01*
X9385Y232612D01*
X9488Y233003D01*
X9601Y233393D01*
X9723Y233779D01*
X9855Y234162D01*
X9996Y234542D01*
X10147Y234918D01*
X10306Y235291D01*
X10475Y235659D01*
X10653Y236023D01*
X10839Y236383D01*
X11035Y236738D01*
X11239Y237088D01*
X11451Y237433D01*
X11672Y237772D01*
X11902Y238107D01*
X12139Y238435D01*
X12384Y238757D01*
X12638Y239074D01*
X12898Y239384D01*
X13167Y239687D01*
X13443Y239984D01*
X13726Y240274D01*
X14016Y240557D01*
X14313Y240833D01*
X14616Y241102D01*
X14926Y241362D01*
X15243Y241616D01*
X15565Y241861D01*
X15893Y242098D01*
X16228Y242328D01*
X16567Y242549D01*
X16912Y242761D01*
X17262Y242965D01*
X17617Y243161D01*
X17977Y243347D01*
X18341Y243525D01*
X18709Y243694D01*
X19082Y243853D01*
X19458Y244004D01*
X19838Y244145D01*
X20221Y244277D01*
X20607Y244399D01*
X20997Y244512D01*
X21388Y244615D01*
X21783Y244709D01*
X22179Y244793D01*
X22577Y244867D01*
X22977Y244931D01*
X23379Y244986D01*
X23782Y245030D01*
X24185Y245065D01*
X24590Y245090D01*
X24995Y245105D01*
X25400Y245110D01*
X25805Y245105D01*
X26210Y245090D01*
X26615Y245065D01*
X27018Y245030D01*
X27421Y244986D01*
X27823Y244931D01*
X28223Y244867D01*
X28621Y244793D01*
X29017Y244709D01*
X29412Y244615D01*
X29803Y244512D01*
X30193Y244399D01*
X30579Y244277D01*
X30962Y244145D01*
X31342Y244004D01*
X31718Y243853D01*
X32091Y243694D01*
X32459Y243525D01*
X32823Y243347D01*
X33183Y243161D01*
X33538Y242965D01*
X33888Y242761D01*
X34233Y242549D01*
X34572Y242328D01*
X34907Y242098D01*
X35235Y241861D01*
X35557Y241616D01*
X35874Y241362D01*
X36184Y241102D01*
X36487Y240833D01*
X36784Y240557D01*
X37074Y240274D01*
X37357Y239984D01*
X37633Y239687D01*
X37902Y239384D01*
X38162Y239074D01*
X38416Y238757D01*
X38661Y238435D01*
X38898Y238107D01*
X39128Y237772D01*
X39349Y237433D01*
X39561Y237088D01*
X39765Y236738D01*
X39961Y236383D01*
X40147Y236023D01*
X40325Y235659D01*
X40494Y235291D01*
X40653Y234918D01*
X40804Y234542D01*
X40945Y234162D01*
X41077Y233779D01*
X41199Y233393D01*
X41312Y233003D01*
X41415Y232612D01*
X41509Y232217D01*
X41593Y231821D01*
X41667Y231423D01*
X41731Y231023D01*
X41786Y230621D01*
X41830Y230218D01*
X41865Y229815D01*
X41890Y229410D01*
X41905Y229005D01*
X41910Y228600D01*
X41905Y228195D01*
X41890Y227790D01*
X41865Y227385D01*
X41830Y226982D01*
X41786Y226579D01*
X41731Y226177D01*
X41667Y225777D01*
X41593Y225379D01*
X41509Y224983D01*
X41415Y224588D01*
X41312Y224197D01*
X41199Y223807D01*
X41077Y223421D01*
X40945Y223038D01*
X40804Y222658D01*
X40653Y222282D01*
X40494Y221909D01*
X40325Y221541D01*
X40147Y221177D01*
X39961Y220817D01*
X39765Y220462D01*
X39561Y220112D01*
X39349Y219767D01*
X39128Y219428D01*
X38898Y219093D01*
X38661Y218765D01*
X38416Y218443D01*
X38162Y218126D01*
X37902Y217816D01*
X37633Y217513D01*
X37357Y217216D01*
X37074Y216926D01*
X36784Y216643D01*
X36487Y216367D01*
X36184Y216098D01*
X35874Y215838D01*
X35557Y215584D01*
X35235Y215339D01*
X34907Y215102D01*
X34572Y214872D01*
X34233Y214651D01*
X33888Y214439D01*
X33538Y214235D01*
X33183Y214039D01*
X32823Y213853D01*
X32459Y213675D01*
X32091Y213506D01*
X31718Y213347D01*
X31342Y213196D01*
X30962Y213055D01*
X30579Y212923D01*
X30193Y212801D01*
X29803Y212688D01*
X29412Y212585D01*
X29017Y212491D01*
X28621Y212407D01*
X28223Y212333D01*
X27823Y212269D01*
X27421Y212214D01*
X27018Y212170D01*
X26615Y212135D01*
X26210Y212110D01*
X25805Y212095D01*
X25400Y212090D01*
X24995Y212095D01*
X24590Y212110D01*
X24185Y212135D01*
X23782Y212170D01*
X23379Y212214D01*
X22977Y212269D01*
X22577Y212333D01*
X22179Y212407D01*
X21783Y212491D01*
X21388Y212585D01*
X20997Y212688D01*
X20607Y212801D01*
X20221Y212923D01*
X19838Y213055D01*
X19458Y213196D01*
X19082Y213347D01*
X18709Y213506D01*
X18341Y213675D01*
X17977Y213853D01*
X17617Y214039D01*
X17262Y214235D01*
X16912Y214439D01*
X16567Y214651D01*
X16228Y214872D01*
X15893Y215102D01*
X15565Y215339D01*
X15243Y215584D01*
X14926Y215838D01*
X14616Y216098D01*
X14313Y216367D01*
X14016Y216643D01*
X13726Y216926D01*
X13443Y217216D01*
X13167Y217513D01*
X12898Y217816D01*
X12638Y218126D01*
X12384Y218443D01*
X12139Y218765D01*
X11902Y219093D01*
X11672Y219428D01*
X11451Y219767D01*
X11239Y220112D01*
X11035Y220462D01*
X10839Y220817D01*
X10653Y221177D01*
X10475Y221541D01*
X10306Y221909D01*
X10147Y222282D01*
X9996Y222658D01*
X9855Y223038D01*
X9723Y223421D01*
X9601Y223807D01*
X9488Y224197D01*
X9385Y224588D01*
X9291Y224983D01*
X9207Y225379D01*
X9133Y225777D01*
X9069Y226177D01*
X9014Y226579D01*
X8970Y226982D01*
X8935Y227385D01*
X8910Y227790D01*
X8895Y228195D01*
X8890Y228600D01*
D14*
X0Y0D02*
X444500Y0D01*
X444500Y254000D01*
X127000Y254000D01*
X127000Y127000D01*
X114300Y127000D01*
X114300Y254000D01*
X0Y254000D01*
X0Y0D01*
X48837Y152650D02*
X48415Y152706D01*
X48003Y152816D01*
X47609Y152979D01*
X47241Y153192D01*
X46903Y153451D01*
X46601Y153753D01*
X46342Y154091D01*
X46129Y154459D01*
X45966Y154853D01*
X45856Y155265D01*
X45800Y155687D01*
X45800Y156113D01*
X45856Y156535D01*
X45966Y156947D01*
X46129Y157341D01*
X46342Y157709D01*
X46601Y158047D01*
X46903Y158349D01*
X47241Y158608D01*
X47609Y158821D01*
X48003Y158984D01*
X48415Y159094D01*
X48837Y159150D01*
X49263Y159150D01*
X49685Y159094D01*
X50097Y158984D01*
X50491Y158821D01*
X50859Y158608D01*
X51197Y158349D01*
X51499Y158047D01*
X51758Y157709D01*
X51971Y157341D01*
X52134Y156947D01*
X52244Y156535D01*
X52300Y156113D01*
X52300Y155687D01*
X52244Y155265D01*
X52134Y154853D01*
X51971Y154459D01*
X51758Y154091D01*
X51499Y153753D01*
X51197Y153451D01*
X50859Y153192D01*
X50491Y152979D01*
X50097Y152816D01*
X49685Y152706D01*
X49263Y152650D01*
X48837Y152650D01*
X48837Y94850D02*
X48415Y94906D01*
X48003Y95016D01*
X47609Y95179D01*
X47241Y95392D01*
X46903Y95651D01*
X46601Y95953D01*
X46342Y96291D01*
X46129Y96659D01*
X45966Y97053D01*
X45856Y97465D01*
X45800Y97887D01*
X45800Y98313D01*
X45856Y98735D01*
X45966Y99147D01*
X46129Y99541D01*
X46342Y99909D01*
X46601Y100247D01*
X46903Y100549D01*
X47241Y100808D01*
X47609Y101021D01*
X48003Y101184D01*
X48415Y101294D01*
X48837Y101350D01*
X49263Y101350D01*
X49685Y101294D01*
X50097Y101184D01*
X50491Y101021D01*
X50859Y100808D01*
X51197Y100549D01*
X51499Y100247D01*
X51758Y99909D01*
X51971Y99541D01*
X52134Y99147D01*
X52244Y98735D01*
X52300Y98313D01*
X52300Y97887D01*
X52244Y97465D01*
X52134Y97053D01*
X51971Y96659D01*
X51758Y96291D01*
X51499Y95953D01*
X51197Y95651D01*
X50859Y95392D01*
X50491Y95179D01*
X50097Y95016D01*
X49685Y94906D01*
X49263Y94850D01*
X48837Y94850D01*
X311640Y40627D02*
X311564Y41497D01*
X311412Y42356D01*
X311186Y43200D01*
X310888Y44020D01*
X310519Y44812D01*
X310082Y45568D01*
X309581Y46283D01*
X309020Y46952D01*
X308402Y47570D01*
X307733Y48131D01*
X307018Y48632D01*
X306262Y49069D01*
X305470Y49438D01*
X304650Y49736D01*
X303806Y49962D01*
X302947Y50114D01*
X302077Y50190D01*
X301203Y50190D01*
X300334Y50114D01*
X299474Y49962D01*
X298630Y49736D01*
X297810Y49438D01*
X297018Y49069D01*
X296262Y48632D01*
X295547Y48131D01*
X294878Y47570D01*
X294260Y46952D01*
X293699Y46283D01*
X293198Y45568D01*
X292761Y44812D01*
X292392Y44020D01*
X292094Y43200D01*
X291868Y42356D01*
X291716Y41497D01*
X291640Y40627D01*
X291640Y39753D01*
X291716Y38884D01*
X291868Y38024D01*
X292094Y37180D01*
X292392Y36360D01*
X292761Y35568D01*
X293198Y34812D01*
X293699Y34097D01*
X294260Y33428D01*
X294878Y32810D01*
X295547Y32249D01*
X296262Y31748D01*
X297018Y31311D01*
X297810Y30942D01*
X298630Y30644D01*
X299474Y30418D01*
X300334Y30266D01*
X301203Y30190D01*
X302077Y30190D01*
X302947Y30266D01*
X303806Y30418D01*
X304650Y30644D01*
X305470Y30942D01*
X306262Y31311D01*
X307018Y31748D01*
X307733Y32249D01*
X308402Y32810D01*
X309020Y33428D01*
X309581Y34097D01*
X310082Y34812D01*
X310519Y35568D01*
X310888Y36360D01*
X311186Y37180D01*
X311412Y38024D01*
X311564Y38884D01*
X311640Y39753D01*
X311640Y40627D01*
X418640Y214627D02*
X418564Y215497D01*
X418412Y216356D01*
X418186Y217200D01*
X417888Y218020D01*
X417519Y218812D01*
X417082Y219568D01*
X416581Y220283D01*
X416020Y220952D01*
X415402Y221570D01*
X414733Y222131D01*
X414018Y222632D01*
X413262Y223069D01*
X412470Y223438D01*
X411650Y223736D01*
X410806Y223962D01*
X409947Y224114D01*
X409077Y224190D01*
X408203Y224190D01*
X407334Y224114D01*
X406474Y223962D01*
X405630Y223736D01*
X404810Y223438D01*
X404018Y223069D01*
X403262Y222632D01*
X402547Y222131D01*
X401878Y221570D01*
X401260Y220952D01*
X400699Y220283D01*
X400198Y219568D01*
X399761Y218812D01*
X399392Y218020D01*
X399094Y217200D01*
X398868Y216356D01*
X398716Y215497D01*
X398640Y214627D01*
X398640Y213753D01*
X398716Y212884D01*
X398868Y212024D01*
X399094Y211180D01*
X399392Y210360D01*
X399761Y209568D01*
X400198Y208812D01*
X400699Y208097D01*
X401260Y207428D01*
X401878Y206810D01*
X402547Y206249D01*
X403262Y205748D01*
X404018Y205311D01*
X404810Y204942D01*
X405630Y204644D01*
X406474Y204418D01*
X407334Y204266D01*
X408203Y204190D01*
X409077Y204190D01*
X409947Y204266D01*
X410806Y204418D01*
X411650Y204644D01*
X412470Y204942D01*
X413262Y205311D01*
X414018Y205748D01*
X414733Y206249D01*
X415402Y206810D01*
X416020Y207428D01*
X416581Y208097D01*
X417082Y208812D01*
X417519Y209568D01*
X417888Y210360D01*
X418186Y211180D01*
X418412Y212024D01*
X418564Y212884D01*
X418640Y213753D01*
X418640Y214627D01*
X413460Y98962D02*
X413528Y99482D01*
X413664Y99989D01*
X413865Y100473D01*
X414127Y100927D01*
X414446Y101343D01*
X414817Y101714D01*
X415233Y102033D01*
X415687Y102295D01*
X416171Y102496D01*
X416678Y102632D01*
X417198Y102700D01*
X417722Y102700D01*
X418242Y102632D01*
X418749Y102496D01*
X419233Y102295D01*
X419687Y102033D01*
X420103Y101714D01*
X420474Y101343D01*
X420793Y100927D01*
X421055Y100473D01*
X421256Y99989D01*
X421392Y99482D01*
X421460Y98962D01*
X421460Y98438D01*
X421392Y97918D01*
X421256Y97411D01*
X421055Y96927D01*
X420793Y96473D01*
X420474Y96057D01*
X420103Y95686D01*
X419687Y95367D01*
X419233Y95105D01*
X418749Y94904D01*
X418242Y94768D01*
X417722Y94700D01*
X417198Y94700D01*
X416678Y94768D01*
X416171Y94904D01*
X415687Y95105D01*
X415233Y95367D01*
X414817Y95686D01*
X414446Y96057D01*
X414127Y96473D01*
X413865Y96927D01*
X413664Y97411D01*
X413528Y97918D01*
X413460Y98438D01*
X413460Y98962D01*
X351960Y37462D02*
X352028Y37982D01*
X352164Y38489D01*
X352365Y38973D01*
X352627Y39427D01*
X352946Y39843D01*
X353317Y40214D01*
X353733Y40533D01*
X354187Y40795D01*
X354671Y40996D01*
X355178Y41132D01*
X355698Y41200D01*
X356222Y41200D01*
X356742Y41132D01*
X357249Y40996D01*
X357733Y40795D01*
X358187Y40533D01*
X358603Y40214D01*
X358974Y39843D01*
X359293Y39427D01*
X359555Y38973D01*
X359756Y38489D01*
X359892Y37982D01*
X359960Y37462D01*
X359960Y36938D01*
X359892Y36418D01*
X359756Y35911D01*
X359555Y35427D01*
X359293Y34973D01*
X358974Y34557D01*
X358603Y34186D01*
X358187Y33867D01*
X357733Y33605D01*
X357249Y33404D01*
X356742Y33268D01*
X356222Y33200D01*
X355698Y33200D01*
X355178Y33268D01*
X354671Y33404D01*
X354187Y33605D01*
X353733Y33867D01*
X353317Y34186D01*
X352946Y34557D01*
X352627Y34973D01*
X352365Y35427D01*
X352164Y35911D01*
X352028Y36418D01*
X351960Y36938D01*
X351960Y37462D01*
X41910Y24860D02*
X41839Y23781D01*
X41698Y22709D01*
X41487Y21649D01*
X41208Y20605D01*
X40860Y19581D01*
X40446Y18583D01*
X39968Y17613D01*
X39428Y16677D01*
X38827Y15778D01*
X38169Y14921D01*
X37457Y14108D01*
X36692Y13344D01*
X35879Y12631D01*
X35022Y11973D01*
X34123Y11372D01*
X33187Y10832D01*
X32217Y10354D01*
X31219Y9940D01*
X30195Y9592D01*
X29151Y9313D01*
X28091Y9102D01*
X27019Y8961D01*
X25940Y8890D01*
X24860Y8890D01*
X23781Y8961D01*
X22709Y9102D01*
X21649Y9313D01*
X20605Y9592D01*
X19581Y9940D01*
X18583Y10354D01*
X17613Y10832D01*
X16677Y11372D01*
X15778Y11973D01*
X14921Y12631D01*
X14108Y13344D01*
X13344Y14108D01*
X12631Y14921D01*
X11973Y15778D01*
X11372Y16677D01*
X10832Y17613D01*
X10354Y18583D01*
X9940Y19581D01*
X9592Y20605D01*
X9313Y21649D01*
X9102Y22709D01*
X8961Y23781D01*
X8890Y24860D01*
X8890Y25940D01*
X8961Y27019D01*
X9102Y28091D01*
X9313Y29151D01*
X9592Y30195D01*
X9940Y31219D01*
X10354Y32217D01*
X10832Y33187D01*
X11372Y34123D01*
X11973Y35022D01*
X12631Y35879D01*
X13344Y36692D01*
X14108Y37457D01*
X14921Y38169D01*
X15778Y38827D01*
X16677Y39428D01*
X17613Y39968D01*
X18583Y40446D01*
X19581Y40860D01*
X20605Y41208D01*
X21649Y41487D01*
X22709Y41698D01*
X23781Y41839D01*
X24860Y41910D01*
X25940Y41910D01*
X27019Y41839D01*
X28091Y41698D01*
X29151Y41487D01*
X30195Y41208D01*
X31219Y40860D01*
X32217Y40446D01*
X33187Y39968D01*
X34123Y39428D01*
X35022Y38827D01*
X35879Y38169D01*
X36692Y37457D01*
X37457Y36692D01*
X38169Y35879D01*
X38827Y35022D01*
X39428Y34123D01*
X39968Y33187D01*
X40446Y32217D01*
X40860Y31219D01*
X41208Y30195D01*
X41487Y29151D01*
X41698Y28091D01*
X41839Y27019D01*
X41910Y25940D01*
X41910Y24860D01*
X41910Y228060D02*
X41839Y226981D01*
X41698Y225909D01*
X41487Y224849D01*
X41208Y223805D01*
X40860Y222781D01*
X40446Y221783D01*
X39968Y220813D01*
X39428Y219877D01*
X38827Y218978D01*
X38169Y218121D01*
X37457Y217308D01*
X36692Y216544D01*
X35879Y215831D01*
X35022Y215173D01*
X34123Y214572D01*
X33187Y214032D01*
X32217Y213554D01*
X31219Y213140D01*
X30195Y212792D01*
X29151Y212513D01*
X28091Y212302D01*
X27019Y212161D01*
X25940Y212090D01*
X24860Y212090D01*
X23781Y212161D01*
X22709Y212302D01*
X21649Y212513D01*
X20605Y212792D01*
X19581Y213140D01*
X18583Y213554D01*
X17613Y214032D01*
X16677Y214572D01*
X15778Y215173D01*
X14921Y215831D01*
X14108Y216544D01*
X13344Y217308D01*
X12631Y218121D01*
X11973Y218978D01*
X11372Y219877D01*
X10832Y220813D01*
X10354Y221783D01*
X9940Y222781D01*
X9592Y223805D01*
X9313Y224849D01*
X9102Y225909D01*
X8961Y226981D01*
X8890Y228060D01*
X8890Y229140D01*
X8961Y230219D01*
X9102Y231291D01*
X9313Y232351D01*
X9592Y233395D01*
X9940Y234419D01*
X10354Y235417D01*
X10832Y236387D01*
X11372Y237323D01*
X11973Y238222D01*
X12631Y239079D01*
X13344Y239892D01*
X14108Y240657D01*
X14921Y241369D01*
X15778Y242027D01*
X16677Y242628D01*
X17613Y243168D01*
X18583Y243646D01*
X19581Y244060D01*
X20605Y244408D01*
X21649Y244687D01*
X22709Y244898D01*
X23781Y245039D01*
X24860Y245110D01*
X25940Y245110D01*
X27019Y245039D01*
X28091Y244898D01*
X29151Y244687D01*
X30195Y244408D01*
X31219Y244060D01*
X32217Y243646D01*
X33187Y243168D01*
X34123Y242628D01*
X35022Y242027D01*
X35879Y241369D01*
X36692Y240657D01*
X37457Y239892D01*
X38169Y239079D01*
X38827Y238222D01*
X39428Y237323D01*
X39968Y236387D01*
X40446Y235417D01*
X40860Y234419D01*
X41208Y233395D01*
X41487Y232351D01*
X41698Y231291D01*
X41839Y230219D01*
X41910Y229140D01*
X41910Y228060D01*
M02*
