G04 EAGLE Gerber RS-274X export*
G75*
%MOMM*%
%FSLAX34Y34*%
%LPD*%
%INSoldermask Bottom*%
%IPPOS*%
%AMOC8*
5,1,8,0,0,1.08239X$1,22.5*%
G01*
%ADD10C,0.802400*%
%ADD11C,2.152400*%
%ADD12C,0.952400*%
%ADD13C,3.454400*%
%ADD14C,2.032000*%
%ADD15C,0.251966*%
%ADD16C,0.787400*%
%ADD17C,1.152400*%
%ADD18C,1.270000*%
%ADD19C,1.652400*%

G36*
X77535Y977912D02*
X77535Y977912D01*
X77601Y977914D01*
X77644Y977932D01*
X77691Y977940D01*
X77748Y977974D01*
X77808Y977999D01*
X77843Y978030D01*
X77884Y978055D01*
X77926Y978106D01*
X77974Y978150D01*
X77996Y978192D01*
X78025Y978229D01*
X78046Y978291D01*
X78077Y978350D01*
X78085Y978404D01*
X78097Y978441D01*
X78096Y978481D01*
X78104Y978535D01*
X78104Y982345D01*
X78093Y982410D01*
X78091Y982476D01*
X78073Y982519D01*
X78065Y982566D01*
X78031Y982623D01*
X78006Y982683D01*
X77975Y982718D01*
X77950Y982759D01*
X77899Y982801D01*
X77855Y982849D01*
X77813Y982871D01*
X77776Y982900D01*
X77714Y982921D01*
X77655Y982952D01*
X77601Y982960D01*
X77564Y982972D01*
X77524Y982971D01*
X77470Y982979D01*
X74930Y982979D01*
X74865Y982968D01*
X74799Y982966D01*
X74756Y982948D01*
X74709Y982940D01*
X74652Y982906D01*
X74592Y982881D01*
X74557Y982850D01*
X74516Y982825D01*
X74475Y982774D01*
X74426Y982730D01*
X74404Y982688D01*
X74375Y982651D01*
X74354Y982589D01*
X74323Y982530D01*
X74315Y982476D01*
X74303Y982439D01*
X74303Y982435D01*
X74303Y982434D01*
X74304Y982399D01*
X74296Y982345D01*
X74296Y978535D01*
X74307Y978470D01*
X74309Y978404D01*
X74327Y978361D01*
X74335Y978314D01*
X74369Y978257D01*
X74394Y978197D01*
X74425Y978162D01*
X74450Y978121D01*
X74501Y978080D01*
X74545Y978031D01*
X74587Y978009D01*
X74624Y977980D01*
X74686Y977959D01*
X74745Y977928D01*
X74799Y977920D01*
X74836Y977908D01*
X74876Y977909D01*
X74930Y977901D01*
X77470Y977901D01*
X77535Y977912D01*
G37*
G36*
X976695Y977912D02*
X976695Y977912D01*
X976761Y977914D01*
X976804Y977932D01*
X976851Y977940D01*
X976908Y977974D01*
X976968Y977999D01*
X977003Y978030D01*
X977044Y978055D01*
X977086Y978106D01*
X977134Y978150D01*
X977156Y978192D01*
X977185Y978229D01*
X977206Y978291D01*
X977237Y978350D01*
X977245Y978404D01*
X977257Y978441D01*
X977256Y978481D01*
X977264Y978535D01*
X977264Y982345D01*
X977253Y982410D01*
X977251Y982476D01*
X977233Y982519D01*
X977225Y982566D01*
X977191Y982623D01*
X977166Y982683D01*
X977135Y982718D01*
X977110Y982759D01*
X977059Y982801D01*
X977015Y982849D01*
X976973Y982871D01*
X976936Y982900D01*
X976874Y982921D01*
X976815Y982952D01*
X976761Y982960D01*
X976724Y982972D01*
X976684Y982971D01*
X976630Y982979D01*
X974090Y982979D01*
X974025Y982968D01*
X973959Y982966D01*
X973916Y982948D01*
X973869Y982940D01*
X973812Y982906D01*
X973752Y982881D01*
X973717Y982850D01*
X973676Y982825D01*
X973635Y982774D01*
X973586Y982730D01*
X973564Y982688D01*
X973535Y982651D01*
X973514Y982589D01*
X973483Y982530D01*
X973475Y982476D01*
X973463Y982439D01*
X973463Y982435D01*
X973463Y982434D01*
X973464Y982399D01*
X973456Y982345D01*
X973456Y978535D01*
X973467Y978470D01*
X973469Y978404D01*
X973487Y978361D01*
X973495Y978314D01*
X973529Y978257D01*
X973554Y978197D01*
X973585Y978162D01*
X973610Y978121D01*
X973661Y978080D01*
X973705Y978031D01*
X973747Y978009D01*
X973784Y977980D01*
X973846Y977959D01*
X973905Y977928D01*
X973959Y977920D01*
X973996Y977908D01*
X974036Y977909D01*
X974090Y977901D01*
X976630Y977901D01*
X976695Y977912D01*
G37*
G36*
X527115Y977912D02*
X527115Y977912D01*
X527181Y977914D01*
X527224Y977932D01*
X527271Y977940D01*
X527328Y977974D01*
X527388Y977999D01*
X527423Y978030D01*
X527464Y978055D01*
X527506Y978106D01*
X527554Y978150D01*
X527576Y978192D01*
X527605Y978229D01*
X527626Y978291D01*
X527657Y978350D01*
X527665Y978404D01*
X527677Y978441D01*
X527676Y978481D01*
X527684Y978535D01*
X527684Y982345D01*
X527673Y982410D01*
X527671Y982476D01*
X527653Y982519D01*
X527645Y982566D01*
X527611Y982623D01*
X527586Y982683D01*
X527555Y982718D01*
X527530Y982759D01*
X527479Y982801D01*
X527435Y982849D01*
X527393Y982871D01*
X527356Y982900D01*
X527294Y982921D01*
X527235Y982952D01*
X527181Y982960D01*
X527144Y982972D01*
X527104Y982971D01*
X527050Y982979D01*
X524510Y982979D01*
X524445Y982968D01*
X524379Y982966D01*
X524336Y982948D01*
X524289Y982940D01*
X524232Y982906D01*
X524172Y982881D01*
X524137Y982850D01*
X524096Y982825D01*
X524055Y982774D01*
X524006Y982730D01*
X523984Y982688D01*
X523955Y982651D01*
X523934Y982589D01*
X523903Y982530D01*
X523895Y982476D01*
X523883Y982439D01*
X523883Y982435D01*
X523883Y982434D01*
X523884Y982399D01*
X523876Y982345D01*
X523876Y978535D01*
X523887Y978470D01*
X523889Y978404D01*
X523907Y978361D01*
X523915Y978314D01*
X523949Y978257D01*
X523974Y978197D01*
X524005Y978162D01*
X524030Y978121D01*
X524081Y978080D01*
X524125Y978031D01*
X524167Y978009D01*
X524204Y977980D01*
X524266Y977959D01*
X524325Y977928D01*
X524379Y977920D01*
X524416Y977908D01*
X524456Y977909D01*
X524510Y977901D01*
X527050Y977901D01*
X527115Y977912D01*
G37*
G36*
X976695Y459752D02*
X976695Y459752D01*
X976761Y459754D01*
X976804Y459772D01*
X976851Y459780D01*
X976908Y459814D01*
X976968Y459839D01*
X977003Y459870D01*
X977044Y459895D01*
X977086Y459946D01*
X977134Y459990D01*
X977156Y460032D01*
X977185Y460069D01*
X977206Y460131D01*
X977237Y460190D01*
X977245Y460244D01*
X977257Y460281D01*
X977256Y460321D01*
X977264Y460375D01*
X977264Y464185D01*
X977253Y464250D01*
X977251Y464316D01*
X977233Y464359D01*
X977225Y464406D01*
X977191Y464463D01*
X977166Y464523D01*
X977135Y464558D01*
X977110Y464599D01*
X977059Y464641D01*
X977015Y464689D01*
X976973Y464711D01*
X976936Y464740D01*
X976874Y464761D01*
X976815Y464792D01*
X976761Y464800D01*
X976724Y464812D01*
X976684Y464811D01*
X976630Y464819D01*
X974090Y464819D01*
X974025Y464808D01*
X973959Y464806D01*
X973916Y464788D01*
X973869Y464780D01*
X973812Y464746D01*
X973752Y464721D01*
X973717Y464690D01*
X973676Y464665D01*
X973635Y464614D01*
X973586Y464570D01*
X973564Y464528D01*
X973535Y464491D01*
X973514Y464429D01*
X973483Y464370D01*
X973475Y464316D01*
X973463Y464279D01*
X973463Y464275D01*
X973463Y464274D01*
X973464Y464239D01*
X973456Y464185D01*
X973456Y460375D01*
X973467Y460310D01*
X973469Y460244D01*
X973487Y460201D01*
X973495Y460154D01*
X973529Y460097D01*
X973554Y460037D01*
X973585Y460002D01*
X973610Y459961D01*
X973661Y459920D01*
X973705Y459871D01*
X973747Y459849D01*
X973784Y459820D01*
X973846Y459799D01*
X973905Y459768D01*
X973959Y459760D01*
X973996Y459748D01*
X974036Y459749D01*
X974090Y459741D01*
X976630Y459741D01*
X976695Y459752D01*
G37*
G36*
X527115Y459752D02*
X527115Y459752D01*
X527181Y459754D01*
X527224Y459772D01*
X527271Y459780D01*
X527328Y459814D01*
X527388Y459839D01*
X527423Y459870D01*
X527464Y459895D01*
X527506Y459946D01*
X527554Y459990D01*
X527576Y460032D01*
X527605Y460069D01*
X527626Y460131D01*
X527657Y460190D01*
X527665Y460244D01*
X527677Y460281D01*
X527676Y460321D01*
X527684Y460375D01*
X527684Y464185D01*
X527673Y464250D01*
X527671Y464316D01*
X527653Y464359D01*
X527645Y464406D01*
X527611Y464463D01*
X527586Y464523D01*
X527555Y464558D01*
X527530Y464599D01*
X527479Y464641D01*
X527435Y464689D01*
X527393Y464711D01*
X527356Y464740D01*
X527294Y464761D01*
X527235Y464792D01*
X527181Y464800D01*
X527144Y464812D01*
X527104Y464811D01*
X527050Y464819D01*
X524510Y464819D01*
X524445Y464808D01*
X524379Y464806D01*
X524336Y464788D01*
X524289Y464780D01*
X524232Y464746D01*
X524172Y464721D01*
X524137Y464690D01*
X524096Y464665D01*
X524055Y464614D01*
X524006Y464570D01*
X523984Y464528D01*
X523955Y464491D01*
X523934Y464429D01*
X523903Y464370D01*
X523895Y464316D01*
X523883Y464279D01*
X523883Y464275D01*
X523883Y464274D01*
X523884Y464239D01*
X523876Y464185D01*
X523876Y460375D01*
X523887Y460310D01*
X523889Y460244D01*
X523907Y460201D01*
X523915Y460154D01*
X523949Y460097D01*
X523974Y460037D01*
X524005Y460002D01*
X524030Y459961D01*
X524081Y459920D01*
X524125Y459871D01*
X524167Y459849D01*
X524204Y459820D01*
X524266Y459799D01*
X524325Y459768D01*
X524379Y459760D01*
X524416Y459748D01*
X524456Y459749D01*
X524510Y459741D01*
X527050Y459741D01*
X527115Y459752D01*
G37*
G36*
X77535Y459752D02*
X77535Y459752D01*
X77601Y459754D01*
X77644Y459772D01*
X77691Y459780D01*
X77748Y459814D01*
X77808Y459839D01*
X77843Y459870D01*
X77884Y459895D01*
X77926Y459946D01*
X77974Y459990D01*
X77996Y460032D01*
X78025Y460069D01*
X78046Y460131D01*
X78077Y460190D01*
X78085Y460244D01*
X78097Y460281D01*
X78096Y460321D01*
X78104Y460375D01*
X78104Y464185D01*
X78093Y464250D01*
X78091Y464316D01*
X78073Y464359D01*
X78065Y464406D01*
X78031Y464463D01*
X78006Y464523D01*
X77975Y464558D01*
X77950Y464599D01*
X77899Y464641D01*
X77855Y464689D01*
X77813Y464711D01*
X77776Y464740D01*
X77714Y464761D01*
X77655Y464792D01*
X77601Y464800D01*
X77564Y464812D01*
X77524Y464811D01*
X77470Y464819D01*
X74930Y464819D01*
X74865Y464808D01*
X74799Y464806D01*
X74756Y464788D01*
X74709Y464780D01*
X74652Y464746D01*
X74592Y464721D01*
X74557Y464690D01*
X74516Y464665D01*
X74475Y464614D01*
X74426Y464570D01*
X74404Y464528D01*
X74375Y464491D01*
X74354Y464429D01*
X74323Y464370D01*
X74315Y464316D01*
X74303Y464279D01*
X74303Y464275D01*
X74303Y464274D01*
X74304Y464239D01*
X74296Y464185D01*
X74296Y460375D01*
X74307Y460310D01*
X74309Y460244D01*
X74327Y460201D01*
X74335Y460154D01*
X74369Y460097D01*
X74394Y460037D01*
X74425Y460002D01*
X74450Y459961D01*
X74501Y459920D01*
X74545Y459871D01*
X74587Y459849D01*
X74624Y459820D01*
X74686Y459799D01*
X74745Y459768D01*
X74799Y459760D01*
X74836Y459748D01*
X74876Y459749D01*
X74930Y459741D01*
X77470Y459741D01*
X77535Y459752D01*
G37*
G36*
X527115Y200672D02*
X527115Y200672D01*
X527181Y200674D01*
X527224Y200692D01*
X527271Y200700D01*
X527328Y200734D01*
X527388Y200759D01*
X527423Y200790D01*
X527464Y200815D01*
X527506Y200866D01*
X527554Y200910D01*
X527576Y200952D01*
X527605Y200989D01*
X527626Y201051D01*
X527657Y201110D01*
X527665Y201164D01*
X527677Y201201D01*
X527676Y201241D01*
X527684Y201295D01*
X527684Y205105D01*
X527673Y205170D01*
X527671Y205236D01*
X527653Y205279D01*
X527645Y205326D01*
X527611Y205383D01*
X527586Y205443D01*
X527555Y205478D01*
X527530Y205519D01*
X527479Y205561D01*
X527435Y205609D01*
X527393Y205631D01*
X527356Y205660D01*
X527294Y205681D01*
X527235Y205712D01*
X527181Y205720D01*
X527144Y205732D01*
X527104Y205731D01*
X527050Y205739D01*
X524510Y205739D01*
X524445Y205728D01*
X524379Y205726D01*
X524336Y205708D01*
X524289Y205700D01*
X524232Y205666D01*
X524172Y205641D01*
X524137Y205610D01*
X524096Y205585D01*
X524055Y205534D01*
X524006Y205490D01*
X523984Y205448D01*
X523955Y205411D01*
X523934Y205349D01*
X523903Y205290D01*
X523895Y205236D01*
X523883Y205199D01*
X523883Y205195D01*
X523883Y205194D01*
X523884Y205159D01*
X523876Y205105D01*
X523876Y201295D01*
X523887Y201230D01*
X523889Y201164D01*
X523907Y201121D01*
X523915Y201074D01*
X523949Y201017D01*
X523974Y200957D01*
X524005Y200922D01*
X524030Y200881D01*
X524081Y200840D01*
X524125Y200791D01*
X524167Y200769D01*
X524204Y200740D01*
X524266Y200719D01*
X524325Y200688D01*
X524379Y200680D01*
X524416Y200668D01*
X524456Y200669D01*
X524510Y200661D01*
X527050Y200661D01*
X527115Y200672D01*
G37*
G36*
X976695Y200672D02*
X976695Y200672D01*
X976761Y200674D01*
X976804Y200692D01*
X976851Y200700D01*
X976908Y200734D01*
X976968Y200759D01*
X977003Y200790D01*
X977044Y200815D01*
X977086Y200866D01*
X977134Y200910D01*
X977156Y200952D01*
X977185Y200989D01*
X977206Y201051D01*
X977237Y201110D01*
X977245Y201164D01*
X977257Y201201D01*
X977256Y201241D01*
X977264Y201295D01*
X977264Y205105D01*
X977253Y205170D01*
X977251Y205236D01*
X977233Y205279D01*
X977225Y205326D01*
X977191Y205383D01*
X977166Y205443D01*
X977135Y205478D01*
X977110Y205519D01*
X977059Y205561D01*
X977015Y205609D01*
X976973Y205631D01*
X976936Y205660D01*
X976874Y205681D01*
X976815Y205712D01*
X976761Y205720D01*
X976724Y205732D01*
X976684Y205731D01*
X976630Y205739D01*
X974090Y205739D01*
X974025Y205728D01*
X973959Y205726D01*
X973916Y205708D01*
X973869Y205700D01*
X973812Y205666D01*
X973752Y205641D01*
X973717Y205610D01*
X973676Y205585D01*
X973635Y205534D01*
X973586Y205490D01*
X973564Y205448D01*
X973535Y205411D01*
X973514Y205349D01*
X973483Y205290D01*
X973475Y205236D01*
X973463Y205199D01*
X973463Y205195D01*
X973463Y205194D01*
X973464Y205159D01*
X973456Y205105D01*
X973456Y201295D01*
X973467Y201230D01*
X973469Y201164D01*
X973487Y201121D01*
X973495Y201074D01*
X973529Y201017D01*
X973554Y200957D01*
X973585Y200922D01*
X973610Y200881D01*
X973661Y200840D01*
X973705Y200791D01*
X973747Y200769D01*
X973784Y200740D01*
X973846Y200719D01*
X973905Y200688D01*
X973959Y200680D01*
X973996Y200668D01*
X974036Y200669D01*
X974090Y200661D01*
X976630Y200661D01*
X976695Y200672D01*
G37*
G36*
X77535Y200672D02*
X77535Y200672D01*
X77601Y200674D01*
X77644Y200692D01*
X77691Y200700D01*
X77748Y200734D01*
X77808Y200759D01*
X77843Y200790D01*
X77884Y200815D01*
X77926Y200866D01*
X77974Y200910D01*
X77996Y200952D01*
X78025Y200989D01*
X78046Y201051D01*
X78077Y201110D01*
X78085Y201164D01*
X78097Y201201D01*
X78096Y201241D01*
X78104Y201295D01*
X78104Y205105D01*
X78093Y205170D01*
X78091Y205236D01*
X78073Y205279D01*
X78065Y205326D01*
X78031Y205383D01*
X78006Y205443D01*
X77975Y205478D01*
X77950Y205519D01*
X77899Y205561D01*
X77855Y205609D01*
X77813Y205631D01*
X77776Y205660D01*
X77714Y205681D01*
X77655Y205712D01*
X77601Y205720D01*
X77564Y205732D01*
X77524Y205731D01*
X77470Y205739D01*
X74930Y205739D01*
X74865Y205728D01*
X74799Y205726D01*
X74756Y205708D01*
X74709Y205700D01*
X74652Y205666D01*
X74592Y205641D01*
X74557Y205610D01*
X74516Y205585D01*
X74475Y205534D01*
X74426Y205490D01*
X74404Y205448D01*
X74375Y205411D01*
X74354Y205349D01*
X74323Y205290D01*
X74315Y205236D01*
X74303Y205199D01*
X74303Y205195D01*
X74303Y205194D01*
X74304Y205159D01*
X74296Y205105D01*
X74296Y201295D01*
X74307Y201230D01*
X74309Y201164D01*
X74327Y201121D01*
X74335Y201074D01*
X74369Y201017D01*
X74394Y200957D01*
X74425Y200922D01*
X74450Y200881D01*
X74501Y200840D01*
X74545Y200791D01*
X74587Y200769D01*
X74624Y200740D01*
X74686Y200719D01*
X74745Y200688D01*
X74799Y200680D01*
X74836Y200668D01*
X74876Y200669D01*
X74930Y200661D01*
X77470Y200661D01*
X77535Y200672D01*
G37*
G36*
X527115Y718832D02*
X527115Y718832D01*
X527181Y718834D01*
X527224Y718852D01*
X527271Y718860D01*
X527328Y718894D01*
X527388Y718919D01*
X527423Y718950D01*
X527464Y718975D01*
X527506Y719026D01*
X527554Y719070D01*
X527576Y719112D01*
X527605Y719149D01*
X527626Y719211D01*
X527657Y719270D01*
X527665Y719324D01*
X527677Y719361D01*
X527676Y719401D01*
X527684Y719455D01*
X527684Y723265D01*
X527673Y723330D01*
X527671Y723396D01*
X527653Y723439D01*
X527645Y723486D01*
X527611Y723543D01*
X527586Y723603D01*
X527555Y723638D01*
X527530Y723679D01*
X527479Y723721D01*
X527435Y723769D01*
X527393Y723791D01*
X527356Y723820D01*
X527294Y723841D01*
X527235Y723872D01*
X527181Y723880D01*
X527144Y723892D01*
X527104Y723891D01*
X527050Y723899D01*
X524510Y723899D01*
X524445Y723888D01*
X524379Y723886D01*
X524336Y723868D01*
X524289Y723860D01*
X524232Y723826D01*
X524172Y723801D01*
X524137Y723770D01*
X524096Y723745D01*
X524055Y723694D01*
X524006Y723650D01*
X523984Y723608D01*
X523955Y723571D01*
X523934Y723509D01*
X523903Y723450D01*
X523895Y723396D01*
X523883Y723359D01*
X523883Y723355D01*
X523883Y723354D01*
X523884Y723319D01*
X523876Y723265D01*
X523876Y719455D01*
X523887Y719390D01*
X523889Y719324D01*
X523907Y719281D01*
X523915Y719234D01*
X523949Y719177D01*
X523974Y719117D01*
X524005Y719082D01*
X524030Y719041D01*
X524081Y719000D01*
X524125Y718951D01*
X524167Y718929D01*
X524204Y718900D01*
X524266Y718879D01*
X524325Y718848D01*
X524379Y718840D01*
X524416Y718828D01*
X524456Y718829D01*
X524510Y718821D01*
X527050Y718821D01*
X527115Y718832D01*
G37*
G36*
X976695Y718832D02*
X976695Y718832D01*
X976761Y718834D01*
X976804Y718852D01*
X976851Y718860D01*
X976908Y718894D01*
X976968Y718919D01*
X977003Y718950D01*
X977044Y718975D01*
X977086Y719026D01*
X977134Y719070D01*
X977156Y719112D01*
X977185Y719149D01*
X977206Y719211D01*
X977237Y719270D01*
X977245Y719324D01*
X977257Y719361D01*
X977256Y719401D01*
X977264Y719455D01*
X977264Y723265D01*
X977253Y723330D01*
X977251Y723396D01*
X977233Y723439D01*
X977225Y723486D01*
X977191Y723543D01*
X977166Y723603D01*
X977135Y723638D01*
X977110Y723679D01*
X977059Y723721D01*
X977015Y723769D01*
X976973Y723791D01*
X976936Y723820D01*
X976874Y723841D01*
X976815Y723872D01*
X976761Y723880D01*
X976724Y723892D01*
X976684Y723891D01*
X976630Y723899D01*
X974090Y723899D01*
X974025Y723888D01*
X973959Y723886D01*
X973916Y723868D01*
X973869Y723860D01*
X973812Y723826D01*
X973752Y723801D01*
X973717Y723770D01*
X973676Y723745D01*
X973635Y723694D01*
X973586Y723650D01*
X973564Y723608D01*
X973535Y723571D01*
X973514Y723509D01*
X973483Y723450D01*
X973475Y723396D01*
X973463Y723359D01*
X973463Y723355D01*
X973463Y723354D01*
X973464Y723319D01*
X973456Y723265D01*
X973456Y719455D01*
X973467Y719390D01*
X973469Y719324D01*
X973487Y719281D01*
X973495Y719234D01*
X973529Y719177D01*
X973554Y719117D01*
X973585Y719082D01*
X973610Y719041D01*
X973661Y719000D01*
X973705Y718951D01*
X973747Y718929D01*
X973784Y718900D01*
X973846Y718879D01*
X973905Y718848D01*
X973959Y718840D01*
X973996Y718828D01*
X974036Y718829D01*
X974090Y718821D01*
X976630Y718821D01*
X976695Y718832D01*
G37*
G36*
X77535Y718832D02*
X77535Y718832D01*
X77601Y718834D01*
X77644Y718852D01*
X77691Y718860D01*
X77748Y718894D01*
X77808Y718919D01*
X77843Y718950D01*
X77884Y718975D01*
X77926Y719026D01*
X77974Y719070D01*
X77996Y719112D01*
X78025Y719149D01*
X78046Y719211D01*
X78077Y719270D01*
X78085Y719324D01*
X78097Y719361D01*
X78096Y719401D01*
X78104Y719455D01*
X78104Y723265D01*
X78093Y723330D01*
X78091Y723396D01*
X78073Y723439D01*
X78065Y723486D01*
X78031Y723543D01*
X78006Y723603D01*
X77975Y723638D01*
X77950Y723679D01*
X77899Y723721D01*
X77855Y723769D01*
X77813Y723791D01*
X77776Y723820D01*
X77714Y723841D01*
X77655Y723872D01*
X77601Y723880D01*
X77564Y723892D01*
X77524Y723891D01*
X77470Y723899D01*
X74930Y723899D01*
X74865Y723888D01*
X74799Y723886D01*
X74756Y723868D01*
X74709Y723860D01*
X74652Y723826D01*
X74592Y723801D01*
X74557Y723770D01*
X74516Y723745D01*
X74475Y723694D01*
X74426Y723650D01*
X74404Y723608D01*
X74375Y723571D01*
X74354Y723509D01*
X74323Y723450D01*
X74315Y723396D01*
X74303Y723359D01*
X74303Y723355D01*
X74303Y723354D01*
X74304Y723319D01*
X74296Y723265D01*
X74296Y719455D01*
X74307Y719390D01*
X74309Y719324D01*
X74327Y719281D01*
X74335Y719234D01*
X74369Y719177D01*
X74394Y719117D01*
X74425Y719082D01*
X74450Y719041D01*
X74501Y719000D01*
X74545Y718951D01*
X74587Y718929D01*
X74624Y718900D01*
X74686Y718879D01*
X74745Y718848D01*
X74799Y718840D01*
X74836Y718828D01*
X74876Y718829D01*
X74930Y718821D01*
X77470Y718821D01*
X77535Y718832D01*
G37*
G36*
X264860Y901077D02*
X264860Y901077D01*
X264926Y901079D01*
X264969Y901097D01*
X265016Y901105D01*
X265073Y901139D01*
X265133Y901164D01*
X265168Y901195D01*
X265209Y901220D01*
X265251Y901271D01*
X265299Y901315D01*
X265321Y901357D01*
X265350Y901394D01*
X265371Y901456D01*
X265402Y901515D01*
X265410Y901569D01*
X265422Y901606D01*
X265421Y901646D01*
X265429Y901700D01*
X265429Y904240D01*
X265418Y904305D01*
X265416Y904371D01*
X265398Y904414D01*
X265390Y904461D01*
X265356Y904518D01*
X265331Y904578D01*
X265300Y904613D01*
X265275Y904654D01*
X265224Y904696D01*
X265180Y904744D01*
X265138Y904766D01*
X265101Y904795D01*
X265039Y904816D01*
X264980Y904847D01*
X264926Y904855D01*
X264889Y904867D01*
X264849Y904866D01*
X264795Y904874D01*
X260985Y904874D01*
X260920Y904863D01*
X260854Y904861D01*
X260811Y904843D01*
X260764Y904835D01*
X260707Y904801D01*
X260647Y904776D01*
X260612Y904745D01*
X260571Y904720D01*
X260530Y904669D01*
X260481Y904625D01*
X260459Y904583D01*
X260430Y904546D01*
X260409Y904484D01*
X260378Y904425D01*
X260370Y904371D01*
X260358Y904334D01*
X260358Y904331D01*
X260359Y904294D01*
X260351Y904240D01*
X260351Y901700D01*
X260362Y901635D01*
X260364Y901569D01*
X260382Y901526D01*
X260390Y901479D01*
X260424Y901422D01*
X260449Y901362D01*
X260480Y901327D01*
X260505Y901286D01*
X260556Y901245D01*
X260600Y901196D01*
X260642Y901174D01*
X260679Y901145D01*
X260741Y901124D01*
X260800Y901093D01*
X260854Y901085D01*
X260891Y901073D01*
X260931Y901074D01*
X260985Y901066D01*
X264795Y901066D01*
X264860Y901077D01*
G37*
G36*
X1164020Y901077D02*
X1164020Y901077D01*
X1164086Y901079D01*
X1164129Y901097D01*
X1164176Y901105D01*
X1164233Y901139D01*
X1164293Y901164D01*
X1164328Y901195D01*
X1164369Y901220D01*
X1164411Y901271D01*
X1164459Y901315D01*
X1164481Y901357D01*
X1164510Y901394D01*
X1164531Y901456D01*
X1164562Y901515D01*
X1164570Y901569D01*
X1164582Y901606D01*
X1164581Y901646D01*
X1164589Y901700D01*
X1164589Y904240D01*
X1164578Y904305D01*
X1164576Y904371D01*
X1164558Y904414D01*
X1164550Y904461D01*
X1164516Y904518D01*
X1164491Y904578D01*
X1164460Y904613D01*
X1164435Y904654D01*
X1164384Y904696D01*
X1164340Y904744D01*
X1164298Y904766D01*
X1164261Y904795D01*
X1164199Y904816D01*
X1164140Y904847D01*
X1164086Y904855D01*
X1164049Y904867D01*
X1164009Y904866D01*
X1163955Y904874D01*
X1160145Y904874D01*
X1160080Y904863D01*
X1160014Y904861D01*
X1159971Y904843D01*
X1159924Y904835D01*
X1159867Y904801D01*
X1159807Y904776D01*
X1159772Y904745D01*
X1159731Y904720D01*
X1159690Y904669D01*
X1159641Y904625D01*
X1159619Y904583D01*
X1159590Y904546D01*
X1159569Y904484D01*
X1159538Y904425D01*
X1159530Y904371D01*
X1159518Y904334D01*
X1159518Y904331D01*
X1159519Y904294D01*
X1159511Y904240D01*
X1159511Y901700D01*
X1159522Y901635D01*
X1159524Y901569D01*
X1159542Y901526D01*
X1159550Y901479D01*
X1159584Y901422D01*
X1159609Y901362D01*
X1159640Y901327D01*
X1159665Y901286D01*
X1159716Y901245D01*
X1159760Y901196D01*
X1159802Y901174D01*
X1159839Y901145D01*
X1159901Y901124D01*
X1159960Y901093D01*
X1160014Y901085D01*
X1160051Y901073D01*
X1160091Y901074D01*
X1160145Y901066D01*
X1163955Y901066D01*
X1164020Y901077D01*
G37*
G36*
X714440Y901077D02*
X714440Y901077D01*
X714506Y901079D01*
X714549Y901097D01*
X714596Y901105D01*
X714653Y901139D01*
X714713Y901164D01*
X714748Y901195D01*
X714789Y901220D01*
X714831Y901271D01*
X714879Y901315D01*
X714901Y901357D01*
X714930Y901394D01*
X714951Y901456D01*
X714982Y901515D01*
X714990Y901569D01*
X715002Y901606D01*
X715001Y901646D01*
X715009Y901700D01*
X715009Y904240D01*
X714998Y904305D01*
X714996Y904371D01*
X714978Y904414D01*
X714970Y904461D01*
X714936Y904518D01*
X714911Y904578D01*
X714880Y904613D01*
X714855Y904654D01*
X714804Y904696D01*
X714760Y904744D01*
X714718Y904766D01*
X714681Y904795D01*
X714619Y904816D01*
X714560Y904847D01*
X714506Y904855D01*
X714469Y904867D01*
X714429Y904866D01*
X714375Y904874D01*
X710565Y904874D01*
X710500Y904863D01*
X710434Y904861D01*
X710391Y904843D01*
X710344Y904835D01*
X710287Y904801D01*
X710227Y904776D01*
X710192Y904745D01*
X710151Y904720D01*
X710110Y904669D01*
X710061Y904625D01*
X710039Y904583D01*
X710010Y904546D01*
X709989Y904484D01*
X709958Y904425D01*
X709950Y904371D01*
X709938Y904334D01*
X709938Y904331D01*
X709939Y904294D01*
X709931Y904240D01*
X709931Y901700D01*
X709942Y901635D01*
X709944Y901569D01*
X709962Y901526D01*
X709970Y901479D01*
X710004Y901422D01*
X710029Y901362D01*
X710060Y901327D01*
X710085Y901286D01*
X710136Y901245D01*
X710180Y901196D01*
X710222Y901174D01*
X710259Y901145D01*
X710321Y901124D01*
X710380Y901093D01*
X710434Y901085D01*
X710471Y901073D01*
X710511Y901074D01*
X710565Y901066D01*
X714375Y901066D01*
X714440Y901077D01*
G37*
G36*
X1164020Y873137D02*
X1164020Y873137D01*
X1164086Y873139D01*
X1164129Y873157D01*
X1164176Y873165D01*
X1164233Y873199D01*
X1164293Y873224D01*
X1164328Y873255D01*
X1164369Y873280D01*
X1164411Y873331D01*
X1164459Y873375D01*
X1164481Y873417D01*
X1164510Y873454D01*
X1164531Y873516D01*
X1164562Y873575D01*
X1164570Y873629D01*
X1164582Y873666D01*
X1164581Y873706D01*
X1164589Y873760D01*
X1164589Y876300D01*
X1164578Y876365D01*
X1164576Y876431D01*
X1164558Y876474D01*
X1164550Y876521D01*
X1164516Y876578D01*
X1164491Y876638D01*
X1164460Y876673D01*
X1164435Y876714D01*
X1164384Y876756D01*
X1164340Y876804D01*
X1164298Y876826D01*
X1164261Y876855D01*
X1164199Y876876D01*
X1164140Y876907D01*
X1164086Y876915D01*
X1164049Y876927D01*
X1164009Y876926D01*
X1163955Y876934D01*
X1160145Y876934D01*
X1160080Y876923D01*
X1160014Y876921D01*
X1159971Y876903D01*
X1159924Y876895D01*
X1159867Y876861D01*
X1159807Y876836D01*
X1159772Y876805D01*
X1159731Y876780D01*
X1159690Y876729D01*
X1159641Y876685D01*
X1159619Y876643D01*
X1159590Y876606D01*
X1159569Y876544D01*
X1159538Y876485D01*
X1159530Y876431D01*
X1159518Y876394D01*
X1159518Y876391D01*
X1159519Y876354D01*
X1159511Y876300D01*
X1159511Y873760D01*
X1159522Y873695D01*
X1159524Y873629D01*
X1159542Y873586D01*
X1159550Y873539D01*
X1159584Y873482D01*
X1159609Y873422D01*
X1159640Y873387D01*
X1159665Y873346D01*
X1159716Y873305D01*
X1159760Y873256D01*
X1159802Y873234D01*
X1159839Y873205D01*
X1159901Y873184D01*
X1159960Y873153D01*
X1160014Y873145D01*
X1160051Y873133D01*
X1160091Y873134D01*
X1160145Y873126D01*
X1163955Y873126D01*
X1164020Y873137D01*
G37*
G36*
X264860Y873137D02*
X264860Y873137D01*
X264926Y873139D01*
X264969Y873157D01*
X265016Y873165D01*
X265073Y873199D01*
X265133Y873224D01*
X265168Y873255D01*
X265209Y873280D01*
X265251Y873331D01*
X265299Y873375D01*
X265321Y873417D01*
X265350Y873454D01*
X265371Y873516D01*
X265402Y873575D01*
X265410Y873629D01*
X265422Y873666D01*
X265421Y873706D01*
X265429Y873760D01*
X265429Y876300D01*
X265418Y876365D01*
X265416Y876431D01*
X265398Y876474D01*
X265390Y876521D01*
X265356Y876578D01*
X265331Y876638D01*
X265300Y876673D01*
X265275Y876714D01*
X265224Y876756D01*
X265180Y876804D01*
X265138Y876826D01*
X265101Y876855D01*
X265039Y876876D01*
X264980Y876907D01*
X264926Y876915D01*
X264889Y876927D01*
X264849Y876926D01*
X264795Y876934D01*
X260985Y876934D01*
X260920Y876923D01*
X260854Y876921D01*
X260811Y876903D01*
X260764Y876895D01*
X260707Y876861D01*
X260647Y876836D01*
X260612Y876805D01*
X260571Y876780D01*
X260530Y876729D01*
X260481Y876685D01*
X260459Y876643D01*
X260430Y876606D01*
X260409Y876544D01*
X260378Y876485D01*
X260370Y876431D01*
X260358Y876394D01*
X260358Y876391D01*
X260359Y876354D01*
X260351Y876300D01*
X260351Y873760D01*
X260362Y873695D01*
X260364Y873629D01*
X260382Y873586D01*
X260390Y873539D01*
X260424Y873482D01*
X260449Y873422D01*
X260480Y873387D01*
X260505Y873346D01*
X260556Y873305D01*
X260600Y873256D01*
X260642Y873234D01*
X260679Y873205D01*
X260741Y873184D01*
X260800Y873153D01*
X260854Y873145D01*
X260891Y873133D01*
X260931Y873134D01*
X260985Y873126D01*
X264795Y873126D01*
X264860Y873137D01*
G37*
G36*
X714440Y873137D02*
X714440Y873137D01*
X714506Y873139D01*
X714549Y873157D01*
X714596Y873165D01*
X714653Y873199D01*
X714713Y873224D01*
X714748Y873255D01*
X714789Y873280D01*
X714831Y873331D01*
X714879Y873375D01*
X714901Y873417D01*
X714930Y873454D01*
X714951Y873516D01*
X714982Y873575D01*
X714990Y873629D01*
X715002Y873666D01*
X715001Y873706D01*
X715009Y873760D01*
X715009Y876300D01*
X714998Y876365D01*
X714996Y876431D01*
X714978Y876474D01*
X714970Y876521D01*
X714936Y876578D01*
X714911Y876638D01*
X714880Y876673D01*
X714855Y876714D01*
X714804Y876756D01*
X714760Y876804D01*
X714718Y876826D01*
X714681Y876855D01*
X714619Y876876D01*
X714560Y876907D01*
X714506Y876915D01*
X714469Y876927D01*
X714429Y876926D01*
X714375Y876934D01*
X710565Y876934D01*
X710500Y876923D01*
X710434Y876921D01*
X710391Y876903D01*
X710344Y876895D01*
X710287Y876861D01*
X710227Y876836D01*
X710192Y876805D01*
X710151Y876780D01*
X710110Y876729D01*
X710061Y876685D01*
X710039Y876643D01*
X710010Y876606D01*
X709989Y876544D01*
X709958Y876485D01*
X709950Y876431D01*
X709938Y876394D01*
X709938Y876391D01*
X709939Y876354D01*
X709931Y876300D01*
X709931Y873760D01*
X709942Y873695D01*
X709944Y873629D01*
X709962Y873586D01*
X709970Y873539D01*
X710004Y873482D01*
X710029Y873422D01*
X710060Y873387D01*
X710085Y873346D01*
X710136Y873305D01*
X710180Y873256D01*
X710222Y873234D01*
X710259Y873205D01*
X710321Y873184D01*
X710380Y873153D01*
X710434Y873145D01*
X710471Y873133D01*
X710511Y873134D01*
X710565Y873126D01*
X714375Y873126D01*
X714440Y873137D01*
G37*
G36*
X1164020Y641997D02*
X1164020Y641997D01*
X1164086Y641999D01*
X1164129Y642017D01*
X1164176Y642025D01*
X1164233Y642059D01*
X1164293Y642084D01*
X1164328Y642115D01*
X1164369Y642140D01*
X1164411Y642191D01*
X1164459Y642235D01*
X1164481Y642277D01*
X1164510Y642314D01*
X1164531Y642376D01*
X1164562Y642435D01*
X1164570Y642489D01*
X1164582Y642526D01*
X1164581Y642566D01*
X1164589Y642620D01*
X1164589Y645160D01*
X1164578Y645225D01*
X1164576Y645291D01*
X1164558Y645334D01*
X1164550Y645381D01*
X1164516Y645438D01*
X1164491Y645498D01*
X1164460Y645533D01*
X1164435Y645574D01*
X1164384Y645616D01*
X1164340Y645664D01*
X1164298Y645686D01*
X1164261Y645715D01*
X1164199Y645736D01*
X1164140Y645767D01*
X1164086Y645775D01*
X1164049Y645787D01*
X1164009Y645786D01*
X1163955Y645794D01*
X1160145Y645794D01*
X1160080Y645783D01*
X1160014Y645781D01*
X1159971Y645763D01*
X1159924Y645755D01*
X1159867Y645721D01*
X1159807Y645696D01*
X1159772Y645665D01*
X1159731Y645640D01*
X1159690Y645589D01*
X1159641Y645545D01*
X1159619Y645503D01*
X1159590Y645466D01*
X1159569Y645404D01*
X1159538Y645345D01*
X1159530Y645291D01*
X1159518Y645254D01*
X1159518Y645251D01*
X1159519Y645214D01*
X1159511Y645160D01*
X1159511Y642620D01*
X1159522Y642555D01*
X1159524Y642489D01*
X1159542Y642446D01*
X1159550Y642399D01*
X1159584Y642342D01*
X1159609Y642282D01*
X1159640Y642247D01*
X1159665Y642206D01*
X1159716Y642165D01*
X1159760Y642116D01*
X1159802Y642094D01*
X1159839Y642065D01*
X1159901Y642044D01*
X1159960Y642013D01*
X1160014Y642005D01*
X1160051Y641993D01*
X1160091Y641994D01*
X1160145Y641986D01*
X1163955Y641986D01*
X1164020Y641997D01*
G37*
G36*
X264860Y641997D02*
X264860Y641997D01*
X264926Y641999D01*
X264969Y642017D01*
X265016Y642025D01*
X265073Y642059D01*
X265133Y642084D01*
X265168Y642115D01*
X265209Y642140D01*
X265251Y642191D01*
X265299Y642235D01*
X265321Y642277D01*
X265350Y642314D01*
X265371Y642376D01*
X265402Y642435D01*
X265410Y642489D01*
X265422Y642526D01*
X265421Y642566D01*
X265429Y642620D01*
X265429Y645160D01*
X265418Y645225D01*
X265416Y645291D01*
X265398Y645334D01*
X265390Y645381D01*
X265356Y645438D01*
X265331Y645498D01*
X265300Y645533D01*
X265275Y645574D01*
X265224Y645616D01*
X265180Y645664D01*
X265138Y645686D01*
X265101Y645715D01*
X265039Y645736D01*
X264980Y645767D01*
X264926Y645775D01*
X264889Y645787D01*
X264849Y645786D01*
X264795Y645794D01*
X260985Y645794D01*
X260920Y645783D01*
X260854Y645781D01*
X260811Y645763D01*
X260764Y645755D01*
X260707Y645721D01*
X260647Y645696D01*
X260612Y645665D01*
X260571Y645640D01*
X260530Y645589D01*
X260481Y645545D01*
X260459Y645503D01*
X260430Y645466D01*
X260409Y645404D01*
X260378Y645345D01*
X260370Y645291D01*
X260358Y645254D01*
X260358Y645251D01*
X260359Y645214D01*
X260351Y645160D01*
X260351Y642620D01*
X260362Y642555D01*
X260364Y642489D01*
X260382Y642446D01*
X260390Y642399D01*
X260424Y642342D01*
X260449Y642282D01*
X260480Y642247D01*
X260505Y642206D01*
X260556Y642165D01*
X260600Y642116D01*
X260642Y642094D01*
X260679Y642065D01*
X260741Y642044D01*
X260800Y642013D01*
X260854Y642005D01*
X260891Y641993D01*
X260931Y641994D01*
X260985Y641986D01*
X264795Y641986D01*
X264860Y641997D01*
G37*
G36*
X714440Y641997D02*
X714440Y641997D01*
X714506Y641999D01*
X714549Y642017D01*
X714596Y642025D01*
X714653Y642059D01*
X714713Y642084D01*
X714748Y642115D01*
X714789Y642140D01*
X714831Y642191D01*
X714879Y642235D01*
X714901Y642277D01*
X714930Y642314D01*
X714951Y642376D01*
X714982Y642435D01*
X714990Y642489D01*
X715002Y642526D01*
X715001Y642566D01*
X715009Y642620D01*
X715009Y645160D01*
X714998Y645225D01*
X714996Y645291D01*
X714978Y645334D01*
X714970Y645381D01*
X714936Y645438D01*
X714911Y645498D01*
X714880Y645533D01*
X714855Y645574D01*
X714804Y645616D01*
X714760Y645664D01*
X714718Y645686D01*
X714681Y645715D01*
X714619Y645736D01*
X714560Y645767D01*
X714506Y645775D01*
X714469Y645787D01*
X714429Y645786D01*
X714375Y645794D01*
X710565Y645794D01*
X710500Y645783D01*
X710434Y645781D01*
X710391Y645763D01*
X710344Y645755D01*
X710287Y645721D01*
X710227Y645696D01*
X710192Y645665D01*
X710151Y645640D01*
X710110Y645589D01*
X710061Y645545D01*
X710039Y645503D01*
X710010Y645466D01*
X709989Y645404D01*
X709958Y645345D01*
X709950Y645291D01*
X709938Y645254D01*
X709938Y645251D01*
X709939Y645214D01*
X709931Y645160D01*
X709931Y642620D01*
X709942Y642555D01*
X709944Y642489D01*
X709962Y642446D01*
X709970Y642399D01*
X710004Y642342D01*
X710029Y642282D01*
X710060Y642247D01*
X710085Y642206D01*
X710136Y642165D01*
X710180Y642116D01*
X710222Y642094D01*
X710259Y642065D01*
X710321Y642044D01*
X710380Y642013D01*
X710434Y642005D01*
X710471Y641993D01*
X710511Y641994D01*
X710565Y641986D01*
X714375Y641986D01*
X714440Y641997D01*
G37*
G36*
X264860Y614057D02*
X264860Y614057D01*
X264926Y614059D01*
X264969Y614077D01*
X265016Y614085D01*
X265073Y614119D01*
X265133Y614144D01*
X265168Y614175D01*
X265209Y614200D01*
X265251Y614251D01*
X265299Y614295D01*
X265321Y614337D01*
X265350Y614374D01*
X265371Y614436D01*
X265402Y614495D01*
X265410Y614549D01*
X265422Y614586D01*
X265421Y614626D01*
X265429Y614680D01*
X265429Y617220D01*
X265418Y617285D01*
X265416Y617351D01*
X265398Y617394D01*
X265390Y617441D01*
X265356Y617498D01*
X265331Y617558D01*
X265300Y617593D01*
X265275Y617634D01*
X265224Y617676D01*
X265180Y617724D01*
X265138Y617746D01*
X265101Y617775D01*
X265039Y617796D01*
X264980Y617827D01*
X264926Y617835D01*
X264889Y617847D01*
X264849Y617846D01*
X264795Y617854D01*
X260985Y617854D01*
X260920Y617843D01*
X260854Y617841D01*
X260811Y617823D01*
X260764Y617815D01*
X260707Y617781D01*
X260647Y617756D01*
X260612Y617725D01*
X260571Y617700D01*
X260530Y617649D01*
X260481Y617605D01*
X260459Y617563D01*
X260430Y617526D01*
X260409Y617464D01*
X260378Y617405D01*
X260370Y617351D01*
X260358Y617314D01*
X260358Y617311D01*
X260359Y617274D01*
X260351Y617220D01*
X260351Y614680D01*
X260362Y614615D01*
X260364Y614549D01*
X260382Y614506D01*
X260390Y614459D01*
X260424Y614402D01*
X260449Y614342D01*
X260480Y614307D01*
X260505Y614266D01*
X260556Y614225D01*
X260600Y614176D01*
X260642Y614154D01*
X260679Y614125D01*
X260741Y614104D01*
X260800Y614073D01*
X260854Y614065D01*
X260891Y614053D01*
X260931Y614054D01*
X260985Y614046D01*
X264795Y614046D01*
X264860Y614057D01*
G37*
G36*
X1164020Y614057D02*
X1164020Y614057D01*
X1164086Y614059D01*
X1164129Y614077D01*
X1164176Y614085D01*
X1164233Y614119D01*
X1164293Y614144D01*
X1164328Y614175D01*
X1164369Y614200D01*
X1164411Y614251D01*
X1164459Y614295D01*
X1164481Y614337D01*
X1164510Y614374D01*
X1164531Y614436D01*
X1164562Y614495D01*
X1164570Y614549D01*
X1164582Y614586D01*
X1164581Y614626D01*
X1164589Y614680D01*
X1164589Y617220D01*
X1164578Y617285D01*
X1164576Y617351D01*
X1164558Y617394D01*
X1164550Y617441D01*
X1164516Y617498D01*
X1164491Y617558D01*
X1164460Y617593D01*
X1164435Y617634D01*
X1164384Y617676D01*
X1164340Y617724D01*
X1164298Y617746D01*
X1164261Y617775D01*
X1164199Y617796D01*
X1164140Y617827D01*
X1164086Y617835D01*
X1164049Y617847D01*
X1164009Y617846D01*
X1163955Y617854D01*
X1160145Y617854D01*
X1160080Y617843D01*
X1160014Y617841D01*
X1159971Y617823D01*
X1159924Y617815D01*
X1159867Y617781D01*
X1159807Y617756D01*
X1159772Y617725D01*
X1159731Y617700D01*
X1159690Y617649D01*
X1159641Y617605D01*
X1159619Y617563D01*
X1159590Y617526D01*
X1159569Y617464D01*
X1159538Y617405D01*
X1159530Y617351D01*
X1159518Y617314D01*
X1159518Y617311D01*
X1159519Y617274D01*
X1159511Y617220D01*
X1159511Y614680D01*
X1159522Y614615D01*
X1159524Y614549D01*
X1159542Y614506D01*
X1159550Y614459D01*
X1159584Y614402D01*
X1159609Y614342D01*
X1159640Y614307D01*
X1159665Y614266D01*
X1159716Y614225D01*
X1159760Y614176D01*
X1159802Y614154D01*
X1159839Y614125D01*
X1159901Y614104D01*
X1159960Y614073D01*
X1160014Y614065D01*
X1160051Y614053D01*
X1160091Y614054D01*
X1160145Y614046D01*
X1163955Y614046D01*
X1164020Y614057D01*
G37*
G36*
X714440Y614057D02*
X714440Y614057D01*
X714506Y614059D01*
X714549Y614077D01*
X714596Y614085D01*
X714653Y614119D01*
X714713Y614144D01*
X714748Y614175D01*
X714789Y614200D01*
X714831Y614251D01*
X714879Y614295D01*
X714901Y614337D01*
X714930Y614374D01*
X714951Y614436D01*
X714982Y614495D01*
X714990Y614549D01*
X715002Y614586D01*
X715001Y614626D01*
X715009Y614680D01*
X715009Y617220D01*
X714998Y617285D01*
X714996Y617351D01*
X714978Y617394D01*
X714970Y617441D01*
X714936Y617498D01*
X714911Y617558D01*
X714880Y617593D01*
X714855Y617634D01*
X714804Y617676D01*
X714760Y617724D01*
X714718Y617746D01*
X714681Y617775D01*
X714619Y617796D01*
X714560Y617827D01*
X714506Y617835D01*
X714469Y617847D01*
X714429Y617846D01*
X714375Y617854D01*
X710565Y617854D01*
X710500Y617843D01*
X710434Y617841D01*
X710391Y617823D01*
X710344Y617815D01*
X710287Y617781D01*
X710227Y617756D01*
X710192Y617725D01*
X710151Y617700D01*
X710110Y617649D01*
X710061Y617605D01*
X710039Y617563D01*
X710010Y617526D01*
X709989Y617464D01*
X709958Y617405D01*
X709950Y617351D01*
X709938Y617314D01*
X709938Y617311D01*
X709939Y617274D01*
X709931Y617220D01*
X709931Y614680D01*
X709942Y614615D01*
X709944Y614549D01*
X709962Y614506D01*
X709970Y614459D01*
X710004Y614402D01*
X710029Y614342D01*
X710060Y614307D01*
X710085Y614266D01*
X710136Y614225D01*
X710180Y614176D01*
X710222Y614154D01*
X710259Y614125D01*
X710321Y614104D01*
X710380Y614073D01*
X710434Y614065D01*
X710471Y614053D01*
X710511Y614054D01*
X710565Y614046D01*
X714375Y614046D01*
X714440Y614057D01*
G37*
G36*
X264860Y354977D02*
X264860Y354977D01*
X264926Y354979D01*
X264969Y354997D01*
X265016Y355005D01*
X265073Y355039D01*
X265133Y355064D01*
X265168Y355095D01*
X265209Y355120D01*
X265251Y355171D01*
X265299Y355215D01*
X265321Y355257D01*
X265350Y355294D01*
X265371Y355356D01*
X265402Y355415D01*
X265410Y355469D01*
X265422Y355506D01*
X265421Y355546D01*
X265429Y355600D01*
X265429Y358140D01*
X265418Y358205D01*
X265416Y358271D01*
X265398Y358314D01*
X265390Y358361D01*
X265356Y358418D01*
X265331Y358478D01*
X265300Y358513D01*
X265275Y358554D01*
X265224Y358596D01*
X265180Y358644D01*
X265138Y358666D01*
X265101Y358695D01*
X265039Y358716D01*
X264980Y358747D01*
X264926Y358755D01*
X264889Y358767D01*
X264849Y358766D01*
X264795Y358774D01*
X260985Y358774D01*
X260920Y358763D01*
X260854Y358761D01*
X260811Y358743D01*
X260764Y358735D01*
X260707Y358701D01*
X260647Y358676D01*
X260612Y358645D01*
X260571Y358620D01*
X260530Y358569D01*
X260481Y358525D01*
X260459Y358483D01*
X260430Y358446D01*
X260409Y358384D01*
X260378Y358325D01*
X260370Y358271D01*
X260358Y358234D01*
X260358Y358231D01*
X260359Y358194D01*
X260351Y358140D01*
X260351Y355600D01*
X260362Y355535D01*
X260364Y355469D01*
X260382Y355426D01*
X260390Y355379D01*
X260424Y355322D01*
X260449Y355262D01*
X260480Y355227D01*
X260505Y355186D01*
X260556Y355145D01*
X260600Y355096D01*
X260642Y355074D01*
X260679Y355045D01*
X260741Y355024D01*
X260800Y354993D01*
X260854Y354985D01*
X260891Y354973D01*
X260931Y354974D01*
X260985Y354966D01*
X264795Y354966D01*
X264860Y354977D01*
G37*
G36*
X1164020Y354977D02*
X1164020Y354977D01*
X1164086Y354979D01*
X1164129Y354997D01*
X1164176Y355005D01*
X1164233Y355039D01*
X1164293Y355064D01*
X1164328Y355095D01*
X1164369Y355120D01*
X1164411Y355171D01*
X1164459Y355215D01*
X1164481Y355257D01*
X1164510Y355294D01*
X1164531Y355356D01*
X1164562Y355415D01*
X1164570Y355469D01*
X1164582Y355506D01*
X1164581Y355546D01*
X1164589Y355600D01*
X1164589Y358140D01*
X1164578Y358205D01*
X1164576Y358271D01*
X1164558Y358314D01*
X1164550Y358361D01*
X1164516Y358418D01*
X1164491Y358478D01*
X1164460Y358513D01*
X1164435Y358554D01*
X1164384Y358596D01*
X1164340Y358644D01*
X1164298Y358666D01*
X1164261Y358695D01*
X1164199Y358716D01*
X1164140Y358747D01*
X1164086Y358755D01*
X1164049Y358767D01*
X1164009Y358766D01*
X1163955Y358774D01*
X1160145Y358774D01*
X1160080Y358763D01*
X1160014Y358761D01*
X1159971Y358743D01*
X1159924Y358735D01*
X1159867Y358701D01*
X1159807Y358676D01*
X1159772Y358645D01*
X1159731Y358620D01*
X1159690Y358569D01*
X1159641Y358525D01*
X1159619Y358483D01*
X1159590Y358446D01*
X1159569Y358384D01*
X1159538Y358325D01*
X1159530Y358271D01*
X1159518Y358234D01*
X1159518Y358231D01*
X1159519Y358194D01*
X1159511Y358140D01*
X1159511Y355600D01*
X1159522Y355535D01*
X1159524Y355469D01*
X1159542Y355426D01*
X1159550Y355379D01*
X1159584Y355322D01*
X1159609Y355262D01*
X1159640Y355227D01*
X1159665Y355186D01*
X1159716Y355145D01*
X1159760Y355096D01*
X1159802Y355074D01*
X1159839Y355045D01*
X1159901Y355024D01*
X1159960Y354993D01*
X1160014Y354985D01*
X1160051Y354973D01*
X1160091Y354974D01*
X1160145Y354966D01*
X1163955Y354966D01*
X1164020Y354977D01*
G37*
G36*
X714440Y354977D02*
X714440Y354977D01*
X714506Y354979D01*
X714549Y354997D01*
X714596Y355005D01*
X714653Y355039D01*
X714713Y355064D01*
X714748Y355095D01*
X714789Y355120D01*
X714831Y355171D01*
X714879Y355215D01*
X714901Y355257D01*
X714930Y355294D01*
X714951Y355356D01*
X714982Y355415D01*
X714990Y355469D01*
X715002Y355506D01*
X715001Y355546D01*
X715009Y355600D01*
X715009Y358140D01*
X714998Y358205D01*
X714996Y358271D01*
X714978Y358314D01*
X714970Y358361D01*
X714936Y358418D01*
X714911Y358478D01*
X714880Y358513D01*
X714855Y358554D01*
X714804Y358596D01*
X714760Y358644D01*
X714718Y358666D01*
X714681Y358695D01*
X714619Y358716D01*
X714560Y358747D01*
X714506Y358755D01*
X714469Y358767D01*
X714429Y358766D01*
X714375Y358774D01*
X710565Y358774D01*
X710500Y358763D01*
X710434Y358761D01*
X710391Y358743D01*
X710344Y358735D01*
X710287Y358701D01*
X710227Y358676D01*
X710192Y358645D01*
X710151Y358620D01*
X710110Y358569D01*
X710061Y358525D01*
X710039Y358483D01*
X710010Y358446D01*
X709989Y358384D01*
X709958Y358325D01*
X709950Y358271D01*
X709938Y358234D01*
X709938Y358231D01*
X709939Y358194D01*
X709931Y358140D01*
X709931Y355600D01*
X709942Y355535D01*
X709944Y355469D01*
X709962Y355426D01*
X709970Y355379D01*
X710004Y355322D01*
X710029Y355262D01*
X710060Y355227D01*
X710085Y355186D01*
X710136Y355145D01*
X710180Y355096D01*
X710222Y355074D01*
X710259Y355045D01*
X710321Y355024D01*
X710380Y354993D01*
X710434Y354985D01*
X710471Y354973D01*
X710511Y354974D01*
X710565Y354966D01*
X714375Y354966D01*
X714440Y354977D01*
G37*
G36*
X264860Y382917D02*
X264860Y382917D01*
X264926Y382919D01*
X264969Y382937D01*
X265016Y382945D01*
X265073Y382979D01*
X265133Y383004D01*
X265168Y383035D01*
X265209Y383060D01*
X265251Y383111D01*
X265299Y383155D01*
X265321Y383197D01*
X265350Y383234D01*
X265371Y383296D01*
X265402Y383355D01*
X265410Y383409D01*
X265422Y383446D01*
X265421Y383486D01*
X265429Y383540D01*
X265429Y386080D01*
X265418Y386145D01*
X265416Y386211D01*
X265398Y386254D01*
X265390Y386301D01*
X265356Y386358D01*
X265331Y386418D01*
X265300Y386453D01*
X265275Y386494D01*
X265224Y386536D01*
X265180Y386584D01*
X265138Y386606D01*
X265101Y386635D01*
X265039Y386656D01*
X264980Y386687D01*
X264926Y386695D01*
X264889Y386707D01*
X264849Y386706D01*
X264795Y386714D01*
X260985Y386714D01*
X260920Y386703D01*
X260854Y386701D01*
X260811Y386683D01*
X260764Y386675D01*
X260707Y386641D01*
X260647Y386616D01*
X260612Y386585D01*
X260571Y386560D01*
X260530Y386509D01*
X260481Y386465D01*
X260459Y386423D01*
X260430Y386386D01*
X260409Y386324D01*
X260378Y386265D01*
X260370Y386211D01*
X260358Y386174D01*
X260358Y386171D01*
X260359Y386134D01*
X260351Y386080D01*
X260351Y383540D01*
X260362Y383475D01*
X260364Y383409D01*
X260382Y383366D01*
X260390Y383319D01*
X260424Y383262D01*
X260449Y383202D01*
X260480Y383167D01*
X260505Y383126D01*
X260556Y383085D01*
X260600Y383036D01*
X260642Y383014D01*
X260679Y382985D01*
X260741Y382964D01*
X260800Y382933D01*
X260854Y382925D01*
X260891Y382913D01*
X260931Y382914D01*
X260985Y382906D01*
X264795Y382906D01*
X264860Y382917D01*
G37*
G36*
X714440Y382917D02*
X714440Y382917D01*
X714506Y382919D01*
X714549Y382937D01*
X714596Y382945D01*
X714653Y382979D01*
X714713Y383004D01*
X714748Y383035D01*
X714789Y383060D01*
X714831Y383111D01*
X714879Y383155D01*
X714901Y383197D01*
X714930Y383234D01*
X714951Y383296D01*
X714982Y383355D01*
X714990Y383409D01*
X715002Y383446D01*
X715001Y383486D01*
X715009Y383540D01*
X715009Y386080D01*
X714998Y386145D01*
X714996Y386211D01*
X714978Y386254D01*
X714970Y386301D01*
X714936Y386358D01*
X714911Y386418D01*
X714880Y386453D01*
X714855Y386494D01*
X714804Y386536D01*
X714760Y386584D01*
X714718Y386606D01*
X714681Y386635D01*
X714619Y386656D01*
X714560Y386687D01*
X714506Y386695D01*
X714469Y386707D01*
X714429Y386706D01*
X714375Y386714D01*
X710565Y386714D01*
X710500Y386703D01*
X710434Y386701D01*
X710391Y386683D01*
X710344Y386675D01*
X710287Y386641D01*
X710227Y386616D01*
X710192Y386585D01*
X710151Y386560D01*
X710110Y386509D01*
X710061Y386465D01*
X710039Y386423D01*
X710010Y386386D01*
X709989Y386324D01*
X709958Y386265D01*
X709950Y386211D01*
X709938Y386174D01*
X709938Y386171D01*
X709939Y386134D01*
X709931Y386080D01*
X709931Y383540D01*
X709942Y383475D01*
X709944Y383409D01*
X709962Y383366D01*
X709970Y383319D01*
X710004Y383262D01*
X710029Y383202D01*
X710060Y383167D01*
X710085Y383126D01*
X710136Y383085D01*
X710180Y383036D01*
X710222Y383014D01*
X710259Y382985D01*
X710321Y382964D01*
X710380Y382933D01*
X710434Y382925D01*
X710471Y382913D01*
X710511Y382914D01*
X710565Y382906D01*
X714375Y382906D01*
X714440Y382917D01*
G37*
G36*
X1164020Y382917D02*
X1164020Y382917D01*
X1164086Y382919D01*
X1164129Y382937D01*
X1164176Y382945D01*
X1164233Y382979D01*
X1164293Y383004D01*
X1164328Y383035D01*
X1164369Y383060D01*
X1164411Y383111D01*
X1164459Y383155D01*
X1164481Y383197D01*
X1164510Y383234D01*
X1164531Y383296D01*
X1164562Y383355D01*
X1164570Y383409D01*
X1164582Y383446D01*
X1164581Y383486D01*
X1164589Y383540D01*
X1164589Y386080D01*
X1164578Y386145D01*
X1164576Y386211D01*
X1164558Y386254D01*
X1164550Y386301D01*
X1164516Y386358D01*
X1164491Y386418D01*
X1164460Y386453D01*
X1164435Y386494D01*
X1164384Y386536D01*
X1164340Y386584D01*
X1164298Y386606D01*
X1164261Y386635D01*
X1164199Y386656D01*
X1164140Y386687D01*
X1164086Y386695D01*
X1164049Y386707D01*
X1164009Y386706D01*
X1163955Y386714D01*
X1160145Y386714D01*
X1160080Y386703D01*
X1160014Y386701D01*
X1159971Y386683D01*
X1159924Y386675D01*
X1159867Y386641D01*
X1159807Y386616D01*
X1159772Y386585D01*
X1159731Y386560D01*
X1159690Y386509D01*
X1159641Y386465D01*
X1159619Y386423D01*
X1159590Y386386D01*
X1159569Y386324D01*
X1159538Y386265D01*
X1159530Y386211D01*
X1159518Y386174D01*
X1159518Y386171D01*
X1159519Y386134D01*
X1159511Y386080D01*
X1159511Y383540D01*
X1159522Y383475D01*
X1159524Y383409D01*
X1159542Y383366D01*
X1159550Y383319D01*
X1159584Y383262D01*
X1159609Y383202D01*
X1159640Y383167D01*
X1159665Y383126D01*
X1159716Y383085D01*
X1159760Y383036D01*
X1159802Y383014D01*
X1159839Y382985D01*
X1159901Y382964D01*
X1159960Y382933D01*
X1160014Y382925D01*
X1160051Y382913D01*
X1160091Y382914D01*
X1160145Y382906D01*
X1163955Y382906D01*
X1164020Y382917D01*
G37*
G36*
X1164020Y123837D02*
X1164020Y123837D01*
X1164086Y123839D01*
X1164129Y123857D01*
X1164176Y123865D01*
X1164233Y123899D01*
X1164293Y123924D01*
X1164328Y123955D01*
X1164369Y123980D01*
X1164411Y124031D01*
X1164459Y124075D01*
X1164481Y124117D01*
X1164510Y124154D01*
X1164531Y124216D01*
X1164562Y124275D01*
X1164570Y124329D01*
X1164582Y124366D01*
X1164581Y124406D01*
X1164589Y124460D01*
X1164589Y127000D01*
X1164578Y127065D01*
X1164576Y127131D01*
X1164558Y127174D01*
X1164550Y127221D01*
X1164516Y127278D01*
X1164491Y127338D01*
X1164460Y127373D01*
X1164435Y127414D01*
X1164384Y127456D01*
X1164340Y127504D01*
X1164298Y127526D01*
X1164261Y127555D01*
X1164199Y127576D01*
X1164140Y127607D01*
X1164086Y127615D01*
X1164049Y127627D01*
X1164009Y127626D01*
X1163955Y127634D01*
X1160145Y127634D01*
X1160080Y127623D01*
X1160014Y127621D01*
X1159971Y127603D01*
X1159924Y127595D01*
X1159867Y127561D01*
X1159807Y127536D01*
X1159772Y127505D01*
X1159731Y127480D01*
X1159690Y127429D01*
X1159641Y127385D01*
X1159619Y127343D01*
X1159590Y127306D01*
X1159569Y127244D01*
X1159538Y127185D01*
X1159530Y127131D01*
X1159518Y127094D01*
X1159518Y127091D01*
X1159519Y127054D01*
X1159511Y127000D01*
X1159511Y124460D01*
X1159522Y124395D01*
X1159524Y124329D01*
X1159542Y124286D01*
X1159550Y124239D01*
X1159584Y124182D01*
X1159609Y124122D01*
X1159640Y124087D01*
X1159665Y124046D01*
X1159716Y124005D01*
X1159760Y123956D01*
X1159802Y123934D01*
X1159839Y123905D01*
X1159901Y123884D01*
X1159960Y123853D01*
X1160014Y123845D01*
X1160051Y123833D01*
X1160091Y123834D01*
X1160145Y123826D01*
X1163955Y123826D01*
X1164020Y123837D01*
G37*
G36*
X714440Y123837D02*
X714440Y123837D01*
X714506Y123839D01*
X714549Y123857D01*
X714596Y123865D01*
X714653Y123899D01*
X714713Y123924D01*
X714748Y123955D01*
X714789Y123980D01*
X714831Y124031D01*
X714879Y124075D01*
X714901Y124117D01*
X714930Y124154D01*
X714951Y124216D01*
X714982Y124275D01*
X714990Y124329D01*
X715002Y124366D01*
X715001Y124406D01*
X715009Y124460D01*
X715009Y127000D01*
X714998Y127065D01*
X714996Y127131D01*
X714978Y127174D01*
X714970Y127221D01*
X714936Y127278D01*
X714911Y127338D01*
X714880Y127373D01*
X714855Y127414D01*
X714804Y127456D01*
X714760Y127504D01*
X714718Y127526D01*
X714681Y127555D01*
X714619Y127576D01*
X714560Y127607D01*
X714506Y127615D01*
X714469Y127627D01*
X714429Y127626D01*
X714375Y127634D01*
X710565Y127634D01*
X710500Y127623D01*
X710434Y127621D01*
X710391Y127603D01*
X710344Y127595D01*
X710287Y127561D01*
X710227Y127536D01*
X710192Y127505D01*
X710151Y127480D01*
X710110Y127429D01*
X710061Y127385D01*
X710039Y127343D01*
X710010Y127306D01*
X709989Y127244D01*
X709958Y127185D01*
X709950Y127131D01*
X709938Y127094D01*
X709938Y127091D01*
X709939Y127054D01*
X709931Y127000D01*
X709931Y124460D01*
X709942Y124395D01*
X709944Y124329D01*
X709962Y124286D01*
X709970Y124239D01*
X710004Y124182D01*
X710029Y124122D01*
X710060Y124087D01*
X710085Y124046D01*
X710136Y124005D01*
X710180Y123956D01*
X710222Y123934D01*
X710259Y123905D01*
X710321Y123884D01*
X710380Y123853D01*
X710434Y123845D01*
X710471Y123833D01*
X710511Y123834D01*
X710565Y123826D01*
X714375Y123826D01*
X714440Y123837D01*
G37*
G36*
X264860Y123837D02*
X264860Y123837D01*
X264926Y123839D01*
X264969Y123857D01*
X265016Y123865D01*
X265073Y123899D01*
X265133Y123924D01*
X265168Y123955D01*
X265209Y123980D01*
X265251Y124031D01*
X265299Y124075D01*
X265321Y124117D01*
X265350Y124154D01*
X265371Y124216D01*
X265402Y124275D01*
X265410Y124329D01*
X265422Y124366D01*
X265421Y124406D01*
X265429Y124460D01*
X265429Y127000D01*
X265418Y127065D01*
X265416Y127131D01*
X265398Y127174D01*
X265390Y127221D01*
X265356Y127278D01*
X265331Y127338D01*
X265300Y127373D01*
X265275Y127414D01*
X265224Y127456D01*
X265180Y127504D01*
X265138Y127526D01*
X265101Y127555D01*
X265039Y127576D01*
X264980Y127607D01*
X264926Y127615D01*
X264889Y127627D01*
X264849Y127626D01*
X264795Y127634D01*
X260985Y127634D01*
X260920Y127623D01*
X260854Y127621D01*
X260811Y127603D01*
X260764Y127595D01*
X260707Y127561D01*
X260647Y127536D01*
X260612Y127505D01*
X260571Y127480D01*
X260530Y127429D01*
X260481Y127385D01*
X260459Y127343D01*
X260430Y127306D01*
X260409Y127244D01*
X260378Y127185D01*
X260370Y127131D01*
X260358Y127094D01*
X260358Y127091D01*
X260359Y127054D01*
X260351Y127000D01*
X260351Y124460D01*
X260362Y124395D01*
X260364Y124329D01*
X260382Y124286D01*
X260390Y124239D01*
X260424Y124182D01*
X260449Y124122D01*
X260480Y124087D01*
X260505Y124046D01*
X260556Y124005D01*
X260600Y123956D01*
X260642Y123934D01*
X260679Y123905D01*
X260741Y123884D01*
X260800Y123853D01*
X260854Y123845D01*
X260891Y123833D01*
X260931Y123834D01*
X260985Y123826D01*
X264795Y123826D01*
X264860Y123837D01*
G37*
G36*
X714440Y95897D02*
X714440Y95897D01*
X714506Y95899D01*
X714549Y95917D01*
X714596Y95925D01*
X714653Y95959D01*
X714713Y95984D01*
X714748Y96015D01*
X714789Y96040D01*
X714831Y96091D01*
X714879Y96135D01*
X714901Y96177D01*
X714930Y96214D01*
X714951Y96276D01*
X714982Y96335D01*
X714990Y96389D01*
X715002Y96426D01*
X715001Y96466D01*
X715009Y96520D01*
X715009Y99060D01*
X714998Y99125D01*
X714996Y99191D01*
X714978Y99234D01*
X714970Y99281D01*
X714936Y99338D01*
X714911Y99398D01*
X714880Y99433D01*
X714855Y99474D01*
X714804Y99516D01*
X714760Y99564D01*
X714718Y99586D01*
X714681Y99615D01*
X714619Y99636D01*
X714560Y99667D01*
X714506Y99675D01*
X714469Y99687D01*
X714429Y99686D01*
X714375Y99694D01*
X710565Y99694D01*
X710500Y99683D01*
X710434Y99681D01*
X710391Y99663D01*
X710344Y99655D01*
X710287Y99621D01*
X710227Y99596D01*
X710192Y99565D01*
X710151Y99540D01*
X710110Y99489D01*
X710061Y99445D01*
X710039Y99403D01*
X710010Y99366D01*
X709989Y99304D01*
X709958Y99245D01*
X709950Y99191D01*
X709938Y99154D01*
X709938Y99151D01*
X709939Y99114D01*
X709931Y99060D01*
X709931Y96520D01*
X709942Y96455D01*
X709944Y96389D01*
X709962Y96346D01*
X709970Y96299D01*
X710004Y96242D01*
X710029Y96182D01*
X710060Y96147D01*
X710085Y96106D01*
X710136Y96065D01*
X710180Y96016D01*
X710222Y95994D01*
X710259Y95965D01*
X710321Y95944D01*
X710380Y95913D01*
X710434Y95905D01*
X710471Y95893D01*
X710511Y95894D01*
X710565Y95886D01*
X714375Y95886D01*
X714440Y95897D01*
G37*
G36*
X1164020Y95897D02*
X1164020Y95897D01*
X1164086Y95899D01*
X1164129Y95917D01*
X1164176Y95925D01*
X1164233Y95959D01*
X1164293Y95984D01*
X1164328Y96015D01*
X1164369Y96040D01*
X1164411Y96091D01*
X1164459Y96135D01*
X1164481Y96177D01*
X1164510Y96214D01*
X1164531Y96276D01*
X1164562Y96335D01*
X1164570Y96389D01*
X1164582Y96426D01*
X1164581Y96466D01*
X1164589Y96520D01*
X1164589Y99060D01*
X1164578Y99125D01*
X1164576Y99191D01*
X1164558Y99234D01*
X1164550Y99281D01*
X1164516Y99338D01*
X1164491Y99398D01*
X1164460Y99433D01*
X1164435Y99474D01*
X1164384Y99516D01*
X1164340Y99564D01*
X1164298Y99586D01*
X1164261Y99615D01*
X1164199Y99636D01*
X1164140Y99667D01*
X1164086Y99675D01*
X1164049Y99687D01*
X1164009Y99686D01*
X1163955Y99694D01*
X1160145Y99694D01*
X1160080Y99683D01*
X1160014Y99681D01*
X1159971Y99663D01*
X1159924Y99655D01*
X1159867Y99621D01*
X1159807Y99596D01*
X1159772Y99565D01*
X1159731Y99540D01*
X1159690Y99489D01*
X1159641Y99445D01*
X1159619Y99403D01*
X1159590Y99366D01*
X1159569Y99304D01*
X1159538Y99245D01*
X1159530Y99191D01*
X1159518Y99154D01*
X1159518Y99151D01*
X1159519Y99114D01*
X1159511Y99060D01*
X1159511Y96520D01*
X1159522Y96455D01*
X1159524Y96389D01*
X1159542Y96346D01*
X1159550Y96299D01*
X1159584Y96242D01*
X1159609Y96182D01*
X1159640Y96147D01*
X1159665Y96106D01*
X1159716Y96065D01*
X1159760Y96016D01*
X1159802Y95994D01*
X1159839Y95965D01*
X1159901Y95944D01*
X1159960Y95913D01*
X1160014Y95905D01*
X1160051Y95893D01*
X1160091Y95894D01*
X1160145Y95886D01*
X1163955Y95886D01*
X1164020Y95897D01*
G37*
G36*
X264860Y95897D02*
X264860Y95897D01*
X264926Y95899D01*
X264969Y95917D01*
X265016Y95925D01*
X265073Y95959D01*
X265133Y95984D01*
X265168Y96015D01*
X265209Y96040D01*
X265251Y96091D01*
X265299Y96135D01*
X265321Y96177D01*
X265350Y96214D01*
X265371Y96276D01*
X265402Y96335D01*
X265410Y96389D01*
X265422Y96426D01*
X265421Y96466D01*
X265429Y96520D01*
X265429Y99060D01*
X265418Y99125D01*
X265416Y99191D01*
X265398Y99234D01*
X265390Y99281D01*
X265356Y99338D01*
X265331Y99398D01*
X265300Y99433D01*
X265275Y99474D01*
X265224Y99516D01*
X265180Y99564D01*
X265138Y99586D01*
X265101Y99615D01*
X265039Y99636D01*
X264980Y99667D01*
X264926Y99675D01*
X264889Y99687D01*
X264849Y99686D01*
X264795Y99694D01*
X260985Y99694D01*
X260920Y99683D01*
X260854Y99681D01*
X260811Y99663D01*
X260764Y99655D01*
X260707Y99621D01*
X260647Y99596D01*
X260612Y99565D01*
X260571Y99540D01*
X260530Y99489D01*
X260481Y99445D01*
X260459Y99403D01*
X260430Y99366D01*
X260409Y99304D01*
X260378Y99245D01*
X260370Y99191D01*
X260358Y99154D01*
X260358Y99151D01*
X260359Y99114D01*
X260351Y99060D01*
X260351Y96520D01*
X260362Y96455D01*
X260364Y96389D01*
X260382Y96346D01*
X260390Y96299D01*
X260424Y96242D01*
X260449Y96182D01*
X260480Y96147D01*
X260505Y96106D01*
X260556Y96065D01*
X260600Y96016D01*
X260642Y95994D01*
X260679Y95965D01*
X260741Y95944D01*
X260800Y95913D01*
X260854Y95905D01*
X260891Y95893D01*
X260931Y95894D01*
X260985Y95886D01*
X264795Y95886D01*
X264860Y95897D01*
G37*
D10*
X49050Y155900D03*
X49050Y98100D03*
D11*
X301640Y40190D03*
X408640Y214190D03*
D12*
X417460Y98700D03*
X355960Y37200D03*
D13*
X25400Y25400D03*
X25400Y228600D03*
D14*
X190500Y12700D03*
X165100Y12700D03*
X139700Y12700D03*
X114300Y12700D03*
X88900Y12700D03*
X63500Y12700D03*
D15*
X265293Y103642D02*
X270901Y103642D01*
X270901Y91938D01*
X265293Y91938D01*
X265293Y103642D01*
X265293Y94332D02*
X270901Y94332D01*
X270901Y96726D02*
X265293Y96726D01*
X265293Y99120D02*
X270901Y99120D01*
X270901Y101514D02*
X265293Y101514D01*
X260487Y103642D02*
X254879Y103642D01*
X260487Y103642D02*
X260487Y91938D01*
X254879Y91938D01*
X254879Y103642D01*
X254879Y94332D02*
X260487Y94332D01*
X260487Y96726D02*
X254879Y96726D01*
X254879Y99120D02*
X260487Y99120D01*
X260487Y101514D02*
X254879Y101514D01*
D16*
X431800Y25400D03*
X50800Y241300D03*
D15*
X265293Y131582D02*
X270901Y131582D01*
X270901Y119878D01*
X265293Y119878D01*
X265293Y131582D01*
X265293Y122272D02*
X270901Y122272D01*
X270901Y124666D02*
X265293Y124666D01*
X265293Y127060D02*
X270901Y127060D01*
X270901Y129454D02*
X265293Y129454D01*
X260487Y131582D02*
X254879Y131582D01*
X260487Y131582D02*
X260487Y119878D01*
X254879Y119878D01*
X254879Y131582D01*
X254879Y122272D02*
X260487Y122272D01*
X260487Y124666D02*
X254879Y124666D01*
X254879Y127060D02*
X260487Y127060D01*
X260487Y129454D02*
X254879Y129454D01*
X70348Y205603D02*
X70348Y211211D01*
X82052Y211211D01*
X82052Y205603D01*
X70348Y205603D01*
X70348Y207997D02*
X82052Y207997D01*
X82052Y210391D02*
X70348Y210391D01*
X70348Y200797D02*
X70348Y195189D01*
X70348Y200797D02*
X82052Y200797D01*
X82052Y195189D01*
X70348Y195189D01*
X70348Y197583D02*
X82052Y197583D01*
X82052Y199977D02*
X70348Y199977D01*
D10*
X498630Y155900D03*
X498630Y98100D03*
D11*
X751220Y40190D03*
X858220Y214190D03*
D12*
X867040Y98700D03*
X805540Y37200D03*
D13*
X474980Y25400D03*
X474980Y228600D03*
D14*
X640080Y12700D03*
X614680Y12700D03*
X589280Y12700D03*
X563880Y12700D03*
X538480Y12700D03*
X513080Y12700D03*
D15*
X714873Y103642D02*
X720481Y103642D01*
X720481Y91938D01*
X714873Y91938D01*
X714873Y103642D01*
X714873Y94332D02*
X720481Y94332D01*
X720481Y96726D02*
X714873Y96726D01*
X714873Y99120D02*
X720481Y99120D01*
X720481Y101514D02*
X714873Y101514D01*
X710067Y103642D02*
X704459Y103642D01*
X710067Y103642D02*
X710067Y91938D01*
X704459Y91938D01*
X704459Y103642D01*
X704459Y94332D02*
X710067Y94332D01*
X710067Y96726D02*
X704459Y96726D01*
X704459Y99120D02*
X710067Y99120D01*
X710067Y101514D02*
X704459Y101514D01*
D16*
X881380Y25400D03*
X500380Y241300D03*
D15*
X714873Y131582D02*
X720481Y131582D01*
X720481Y119878D01*
X714873Y119878D01*
X714873Y131582D01*
X714873Y122272D02*
X720481Y122272D01*
X720481Y124666D02*
X714873Y124666D01*
X714873Y127060D02*
X720481Y127060D01*
X720481Y129454D02*
X714873Y129454D01*
X710067Y131582D02*
X704459Y131582D01*
X710067Y131582D02*
X710067Y119878D01*
X704459Y119878D01*
X704459Y131582D01*
X704459Y122272D02*
X710067Y122272D01*
X710067Y124666D02*
X704459Y124666D01*
X704459Y127060D02*
X710067Y127060D01*
X710067Y129454D02*
X704459Y129454D01*
X519928Y205603D02*
X519928Y211211D01*
X531632Y211211D01*
X531632Y205603D01*
X519928Y205603D01*
X519928Y207997D02*
X531632Y207997D01*
X531632Y210391D02*
X519928Y210391D01*
X519928Y200797D02*
X519928Y195189D01*
X519928Y200797D02*
X531632Y200797D01*
X531632Y195189D01*
X519928Y195189D01*
X519928Y197583D02*
X531632Y197583D01*
X531632Y199977D02*
X519928Y199977D01*
D10*
X948210Y155900D03*
X948210Y98100D03*
D11*
X1200800Y40190D03*
X1307800Y214190D03*
D12*
X1316620Y98700D03*
X1255120Y37200D03*
D13*
X924560Y25400D03*
X924560Y228600D03*
D14*
X1089660Y12700D03*
X1064260Y12700D03*
X1038860Y12700D03*
X1013460Y12700D03*
X988060Y12700D03*
X962660Y12700D03*
D15*
X1164453Y103642D02*
X1170061Y103642D01*
X1170061Y91938D01*
X1164453Y91938D01*
X1164453Y103642D01*
X1164453Y94332D02*
X1170061Y94332D01*
X1170061Y96726D02*
X1164453Y96726D01*
X1164453Y99120D02*
X1170061Y99120D01*
X1170061Y101514D02*
X1164453Y101514D01*
X1159647Y103642D02*
X1154039Y103642D01*
X1159647Y103642D02*
X1159647Y91938D01*
X1154039Y91938D01*
X1154039Y103642D01*
X1154039Y94332D02*
X1159647Y94332D01*
X1159647Y96726D02*
X1154039Y96726D01*
X1154039Y99120D02*
X1159647Y99120D01*
X1159647Y101514D02*
X1154039Y101514D01*
D16*
X1330960Y25400D03*
X949960Y241300D03*
D15*
X1164453Y131582D02*
X1170061Y131582D01*
X1170061Y119878D01*
X1164453Y119878D01*
X1164453Y131582D01*
X1164453Y122272D02*
X1170061Y122272D01*
X1170061Y124666D02*
X1164453Y124666D01*
X1164453Y127060D02*
X1170061Y127060D01*
X1170061Y129454D02*
X1164453Y129454D01*
X1159647Y131582D02*
X1154039Y131582D01*
X1159647Y131582D02*
X1159647Y119878D01*
X1154039Y119878D01*
X1154039Y131582D01*
X1154039Y122272D02*
X1159647Y122272D01*
X1159647Y124666D02*
X1154039Y124666D01*
X1154039Y127060D02*
X1159647Y127060D01*
X1159647Y129454D02*
X1154039Y129454D01*
X969508Y205603D02*
X969508Y211211D01*
X981212Y211211D01*
X981212Y205603D01*
X969508Y205603D01*
X969508Y207997D02*
X981212Y207997D01*
X981212Y210391D02*
X969508Y210391D01*
X969508Y200797D02*
X969508Y195189D01*
X969508Y200797D02*
X981212Y200797D01*
X981212Y195189D01*
X969508Y195189D01*
X969508Y197583D02*
X981212Y197583D01*
X981212Y199977D02*
X969508Y199977D01*
D10*
X49050Y414980D03*
X49050Y357180D03*
D11*
X301640Y299270D03*
X408640Y473270D03*
D12*
X417460Y357780D03*
X355960Y296280D03*
D13*
X25400Y284480D03*
X25400Y487680D03*
D14*
X190500Y271780D03*
X165100Y271780D03*
X139700Y271780D03*
X114300Y271780D03*
X88900Y271780D03*
X63500Y271780D03*
D15*
X265293Y362722D02*
X270901Y362722D01*
X270901Y351018D01*
X265293Y351018D01*
X265293Y362722D01*
X265293Y353412D02*
X270901Y353412D01*
X270901Y355806D02*
X265293Y355806D01*
X265293Y358200D02*
X270901Y358200D01*
X270901Y360594D02*
X265293Y360594D01*
X260487Y362722D02*
X254879Y362722D01*
X260487Y362722D02*
X260487Y351018D01*
X254879Y351018D01*
X254879Y362722D01*
X254879Y353412D02*
X260487Y353412D01*
X260487Y355806D02*
X254879Y355806D01*
X254879Y358200D02*
X260487Y358200D01*
X260487Y360594D02*
X254879Y360594D01*
D16*
X431800Y284480D03*
X50800Y500380D03*
D15*
X265293Y390662D02*
X270901Y390662D01*
X270901Y378958D01*
X265293Y378958D01*
X265293Y390662D01*
X265293Y381352D02*
X270901Y381352D01*
X270901Y383746D02*
X265293Y383746D01*
X265293Y386140D02*
X270901Y386140D01*
X270901Y388534D02*
X265293Y388534D01*
X260487Y390662D02*
X254879Y390662D01*
X260487Y390662D02*
X260487Y378958D01*
X254879Y378958D01*
X254879Y390662D01*
X254879Y381352D02*
X260487Y381352D01*
X260487Y383746D02*
X254879Y383746D01*
X254879Y386140D02*
X260487Y386140D01*
X260487Y388534D02*
X254879Y388534D01*
X70348Y464683D02*
X70348Y470291D01*
X82052Y470291D01*
X82052Y464683D01*
X70348Y464683D01*
X70348Y467077D02*
X82052Y467077D01*
X82052Y469471D02*
X70348Y469471D01*
X70348Y459877D02*
X70348Y454269D01*
X70348Y459877D02*
X82052Y459877D01*
X82052Y454269D01*
X70348Y454269D01*
X70348Y456663D02*
X82052Y456663D01*
X82052Y459057D02*
X70348Y459057D01*
D10*
X498630Y414980D03*
X498630Y357180D03*
D11*
X751220Y299270D03*
X858220Y473270D03*
D12*
X867040Y357780D03*
X805540Y296280D03*
D13*
X474980Y284480D03*
X474980Y487680D03*
D14*
X640080Y271780D03*
X614680Y271780D03*
X589280Y271780D03*
X563880Y271780D03*
X538480Y271780D03*
X513080Y271780D03*
D15*
X714873Y362722D02*
X720481Y362722D01*
X720481Y351018D01*
X714873Y351018D01*
X714873Y362722D01*
X714873Y353412D02*
X720481Y353412D01*
X720481Y355806D02*
X714873Y355806D01*
X714873Y358200D02*
X720481Y358200D01*
X720481Y360594D02*
X714873Y360594D01*
X710067Y362722D02*
X704459Y362722D01*
X710067Y362722D02*
X710067Y351018D01*
X704459Y351018D01*
X704459Y362722D01*
X704459Y353412D02*
X710067Y353412D01*
X710067Y355806D02*
X704459Y355806D01*
X704459Y358200D02*
X710067Y358200D01*
X710067Y360594D02*
X704459Y360594D01*
D16*
X881380Y284480D03*
X500380Y500380D03*
D15*
X714873Y390662D02*
X720481Y390662D01*
X720481Y378958D01*
X714873Y378958D01*
X714873Y390662D01*
X714873Y381352D02*
X720481Y381352D01*
X720481Y383746D02*
X714873Y383746D01*
X714873Y386140D02*
X720481Y386140D01*
X720481Y388534D02*
X714873Y388534D01*
X710067Y390662D02*
X704459Y390662D01*
X710067Y390662D02*
X710067Y378958D01*
X704459Y378958D01*
X704459Y390662D01*
X704459Y381352D02*
X710067Y381352D01*
X710067Y383746D02*
X704459Y383746D01*
X704459Y386140D02*
X710067Y386140D01*
X710067Y388534D02*
X704459Y388534D01*
X519928Y464683D02*
X519928Y470291D01*
X531632Y470291D01*
X531632Y464683D01*
X519928Y464683D01*
X519928Y467077D02*
X531632Y467077D01*
X531632Y469471D02*
X519928Y469471D01*
X519928Y459877D02*
X519928Y454269D01*
X519928Y459877D02*
X531632Y459877D01*
X531632Y454269D01*
X519928Y454269D01*
X519928Y456663D02*
X531632Y456663D01*
X531632Y459057D02*
X519928Y459057D01*
D10*
X948210Y414980D03*
X948210Y357180D03*
D11*
X1200800Y299270D03*
X1307800Y473270D03*
D12*
X1316620Y357780D03*
X1255120Y296280D03*
D13*
X924560Y284480D03*
X924560Y487680D03*
D14*
X1089660Y271780D03*
X1064260Y271780D03*
X1038860Y271780D03*
X1013460Y271780D03*
X988060Y271780D03*
X962660Y271780D03*
D15*
X1164453Y362722D02*
X1170061Y362722D01*
X1170061Y351018D01*
X1164453Y351018D01*
X1164453Y362722D01*
X1164453Y353412D02*
X1170061Y353412D01*
X1170061Y355806D02*
X1164453Y355806D01*
X1164453Y358200D02*
X1170061Y358200D01*
X1170061Y360594D02*
X1164453Y360594D01*
X1159647Y362722D02*
X1154039Y362722D01*
X1159647Y362722D02*
X1159647Y351018D01*
X1154039Y351018D01*
X1154039Y362722D01*
X1154039Y353412D02*
X1159647Y353412D01*
X1159647Y355806D02*
X1154039Y355806D01*
X1154039Y358200D02*
X1159647Y358200D01*
X1159647Y360594D02*
X1154039Y360594D01*
D16*
X1330960Y284480D03*
X949960Y500380D03*
D15*
X1164453Y390662D02*
X1170061Y390662D01*
X1170061Y378958D01*
X1164453Y378958D01*
X1164453Y390662D01*
X1164453Y381352D02*
X1170061Y381352D01*
X1170061Y383746D02*
X1164453Y383746D01*
X1164453Y386140D02*
X1170061Y386140D01*
X1170061Y388534D02*
X1164453Y388534D01*
X1159647Y390662D02*
X1154039Y390662D01*
X1159647Y390662D02*
X1159647Y378958D01*
X1154039Y378958D01*
X1154039Y390662D01*
X1154039Y381352D02*
X1159647Y381352D01*
X1159647Y383746D02*
X1154039Y383746D01*
X1154039Y386140D02*
X1159647Y386140D01*
X1159647Y388534D02*
X1154039Y388534D01*
X969508Y464683D02*
X969508Y470291D01*
X981212Y470291D01*
X981212Y464683D01*
X969508Y464683D01*
X969508Y467077D02*
X981212Y467077D01*
X981212Y469471D02*
X969508Y469471D01*
X969508Y459877D02*
X969508Y454269D01*
X969508Y459877D02*
X981212Y459877D01*
X981212Y454269D01*
X969508Y454269D01*
X969508Y456663D02*
X981212Y456663D01*
X981212Y459057D02*
X969508Y459057D01*
D10*
X49050Y674060D03*
X49050Y616260D03*
D11*
X301640Y558350D03*
X408640Y732350D03*
D12*
X417460Y616860D03*
X355960Y555360D03*
D13*
X25400Y543560D03*
X25400Y746760D03*
D14*
X190500Y530860D03*
X165100Y530860D03*
X139700Y530860D03*
X114300Y530860D03*
X88900Y530860D03*
X63500Y530860D03*
D15*
X265293Y621802D02*
X270901Y621802D01*
X270901Y610098D01*
X265293Y610098D01*
X265293Y621802D01*
X265293Y612492D02*
X270901Y612492D01*
X270901Y614886D02*
X265293Y614886D01*
X265293Y617280D02*
X270901Y617280D01*
X270901Y619674D02*
X265293Y619674D01*
X260487Y621802D02*
X254879Y621802D01*
X260487Y621802D02*
X260487Y610098D01*
X254879Y610098D01*
X254879Y621802D01*
X254879Y612492D02*
X260487Y612492D01*
X260487Y614886D02*
X254879Y614886D01*
X254879Y617280D02*
X260487Y617280D01*
X260487Y619674D02*
X254879Y619674D01*
D16*
X431800Y543560D03*
X50800Y759460D03*
D15*
X265293Y649742D02*
X270901Y649742D01*
X270901Y638038D01*
X265293Y638038D01*
X265293Y649742D01*
X265293Y640432D02*
X270901Y640432D01*
X270901Y642826D02*
X265293Y642826D01*
X265293Y645220D02*
X270901Y645220D01*
X270901Y647614D02*
X265293Y647614D01*
X260487Y649742D02*
X254879Y649742D01*
X260487Y649742D02*
X260487Y638038D01*
X254879Y638038D01*
X254879Y649742D01*
X254879Y640432D02*
X260487Y640432D01*
X260487Y642826D02*
X254879Y642826D01*
X254879Y645220D02*
X260487Y645220D01*
X260487Y647614D02*
X254879Y647614D01*
X70348Y723763D02*
X70348Y729371D01*
X82052Y729371D01*
X82052Y723763D01*
X70348Y723763D01*
X70348Y726157D02*
X82052Y726157D01*
X82052Y728551D02*
X70348Y728551D01*
X70348Y718957D02*
X70348Y713349D01*
X70348Y718957D02*
X82052Y718957D01*
X82052Y713349D01*
X70348Y713349D01*
X70348Y715743D02*
X82052Y715743D01*
X82052Y718137D02*
X70348Y718137D01*
D10*
X498630Y674060D03*
X498630Y616260D03*
D11*
X751220Y558350D03*
X858220Y732350D03*
D12*
X867040Y616860D03*
X805540Y555360D03*
D13*
X474980Y543560D03*
X474980Y746760D03*
D14*
X640080Y530860D03*
X614680Y530860D03*
X589280Y530860D03*
X563880Y530860D03*
X538480Y530860D03*
X513080Y530860D03*
D15*
X714873Y621802D02*
X720481Y621802D01*
X720481Y610098D01*
X714873Y610098D01*
X714873Y621802D01*
X714873Y612492D02*
X720481Y612492D01*
X720481Y614886D02*
X714873Y614886D01*
X714873Y617280D02*
X720481Y617280D01*
X720481Y619674D02*
X714873Y619674D01*
X710067Y621802D02*
X704459Y621802D01*
X710067Y621802D02*
X710067Y610098D01*
X704459Y610098D01*
X704459Y621802D01*
X704459Y612492D02*
X710067Y612492D01*
X710067Y614886D02*
X704459Y614886D01*
X704459Y617280D02*
X710067Y617280D01*
X710067Y619674D02*
X704459Y619674D01*
D16*
X881380Y543560D03*
X500380Y759460D03*
D15*
X714873Y649742D02*
X720481Y649742D01*
X720481Y638038D01*
X714873Y638038D01*
X714873Y649742D01*
X714873Y640432D02*
X720481Y640432D01*
X720481Y642826D02*
X714873Y642826D01*
X714873Y645220D02*
X720481Y645220D01*
X720481Y647614D02*
X714873Y647614D01*
X710067Y649742D02*
X704459Y649742D01*
X710067Y649742D02*
X710067Y638038D01*
X704459Y638038D01*
X704459Y649742D01*
X704459Y640432D02*
X710067Y640432D01*
X710067Y642826D02*
X704459Y642826D01*
X704459Y645220D02*
X710067Y645220D01*
X710067Y647614D02*
X704459Y647614D01*
X519928Y723763D02*
X519928Y729371D01*
X531632Y729371D01*
X531632Y723763D01*
X519928Y723763D01*
X519928Y726157D02*
X531632Y726157D01*
X531632Y728551D02*
X519928Y728551D01*
X519928Y718957D02*
X519928Y713349D01*
X519928Y718957D02*
X531632Y718957D01*
X531632Y713349D01*
X519928Y713349D01*
X519928Y715743D02*
X531632Y715743D01*
X531632Y718137D02*
X519928Y718137D01*
D10*
X948210Y674060D03*
X948210Y616260D03*
D11*
X1200800Y558350D03*
X1307800Y732350D03*
D12*
X1316620Y616860D03*
X1255120Y555360D03*
D13*
X924560Y543560D03*
X924560Y746760D03*
D14*
X1089660Y530860D03*
X1064260Y530860D03*
X1038860Y530860D03*
X1013460Y530860D03*
X988060Y530860D03*
X962660Y530860D03*
D15*
X1164453Y621802D02*
X1170061Y621802D01*
X1170061Y610098D01*
X1164453Y610098D01*
X1164453Y621802D01*
X1164453Y612492D02*
X1170061Y612492D01*
X1170061Y614886D02*
X1164453Y614886D01*
X1164453Y617280D02*
X1170061Y617280D01*
X1170061Y619674D02*
X1164453Y619674D01*
X1159647Y621802D02*
X1154039Y621802D01*
X1159647Y621802D02*
X1159647Y610098D01*
X1154039Y610098D01*
X1154039Y621802D01*
X1154039Y612492D02*
X1159647Y612492D01*
X1159647Y614886D02*
X1154039Y614886D01*
X1154039Y617280D02*
X1159647Y617280D01*
X1159647Y619674D02*
X1154039Y619674D01*
D16*
X1330960Y543560D03*
X949960Y759460D03*
D15*
X1164453Y649742D02*
X1170061Y649742D01*
X1170061Y638038D01*
X1164453Y638038D01*
X1164453Y649742D01*
X1164453Y640432D02*
X1170061Y640432D01*
X1170061Y642826D02*
X1164453Y642826D01*
X1164453Y645220D02*
X1170061Y645220D01*
X1170061Y647614D02*
X1164453Y647614D01*
X1159647Y649742D02*
X1154039Y649742D01*
X1159647Y649742D02*
X1159647Y638038D01*
X1154039Y638038D01*
X1154039Y649742D01*
X1154039Y640432D02*
X1159647Y640432D01*
X1159647Y642826D02*
X1154039Y642826D01*
X1154039Y645220D02*
X1159647Y645220D01*
X1159647Y647614D02*
X1154039Y647614D01*
X969508Y723763D02*
X969508Y729371D01*
X981212Y729371D01*
X981212Y723763D01*
X969508Y723763D01*
X969508Y726157D02*
X981212Y726157D01*
X981212Y728551D02*
X969508Y728551D01*
X969508Y718957D02*
X969508Y713349D01*
X969508Y718957D02*
X981212Y718957D01*
X981212Y713349D01*
X969508Y713349D01*
X969508Y715743D02*
X981212Y715743D01*
X981212Y718137D02*
X969508Y718137D01*
D10*
X49050Y933140D03*
X49050Y875340D03*
D11*
X301640Y817430D03*
X408640Y991430D03*
D12*
X417460Y875940D03*
X355960Y814440D03*
D13*
X25400Y802640D03*
X25400Y1005840D03*
D14*
X190500Y789940D03*
X165100Y789940D03*
X139700Y789940D03*
X114300Y789940D03*
X88900Y789940D03*
X63500Y789940D03*
D15*
X265293Y880882D02*
X270901Y880882D01*
X270901Y869178D01*
X265293Y869178D01*
X265293Y880882D01*
X265293Y871572D02*
X270901Y871572D01*
X270901Y873966D02*
X265293Y873966D01*
X265293Y876360D02*
X270901Y876360D01*
X270901Y878754D02*
X265293Y878754D01*
X260487Y880882D02*
X254879Y880882D01*
X260487Y880882D02*
X260487Y869178D01*
X254879Y869178D01*
X254879Y880882D01*
X254879Y871572D02*
X260487Y871572D01*
X260487Y873966D02*
X254879Y873966D01*
X254879Y876360D02*
X260487Y876360D01*
X260487Y878754D02*
X254879Y878754D01*
D16*
X431800Y802640D03*
X50800Y1018540D03*
D15*
X265293Y908822D02*
X270901Y908822D01*
X270901Y897118D01*
X265293Y897118D01*
X265293Y908822D01*
X265293Y899512D02*
X270901Y899512D01*
X270901Y901906D02*
X265293Y901906D01*
X265293Y904300D02*
X270901Y904300D01*
X270901Y906694D02*
X265293Y906694D01*
X260487Y908822D02*
X254879Y908822D01*
X260487Y908822D02*
X260487Y897118D01*
X254879Y897118D01*
X254879Y908822D01*
X254879Y899512D02*
X260487Y899512D01*
X260487Y901906D02*
X254879Y901906D01*
X254879Y904300D02*
X260487Y904300D01*
X260487Y906694D02*
X254879Y906694D01*
X70348Y982843D02*
X70348Y988451D01*
X82052Y988451D01*
X82052Y982843D01*
X70348Y982843D01*
X70348Y985237D02*
X82052Y985237D01*
X82052Y987631D02*
X70348Y987631D01*
X70348Y978037D02*
X70348Y972429D01*
X70348Y978037D02*
X82052Y978037D01*
X82052Y972429D01*
X70348Y972429D01*
X70348Y974823D02*
X82052Y974823D01*
X82052Y977217D02*
X70348Y977217D01*
D10*
X498630Y933140D03*
X498630Y875340D03*
D11*
X751220Y817430D03*
X858220Y991430D03*
D12*
X867040Y875940D03*
X805540Y814440D03*
D13*
X474980Y802640D03*
X474980Y1005840D03*
D14*
X640080Y789940D03*
X614680Y789940D03*
X589280Y789940D03*
X563880Y789940D03*
X538480Y789940D03*
X513080Y789940D03*
D15*
X714873Y880882D02*
X720481Y880882D01*
X720481Y869178D01*
X714873Y869178D01*
X714873Y880882D01*
X714873Y871572D02*
X720481Y871572D01*
X720481Y873966D02*
X714873Y873966D01*
X714873Y876360D02*
X720481Y876360D01*
X720481Y878754D02*
X714873Y878754D01*
X710067Y880882D02*
X704459Y880882D01*
X710067Y880882D02*
X710067Y869178D01*
X704459Y869178D01*
X704459Y880882D01*
X704459Y871572D02*
X710067Y871572D01*
X710067Y873966D02*
X704459Y873966D01*
X704459Y876360D02*
X710067Y876360D01*
X710067Y878754D02*
X704459Y878754D01*
D16*
X881380Y802640D03*
X500380Y1018540D03*
D15*
X714873Y908822D02*
X720481Y908822D01*
X720481Y897118D01*
X714873Y897118D01*
X714873Y908822D01*
X714873Y899512D02*
X720481Y899512D01*
X720481Y901906D02*
X714873Y901906D01*
X714873Y904300D02*
X720481Y904300D01*
X720481Y906694D02*
X714873Y906694D01*
X710067Y908822D02*
X704459Y908822D01*
X710067Y908822D02*
X710067Y897118D01*
X704459Y897118D01*
X704459Y908822D01*
X704459Y899512D02*
X710067Y899512D01*
X710067Y901906D02*
X704459Y901906D01*
X704459Y904300D02*
X710067Y904300D01*
X710067Y906694D02*
X704459Y906694D01*
X519928Y982843D02*
X519928Y988451D01*
X531632Y988451D01*
X531632Y982843D01*
X519928Y982843D01*
X519928Y985237D02*
X531632Y985237D01*
X531632Y987631D02*
X519928Y987631D01*
X519928Y978037D02*
X519928Y972429D01*
X519928Y978037D02*
X531632Y978037D01*
X531632Y972429D01*
X519928Y972429D01*
X519928Y974823D02*
X531632Y974823D01*
X531632Y977217D02*
X519928Y977217D01*
D10*
X948210Y933140D03*
X948210Y875340D03*
D11*
X1200800Y817430D03*
X1307800Y991430D03*
D12*
X1316620Y875940D03*
X1255120Y814440D03*
D13*
X924560Y802640D03*
X924560Y1005840D03*
D14*
X1089660Y789940D03*
X1064260Y789940D03*
X1038860Y789940D03*
X1013460Y789940D03*
X988060Y789940D03*
X962660Y789940D03*
D15*
X1164453Y880882D02*
X1170061Y880882D01*
X1170061Y869178D01*
X1164453Y869178D01*
X1164453Y880882D01*
X1164453Y871572D02*
X1170061Y871572D01*
X1170061Y873966D02*
X1164453Y873966D01*
X1164453Y876360D02*
X1170061Y876360D01*
X1170061Y878754D02*
X1164453Y878754D01*
X1159647Y880882D02*
X1154039Y880882D01*
X1159647Y880882D02*
X1159647Y869178D01*
X1154039Y869178D01*
X1154039Y880882D01*
X1154039Y871572D02*
X1159647Y871572D01*
X1159647Y873966D02*
X1154039Y873966D01*
X1154039Y876360D02*
X1159647Y876360D01*
X1159647Y878754D02*
X1154039Y878754D01*
D16*
X1330960Y802640D03*
X949960Y1018540D03*
D15*
X1164453Y908822D02*
X1170061Y908822D01*
X1170061Y897118D01*
X1164453Y897118D01*
X1164453Y908822D01*
X1164453Y899512D02*
X1170061Y899512D01*
X1170061Y901906D02*
X1164453Y901906D01*
X1164453Y904300D02*
X1170061Y904300D01*
X1170061Y906694D02*
X1164453Y906694D01*
X1159647Y908822D02*
X1154039Y908822D01*
X1159647Y908822D02*
X1159647Y897118D01*
X1154039Y897118D01*
X1154039Y908822D01*
X1154039Y899512D02*
X1159647Y899512D01*
X1159647Y901906D02*
X1154039Y901906D01*
X1154039Y904300D02*
X1159647Y904300D01*
X1159647Y906694D02*
X1154039Y906694D01*
X969508Y982843D02*
X969508Y988451D01*
X981212Y988451D01*
X981212Y982843D01*
X969508Y982843D01*
X969508Y985237D02*
X981212Y985237D01*
X981212Y987631D02*
X969508Y987631D01*
X969508Y978037D02*
X969508Y972429D01*
X969508Y978037D02*
X981212Y978037D01*
X981212Y972429D01*
X969508Y972429D01*
X969508Y974823D02*
X981212Y974823D01*
X981212Y977217D02*
X969508Y977217D01*
D17*
X-26238Y1004570D03*
X1369898Y1004570D03*
D18*
X-35293Y63500D02*
X-35290Y63722D01*
X-35282Y63944D01*
X-35268Y64166D01*
X-35249Y64388D01*
X-35225Y64608D01*
X-35195Y64829D01*
X-35160Y65048D01*
X-35119Y65267D01*
X-35073Y65484D01*
X-35022Y65700D01*
X-34965Y65915D01*
X-34903Y66129D01*
X-34836Y66340D01*
X-34764Y66551D01*
X-34686Y66759D01*
X-34604Y66965D01*
X-34516Y67169D01*
X-34424Y67372D01*
X-34326Y67571D01*
X-34224Y67768D01*
X-34117Y67963D01*
X-34005Y68155D01*
X-33888Y68344D01*
X-33767Y68531D01*
X-33641Y68714D01*
X-33511Y68894D01*
X-33376Y69071D01*
X-33238Y69244D01*
X-33095Y69414D01*
X-32947Y69581D01*
X-32796Y69744D01*
X-32641Y69903D01*
X-32482Y70058D01*
X-32319Y70209D01*
X-32152Y70357D01*
X-31982Y70500D01*
X-31809Y70638D01*
X-31632Y70773D01*
X-31452Y70903D01*
X-31269Y71029D01*
X-31082Y71150D01*
X-30893Y71267D01*
X-30701Y71379D01*
X-30506Y71486D01*
X-30309Y71588D01*
X-30110Y71686D01*
X-29907Y71778D01*
X-29703Y71866D01*
X-29497Y71948D01*
X-29289Y72026D01*
X-29078Y72098D01*
X-28867Y72165D01*
X-28653Y72227D01*
X-28438Y72284D01*
X-28222Y72335D01*
X-28005Y72381D01*
X-27786Y72422D01*
X-27567Y72457D01*
X-27346Y72487D01*
X-27126Y72511D01*
X-26904Y72530D01*
X-26682Y72544D01*
X-26460Y72552D01*
X-26238Y72555D01*
X-26016Y72552D01*
X-25794Y72544D01*
X-25572Y72530D01*
X-25350Y72511D01*
X-25130Y72487D01*
X-24909Y72457D01*
X-24690Y72422D01*
X-24471Y72381D01*
X-24254Y72335D01*
X-24038Y72284D01*
X-23823Y72227D01*
X-23609Y72165D01*
X-23398Y72098D01*
X-23187Y72026D01*
X-22979Y71948D01*
X-22773Y71866D01*
X-22569Y71778D01*
X-22366Y71686D01*
X-22167Y71588D01*
X-21970Y71486D01*
X-21775Y71379D01*
X-21583Y71267D01*
X-21394Y71150D01*
X-21207Y71029D01*
X-21024Y70903D01*
X-20844Y70773D01*
X-20667Y70638D01*
X-20494Y70500D01*
X-20324Y70357D01*
X-20157Y70209D01*
X-19994Y70058D01*
X-19835Y69903D01*
X-19680Y69744D01*
X-19529Y69581D01*
X-19381Y69414D01*
X-19238Y69244D01*
X-19100Y69071D01*
X-18965Y68894D01*
X-18835Y68714D01*
X-18709Y68531D01*
X-18588Y68344D01*
X-18471Y68155D01*
X-18359Y67963D01*
X-18252Y67768D01*
X-18150Y67571D01*
X-18052Y67372D01*
X-17960Y67169D01*
X-17872Y66965D01*
X-17790Y66759D01*
X-17712Y66551D01*
X-17640Y66340D01*
X-17573Y66129D01*
X-17511Y65915D01*
X-17454Y65700D01*
X-17403Y65484D01*
X-17357Y65267D01*
X-17316Y65048D01*
X-17281Y64829D01*
X-17251Y64608D01*
X-17227Y64388D01*
X-17208Y64166D01*
X-17194Y63944D01*
X-17186Y63722D01*
X-17183Y63500D01*
X-17186Y63278D01*
X-17194Y63056D01*
X-17208Y62834D01*
X-17227Y62612D01*
X-17251Y62392D01*
X-17281Y62171D01*
X-17316Y61952D01*
X-17357Y61733D01*
X-17403Y61516D01*
X-17454Y61300D01*
X-17511Y61085D01*
X-17573Y60871D01*
X-17640Y60660D01*
X-17712Y60449D01*
X-17790Y60241D01*
X-17872Y60035D01*
X-17960Y59831D01*
X-18052Y59628D01*
X-18150Y59429D01*
X-18252Y59232D01*
X-18359Y59037D01*
X-18471Y58845D01*
X-18588Y58656D01*
X-18709Y58469D01*
X-18835Y58286D01*
X-18965Y58106D01*
X-19100Y57929D01*
X-19238Y57756D01*
X-19381Y57586D01*
X-19529Y57419D01*
X-19680Y57256D01*
X-19835Y57097D01*
X-19994Y56942D01*
X-20157Y56791D01*
X-20324Y56643D01*
X-20494Y56500D01*
X-20667Y56362D01*
X-20844Y56227D01*
X-21024Y56097D01*
X-21207Y55971D01*
X-21394Y55850D01*
X-21583Y55733D01*
X-21775Y55621D01*
X-21970Y55514D01*
X-22167Y55412D01*
X-22366Y55314D01*
X-22569Y55222D01*
X-22773Y55134D01*
X-22979Y55052D01*
X-23187Y54974D01*
X-23398Y54902D01*
X-23609Y54835D01*
X-23823Y54773D01*
X-24038Y54716D01*
X-24254Y54665D01*
X-24471Y54619D01*
X-24690Y54578D01*
X-24909Y54543D01*
X-25130Y54513D01*
X-25350Y54489D01*
X-25572Y54470D01*
X-25794Y54456D01*
X-26016Y54448D01*
X-26238Y54445D01*
X-26460Y54448D01*
X-26682Y54456D01*
X-26904Y54470D01*
X-27126Y54489D01*
X-27346Y54513D01*
X-27567Y54543D01*
X-27786Y54578D01*
X-28005Y54619D01*
X-28222Y54665D01*
X-28438Y54716D01*
X-28653Y54773D01*
X-28867Y54835D01*
X-29078Y54902D01*
X-29289Y54974D01*
X-29497Y55052D01*
X-29703Y55134D01*
X-29907Y55222D01*
X-30110Y55314D01*
X-30309Y55412D01*
X-30506Y55514D01*
X-30701Y55621D01*
X-30893Y55733D01*
X-31082Y55850D01*
X-31269Y55971D01*
X-31452Y56097D01*
X-31632Y56227D01*
X-31809Y56362D01*
X-31982Y56500D01*
X-32152Y56643D01*
X-32319Y56791D01*
X-32482Y56942D01*
X-32641Y57097D01*
X-32796Y57256D01*
X-32947Y57419D01*
X-33095Y57586D01*
X-33238Y57756D01*
X-33376Y57929D01*
X-33511Y58106D01*
X-33641Y58286D01*
X-33767Y58469D01*
X-33888Y58656D01*
X-34005Y58845D01*
X-34117Y59037D01*
X-34224Y59232D01*
X-34326Y59429D01*
X-34424Y59628D01*
X-34516Y59831D01*
X-34604Y60035D01*
X-34686Y60241D01*
X-34764Y60449D01*
X-34836Y60660D01*
X-34903Y60871D01*
X-34965Y61085D01*
X-35022Y61300D01*
X-35073Y61516D01*
X-35119Y61733D01*
X-35160Y61952D01*
X-35195Y62171D01*
X-35225Y62392D01*
X-35249Y62612D01*
X-35268Y62834D01*
X-35282Y63056D01*
X-35290Y63278D01*
X-35293Y63500D01*
D19*
X-26238Y63500D03*
M02*
