M48
;GenerationSoftware,Autodesk,EAGLE,9.6.2*%
;CreationDate,2026-02-26T17:14:53Z*%
FMAT,2
ICI,OFF
METRIC,TZ,000.000
T7C0.381
T6C0.400
T5C0.650
T4C0.800
T3C1.016
T2C2.000
T1C3.302
%
G90
M71
T1
X2540Y48768
X2540Y54356
X2540Y2540
X2540Y22860
X50038Y2540
X50038Y22860
X50038Y100584
X2540Y74676
X50038Y28448
X50038Y48768
X50038Y80264
X2540Y28448
X50038Y54356
X50038Y74676
X2540Y80264
X2540Y100584
T2
X40864Y73235
X30164Y55835
X30164Y4019
X40864Y21419
X77662Y81743
X77662Y29927
X40864Y47327
X77662Y4019
X88362Y21419
X88362Y99143
X88362Y47327
X30164Y29927
X77662Y55835
X88362Y73235
X30164Y81743
X40864Y99143
T3
X13970Y1270
X64008Y27178
X66548Y27178
X6350Y27178
X8890Y27178
X11430Y27178
X66548Y1270
X6350Y1270
X64008Y1270
X13970Y27178
X19050Y27178
X19050Y53086
X53848Y27178
X8890Y1270
X53848Y78994
X61468Y1270
X56388Y27178
X53848Y1270
X56388Y1270
X16510Y1270
X61468Y27178
X19050Y1270
X11430Y1270
X16510Y27178
X58928Y27178
X58928Y1270
X16510Y53086
X13970Y53086
X11430Y53086
X8890Y53086
X6350Y53086
X66548Y53086
X64008Y53086
X61468Y53086
X58928Y53086
X56388Y53086
X53848Y53086
X19050Y78994
X16510Y78994
X13970Y78994
X11430Y78994
X8890Y78994
X6350Y78994
X66548Y78994
X64008Y78994
X61468Y78994
X58928Y78994
X56388Y78994
T4
X89244Y35778
X83094Y29628
X41746Y61686
X35596Y55536
X89244Y61686
X41746Y87594
X89244Y87594
X83094Y81444
X83094Y55536
X35596Y81444
X41746Y9870
X35596Y3720
X89244Y9870
X83094Y3720
X41746Y35778
X35596Y29628
T5
X52403Y15590
X52403Y87534
X52403Y35718
X52403Y41498
X4905Y41498
X52403Y9810
X4905Y15590
X4905Y9810
X52403Y93314
X4905Y87534
X4905Y93314
X52403Y61626
X52403Y67406
X4905Y35718
X4905Y61626
X4905Y67406
T6
X48753Y8382
X52933Y8382
X52933Y17018
X48753Y60198
X52933Y60198
X52933Y68834
X1255Y8382
X1255Y17018
X48753Y68834
X52933Y42926
X1255Y68834
X1255Y60198
X1255Y94742
X1255Y86106
X5435Y86106
X5435Y94742
X1255Y42926
X1255Y34290
X5435Y34290
X5435Y42926
X5435Y60198
X5435Y17018
X48753Y94742
X48753Y86106
X52933Y86106
X52933Y94742
X5435Y68834
X52933Y34290
X5435Y8382
X48753Y17018
X48753Y34290
X48753Y42926
T7
X31750Y74549
X25908Y69596
X25908Y72346
X4064Y66040
X3937Y64237
X3683Y65202
X3810Y63271
X25908Y56388
X33655Y66294
X30480Y59436
X7620Y74295
X52578Y70866
X51308Y70866
X57658Y69596
X48768Y65786
X48768Y63246
X66675Y65151
X72136Y69596
X72136Y68453
X62738Y69596
X66548Y73406
X66548Y72136
X66548Y70866
X55118Y59436
X62738Y66421
X72136Y67310
X79121Y69596
X55118Y67056
X55118Y61976
X63627Y75057
X69088Y70866
X79248Y74549
X73406Y69596
X73406Y72346
X51562Y66040
X51435Y64237
X51181Y65202
X51308Y63271
X73406Y56388
X81153Y66294
X77978Y59436
X55118Y74295
X5080Y96774
X3810Y96774
X10160Y95504
X1270Y91694
X1270Y89154
X19177Y91059
X24638Y95504
X24638Y94361
X15240Y95504
X19050Y99314
X63627Y23241
X19050Y96774
X7620Y85344
X15240Y92329
X24638Y93218
X31623Y95504
X7620Y92964
X7620Y87884
X16129Y100965
X21590Y96774
X31750Y100457
X25908Y95504
X25908Y98254
X4064Y91948
X3937Y90145
X3683Y91110
X3810Y89179
X25908Y82296
X33655Y92202
X30480Y85344
X7620Y100203
X52578Y96774
X51308Y96774
X57658Y95504
X48768Y91694
X48768Y89154
X66675Y91059
X72136Y95504
X72136Y94361
X62738Y95504
X66548Y99314
X66548Y98044
X66548Y96774
X55118Y85344
X62738Y92329
X72136Y93218
X79121Y95504
X55118Y92964
X55118Y87884
X63627Y100965
X69088Y96774
X79248Y100457
X73406Y95504
X73406Y98254
X51562Y91948
X51435Y90145
X51181Y91110
X51308Y89179
X73406Y82296
X81153Y92202
X77978Y85344
X55118Y100203
X5080Y19050
X3810Y19050
X10160Y17780
X1270Y13970
X1270Y11430
X19177Y13335
X24638Y17780
X24638Y16637
X15240Y17780
X19050Y21590
X19050Y20320
X19050Y19050
X7620Y7620
X15240Y14605
X24638Y15494
X31623Y17780
X7620Y15240
X7620Y10160
X16129Y23241
X21590Y19050
X31750Y22733
X25908Y17780
X25908Y20530
X4064Y14224
X3937Y12421
X3683Y13386
X3810Y11455
X25908Y4572
X33655Y14478
X30480Y7620
X7620Y22479
X52578Y19050
X51308Y19050
X57658Y17780
X48768Y13970
X48768Y11430
X66675Y13335
X72136Y17780
X72136Y16637
X62738Y17780
X66548Y21590
X66548Y20320
X66548Y19050
X55118Y7620
X62738Y14605
X72136Y15494
X79121Y17780
X55118Y15240
X55118Y10160
X69088Y19050
X79248Y22733
X73406Y17780
X73406Y20530
X51562Y14224
X51435Y12421
X51181Y13386
X51308Y11455
X73406Y4572
X81153Y14478
X77978Y7620
X55118Y22479
X5080Y44958
X3810Y44958
X10160Y43688
X1270Y39878
X1270Y37338
X19177Y39243
X24638Y43688
X24638Y42545
X15240Y43688
X19050Y47498
X19050Y46228
X19050Y44958
X7620Y33528
X15240Y40513
X24638Y41402
X31623Y43688
X7620Y41148
X7620Y36068
X16129Y49149
X21590Y44958
X31750Y48641
X25908Y43688
X25908Y46438
X4064Y40132
X3937Y38329
X3683Y39294
X3810Y37363
X25908Y30480
X33655Y40386
X30480Y33528
X7620Y48387
X52578Y44958
X51308Y44958
X19050Y98044
X57658Y43688
X48768Y39878
X48768Y37338
X66675Y39243
X72136Y43688
X72136Y42545
X62738Y43688
X66548Y47498
X66548Y46228
X66548Y44958
X55118Y33528
X62738Y40513
X72136Y41402
X79121Y43688
X55118Y41148
X55118Y36068
X63627Y49149
X69088Y44958
X79248Y48641
X73406Y43688
X73406Y46438
X51562Y40132
X51435Y38329
X51181Y39294
X51308Y37363
X73406Y30480
X81153Y40386
X77978Y33528
X55118Y48387
X5080Y70866
X3810Y70866
X10160Y69596
X1270Y65786
X1270Y63246
X19177Y65151
X24638Y69596
X24638Y68453
X15240Y69596
X19050Y73406
X19050Y72136
X19050Y70866
X7620Y59436
X15240Y66421
X24638Y67310
X31623Y69596
X7620Y67056
X7620Y61976
X16129Y75057
X21590Y70866
M30