M48
;GenerationSoftware,Autodesk,EAGLE,9.6.2*%
;CreationDate,2021-04-02T18:21:49Z*%
FMAT,2
ICI,OFF
METRIC,TZ,000.000
T7C0.381
T6C0.400
T5C0.650
T4C0.800
T3C1.016
T2C2.000
T1C3.302
%
G90
M71
T1
X47498Y2540
X92456Y22860
X92456Y74676
X92456Y54356
X2540Y54356
X2540Y74676
X92456Y80264
X2540Y2540
X2540Y22860
X92456Y100584
X2540Y28448
X2540Y48768
X92456Y28448
X47498Y80264
X47498Y100584
X92456Y48768
X47498Y22860
X2540Y100584
X2540Y80264
X47498Y74676
X47498Y54356
X47498Y28448
X47498Y48768
X92456Y2540
T2
X130780Y73235
X75122Y29927
X30164Y4019
X40864Y21419
X85822Y47327
X30164Y81743
X40864Y99143
X75122Y81743
X75122Y4019
X85822Y21419
X30164Y29927
X85822Y99143
X120080Y29927
X120080Y4019
X130780Y21419
X130780Y47327
X30164Y55835
X40864Y73235
X75122Y55835
X85822Y73235
X40864Y47327
X120080Y81743
X130780Y99143
X120080Y55835
T3
X96266Y27178
X98806Y27178
X11430Y1270
X8890Y1270
X101346Y27178
X103886Y27178
X106426Y27178
X108966Y27178
X108966Y1270
X51308Y1270
X51308Y27178
X53848Y27178
X96266Y78994
X56388Y27178
X61468Y27178
X6350Y1270
X64008Y1270
X64008Y27178
X6350Y27178
X58928Y1270
X61468Y1270
X19050Y1270
X58928Y27178
X56388Y1270
X53848Y1270
X101346Y1270
X103886Y1270
X19050Y27178
X16510Y27178
X16510Y1270
X13970Y1270
X13970Y27178
X11430Y27178
X8890Y27178
X106426Y1270
X96266Y1270
X98806Y1270
X19050Y53086
X16510Y53086
X13970Y53086
X11430Y53086
X8890Y53086
X6350Y53086
X64008Y53086
X61468Y53086
X58928Y53086
X56388Y53086
X53848Y53086
X51308Y53086
X108966Y53086
X106426Y53086
X103886Y53086
X101346Y53086
X98806Y53086
X96266Y53086
X19050Y78994
X16510Y78994
X13970Y78994
X11430Y78994
X8890Y78994
X6350Y78994
X64008Y78994
X61468Y78994
X58928Y78994
X56388Y78994
X53848Y78994
X51308Y78994
X108966Y78994
X106426Y78994
X103886Y78994
X101346Y78994
X98806Y78994
T4
X125512Y29628
X41746Y61686
X35596Y55536
X86704Y61686
X80554Y55536
X131662Y61686
X41746Y87594
X35596Y81444
X86704Y87594
X80554Y81444
X131662Y87594
X125512Y81444
X125512Y55536
X41746Y9870
X35596Y3720
X86704Y9870
X80554Y3720
X131662Y9870
X125512Y3720
X41746Y35778
X35596Y29628
X86704Y35778
X80554Y29628
X131662Y35778
T5
X4905Y35718
X4905Y41498
X94821Y61626
X94821Y67406
X49863Y93314
X94821Y87534
X94821Y9810
X94821Y15590
X49863Y9810
X49863Y15590
X4905Y9810
X4905Y15590
X49863Y61626
X49863Y67406
X4905Y61626
X4905Y67406
X94821Y35718
X94821Y41498
X49863Y35718
X49863Y41498
X94821Y93314
X49863Y87534
X4905Y87534
X4905Y93314
T6
X91171Y42926
X91171Y34290
X95351Y34290
X95351Y42926
X1255Y68834
X1255Y60198
X5435Y60198
X5435Y68834
X50393Y8382
X50393Y17018
X46213Y17018
X5435Y17018
X5435Y8382
X1255Y8382
X46213Y68834
X46213Y60198
X50393Y60198
X50393Y68834
X1255Y17018
X91171Y17018
X91171Y8382
X95351Y8382
X95351Y17018
X91171Y68834
X91171Y60198
X95351Y60198
X95351Y68834
X1255Y94742
X46213Y94742
X46213Y86106
X50393Y86106
X50393Y94742
X5435Y94742
X1255Y42926
X46213Y8382
X1255Y34290
X46213Y42926
X46213Y34290
X91171Y94742
X91171Y86106
X95351Y86106
X95351Y94742
X50393Y34290
X50393Y42926
X5435Y34290
X5435Y42926
X1255Y86106
X5435Y86106
T7
X7620Y74295
X50038Y70866
X48768Y70866
X55118Y69596
X46228Y65786
X46228Y63246
X64135Y65151
X69596Y69596
X69596Y68453
X60198Y69596
X64008Y73406
X64008Y72136
X64008Y70866
X52578Y59436
X60198Y66421
X69596Y67310
X76581Y69596
X52578Y67056
X52578Y61976
X61087Y75057
X66548Y70866
X76708Y74549
X70866Y69596
X70866Y72346
X49022Y66040
X48895Y64237
X48641Y65202
X48768Y63271
X70866Y56388
X78613Y66294
X75438Y59436
X52578Y74295
X94996Y70866
X93726Y70866
X100076Y69596
X91186Y65786
X91186Y63246
X109093Y65151
X114554Y69596
X114554Y68453
X105156Y69596
X108966Y73406
X108966Y72136
X108966Y70866
X97536Y59436
X105156Y66421
X114554Y67310
X121539Y69596
X97536Y67056
X97536Y61976
X106045Y75057
X111506Y70866
X121666Y74549
X115824Y69596
X115824Y72346
X93980Y66040
X93853Y64237
X93599Y65202
X93726Y63271
X115824Y56388
X123571Y66294
X120396Y59436
X97536Y74295
X5080Y96774
X3810Y96774
X10160Y95504
X1270Y91694
X1270Y89154
X19177Y91059
X24638Y95504
X24638Y94361
X15240Y95504
X19050Y99314
X19050Y98044
X19050Y96774
X7620Y85344
X15240Y92329
X24638Y93218
X108966Y19050
X7620Y92964
X7620Y87884
X16129Y100965
X21590Y96774
X31750Y100457
X25908Y95504
X25908Y98254
X4064Y91948
X3937Y90145
X3683Y91110
X3810Y89179
X25908Y82296
X33655Y92202
X30480Y85344
X7620Y100203
X50038Y96774
X48768Y96774
X55118Y95504
X46228Y91694
X46228Y89154
X64135Y91059
X69596Y95504
X69596Y94361
X60198Y95504
X64008Y99314
X64008Y98044
X64008Y96774
X52578Y85344
X60198Y92329
X69596Y93218
X76581Y95504
X52578Y92964
X52578Y87884
X61087Y100965
X66548Y96774
X76708Y100457
X70866Y95504
X70866Y98254
X49022Y91948
X48895Y90145
X48641Y91110
X48768Y89179
X70866Y82296
X78613Y92202
X75438Y85344
X52578Y100203
X94996Y96774
X93726Y96774
X100076Y95504
X91186Y91694
X91186Y89154
X109093Y91059
X114554Y95504
X114554Y94361
X105156Y95504
X108966Y99314
X108966Y98044
X108966Y96774
X97536Y85344
X105156Y92329
X114554Y93218
X121539Y95504
X97536Y92964
X97536Y87884
X106045Y100965
X111506Y96774
X121666Y100457
X115824Y95504
X115824Y98254
X93980Y91948
X93853Y90145
X93599Y91110
X93726Y89179
X115824Y82296
X123571Y92202
X120396Y85344
X97536Y100203
X5080Y19050
X3810Y19050
X10160Y17780
X1270Y13970
X1270Y11430
X19177Y13335
X24638Y17780
X24638Y16637
X15240Y17780
X19050Y21590
X19050Y20320
X19050Y19050
X7620Y7620
X15240Y14605
X24638Y15494
X31623Y17780
X7620Y15240
X7620Y10160
X16129Y23241
X21590Y19050
X31750Y22733
X25908Y17780
X25908Y20530
X4064Y14224
X3937Y12421
X3683Y13386
X3810Y11455
X25908Y4572
X33655Y14478
X30480Y7620
X7620Y22479
X50038Y19050
X48768Y19050
X55118Y17780
X46228Y13970
X46228Y11430
X64135Y13335
X69596Y17780
X69596Y16637
X60198Y17780
X64008Y21590
X64008Y20320
X64008Y19050
X52578Y7620
X60198Y14605
X69596Y15494
X76581Y17780
X52578Y15240
X52578Y10160
X61087Y23241
X66548Y19050
X76708Y22733
X70866Y17780
X70866Y20530
X49022Y14224
X48895Y12421
X48641Y13386
X48768Y11455
X70866Y4572
X78613Y14478
X75438Y7620
X52578Y22479
X94996Y19050
X93726Y19050
X100076Y17780
X91186Y13970
X91186Y11430
X109093Y13335
X114554Y17780
X114554Y16637
X105156Y17780
X108966Y21590
X108966Y20320
X97536Y7620
X105156Y14605
X114554Y15494
X121539Y17780
X97536Y15240
X97536Y10160
X106045Y23241
X111506Y19050
X121666Y22733
X115824Y17780
X115824Y20530
X93980Y14224
X93853Y12421
X93599Y13386
X93726Y11455
X115824Y4572
X123571Y14478
X120396Y7620
X97536Y22479
X5080Y44958
X3810Y44958
X10160Y43688
X1270Y39878
X1270Y37338
X19177Y39243
X24638Y43688
X24638Y42545
X15240Y43688
X19050Y47498
X19050Y46228
X19050Y44958
X7620Y33528
X15240Y40513
X24638Y41402
X31623Y43688
X7620Y41148
X7620Y36068
X16129Y49149
X21590Y44958
X31750Y48641
X25908Y43688
X25908Y46438
X4064Y40132
X3937Y38329
X3683Y39294
X3810Y37363
X25908Y30480
X33655Y40386
X30480Y33528
X7620Y48387
X50038Y44958
X48768Y44958
X55118Y43688
X46228Y39878
X46228Y37338
X64135Y39243
X69596Y43688
X69596Y42545
X60198Y43688
X64008Y47498
X64008Y46228
X64008Y44958
X52578Y33528
X60198Y40513
X69596Y41402
X76581Y43688
X52578Y41148
X52578Y36068
X61087Y49149
X31623Y95504
X66548Y44958
X76708Y48641
X70866Y43688
X70866Y46438
X49022Y40132
X48895Y38329
X48641Y39294
X48768Y37363
X70866Y30480
X78613Y40386
X75438Y33528
X52578Y48387
X94996Y44958
X93726Y44958
X100076Y43688
X91186Y39878
X91186Y37338
X109093Y39243
X114554Y43688
X114554Y42545
X105156Y43688
X108966Y47498
X108966Y46228
X108966Y44958
X97536Y33528
X105156Y40513
X114554Y41402
X121539Y43688
X97536Y41148
X97536Y36068
X106045Y49149
X111506Y44958
X121666Y48641
X115824Y43688
X115824Y46438
X93980Y40132
X93853Y38329
X93599Y39294
X93726Y37363
X115824Y30480
X123571Y40386
X120396Y33528
X97536Y48387
X5080Y70866
X3810Y70866
X10160Y69596
X1270Y65786
X1270Y63246
X19177Y65151
X24638Y69596
X24638Y68453
X15240Y69596
X19050Y73406
X19050Y72136
X19050Y70866
X7620Y59436
X15240Y66421
X24638Y67310
X31623Y69596
X7620Y67056
X7620Y61976
X16129Y75057
X21590Y70866
X31750Y74549
X25908Y69596
X25908Y72346
X4064Y66040
X3937Y64237
X3683Y65202
X3810Y63271
X25908Y56388
X33655Y66294
X30480Y59436
M30