G04 EAGLE Gerber RS-274X export*
G75*
%MOMM*%
%FSLAX34Y34*%
%LPD*%
%INSoldermask Bottom*%
%IPPOS*%
%AMOC8*
5,1,8,0,0,1.08239X$1,22.5*%
G01*
%ADD10C,0.802400*%
%ADD11C,2.152400*%
%ADD12C,0.952400*%
%ADD13C,3.454400*%
%ADD14C,2.032000*%
%ADD15C,0.251966*%
%ADD16C,0.787400*%
%ADD17C,1.152400*%
%ADD18C,1.270000*%
%ADD19C,1.652400*%

G36*
X552515Y977912D02*
X552515Y977912D01*
X552581Y977914D01*
X552624Y977932D01*
X552671Y977940D01*
X552728Y977974D01*
X552788Y977999D01*
X552823Y978030D01*
X552864Y978055D01*
X552906Y978106D01*
X552954Y978150D01*
X552976Y978192D01*
X553005Y978229D01*
X553026Y978291D01*
X553057Y978350D01*
X553065Y978404D01*
X553077Y978441D01*
X553076Y978481D01*
X553084Y978535D01*
X553084Y982345D01*
X553073Y982410D01*
X553071Y982476D01*
X553053Y982519D01*
X553045Y982566D01*
X553011Y982623D01*
X552986Y982683D01*
X552955Y982718D01*
X552930Y982759D01*
X552879Y982801D01*
X552835Y982849D01*
X552793Y982871D01*
X552756Y982900D01*
X552694Y982921D01*
X552635Y982952D01*
X552581Y982960D01*
X552544Y982972D01*
X552504Y982971D01*
X552450Y982979D01*
X549910Y982979D01*
X549845Y982968D01*
X549779Y982966D01*
X549736Y982948D01*
X549689Y982940D01*
X549632Y982906D01*
X549572Y982881D01*
X549537Y982850D01*
X549496Y982825D01*
X549455Y982774D01*
X549406Y982730D01*
X549384Y982688D01*
X549355Y982651D01*
X549334Y982589D01*
X549303Y982530D01*
X549295Y982476D01*
X549283Y982439D01*
X549283Y982435D01*
X549283Y982434D01*
X549284Y982399D01*
X549276Y982345D01*
X549276Y978535D01*
X549287Y978470D01*
X549289Y978404D01*
X549307Y978361D01*
X549315Y978314D01*
X549349Y978257D01*
X549374Y978197D01*
X549405Y978162D01*
X549430Y978121D01*
X549481Y978080D01*
X549525Y978031D01*
X549567Y978009D01*
X549604Y977980D01*
X549666Y977959D01*
X549725Y977928D01*
X549779Y977920D01*
X549816Y977908D01*
X549856Y977909D01*
X549910Y977901D01*
X552450Y977901D01*
X552515Y977912D01*
G37*
G36*
X77535Y977912D02*
X77535Y977912D01*
X77601Y977914D01*
X77644Y977932D01*
X77691Y977940D01*
X77748Y977974D01*
X77808Y977999D01*
X77843Y978030D01*
X77884Y978055D01*
X77926Y978106D01*
X77974Y978150D01*
X77996Y978192D01*
X78025Y978229D01*
X78046Y978291D01*
X78077Y978350D01*
X78085Y978404D01*
X78097Y978441D01*
X78096Y978481D01*
X78104Y978535D01*
X78104Y982345D01*
X78093Y982410D01*
X78091Y982476D01*
X78073Y982519D01*
X78065Y982566D01*
X78031Y982623D01*
X78006Y982683D01*
X77975Y982718D01*
X77950Y982759D01*
X77899Y982801D01*
X77855Y982849D01*
X77813Y982871D01*
X77776Y982900D01*
X77714Y982921D01*
X77655Y982952D01*
X77601Y982960D01*
X77564Y982972D01*
X77524Y982971D01*
X77470Y982979D01*
X74930Y982979D01*
X74865Y982968D01*
X74799Y982966D01*
X74756Y982948D01*
X74709Y982940D01*
X74652Y982906D01*
X74592Y982881D01*
X74557Y982850D01*
X74516Y982825D01*
X74475Y982774D01*
X74426Y982730D01*
X74404Y982688D01*
X74375Y982651D01*
X74354Y982589D01*
X74323Y982530D01*
X74315Y982476D01*
X74303Y982439D01*
X74303Y982435D01*
X74303Y982434D01*
X74304Y982399D01*
X74296Y982345D01*
X74296Y978535D01*
X74307Y978470D01*
X74309Y978404D01*
X74327Y978361D01*
X74335Y978314D01*
X74369Y978257D01*
X74394Y978197D01*
X74425Y978162D01*
X74450Y978121D01*
X74501Y978080D01*
X74545Y978031D01*
X74587Y978009D01*
X74624Y977980D01*
X74686Y977959D01*
X74745Y977928D01*
X74799Y977920D01*
X74836Y977908D01*
X74876Y977909D01*
X74930Y977901D01*
X77470Y977901D01*
X77535Y977912D01*
G37*
G36*
X552515Y718832D02*
X552515Y718832D01*
X552581Y718834D01*
X552624Y718852D01*
X552671Y718860D01*
X552728Y718894D01*
X552788Y718919D01*
X552823Y718950D01*
X552864Y718975D01*
X552906Y719026D01*
X552954Y719070D01*
X552976Y719112D01*
X553005Y719149D01*
X553026Y719211D01*
X553057Y719270D01*
X553065Y719324D01*
X553077Y719361D01*
X553076Y719401D01*
X553084Y719455D01*
X553084Y723265D01*
X553073Y723330D01*
X553071Y723396D01*
X553053Y723439D01*
X553045Y723486D01*
X553011Y723543D01*
X552986Y723603D01*
X552955Y723638D01*
X552930Y723679D01*
X552879Y723721D01*
X552835Y723769D01*
X552793Y723791D01*
X552756Y723820D01*
X552694Y723841D01*
X552635Y723872D01*
X552581Y723880D01*
X552544Y723892D01*
X552504Y723891D01*
X552450Y723899D01*
X549910Y723899D01*
X549845Y723888D01*
X549779Y723886D01*
X549736Y723868D01*
X549689Y723860D01*
X549632Y723826D01*
X549572Y723801D01*
X549537Y723770D01*
X549496Y723745D01*
X549455Y723694D01*
X549406Y723650D01*
X549384Y723608D01*
X549355Y723571D01*
X549334Y723509D01*
X549303Y723450D01*
X549295Y723396D01*
X549283Y723359D01*
X549283Y723355D01*
X549283Y723354D01*
X549284Y723319D01*
X549276Y723265D01*
X549276Y719455D01*
X549287Y719390D01*
X549289Y719324D01*
X549307Y719281D01*
X549315Y719234D01*
X549349Y719177D01*
X549374Y719117D01*
X549405Y719082D01*
X549430Y719041D01*
X549481Y719000D01*
X549525Y718951D01*
X549567Y718929D01*
X549604Y718900D01*
X549666Y718879D01*
X549725Y718848D01*
X549779Y718840D01*
X549816Y718828D01*
X549856Y718829D01*
X549910Y718821D01*
X552450Y718821D01*
X552515Y718832D01*
G37*
G36*
X77535Y718832D02*
X77535Y718832D01*
X77601Y718834D01*
X77644Y718852D01*
X77691Y718860D01*
X77748Y718894D01*
X77808Y718919D01*
X77843Y718950D01*
X77884Y718975D01*
X77926Y719026D01*
X77974Y719070D01*
X77996Y719112D01*
X78025Y719149D01*
X78046Y719211D01*
X78077Y719270D01*
X78085Y719324D01*
X78097Y719361D01*
X78096Y719401D01*
X78104Y719455D01*
X78104Y723265D01*
X78093Y723330D01*
X78091Y723396D01*
X78073Y723439D01*
X78065Y723486D01*
X78031Y723543D01*
X78006Y723603D01*
X77975Y723638D01*
X77950Y723679D01*
X77899Y723721D01*
X77855Y723769D01*
X77813Y723791D01*
X77776Y723820D01*
X77714Y723841D01*
X77655Y723872D01*
X77601Y723880D01*
X77564Y723892D01*
X77524Y723891D01*
X77470Y723899D01*
X74930Y723899D01*
X74865Y723888D01*
X74799Y723886D01*
X74756Y723868D01*
X74709Y723860D01*
X74652Y723826D01*
X74592Y723801D01*
X74557Y723770D01*
X74516Y723745D01*
X74475Y723694D01*
X74426Y723650D01*
X74404Y723608D01*
X74375Y723571D01*
X74354Y723509D01*
X74323Y723450D01*
X74315Y723396D01*
X74303Y723359D01*
X74303Y723355D01*
X74303Y723354D01*
X74304Y723319D01*
X74296Y723265D01*
X74296Y719455D01*
X74307Y719390D01*
X74309Y719324D01*
X74327Y719281D01*
X74335Y719234D01*
X74369Y719177D01*
X74394Y719117D01*
X74425Y719082D01*
X74450Y719041D01*
X74501Y719000D01*
X74545Y718951D01*
X74587Y718929D01*
X74624Y718900D01*
X74686Y718879D01*
X74745Y718848D01*
X74799Y718840D01*
X74836Y718828D01*
X74876Y718829D01*
X74930Y718821D01*
X77470Y718821D01*
X77535Y718832D01*
G37*
G36*
X552515Y459752D02*
X552515Y459752D01*
X552581Y459754D01*
X552624Y459772D01*
X552671Y459780D01*
X552728Y459814D01*
X552788Y459839D01*
X552823Y459870D01*
X552864Y459895D01*
X552906Y459946D01*
X552954Y459990D01*
X552976Y460032D01*
X553005Y460069D01*
X553026Y460131D01*
X553057Y460190D01*
X553065Y460244D01*
X553077Y460281D01*
X553076Y460321D01*
X553084Y460375D01*
X553084Y464185D01*
X553073Y464250D01*
X553071Y464316D01*
X553053Y464359D01*
X553045Y464406D01*
X553011Y464463D01*
X552986Y464523D01*
X552955Y464558D01*
X552930Y464599D01*
X552879Y464641D01*
X552835Y464689D01*
X552793Y464711D01*
X552756Y464740D01*
X552694Y464761D01*
X552635Y464792D01*
X552581Y464800D01*
X552544Y464812D01*
X552504Y464811D01*
X552450Y464819D01*
X549910Y464819D01*
X549845Y464808D01*
X549779Y464806D01*
X549736Y464788D01*
X549689Y464780D01*
X549632Y464746D01*
X549572Y464721D01*
X549537Y464690D01*
X549496Y464665D01*
X549455Y464614D01*
X549406Y464570D01*
X549384Y464528D01*
X549355Y464491D01*
X549334Y464429D01*
X549303Y464370D01*
X549295Y464316D01*
X549283Y464279D01*
X549283Y464275D01*
X549283Y464274D01*
X549284Y464239D01*
X549276Y464185D01*
X549276Y460375D01*
X549287Y460310D01*
X549289Y460244D01*
X549307Y460201D01*
X549315Y460154D01*
X549349Y460097D01*
X549374Y460037D01*
X549405Y460002D01*
X549430Y459961D01*
X549481Y459920D01*
X549525Y459871D01*
X549567Y459849D01*
X549604Y459820D01*
X549666Y459799D01*
X549725Y459768D01*
X549779Y459760D01*
X549816Y459748D01*
X549856Y459749D01*
X549910Y459741D01*
X552450Y459741D01*
X552515Y459752D01*
G37*
G36*
X77535Y459752D02*
X77535Y459752D01*
X77601Y459754D01*
X77644Y459772D01*
X77691Y459780D01*
X77748Y459814D01*
X77808Y459839D01*
X77843Y459870D01*
X77884Y459895D01*
X77926Y459946D01*
X77974Y459990D01*
X77996Y460032D01*
X78025Y460069D01*
X78046Y460131D01*
X78077Y460190D01*
X78085Y460244D01*
X78097Y460281D01*
X78096Y460321D01*
X78104Y460375D01*
X78104Y464185D01*
X78093Y464250D01*
X78091Y464316D01*
X78073Y464359D01*
X78065Y464406D01*
X78031Y464463D01*
X78006Y464523D01*
X77975Y464558D01*
X77950Y464599D01*
X77899Y464641D01*
X77855Y464689D01*
X77813Y464711D01*
X77776Y464740D01*
X77714Y464761D01*
X77655Y464792D01*
X77601Y464800D01*
X77564Y464812D01*
X77524Y464811D01*
X77470Y464819D01*
X74930Y464819D01*
X74865Y464808D01*
X74799Y464806D01*
X74756Y464788D01*
X74709Y464780D01*
X74652Y464746D01*
X74592Y464721D01*
X74557Y464690D01*
X74516Y464665D01*
X74475Y464614D01*
X74426Y464570D01*
X74404Y464528D01*
X74375Y464491D01*
X74354Y464429D01*
X74323Y464370D01*
X74315Y464316D01*
X74303Y464279D01*
X74303Y464275D01*
X74303Y464274D01*
X74304Y464239D01*
X74296Y464185D01*
X74296Y460375D01*
X74307Y460310D01*
X74309Y460244D01*
X74327Y460201D01*
X74335Y460154D01*
X74369Y460097D01*
X74394Y460037D01*
X74425Y460002D01*
X74450Y459961D01*
X74501Y459920D01*
X74545Y459871D01*
X74587Y459849D01*
X74624Y459820D01*
X74686Y459799D01*
X74745Y459768D01*
X74799Y459760D01*
X74836Y459748D01*
X74876Y459749D01*
X74930Y459741D01*
X77470Y459741D01*
X77535Y459752D01*
G37*
G36*
X552515Y200672D02*
X552515Y200672D01*
X552581Y200674D01*
X552624Y200692D01*
X552671Y200700D01*
X552728Y200734D01*
X552788Y200759D01*
X552823Y200790D01*
X552864Y200815D01*
X552906Y200866D01*
X552954Y200910D01*
X552976Y200952D01*
X553005Y200989D01*
X553026Y201051D01*
X553057Y201110D01*
X553065Y201164D01*
X553077Y201201D01*
X553076Y201241D01*
X553084Y201295D01*
X553084Y205105D01*
X553073Y205170D01*
X553071Y205236D01*
X553053Y205279D01*
X553045Y205326D01*
X553011Y205383D01*
X552986Y205443D01*
X552955Y205478D01*
X552930Y205519D01*
X552879Y205561D01*
X552835Y205609D01*
X552793Y205631D01*
X552756Y205660D01*
X552694Y205681D01*
X552635Y205712D01*
X552581Y205720D01*
X552544Y205732D01*
X552504Y205731D01*
X552450Y205739D01*
X549910Y205739D01*
X549845Y205728D01*
X549779Y205726D01*
X549736Y205708D01*
X549689Y205700D01*
X549632Y205666D01*
X549572Y205641D01*
X549537Y205610D01*
X549496Y205585D01*
X549455Y205534D01*
X549406Y205490D01*
X549384Y205448D01*
X549355Y205411D01*
X549334Y205349D01*
X549303Y205290D01*
X549295Y205236D01*
X549283Y205199D01*
X549283Y205195D01*
X549283Y205194D01*
X549284Y205159D01*
X549276Y205105D01*
X549276Y201295D01*
X549287Y201230D01*
X549289Y201164D01*
X549307Y201121D01*
X549315Y201074D01*
X549349Y201017D01*
X549374Y200957D01*
X549405Y200922D01*
X549430Y200881D01*
X549481Y200840D01*
X549525Y200791D01*
X549567Y200769D01*
X549604Y200740D01*
X549666Y200719D01*
X549725Y200688D01*
X549779Y200680D01*
X549816Y200668D01*
X549856Y200669D01*
X549910Y200661D01*
X552450Y200661D01*
X552515Y200672D01*
G37*
G36*
X77535Y200672D02*
X77535Y200672D01*
X77601Y200674D01*
X77644Y200692D01*
X77691Y200700D01*
X77748Y200734D01*
X77808Y200759D01*
X77843Y200790D01*
X77884Y200815D01*
X77926Y200866D01*
X77974Y200910D01*
X77996Y200952D01*
X78025Y200989D01*
X78046Y201051D01*
X78077Y201110D01*
X78085Y201164D01*
X78097Y201201D01*
X78096Y201241D01*
X78104Y201295D01*
X78104Y205105D01*
X78093Y205170D01*
X78091Y205236D01*
X78073Y205279D01*
X78065Y205326D01*
X78031Y205383D01*
X78006Y205443D01*
X77975Y205478D01*
X77950Y205519D01*
X77899Y205561D01*
X77855Y205609D01*
X77813Y205631D01*
X77776Y205660D01*
X77714Y205681D01*
X77655Y205712D01*
X77601Y205720D01*
X77564Y205732D01*
X77524Y205731D01*
X77470Y205739D01*
X74930Y205739D01*
X74865Y205728D01*
X74799Y205726D01*
X74756Y205708D01*
X74709Y205700D01*
X74652Y205666D01*
X74592Y205641D01*
X74557Y205610D01*
X74516Y205585D01*
X74475Y205534D01*
X74426Y205490D01*
X74404Y205448D01*
X74375Y205411D01*
X74354Y205349D01*
X74323Y205290D01*
X74315Y205236D01*
X74303Y205199D01*
X74303Y205195D01*
X74303Y205194D01*
X74304Y205159D01*
X74296Y205105D01*
X74296Y201295D01*
X74307Y201230D01*
X74309Y201164D01*
X74327Y201121D01*
X74335Y201074D01*
X74369Y201017D01*
X74394Y200957D01*
X74425Y200922D01*
X74450Y200881D01*
X74501Y200840D01*
X74545Y200791D01*
X74587Y200769D01*
X74624Y200740D01*
X74686Y200719D01*
X74745Y200688D01*
X74799Y200680D01*
X74836Y200668D01*
X74876Y200669D01*
X74930Y200661D01*
X77470Y200661D01*
X77535Y200672D01*
G37*
G36*
X739840Y901077D02*
X739840Y901077D01*
X739906Y901079D01*
X739949Y901097D01*
X739996Y901105D01*
X740053Y901139D01*
X740113Y901164D01*
X740148Y901195D01*
X740189Y901220D01*
X740231Y901271D01*
X740279Y901315D01*
X740301Y901357D01*
X740330Y901394D01*
X740351Y901456D01*
X740382Y901515D01*
X740390Y901569D01*
X740402Y901606D01*
X740401Y901646D01*
X740409Y901700D01*
X740409Y904240D01*
X740398Y904305D01*
X740396Y904371D01*
X740378Y904414D01*
X740370Y904461D01*
X740336Y904518D01*
X740311Y904578D01*
X740280Y904613D01*
X740255Y904654D01*
X740204Y904696D01*
X740160Y904744D01*
X740118Y904766D01*
X740081Y904795D01*
X740019Y904816D01*
X739960Y904847D01*
X739906Y904855D01*
X739869Y904867D01*
X739829Y904866D01*
X739775Y904874D01*
X735965Y904874D01*
X735900Y904863D01*
X735834Y904861D01*
X735791Y904843D01*
X735744Y904835D01*
X735687Y904801D01*
X735627Y904776D01*
X735592Y904745D01*
X735551Y904720D01*
X735510Y904669D01*
X735461Y904625D01*
X735439Y904583D01*
X735410Y904546D01*
X735389Y904484D01*
X735358Y904425D01*
X735350Y904371D01*
X735338Y904334D01*
X735338Y904331D01*
X735339Y904294D01*
X735331Y904240D01*
X735331Y901700D01*
X735342Y901635D01*
X735344Y901569D01*
X735362Y901526D01*
X735370Y901479D01*
X735404Y901422D01*
X735429Y901362D01*
X735460Y901327D01*
X735485Y901286D01*
X735536Y901245D01*
X735580Y901196D01*
X735622Y901174D01*
X735659Y901145D01*
X735721Y901124D01*
X735780Y901093D01*
X735834Y901085D01*
X735871Y901073D01*
X735911Y901074D01*
X735965Y901066D01*
X739775Y901066D01*
X739840Y901077D01*
G37*
G36*
X264860Y901077D02*
X264860Y901077D01*
X264926Y901079D01*
X264969Y901097D01*
X265016Y901105D01*
X265073Y901139D01*
X265133Y901164D01*
X265168Y901195D01*
X265209Y901220D01*
X265251Y901271D01*
X265299Y901315D01*
X265321Y901357D01*
X265350Y901394D01*
X265371Y901456D01*
X265402Y901515D01*
X265410Y901569D01*
X265422Y901606D01*
X265421Y901646D01*
X265429Y901700D01*
X265429Y904240D01*
X265418Y904305D01*
X265416Y904371D01*
X265398Y904414D01*
X265390Y904461D01*
X265356Y904518D01*
X265331Y904578D01*
X265300Y904613D01*
X265275Y904654D01*
X265224Y904696D01*
X265180Y904744D01*
X265138Y904766D01*
X265101Y904795D01*
X265039Y904816D01*
X264980Y904847D01*
X264926Y904855D01*
X264889Y904867D01*
X264849Y904866D01*
X264795Y904874D01*
X260985Y904874D01*
X260920Y904863D01*
X260854Y904861D01*
X260811Y904843D01*
X260764Y904835D01*
X260707Y904801D01*
X260647Y904776D01*
X260612Y904745D01*
X260571Y904720D01*
X260530Y904669D01*
X260481Y904625D01*
X260459Y904583D01*
X260430Y904546D01*
X260409Y904484D01*
X260378Y904425D01*
X260370Y904371D01*
X260358Y904334D01*
X260358Y904331D01*
X260359Y904294D01*
X260351Y904240D01*
X260351Y901700D01*
X260362Y901635D01*
X260364Y901569D01*
X260382Y901526D01*
X260390Y901479D01*
X260424Y901422D01*
X260449Y901362D01*
X260480Y901327D01*
X260505Y901286D01*
X260556Y901245D01*
X260600Y901196D01*
X260642Y901174D01*
X260679Y901145D01*
X260741Y901124D01*
X260800Y901093D01*
X260854Y901085D01*
X260891Y901073D01*
X260931Y901074D01*
X260985Y901066D01*
X264795Y901066D01*
X264860Y901077D01*
G37*
G36*
X264860Y873137D02*
X264860Y873137D01*
X264926Y873139D01*
X264969Y873157D01*
X265016Y873165D01*
X265073Y873199D01*
X265133Y873224D01*
X265168Y873255D01*
X265209Y873280D01*
X265251Y873331D01*
X265299Y873375D01*
X265321Y873417D01*
X265350Y873454D01*
X265371Y873516D01*
X265402Y873575D01*
X265410Y873629D01*
X265422Y873666D01*
X265421Y873706D01*
X265429Y873760D01*
X265429Y876300D01*
X265418Y876365D01*
X265416Y876431D01*
X265398Y876474D01*
X265390Y876521D01*
X265356Y876578D01*
X265331Y876638D01*
X265300Y876673D01*
X265275Y876714D01*
X265224Y876756D01*
X265180Y876804D01*
X265138Y876826D01*
X265101Y876855D01*
X265039Y876876D01*
X264980Y876907D01*
X264926Y876915D01*
X264889Y876927D01*
X264849Y876926D01*
X264795Y876934D01*
X260985Y876934D01*
X260920Y876923D01*
X260854Y876921D01*
X260811Y876903D01*
X260764Y876895D01*
X260707Y876861D01*
X260647Y876836D01*
X260612Y876805D01*
X260571Y876780D01*
X260530Y876729D01*
X260481Y876685D01*
X260459Y876643D01*
X260430Y876606D01*
X260409Y876544D01*
X260378Y876485D01*
X260370Y876431D01*
X260358Y876394D01*
X260358Y876391D01*
X260359Y876354D01*
X260351Y876300D01*
X260351Y873760D01*
X260362Y873695D01*
X260364Y873629D01*
X260382Y873586D01*
X260390Y873539D01*
X260424Y873482D01*
X260449Y873422D01*
X260480Y873387D01*
X260505Y873346D01*
X260556Y873305D01*
X260600Y873256D01*
X260642Y873234D01*
X260679Y873205D01*
X260741Y873184D01*
X260800Y873153D01*
X260854Y873145D01*
X260891Y873133D01*
X260931Y873134D01*
X260985Y873126D01*
X264795Y873126D01*
X264860Y873137D01*
G37*
G36*
X739840Y873137D02*
X739840Y873137D01*
X739906Y873139D01*
X739949Y873157D01*
X739996Y873165D01*
X740053Y873199D01*
X740113Y873224D01*
X740148Y873255D01*
X740189Y873280D01*
X740231Y873331D01*
X740279Y873375D01*
X740301Y873417D01*
X740330Y873454D01*
X740351Y873516D01*
X740382Y873575D01*
X740390Y873629D01*
X740402Y873666D01*
X740401Y873706D01*
X740409Y873760D01*
X740409Y876300D01*
X740398Y876365D01*
X740396Y876431D01*
X740378Y876474D01*
X740370Y876521D01*
X740336Y876578D01*
X740311Y876638D01*
X740280Y876673D01*
X740255Y876714D01*
X740204Y876756D01*
X740160Y876804D01*
X740118Y876826D01*
X740081Y876855D01*
X740019Y876876D01*
X739960Y876907D01*
X739906Y876915D01*
X739869Y876927D01*
X739829Y876926D01*
X739775Y876934D01*
X735965Y876934D01*
X735900Y876923D01*
X735834Y876921D01*
X735791Y876903D01*
X735744Y876895D01*
X735687Y876861D01*
X735627Y876836D01*
X735592Y876805D01*
X735551Y876780D01*
X735510Y876729D01*
X735461Y876685D01*
X735439Y876643D01*
X735410Y876606D01*
X735389Y876544D01*
X735358Y876485D01*
X735350Y876431D01*
X735338Y876394D01*
X735338Y876391D01*
X735339Y876354D01*
X735331Y876300D01*
X735331Y873760D01*
X735342Y873695D01*
X735344Y873629D01*
X735362Y873586D01*
X735370Y873539D01*
X735404Y873482D01*
X735429Y873422D01*
X735460Y873387D01*
X735485Y873346D01*
X735536Y873305D01*
X735580Y873256D01*
X735622Y873234D01*
X735659Y873205D01*
X735721Y873184D01*
X735780Y873153D01*
X735834Y873145D01*
X735871Y873133D01*
X735911Y873134D01*
X735965Y873126D01*
X739775Y873126D01*
X739840Y873137D01*
G37*
G36*
X264860Y641997D02*
X264860Y641997D01*
X264926Y641999D01*
X264969Y642017D01*
X265016Y642025D01*
X265073Y642059D01*
X265133Y642084D01*
X265168Y642115D01*
X265209Y642140D01*
X265251Y642191D01*
X265299Y642235D01*
X265321Y642277D01*
X265350Y642314D01*
X265371Y642376D01*
X265402Y642435D01*
X265410Y642489D01*
X265422Y642526D01*
X265421Y642566D01*
X265429Y642620D01*
X265429Y645160D01*
X265418Y645225D01*
X265416Y645291D01*
X265398Y645334D01*
X265390Y645381D01*
X265356Y645438D01*
X265331Y645498D01*
X265300Y645533D01*
X265275Y645574D01*
X265224Y645616D01*
X265180Y645664D01*
X265138Y645686D01*
X265101Y645715D01*
X265039Y645736D01*
X264980Y645767D01*
X264926Y645775D01*
X264889Y645787D01*
X264849Y645786D01*
X264795Y645794D01*
X260985Y645794D01*
X260920Y645783D01*
X260854Y645781D01*
X260811Y645763D01*
X260764Y645755D01*
X260707Y645721D01*
X260647Y645696D01*
X260612Y645665D01*
X260571Y645640D01*
X260530Y645589D01*
X260481Y645545D01*
X260459Y645503D01*
X260430Y645466D01*
X260409Y645404D01*
X260378Y645345D01*
X260370Y645291D01*
X260358Y645254D01*
X260358Y645251D01*
X260359Y645214D01*
X260351Y645160D01*
X260351Y642620D01*
X260362Y642555D01*
X260364Y642489D01*
X260382Y642446D01*
X260390Y642399D01*
X260424Y642342D01*
X260449Y642282D01*
X260480Y642247D01*
X260505Y642206D01*
X260556Y642165D01*
X260600Y642116D01*
X260642Y642094D01*
X260679Y642065D01*
X260741Y642044D01*
X260800Y642013D01*
X260854Y642005D01*
X260891Y641993D01*
X260931Y641994D01*
X260985Y641986D01*
X264795Y641986D01*
X264860Y641997D01*
G37*
G36*
X739840Y641997D02*
X739840Y641997D01*
X739906Y641999D01*
X739949Y642017D01*
X739996Y642025D01*
X740053Y642059D01*
X740113Y642084D01*
X740148Y642115D01*
X740189Y642140D01*
X740231Y642191D01*
X740279Y642235D01*
X740301Y642277D01*
X740330Y642314D01*
X740351Y642376D01*
X740382Y642435D01*
X740390Y642489D01*
X740402Y642526D01*
X740401Y642566D01*
X740409Y642620D01*
X740409Y645160D01*
X740398Y645225D01*
X740396Y645291D01*
X740378Y645334D01*
X740370Y645381D01*
X740336Y645438D01*
X740311Y645498D01*
X740280Y645533D01*
X740255Y645574D01*
X740204Y645616D01*
X740160Y645664D01*
X740118Y645686D01*
X740081Y645715D01*
X740019Y645736D01*
X739960Y645767D01*
X739906Y645775D01*
X739869Y645787D01*
X739829Y645786D01*
X739775Y645794D01*
X735965Y645794D01*
X735900Y645783D01*
X735834Y645781D01*
X735791Y645763D01*
X735744Y645755D01*
X735687Y645721D01*
X735627Y645696D01*
X735592Y645665D01*
X735551Y645640D01*
X735510Y645589D01*
X735461Y645545D01*
X735439Y645503D01*
X735410Y645466D01*
X735389Y645404D01*
X735358Y645345D01*
X735350Y645291D01*
X735338Y645254D01*
X735338Y645251D01*
X735339Y645214D01*
X735331Y645160D01*
X735331Y642620D01*
X735342Y642555D01*
X735344Y642489D01*
X735362Y642446D01*
X735370Y642399D01*
X735404Y642342D01*
X735429Y642282D01*
X735460Y642247D01*
X735485Y642206D01*
X735536Y642165D01*
X735580Y642116D01*
X735622Y642094D01*
X735659Y642065D01*
X735721Y642044D01*
X735780Y642013D01*
X735834Y642005D01*
X735871Y641993D01*
X735911Y641994D01*
X735965Y641986D01*
X739775Y641986D01*
X739840Y641997D01*
G37*
G36*
X264860Y614057D02*
X264860Y614057D01*
X264926Y614059D01*
X264969Y614077D01*
X265016Y614085D01*
X265073Y614119D01*
X265133Y614144D01*
X265168Y614175D01*
X265209Y614200D01*
X265251Y614251D01*
X265299Y614295D01*
X265321Y614337D01*
X265350Y614374D01*
X265371Y614436D01*
X265402Y614495D01*
X265410Y614549D01*
X265422Y614586D01*
X265421Y614626D01*
X265429Y614680D01*
X265429Y617220D01*
X265418Y617285D01*
X265416Y617351D01*
X265398Y617394D01*
X265390Y617441D01*
X265356Y617498D01*
X265331Y617558D01*
X265300Y617593D01*
X265275Y617634D01*
X265224Y617676D01*
X265180Y617724D01*
X265138Y617746D01*
X265101Y617775D01*
X265039Y617796D01*
X264980Y617827D01*
X264926Y617835D01*
X264889Y617847D01*
X264849Y617846D01*
X264795Y617854D01*
X260985Y617854D01*
X260920Y617843D01*
X260854Y617841D01*
X260811Y617823D01*
X260764Y617815D01*
X260707Y617781D01*
X260647Y617756D01*
X260612Y617725D01*
X260571Y617700D01*
X260530Y617649D01*
X260481Y617605D01*
X260459Y617563D01*
X260430Y617526D01*
X260409Y617464D01*
X260378Y617405D01*
X260370Y617351D01*
X260358Y617314D01*
X260358Y617311D01*
X260359Y617274D01*
X260351Y617220D01*
X260351Y614680D01*
X260362Y614615D01*
X260364Y614549D01*
X260382Y614506D01*
X260390Y614459D01*
X260424Y614402D01*
X260449Y614342D01*
X260480Y614307D01*
X260505Y614266D01*
X260556Y614225D01*
X260600Y614176D01*
X260642Y614154D01*
X260679Y614125D01*
X260741Y614104D01*
X260800Y614073D01*
X260854Y614065D01*
X260891Y614053D01*
X260931Y614054D01*
X260985Y614046D01*
X264795Y614046D01*
X264860Y614057D01*
G37*
G36*
X739840Y614057D02*
X739840Y614057D01*
X739906Y614059D01*
X739949Y614077D01*
X739996Y614085D01*
X740053Y614119D01*
X740113Y614144D01*
X740148Y614175D01*
X740189Y614200D01*
X740231Y614251D01*
X740279Y614295D01*
X740301Y614337D01*
X740330Y614374D01*
X740351Y614436D01*
X740382Y614495D01*
X740390Y614549D01*
X740402Y614586D01*
X740401Y614626D01*
X740409Y614680D01*
X740409Y617220D01*
X740398Y617285D01*
X740396Y617351D01*
X740378Y617394D01*
X740370Y617441D01*
X740336Y617498D01*
X740311Y617558D01*
X740280Y617593D01*
X740255Y617634D01*
X740204Y617676D01*
X740160Y617724D01*
X740118Y617746D01*
X740081Y617775D01*
X740019Y617796D01*
X739960Y617827D01*
X739906Y617835D01*
X739869Y617847D01*
X739829Y617846D01*
X739775Y617854D01*
X735965Y617854D01*
X735900Y617843D01*
X735834Y617841D01*
X735791Y617823D01*
X735744Y617815D01*
X735687Y617781D01*
X735627Y617756D01*
X735592Y617725D01*
X735551Y617700D01*
X735510Y617649D01*
X735461Y617605D01*
X735439Y617563D01*
X735410Y617526D01*
X735389Y617464D01*
X735358Y617405D01*
X735350Y617351D01*
X735338Y617314D01*
X735338Y617311D01*
X735339Y617274D01*
X735331Y617220D01*
X735331Y614680D01*
X735342Y614615D01*
X735344Y614549D01*
X735362Y614506D01*
X735370Y614459D01*
X735404Y614402D01*
X735429Y614342D01*
X735460Y614307D01*
X735485Y614266D01*
X735536Y614225D01*
X735580Y614176D01*
X735622Y614154D01*
X735659Y614125D01*
X735721Y614104D01*
X735780Y614073D01*
X735834Y614065D01*
X735871Y614053D01*
X735911Y614054D01*
X735965Y614046D01*
X739775Y614046D01*
X739840Y614057D01*
G37*
G36*
X739840Y382917D02*
X739840Y382917D01*
X739906Y382919D01*
X739949Y382937D01*
X739996Y382945D01*
X740053Y382979D01*
X740113Y383004D01*
X740148Y383035D01*
X740189Y383060D01*
X740231Y383111D01*
X740279Y383155D01*
X740301Y383197D01*
X740330Y383234D01*
X740351Y383296D01*
X740382Y383355D01*
X740390Y383409D01*
X740402Y383446D01*
X740401Y383486D01*
X740409Y383540D01*
X740409Y386080D01*
X740398Y386145D01*
X740396Y386211D01*
X740378Y386254D01*
X740370Y386301D01*
X740336Y386358D01*
X740311Y386418D01*
X740280Y386453D01*
X740255Y386494D01*
X740204Y386536D01*
X740160Y386584D01*
X740118Y386606D01*
X740081Y386635D01*
X740019Y386656D01*
X739960Y386687D01*
X739906Y386695D01*
X739869Y386707D01*
X739829Y386706D01*
X739775Y386714D01*
X735965Y386714D01*
X735900Y386703D01*
X735834Y386701D01*
X735791Y386683D01*
X735744Y386675D01*
X735687Y386641D01*
X735627Y386616D01*
X735592Y386585D01*
X735551Y386560D01*
X735510Y386509D01*
X735461Y386465D01*
X735439Y386423D01*
X735410Y386386D01*
X735389Y386324D01*
X735358Y386265D01*
X735350Y386211D01*
X735338Y386174D01*
X735338Y386171D01*
X735339Y386134D01*
X735331Y386080D01*
X735331Y383540D01*
X735342Y383475D01*
X735344Y383409D01*
X735362Y383366D01*
X735370Y383319D01*
X735404Y383262D01*
X735429Y383202D01*
X735460Y383167D01*
X735485Y383126D01*
X735536Y383085D01*
X735580Y383036D01*
X735622Y383014D01*
X735659Y382985D01*
X735721Y382964D01*
X735780Y382933D01*
X735834Y382925D01*
X735871Y382913D01*
X735911Y382914D01*
X735965Y382906D01*
X739775Y382906D01*
X739840Y382917D01*
G37*
G36*
X264860Y382917D02*
X264860Y382917D01*
X264926Y382919D01*
X264969Y382937D01*
X265016Y382945D01*
X265073Y382979D01*
X265133Y383004D01*
X265168Y383035D01*
X265209Y383060D01*
X265251Y383111D01*
X265299Y383155D01*
X265321Y383197D01*
X265350Y383234D01*
X265371Y383296D01*
X265402Y383355D01*
X265410Y383409D01*
X265422Y383446D01*
X265421Y383486D01*
X265429Y383540D01*
X265429Y386080D01*
X265418Y386145D01*
X265416Y386211D01*
X265398Y386254D01*
X265390Y386301D01*
X265356Y386358D01*
X265331Y386418D01*
X265300Y386453D01*
X265275Y386494D01*
X265224Y386536D01*
X265180Y386584D01*
X265138Y386606D01*
X265101Y386635D01*
X265039Y386656D01*
X264980Y386687D01*
X264926Y386695D01*
X264889Y386707D01*
X264849Y386706D01*
X264795Y386714D01*
X260985Y386714D01*
X260920Y386703D01*
X260854Y386701D01*
X260811Y386683D01*
X260764Y386675D01*
X260707Y386641D01*
X260647Y386616D01*
X260612Y386585D01*
X260571Y386560D01*
X260530Y386509D01*
X260481Y386465D01*
X260459Y386423D01*
X260430Y386386D01*
X260409Y386324D01*
X260378Y386265D01*
X260370Y386211D01*
X260358Y386174D01*
X260358Y386171D01*
X260359Y386134D01*
X260351Y386080D01*
X260351Y383540D01*
X260362Y383475D01*
X260364Y383409D01*
X260382Y383366D01*
X260390Y383319D01*
X260424Y383262D01*
X260449Y383202D01*
X260480Y383167D01*
X260505Y383126D01*
X260556Y383085D01*
X260600Y383036D01*
X260642Y383014D01*
X260679Y382985D01*
X260741Y382964D01*
X260800Y382933D01*
X260854Y382925D01*
X260891Y382913D01*
X260931Y382914D01*
X260985Y382906D01*
X264795Y382906D01*
X264860Y382917D01*
G37*
G36*
X739840Y354977D02*
X739840Y354977D01*
X739906Y354979D01*
X739949Y354997D01*
X739996Y355005D01*
X740053Y355039D01*
X740113Y355064D01*
X740148Y355095D01*
X740189Y355120D01*
X740231Y355171D01*
X740279Y355215D01*
X740301Y355257D01*
X740330Y355294D01*
X740351Y355356D01*
X740382Y355415D01*
X740390Y355469D01*
X740402Y355506D01*
X740401Y355546D01*
X740409Y355600D01*
X740409Y358140D01*
X740398Y358205D01*
X740396Y358271D01*
X740378Y358314D01*
X740370Y358361D01*
X740336Y358418D01*
X740311Y358478D01*
X740280Y358513D01*
X740255Y358554D01*
X740204Y358596D01*
X740160Y358644D01*
X740118Y358666D01*
X740081Y358695D01*
X740019Y358716D01*
X739960Y358747D01*
X739906Y358755D01*
X739869Y358767D01*
X739829Y358766D01*
X739775Y358774D01*
X735965Y358774D01*
X735900Y358763D01*
X735834Y358761D01*
X735791Y358743D01*
X735744Y358735D01*
X735687Y358701D01*
X735627Y358676D01*
X735592Y358645D01*
X735551Y358620D01*
X735510Y358569D01*
X735461Y358525D01*
X735439Y358483D01*
X735410Y358446D01*
X735389Y358384D01*
X735358Y358325D01*
X735350Y358271D01*
X735338Y358234D01*
X735338Y358231D01*
X735339Y358194D01*
X735331Y358140D01*
X735331Y355600D01*
X735342Y355535D01*
X735344Y355469D01*
X735362Y355426D01*
X735370Y355379D01*
X735404Y355322D01*
X735429Y355262D01*
X735460Y355227D01*
X735485Y355186D01*
X735536Y355145D01*
X735580Y355096D01*
X735622Y355074D01*
X735659Y355045D01*
X735721Y355024D01*
X735780Y354993D01*
X735834Y354985D01*
X735871Y354973D01*
X735911Y354974D01*
X735965Y354966D01*
X739775Y354966D01*
X739840Y354977D01*
G37*
G36*
X264860Y354977D02*
X264860Y354977D01*
X264926Y354979D01*
X264969Y354997D01*
X265016Y355005D01*
X265073Y355039D01*
X265133Y355064D01*
X265168Y355095D01*
X265209Y355120D01*
X265251Y355171D01*
X265299Y355215D01*
X265321Y355257D01*
X265350Y355294D01*
X265371Y355356D01*
X265402Y355415D01*
X265410Y355469D01*
X265422Y355506D01*
X265421Y355546D01*
X265429Y355600D01*
X265429Y358140D01*
X265418Y358205D01*
X265416Y358271D01*
X265398Y358314D01*
X265390Y358361D01*
X265356Y358418D01*
X265331Y358478D01*
X265300Y358513D01*
X265275Y358554D01*
X265224Y358596D01*
X265180Y358644D01*
X265138Y358666D01*
X265101Y358695D01*
X265039Y358716D01*
X264980Y358747D01*
X264926Y358755D01*
X264889Y358767D01*
X264849Y358766D01*
X264795Y358774D01*
X260985Y358774D01*
X260920Y358763D01*
X260854Y358761D01*
X260811Y358743D01*
X260764Y358735D01*
X260707Y358701D01*
X260647Y358676D01*
X260612Y358645D01*
X260571Y358620D01*
X260530Y358569D01*
X260481Y358525D01*
X260459Y358483D01*
X260430Y358446D01*
X260409Y358384D01*
X260378Y358325D01*
X260370Y358271D01*
X260358Y358234D01*
X260358Y358231D01*
X260359Y358194D01*
X260351Y358140D01*
X260351Y355600D01*
X260362Y355535D01*
X260364Y355469D01*
X260382Y355426D01*
X260390Y355379D01*
X260424Y355322D01*
X260449Y355262D01*
X260480Y355227D01*
X260505Y355186D01*
X260556Y355145D01*
X260600Y355096D01*
X260642Y355074D01*
X260679Y355045D01*
X260741Y355024D01*
X260800Y354993D01*
X260854Y354985D01*
X260891Y354973D01*
X260931Y354974D01*
X260985Y354966D01*
X264795Y354966D01*
X264860Y354977D01*
G37*
G36*
X739840Y123837D02*
X739840Y123837D01*
X739906Y123839D01*
X739949Y123857D01*
X739996Y123865D01*
X740053Y123899D01*
X740113Y123924D01*
X740148Y123955D01*
X740189Y123980D01*
X740231Y124031D01*
X740279Y124075D01*
X740301Y124117D01*
X740330Y124154D01*
X740351Y124216D01*
X740382Y124275D01*
X740390Y124329D01*
X740402Y124366D01*
X740401Y124406D01*
X740409Y124460D01*
X740409Y127000D01*
X740398Y127065D01*
X740396Y127131D01*
X740378Y127174D01*
X740370Y127221D01*
X740336Y127278D01*
X740311Y127338D01*
X740280Y127373D01*
X740255Y127414D01*
X740204Y127456D01*
X740160Y127504D01*
X740118Y127526D01*
X740081Y127555D01*
X740019Y127576D01*
X739960Y127607D01*
X739906Y127615D01*
X739869Y127627D01*
X739829Y127626D01*
X739775Y127634D01*
X735965Y127634D01*
X735900Y127623D01*
X735834Y127621D01*
X735791Y127603D01*
X735744Y127595D01*
X735687Y127561D01*
X735627Y127536D01*
X735592Y127505D01*
X735551Y127480D01*
X735510Y127429D01*
X735461Y127385D01*
X735439Y127343D01*
X735410Y127306D01*
X735389Y127244D01*
X735358Y127185D01*
X735350Y127131D01*
X735338Y127094D01*
X735338Y127091D01*
X735339Y127054D01*
X735331Y127000D01*
X735331Y124460D01*
X735342Y124395D01*
X735344Y124329D01*
X735362Y124286D01*
X735370Y124239D01*
X735404Y124182D01*
X735429Y124122D01*
X735460Y124087D01*
X735485Y124046D01*
X735536Y124005D01*
X735580Y123956D01*
X735622Y123934D01*
X735659Y123905D01*
X735721Y123884D01*
X735780Y123853D01*
X735834Y123845D01*
X735871Y123833D01*
X735911Y123834D01*
X735965Y123826D01*
X739775Y123826D01*
X739840Y123837D01*
G37*
G36*
X264860Y123837D02*
X264860Y123837D01*
X264926Y123839D01*
X264969Y123857D01*
X265016Y123865D01*
X265073Y123899D01*
X265133Y123924D01*
X265168Y123955D01*
X265209Y123980D01*
X265251Y124031D01*
X265299Y124075D01*
X265321Y124117D01*
X265350Y124154D01*
X265371Y124216D01*
X265402Y124275D01*
X265410Y124329D01*
X265422Y124366D01*
X265421Y124406D01*
X265429Y124460D01*
X265429Y127000D01*
X265418Y127065D01*
X265416Y127131D01*
X265398Y127174D01*
X265390Y127221D01*
X265356Y127278D01*
X265331Y127338D01*
X265300Y127373D01*
X265275Y127414D01*
X265224Y127456D01*
X265180Y127504D01*
X265138Y127526D01*
X265101Y127555D01*
X265039Y127576D01*
X264980Y127607D01*
X264926Y127615D01*
X264889Y127627D01*
X264849Y127626D01*
X264795Y127634D01*
X260985Y127634D01*
X260920Y127623D01*
X260854Y127621D01*
X260811Y127603D01*
X260764Y127595D01*
X260707Y127561D01*
X260647Y127536D01*
X260612Y127505D01*
X260571Y127480D01*
X260530Y127429D01*
X260481Y127385D01*
X260459Y127343D01*
X260430Y127306D01*
X260409Y127244D01*
X260378Y127185D01*
X260370Y127131D01*
X260358Y127094D01*
X260358Y127091D01*
X260359Y127054D01*
X260351Y127000D01*
X260351Y124460D01*
X260362Y124395D01*
X260364Y124329D01*
X260382Y124286D01*
X260390Y124239D01*
X260424Y124182D01*
X260449Y124122D01*
X260480Y124087D01*
X260505Y124046D01*
X260556Y124005D01*
X260600Y123956D01*
X260642Y123934D01*
X260679Y123905D01*
X260741Y123884D01*
X260800Y123853D01*
X260854Y123845D01*
X260891Y123833D01*
X260931Y123834D01*
X260985Y123826D01*
X264795Y123826D01*
X264860Y123837D01*
G37*
G36*
X739840Y95897D02*
X739840Y95897D01*
X739906Y95899D01*
X739949Y95917D01*
X739996Y95925D01*
X740053Y95959D01*
X740113Y95984D01*
X740148Y96015D01*
X740189Y96040D01*
X740231Y96091D01*
X740279Y96135D01*
X740301Y96177D01*
X740330Y96214D01*
X740351Y96276D01*
X740382Y96335D01*
X740390Y96389D01*
X740402Y96426D01*
X740401Y96466D01*
X740409Y96520D01*
X740409Y99060D01*
X740398Y99125D01*
X740396Y99191D01*
X740378Y99234D01*
X740370Y99281D01*
X740336Y99338D01*
X740311Y99398D01*
X740280Y99433D01*
X740255Y99474D01*
X740204Y99516D01*
X740160Y99564D01*
X740118Y99586D01*
X740081Y99615D01*
X740019Y99636D01*
X739960Y99667D01*
X739906Y99675D01*
X739869Y99687D01*
X739829Y99686D01*
X739775Y99694D01*
X735965Y99694D01*
X735900Y99683D01*
X735834Y99681D01*
X735791Y99663D01*
X735744Y99655D01*
X735687Y99621D01*
X735627Y99596D01*
X735592Y99565D01*
X735551Y99540D01*
X735510Y99489D01*
X735461Y99445D01*
X735439Y99403D01*
X735410Y99366D01*
X735389Y99304D01*
X735358Y99245D01*
X735350Y99191D01*
X735338Y99154D01*
X735338Y99151D01*
X735339Y99114D01*
X735331Y99060D01*
X735331Y96520D01*
X735342Y96455D01*
X735344Y96389D01*
X735362Y96346D01*
X735370Y96299D01*
X735404Y96242D01*
X735429Y96182D01*
X735460Y96147D01*
X735485Y96106D01*
X735536Y96065D01*
X735580Y96016D01*
X735622Y95994D01*
X735659Y95965D01*
X735721Y95944D01*
X735780Y95913D01*
X735834Y95905D01*
X735871Y95893D01*
X735911Y95894D01*
X735965Y95886D01*
X739775Y95886D01*
X739840Y95897D01*
G37*
G36*
X264860Y95897D02*
X264860Y95897D01*
X264926Y95899D01*
X264969Y95917D01*
X265016Y95925D01*
X265073Y95959D01*
X265133Y95984D01*
X265168Y96015D01*
X265209Y96040D01*
X265251Y96091D01*
X265299Y96135D01*
X265321Y96177D01*
X265350Y96214D01*
X265371Y96276D01*
X265402Y96335D01*
X265410Y96389D01*
X265422Y96426D01*
X265421Y96466D01*
X265429Y96520D01*
X265429Y99060D01*
X265418Y99125D01*
X265416Y99191D01*
X265398Y99234D01*
X265390Y99281D01*
X265356Y99338D01*
X265331Y99398D01*
X265300Y99433D01*
X265275Y99474D01*
X265224Y99516D01*
X265180Y99564D01*
X265138Y99586D01*
X265101Y99615D01*
X265039Y99636D01*
X264980Y99667D01*
X264926Y99675D01*
X264889Y99687D01*
X264849Y99686D01*
X264795Y99694D01*
X260985Y99694D01*
X260920Y99683D01*
X260854Y99681D01*
X260811Y99663D01*
X260764Y99655D01*
X260707Y99621D01*
X260647Y99596D01*
X260612Y99565D01*
X260571Y99540D01*
X260530Y99489D01*
X260481Y99445D01*
X260459Y99403D01*
X260430Y99366D01*
X260409Y99304D01*
X260378Y99245D01*
X260370Y99191D01*
X260358Y99154D01*
X260358Y99151D01*
X260359Y99114D01*
X260351Y99060D01*
X260351Y96520D01*
X260362Y96455D01*
X260364Y96389D01*
X260382Y96346D01*
X260390Y96299D01*
X260424Y96242D01*
X260449Y96182D01*
X260480Y96147D01*
X260505Y96106D01*
X260556Y96065D01*
X260600Y96016D01*
X260642Y95994D01*
X260679Y95965D01*
X260741Y95944D01*
X260800Y95913D01*
X260854Y95905D01*
X260891Y95893D01*
X260931Y95894D01*
X260985Y95886D01*
X264795Y95886D01*
X264860Y95897D01*
G37*
D10*
X49050Y155900D03*
X49050Y98100D03*
D11*
X301640Y40190D03*
X408640Y214190D03*
D12*
X417460Y98700D03*
X355960Y37200D03*
D13*
X25400Y25400D03*
X25400Y228600D03*
D14*
X190500Y12700D03*
X165100Y12700D03*
X139700Y12700D03*
X114300Y12700D03*
X88900Y12700D03*
X63500Y12700D03*
D15*
X265293Y103642D02*
X270901Y103642D01*
X270901Y91938D01*
X265293Y91938D01*
X265293Y103642D01*
X265293Y94332D02*
X270901Y94332D01*
X270901Y96726D02*
X265293Y96726D01*
X265293Y99120D02*
X270901Y99120D01*
X270901Y101514D02*
X265293Y101514D01*
X260487Y103642D02*
X254879Y103642D01*
X260487Y103642D02*
X260487Y91938D01*
X254879Y91938D01*
X254879Y103642D01*
X254879Y94332D02*
X260487Y94332D01*
X260487Y96726D02*
X254879Y96726D01*
X254879Y99120D02*
X260487Y99120D01*
X260487Y101514D02*
X254879Y101514D01*
D16*
X431800Y25400D03*
X50800Y241300D03*
D15*
X265293Y131582D02*
X270901Y131582D01*
X270901Y119878D01*
X265293Y119878D01*
X265293Y131582D01*
X265293Y122272D02*
X270901Y122272D01*
X270901Y124666D02*
X265293Y124666D01*
X265293Y127060D02*
X270901Y127060D01*
X270901Y129454D02*
X265293Y129454D01*
X260487Y131582D02*
X254879Y131582D01*
X260487Y131582D02*
X260487Y119878D01*
X254879Y119878D01*
X254879Y131582D01*
X254879Y122272D02*
X260487Y122272D01*
X260487Y124666D02*
X254879Y124666D01*
X254879Y127060D02*
X260487Y127060D01*
X260487Y129454D02*
X254879Y129454D01*
X70348Y205603D02*
X70348Y211211D01*
X82052Y211211D01*
X82052Y205603D01*
X70348Y205603D01*
X70348Y207997D02*
X82052Y207997D01*
X82052Y210391D02*
X70348Y210391D01*
X70348Y200797D02*
X70348Y195189D01*
X70348Y200797D02*
X82052Y200797D01*
X82052Y195189D01*
X70348Y195189D01*
X70348Y197583D02*
X82052Y197583D01*
X82052Y199977D02*
X70348Y199977D01*
D10*
X524030Y155900D03*
X524030Y98100D03*
D11*
X776620Y40190D03*
X883620Y214190D03*
D12*
X892440Y98700D03*
X830940Y37200D03*
D13*
X500380Y25400D03*
X500380Y228600D03*
D14*
X665480Y12700D03*
X640080Y12700D03*
X614680Y12700D03*
X589280Y12700D03*
X563880Y12700D03*
X538480Y12700D03*
D15*
X740273Y103642D02*
X745881Y103642D01*
X745881Y91938D01*
X740273Y91938D01*
X740273Y103642D01*
X740273Y94332D02*
X745881Y94332D01*
X745881Y96726D02*
X740273Y96726D01*
X740273Y99120D02*
X745881Y99120D01*
X745881Y101514D02*
X740273Y101514D01*
X735467Y103642D02*
X729859Y103642D01*
X735467Y103642D02*
X735467Y91938D01*
X729859Y91938D01*
X729859Y103642D01*
X729859Y94332D02*
X735467Y94332D01*
X735467Y96726D02*
X729859Y96726D01*
X729859Y99120D02*
X735467Y99120D01*
X735467Y101514D02*
X729859Y101514D01*
D16*
X906780Y25400D03*
X525780Y241300D03*
D15*
X740273Y131582D02*
X745881Y131582D01*
X745881Y119878D01*
X740273Y119878D01*
X740273Y131582D01*
X740273Y122272D02*
X745881Y122272D01*
X745881Y124666D02*
X740273Y124666D01*
X740273Y127060D02*
X745881Y127060D01*
X745881Y129454D02*
X740273Y129454D01*
X735467Y131582D02*
X729859Y131582D01*
X735467Y131582D02*
X735467Y119878D01*
X729859Y119878D01*
X729859Y131582D01*
X729859Y122272D02*
X735467Y122272D01*
X735467Y124666D02*
X729859Y124666D01*
X729859Y127060D02*
X735467Y127060D01*
X735467Y129454D02*
X729859Y129454D01*
X545328Y205603D02*
X545328Y211211D01*
X557032Y211211D01*
X557032Y205603D01*
X545328Y205603D01*
X545328Y207997D02*
X557032Y207997D01*
X557032Y210391D02*
X545328Y210391D01*
X545328Y200797D02*
X545328Y195189D01*
X545328Y200797D02*
X557032Y200797D01*
X557032Y195189D01*
X545328Y195189D01*
X545328Y197583D02*
X557032Y197583D01*
X557032Y199977D02*
X545328Y199977D01*
D10*
X49050Y414980D03*
X49050Y357180D03*
D11*
X301640Y299270D03*
X408640Y473270D03*
D12*
X417460Y357780D03*
X355960Y296280D03*
D13*
X25400Y284480D03*
X25400Y487680D03*
D14*
X190500Y271780D03*
X165100Y271780D03*
X139700Y271780D03*
X114300Y271780D03*
X88900Y271780D03*
X63500Y271780D03*
D15*
X265293Y362722D02*
X270901Y362722D01*
X270901Y351018D01*
X265293Y351018D01*
X265293Y362722D01*
X265293Y353412D02*
X270901Y353412D01*
X270901Y355806D02*
X265293Y355806D01*
X265293Y358200D02*
X270901Y358200D01*
X270901Y360594D02*
X265293Y360594D01*
X260487Y362722D02*
X254879Y362722D01*
X260487Y362722D02*
X260487Y351018D01*
X254879Y351018D01*
X254879Y362722D01*
X254879Y353412D02*
X260487Y353412D01*
X260487Y355806D02*
X254879Y355806D01*
X254879Y358200D02*
X260487Y358200D01*
X260487Y360594D02*
X254879Y360594D01*
D16*
X431800Y284480D03*
X50800Y500380D03*
D15*
X265293Y390662D02*
X270901Y390662D01*
X270901Y378958D01*
X265293Y378958D01*
X265293Y390662D01*
X265293Y381352D02*
X270901Y381352D01*
X270901Y383746D02*
X265293Y383746D01*
X265293Y386140D02*
X270901Y386140D01*
X270901Y388534D02*
X265293Y388534D01*
X260487Y390662D02*
X254879Y390662D01*
X260487Y390662D02*
X260487Y378958D01*
X254879Y378958D01*
X254879Y390662D01*
X254879Y381352D02*
X260487Y381352D01*
X260487Y383746D02*
X254879Y383746D01*
X254879Y386140D02*
X260487Y386140D01*
X260487Y388534D02*
X254879Y388534D01*
X70348Y464683D02*
X70348Y470291D01*
X82052Y470291D01*
X82052Y464683D01*
X70348Y464683D01*
X70348Y467077D02*
X82052Y467077D01*
X82052Y469471D02*
X70348Y469471D01*
X70348Y459877D02*
X70348Y454269D01*
X70348Y459877D02*
X82052Y459877D01*
X82052Y454269D01*
X70348Y454269D01*
X70348Y456663D02*
X82052Y456663D01*
X82052Y459057D02*
X70348Y459057D01*
D10*
X524030Y414980D03*
X524030Y357180D03*
D11*
X776620Y299270D03*
X883620Y473270D03*
D12*
X892440Y357780D03*
X830940Y296280D03*
D13*
X500380Y284480D03*
X500380Y487680D03*
D14*
X665480Y271780D03*
X640080Y271780D03*
X614680Y271780D03*
X589280Y271780D03*
X563880Y271780D03*
X538480Y271780D03*
D15*
X740273Y362722D02*
X745881Y362722D01*
X745881Y351018D01*
X740273Y351018D01*
X740273Y362722D01*
X740273Y353412D02*
X745881Y353412D01*
X745881Y355806D02*
X740273Y355806D01*
X740273Y358200D02*
X745881Y358200D01*
X745881Y360594D02*
X740273Y360594D01*
X735467Y362722D02*
X729859Y362722D01*
X735467Y362722D02*
X735467Y351018D01*
X729859Y351018D01*
X729859Y362722D01*
X729859Y353412D02*
X735467Y353412D01*
X735467Y355806D02*
X729859Y355806D01*
X729859Y358200D02*
X735467Y358200D01*
X735467Y360594D02*
X729859Y360594D01*
D16*
X906780Y284480D03*
X525780Y500380D03*
D15*
X740273Y390662D02*
X745881Y390662D01*
X745881Y378958D01*
X740273Y378958D01*
X740273Y390662D01*
X740273Y381352D02*
X745881Y381352D01*
X745881Y383746D02*
X740273Y383746D01*
X740273Y386140D02*
X745881Y386140D01*
X745881Y388534D02*
X740273Y388534D01*
X735467Y390662D02*
X729859Y390662D01*
X735467Y390662D02*
X735467Y378958D01*
X729859Y378958D01*
X729859Y390662D01*
X729859Y381352D02*
X735467Y381352D01*
X735467Y383746D02*
X729859Y383746D01*
X729859Y386140D02*
X735467Y386140D01*
X735467Y388534D02*
X729859Y388534D01*
X545328Y464683D02*
X545328Y470291D01*
X557032Y470291D01*
X557032Y464683D01*
X545328Y464683D01*
X545328Y467077D02*
X557032Y467077D01*
X557032Y469471D02*
X545328Y469471D01*
X545328Y459877D02*
X545328Y454269D01*
X545328Y459877D02*
X557032Y459877D01*
X557032Y454269D01*
X545328Y454269D01*
X545328Y456663D02*
X557032Y456663D01*
X557032Y459057D02*
X545328Y459057D01*
D10*
X49050Y674060D03*
X49050Y616260D03*
D11*
X301640Y558350D03*
X408640Y732350D03*
D12*
X417460Y616860D03*
X355960Y555360D03*
D13*
X25400Y543560D03*
X25400Y746760D03*
D14*
X190500Y530860D03*
X165100Y530860D03*
X139700Y530860D03*
X114300Y530860D03*
X88900Y530860D03*
X63500Y530860D03*
D15*
X265293Y621802D02*
X270901Y621802D01*
X270901Y610098D01*
X265293Y610098D01*
X265293Y621802D01*
X265293Y612492D02*
X270901Y612492D01*
X270901Y614886D02*
X265293Y614886D01*
X265293Y617280D02*
X270901Y617280D01*
X270901Y619674D02*
X265293Y619674D01*
X260487Y621802D02*
X254879Y621802D01*
X260487Y621802D02*
X260487Y610098D01*
X254879Y610098D01*
X254879Y621802D01*
X254879Y612492D02*
X260487Y612492D01*
X260487Y614886D02*
X254879Y614886D01*
X254879Y617280D02*
X260487Y617280D01*
X260487Y619674D02*
X254879Y619674D01*
D16*
X431800Y543560D03*
X50800Y759460D03*
D15*
X265293Y649742D02*
X270901Y649742D01*
X270901Y638038D01*
X265293Y638038D01*
X265293Y649742D01*
X265293Y640432D02*
X270901Y640432D01*
X270901Y642826D02*
X265293Y642826D01*
X265293Y645220D02*
X270901Y645220D01*
X270901Y647614D02*
X265293Y647614D01*
X260487Y649742D02*
X254879Y649742D01*
X260487Y649742D02*
X260487Y638038D01*
X254879Y638038D01*
X254879Y649742D01*
X254879Y640432D02*
X260487Y640432D01*
X260487Y642826D02*
X254879Y642826D01*
X254879Y645220D02*
X260487Y645220D01*
X260487Y647614D02*
X254879Y647614D01*
X70348Y723763D02*
X70348Y729371D01*
X82052Y729371D01*
X82052Y723763D01*
X70348Y723763D01*
X70348Y726157D02*
X82052Y726157D01*
X82052Y728551D02*
X70348Y728551D01*
X70348Y718957D02*
X70348Y713349D01*
X70348Y718957D02*
X82052Y718957D01*
X82052Y713349D01*
X70348Y713349D01*
X70348Y715743D02*
X82052Y715743D01*
X82052Y718137D02*
X70348Y718137D01*
D10*
X524030Y674060D03*
X524030Y616260D03*
D11*
X776620Y558350D03*
X883620Y732350D03*
D12*
X892440Y616860D03*
X830940Y555360D03*
D13*
X500380Y543560D03*
X500380Y746760D03*
D14*
X665480Y530860D03*
X640080Y530860D03*
X614680Y530860D03*
X589280Y530860D03*
X563880Y530860D03*
X538480Y530860D03*
D15*
X740273Y621802D02*
X745881Y621802D01*
X745881Y610098D01*
X740273Y610098D01*
X740273Y621802D01*
X740273Y612492D02*
X745881Y612492D01*
X745881Y614886D02*
X740273Y614886D01*
X740273Y617280D02*
X745881Y617280D01*
X745881Y619674D02*
X740273Y619674D01*
X735467Y621802D02*
X729859Y621802D01*
X735467Y621802D02*
X735467Y610098D01*
X729859Y610098D01*
X729859Y621802D01*
X729859Y612492D02*
X735467Y612492D01*
X735467Y614886D02*
X729859Y614886D01*
X729859Y617280D02*
X735467Y617280D01*
X735467Y619674D02*
X729859Y619674D01*
D16*
X906780Y543560D03*
X525780Y759460D03*
D15*
X740273Y649742D02*
X745881Y649742D01*
X745881Y638038D01*
X740273Y638038D01*
X740273Y649742D01*
X740273Y640432D02*
X745881Y640432D01*
X745881Y642826D02*
X740273Y642826D01*
X740273Y645220D02*
X745881Y645220D01*
X745881Y647614D02*
X740273Y647614D01*
X735467Y649742D02*
X729859Y649742D01*
X735467Y649742D02*
X735467Y638038D01*
X729859Y638038D01*
X729859Y649742D01*
X729859Y640432D02*
X735467Y640432D01*
X735467Y642826D02*
X729859Y642826D01*
X729859Y645220D02*
X735467Y645220D01*
X735467Y647614D02*
X729859Y647614D01*
X545328Y723763D02*
X545328Y729371D01*
X557032Y729371D01*
X557032Y723763D01*
X545328Y723763D01*
X545328Y726157D02*
X557032Y726157D01*
X557032Y728551D02*
X545328Y728551D01*
X545328Y718957D02*
X545328Y713349D01*
X545328Y718957D02*
X557032Y718957D01*
X557032Y713349D01*
X545328Y713349D01*
X545328Y715743D02*
X557032Y715743D01*
X557032Y718137D02*
X545328Y718137D01*
D10*
X49050Y933140D03*
X49050Y875340D03*
D11*
X301640Y817430D03*
X408640Y991430D03*
D12*
X417460Y875940D03*
X355960Y814440D03*
D13*
X25400Y802640D03*
X25400Y1005840D03*
D14*
X190500Y789940D03*
X165100Y789940D03*
X139700Y789940D03*
X114300Y789940D03*
X88900Y789940D03*
X63500Y789940D03*
D15*
X265293Y880882D02*
X270901Y880882D01*
X270901Y869178D01*
X265293Y869178D01*
X265293Y880882D01*
X265293Y871572D02*
X270901Y871572D01*
X270901Y873966D02*
X265293Y873966D01*
X265293Y876360D02*
X270901Y876360D01*
X270901Y878754D02*
X265293Y878754D01*
X260487Y880882D02*
X254879Y880882D01*
X260487Y880882D02*
X260487Y869178D01*
X254879Y869178D01*
X254879Y880882D01*
X254879Y871572D02*
X260487Y871572D01*
X260487Y873966D02*
X254879Y873966D01*
X254879Y876360D02*
X260487Y876360D01*
X260487Y878754D02*
X254879Y878754D01*
D16*
X431800Y802640D03*
X50800Y1018540D03*
D15*
X265293Y908822D02*
X270901Y908822D01*
X270901Y897118D01*
X265293Y897118D01*
X265293Y908822D01*
X265293Y899512D02*
X270901Y899512D01*
X270901Y901906D02*
X265293Y901906D01*
X265293Y904300D02*
X270901Y904300D01*
X270901Y906694D02*
X265293Y906694D01*
X260487Y908822D02*
X254879Y908822D01*
X260487Y908822D02*
X260487Y897118D01*
X254879Y897118D01*
X254879Y908822D01*
X254879Y899512D02*
X260487Y899512D01*
X260487Y901906D02*
X254879Y901906D01*
X254879Y904300D02*
X260487Y904300D01*
X260487Y906694D02*
X254879Y906694D01*
X70348Y982843D02*
X70348Y988451D01*
X82052Y988451D01*
X82052Y982843D01*
X70348Y982843D01*
X70348Y985237D02*
X82052Y985237D01*
X82052Y987631D02*
X70348Y987631D01*
X70348Y978037D02*
X70348Y972429D01*
X70348Y978037D02*
X82052Y978037D01*
X82052Y972429D01*
X70348Y972429D01*
X70348Y974823D02*
X82052Y974823D01*
X82052Y977217D02*
X70348Y977217D01*
D10*
X524030Y933140D03*
X524030Y875340D03*
D11*
X776620Y817430D03*
X883620Y991430D03*
D12*
X892440Y875940D03*
X830940Y814440D03*
D13*
X500380Y802640D03*
X500380Y1005840D03*
D14*
X665480Y789940D03*
X640080Y789940D03*
X614680Y789940D03*
X589280Y789940D03*
X563880Y789940D03*
X538480Y789940D03*
D15*
X740273Y880882D02*
X745881Y880882D01*
X745881Y869178D01*
X740273Y869178D01*
X740273Y880882D01*
X740273Y871572D02*
X745881Y871572D01*
X745881Y873966D02*
X740273Y873966D01*
X740273Y876360D02*
X745881Y876360D01*
X745881Y878754D02*
X740273Y878754D01*
X735467Y880882D02*
X729859Y880882D01*
X735467Y880882D02*
X735467Y869178D01*
X729859Y869178D01*
X729859Y880882D01*
X729859Y871572D02*
X735467Y871572D01*
X735467Y873966D02*
X729859Y873966D01*
X729859Y876360D02*
X735467Y876360D01*
X735467Y878754D02*
X729859Y878754D01*
D16*
X906780Y802640D03*
X525780Y1018540D03*
D15*
X740273Y908822D02*
X745881Y908822D01*
X745881Y897118D01*
X740273Y897118D01*
X740273Y908822D01*
X740273Y899512D02*
X745881Y899512D01*
X745881Y901906D02*
X740273Y901906D01*
X740273Y904300D02*
X745881Y904300D01*
X745881Y906694D02*
X740273Y906694D01*
X735467Y908822D02*
X729859Y908822D01*
X735467Y908822D02*
X735467Y897118D01*
X729859Y897118D01*
X729859Y908822D01*
X729859Y899512D02*
X735467Y899512D01*
X735467Y901906D02*
X729859Y901906D01*
X729859Y904300D02*
X735467Y904300D01*
X735467Y906694D02*
X729859Y906694D01*
X545328Y982843D02*
X545328Y988451D01*
X557032Y988451D01*
X557032Y982843D01*
X545328Y982843D01*
X545328Y985237D02*
X557032Y985237D01*
X557032Y987631D02*
X545328Y987631D01*
X545328Y978037D02*
X545328Y972429D01*
X545328Y978037D02*
X557032Y978037D01*
X557032Y972429D01*
X545328Y972429D01*
X545328Y974823D02*
X557032Y974823D01*
X557032Y977217D02*
X545328Y977217D01*
D17*
X-51638Y1004570D03*
X971118Y1004570D03*
D18*
X-60693Y63500D02*
X-60690Y63722D01*
X-60682Y63944D01*
X-60668Y64166D01*
X-60649Y64388D01*
X-60625Y64608D01*
X-60595Y64829D01*
X-60560Y65048D01*
X-60519Y65267D01*
X-60473Y65484D01*
X-60422Y65700D01*
X-60365Y65915D01*
X-60303Y66129D01*
X-60236Y66340D01*
X-60164Y66551D01*
X-60086Y66759D01*
X-60004Y66965D01*
X-59916Y67169D01*
X-59824Y67372D01*
X-59726Y67571D01*
X-59624Y67768D01*
X-59517Y67963D01*
X-59405Y68155D01*
X-59288Y68344D01*
X-59167Y68531D01*
X-59041Y68714D01*
X-58911Y68894D01*
X-58776Y69071D01*
X-58638Y69244D01*
X-58495Y69414D01*
X-58347Y69581D01*
X-58196Y69744D01*
X-58041Y69903D01*
X-57882Y70058D01*
X-57719Y70209D01*
X-57552Y70357D01*
X-57382Y70500D01*
X-57209Y70638D01*
X-57032Y70773D01*
X-56852Y70903D01*
X-56669Y71029D01*
X-56482Y71150D01*
X-56293Y71267D01*
X-56101Y71379D01*
X-55906Y71486D01*
X-55709Y71588D01*
X-55510Y71686D01*
X-55307Y71778D01*
X-55103Y71866D01*
X-54897Y71948D01*
X-54689Y72026D01*
X-54478Y72098D01*
X-54267Y72165D01*
X-54053Y72227D01*
X-53838Y72284D01*
X-53622Y72335D01*
X-53405Y72381D01*
X-53186Y72422D01*
X-52967Y72457D01*
X-52746Y72487D01*
X-52526Y72511D01*
X-52304Y72530D01*
X-52082Y72544D01*
X-51860Y72552D01*
X-51638Y72555D01*
X-51416Y72552D01*
X-51194Y72544D01*
X-50972Y72530D01*
X-50750Y72511D01*
X-50530Y72487D01*
X-50309Y72457D01*
X-50090Y72422D01*
X-49871Y72381D01*
X-49654Y72335D01*
X-49438Y72284D01*
X-49223Y72227D01*
X-49009Y72165D01*
X-48798Y72098D01*
X-48587Y72026D01*
X-48379Y71948D01*
X-48173Y71866D01*
X-47969Y71778D01*
X-47766Y71686D01*
X-47567Y71588D01*
X-47370Y71486D01*
X-47175Y71379D01*
X-46983Y71267D01*
X-46794Y71150D01*
X-46607Y71029D01*
X-46424Y70903D01*
X-46244Y70773D01*
X-46067Y70638D01*
X-45894Y70500D01*
X-45724Y70357D01*
X-45557Y70209D01*
X-45394Y70058D01*
X-45235Y69903D01*
X-45080Y69744D01*
X-44929Y69581D01*
X-44781Y69414D01*
X-44638Y69244D01*
X-44500Y69071D01*
X-44365Y68894D01*
X-44235Y68714D01*
X-44109Y68531D01*
X-43988Y68344D01*
X-43871Y68155D01*
X-43759Y67963D01*
X-43652Y67768D01*
X-43550Y67571D01*
X-43452Y67372D01*
X-43360Y67169D01*
X-43272Y66965D01*
X-43190Y66759D01*
X-43112Y66551D01*
X-43040Y66340D01*
X-42973Y66129D01*
X-42911Y65915D01*
X-42854Y65700D01*
X-42803Y65484D01*
X-42757Y65267D01*
X-42716Y65048D01*
X-42681Y64829D01*
X-42651Y64608D01*
X-42627Y64388D01*
X-42608Y64166D01*
X-42594Y63944D01*
X-42586Y63722D01*
X-42583Y63500D01*
X-42586Y63278D01*
X-42594Y63056D01*
X-42608Y62834D01*
X-42627Y62612D01*
X-42651Y62392D01*
X-42681Y62171D01*
X-42716Y61952D01*
X-42757Y61733D01*
X-42803Y61516D01*
X-42854Y61300D01*
X-42911Y61085D01*
X-42973Y60871D01*
X-43040Y60660D01*
X-43112Y60449D01*
X-43190Y60241D01*
X-43272Y60035D01*
X-43360Y59831D01*
X-43452Y59628D01*
X-43550Y59429D01*
X-43652Y59232D01*
X-43759Y59037D01*
X-43871Y58845D01*
X-43988Y58656D01*
X-44109Y58469D01*
X-44235Y58286D01*
X-44365Y58106D01*
X-44500Y57929D01*
X-44638Y57756D01*
X-44781Y57586D01*
X-44929Y57419D01*
X-45080Y57256D01*
X-45235Y57097D01*
X-45394Y56942D01*
X-45557Y56791D01*
X-45724Y56643D01*
X-45894Y56500D01*
X-46067Y56362D01*
X-46244Y56227D01*
X-46424Y56097D01*
X-46607Y55971D01*
X-46794Y55850D01*
X-46983Y55733D01*
X-47175Y55621D01*
X-47370Y55514D01*
X-47567Y55412D01*
X-47766Y55314D01*
X-47969Y55222D01*
X-48173Y55134D01*
X-48379Y55052D01*
X-48587Y54974D01*
X-48798Y54902D01*
X-49009Y54835D01*
X-49223Y54773D01*
X-49438Y54716D01*
X-49654Y54665D01*
X-49871Y54619D01*
X-50090Y54578D01*
X-50309Y54543D01*
X-50530Y54513D01*
X-50750Y54489D01*
X-50972Y54470D01*
X-51194Y54456D01*
X-51416Y54448D01*
X-51638Y54445D01*
X-51860Y54448D01*
X-52082Y54456D01*
X-52304Y54470D01*
X-52526Y54489D01*
X-52746Y54513D01*
X-52967Y54543D01*
X-53186Y54578D01*
X-53405Y54619D01*
X-53622Y54665D01*
X-53838Y54716D01*
X-54053Y54773D01*
X-54267Y54835D01*
X-54478Y54902D01*
X-54689Y54974D01*
X-54897Y55052D01*
X-55103Y55134D01*
X-55307Y55222D01*
X-55510Y55314D01*
X-55709Y55412D01*
X-55906Y55514D01*
X-56101Y55621D01*
X-56293Y55733D01*
X-56482Y55850D01*
X-56669Y55971D01*
X-56852Y56097D01*
X-57032Y56227D01*
X-57209Y56362D01*
X-57382Y56500D01*
X-57552Y56643D01*
X-57719Y56791D01*
X-57882Y56942D01*
X-58041Y57097D01*
X-58196Y57256D01*
X-58347Y57419D01*
X-58495Y57586D01*
X-58638Y57756D01*
X-58776Y57929D01*
X-58911Y58106D01*
X-59041Y58286D01*
X-59167Y58469D01*
X-59288Y58656D01*
X-59405Y58845D01*
X-59517Y59037D01*
X-59624Y59232D01*
X-59726Y59429D01*
X-59824Y59628D01*
X-59916Y59831D01*
X-60004Y60035D01*
X-60086Y60241D01*
X-60164Y60449D01*
X-60236Y60660D01*
X-60303Y60871D01*
X-60365Y61085D01*
X-60422Y61300D01*
X-60473Y61516D01*
X-60519Y61733D01*
X-60560Y61952D01*
X-60595Y62171D01*
X-60625Y62392D01*
X-60649Y62612D01*
X-60668Y62834D01*
X-60682Y63056D01*
X-60690Y63278D01*
X-60693Y63500D01*
D19*
X-51638Y63500D03*
M02*
